M48
;Layer_Color=9474304
;FILE_FORMAT=2:3
INCH,LZ
;TYPE=PLATED
T1F00S00C0.028
T2F00S00C0.036
T3F00S00C0.056
T4F00S00C0.130
%
T01
X0269Y0457
X0363Y0453
X0429Y0461
X0434Y0466
X0448Y0457
X0454Y0453
X048Y0485
X0486Y0596
X0496Y0591
X0455Y0604
X0447Y06
X0424Y0576
X0402Y0581
X0396Y0586
X0391Y0604
X0341Y0562
X0338Y0471
X0355Y0476
X0318Y0487
X0412Y0489
X0264Y0486
X0258Y0481
X02475Y05535
X0301Y0576
X0308Y0571
X0297Y0602
T02
X0248Y044
X0258
X0268
X0278
X0288
X0298
X0308
X0318
X0342
X0352
X0362
X0372
X0382
X0392
X0402
X0412
X0436
X0446
X0456
X0466
X0476
X0486
X0496
X0506
X0485Y0505
Y0515
Y0525
Y0535
Y0545
Y0555
X0486Y062
X0496
X0506
X0476
X0466
X0456
X0446
X0436
X0412
X0402
X0392
X0382
X0372
X0362
X0352
X0342
X0318
X0401Y0553
Y0543
Y0533
Y0523
Y0513
X0308Y062
X0298
X0288
X0278
X0268
X0258
X0248
T03
X02065Y0453
Y0467
X052Y0474
Y0488
Y0502
Y0516
Y053
Y0544
Y0558
Y0572
Y0586
X02065Y0579
Y0565
Y0551
Y0537
Y0523
Y0509
Y0495
Y0481
Y0593
Y0607
T04
X023Y0445
X0525
Y0615
X023
M30
