G04 Layer_Color=8388736*
%FSLAX23Y23*%
%MOIN*%
G70*
G01*
G75*
%ADD11R,0.046X0.069*%
%ADD12R,0.044X0.063*%
%ADD26R,0.030X0.064*%
%ADD27C,0.067*%
%ADD28R,0.067X0.067*%
%ADD29R,0.067X0.067*%
%ADD30C,0.106*%
%ADD31C,0.188*%
%ADD32C,0.108*%
%ADD33C,0.058*%
D11*
X3839Y6065D02*
D03*
X3721D02*
D03*
X4689Y5350D02*
D03*
X4571D02*
D03*
X4689Y5450D02*
D03*
X4571D02*
D03*
X4779Y6065D02*
D03*
X4661D02*
D03*
X4689Y5550D02*
D03*
X4571D02*
D03*
X4689Y5050D02*
D03*
X4571D02*
D03*
X4651Y4550D02*
D03*
X4769D02*
D03*
X4689Y5150D02*
D03*
X4571D02*
D03*
X3711Y4550D02*
D03*
X3829D02*
D03*
X4689Y5250D02*
D03*
X4571D02*
D03*
X2761Y4550D02*
D03*
X2879D02*
D03*
X2900Y6075D02*
D03*
X2782D02*
D03*
D12*
X3180Y4510D02*
D03*
X3070D02*
D03*
X4950Y4530D02*
D03*
X5060D02*
D03*
X2475Y6080D02*
D03*
X2585D02*
D03*
X4475Y6090D02*
D03*
X4365D02*
D03*
X3525Y6070D02*
D03*
X3415D02*
D03*
X4010Y4520D02*
D03*
X4120D02*
D03*
D26*
X2840Y5905D02*
D03*
X2803Y5981D02*
D03*
X2878D02*
D03*
X3780Y5897D02*
D03*
X3743Y5973D02*
D03*
X3818D02*
D03*
X4722Y5899D02*
D03*
X4685Y5975D02*
D03*
X4760D02*
D03*
X2812Y4726D02*
D03*
X2850Y4650D02*
D03*
X2775D02*
D03*
X4710Y4728D02*
D03*
X4747Y4652D02*
D03*
X4673D02*
D03*
X3770Y4728D02*
D03*
X3807Y4652D02*
D03*
X3733D02*
D03*
D27*
X4010Y5530D02*
D03*
Y5430D02*
D03*
Y5330D02*
D03*
Y5230D02*
D03*
X5060Y6200D02*
D03*
X4960D02*
D03*
X4860D02*
D03*
X4760D02*
D03*
X4660D02*
D03*
X4560D02*
D03*
X4460D02*
D03*
X4120D02*
D03*
X4020D02*
D03*
X3920D02*
D03*
X3820D02*
D03*
X3720D02*
D03*
X3620D02*
D03*
X3520D02*
D03*
X3180D02*
D03*
X3080D02*
D03*
X2980D02*
D03*
X2880D02*
D03*
X2780D02*
D03*
X2680D02*
D03*
X2580D02*
D03*
X2480Y4400D02*
D03*
X2580D02*
D03*
X2680D02*
D03*
X2780D02*
D03*
X2880D02*
D03*
X2980D02*
D03*
X3080D02*
D03*
X4360D02*
D03*
X4460D02*
D03*
X4560D02*
D03*
X4660D02*
D03*
X4760D02*
D03*
X4860D02*
D03*
X4960D02*
D03*
X4850Y5150D02*
D03*
Y5250D02*
D03*
Y5350D02*
D03*
Y5450D02*
D03*
Y5550D02*
D03*
X3420Y4400D02*
D03*
X3520D02*
D03*
X3620D02*
D03*
X3720D02*
D03*
X3820D02*
D03*
X3920D02*
D03*
X4020D02*
D03*
D28*
X4010Y5130D02*
D03*
X4850Y5050D02*
D03*
D29*
X4360Y6200D02*
D03*
X3420D02*
D03*
X2480D02*
D03*
X3180Y4400D02*
D03*
X5060D02*
D03*
X4120D02*
D03*
D30*
X2065Y5230D02*
D03*
Y5090D02*
D03*
Y4950D02*
D03*
Y4810D02*
D03*
Y4670D02*
D03*
Y4530D02*
D03*
Y5370D02*
D03*
Y5510D02*
D03*
Y5650D02*
D03*
Y5790D02*
D03*
Y5930D02*
D03*
Y6070D02*
D03*
D31*
X5250Y6150D02*
D03*
Y4450D02*
D03*
X2300D02*
D03*
Y6150D02*
D03*
D32*
X5200Y4740D02*
D03*
Y4880D02*
D03*
Y5020D02*
D03*
Y5160D02*
D03*
Y5300D02*
D03*
Y5440D02*
D03*
Y5860D02*
D03*
Y5720D02*
D03*
Y5580D02*
D03*
D33*
X3410Y5620D02*
D03*
X2475Y5535D02*
D03*
X3180Y4870D02*
D03*
X4120Y4890D02*
D03*
X4240Y5760D02*
D03*
X4290Y4610D02*
D03*
X2640Y4860D02*
D03*
X2580Y4810D02*
D03*
X3550Y4760D02*
D03*
X3010Y5760D02*
D03*
X3080Y5710D02*
D03*
X3960Y5860D02*
D03*
X4020Y5810D02*
D03*
X3910Y6040D02*
D03*
X2970Y6020D02*
D03*
X4960Y5910D02*
D03*
X4800Y4850D02*
D03*
X4550Y6040D02*
D03*
X2690Y4570D02*
D03*
X3380Y4710D02*
D03*
X4340Y4660D02*
D03*
X4480Y4570D02*
D03*
X3630Y4530D02*
D03*
X4540D02*
D03*
X4860Y5960D02*
D03*
X4470Y6000D02*
D03*
M02*
