G04 Layer_Color=8421504*
%FSLAX23Y23*%
%MOIN*%
G70*
G01*
G75*
%ADD10R,0.022X0.056*%
%ADD11R,0.046X0.069*%
%ADD12R,0.044X0.063*%
D10*
X2840Y5905D02*
D03*
X2803Y5981D02*
D03*
X2878D02*
D03*
X3780Y5897D02*
D03*
X3743Y5973D02*
D03*
X3818D02*
D03*
X4722Y5899D02*
D03*
X4685Y5975D02*
D03*
X4760D02*
D03*
X2812Y4726D02*
D03*
X2850Y4650D02*
D03*
X2775D02*
D03*
X4710Y4728D02*
D03*
X4747Y4652D02*
D03*
X4673D02*
D03*
X3770Y4728D02*
D03*
X3807Y4652D02*
D03*
X3733D02*
D03*
D11*
X3839Y6065D02*
D03*
X3721D02*
D03*
X4689Y5350D02*
D03*
X4571D02*
D03*
X4689Y5450D02*
D03*
X4571D02*
D03*
X4779Y6065D02*
D03*
X4661D02*
D03*
X4689Y5550D02*
D03*
X4571D02*
D03*
X4689Y5050D02*
D03*
X4571D02*
D03*
X4651Y4550D02*
D03*
X4769D02*
D03*
X4689Y5150D02*
D03*
X4571D02*
D03*
X3711Y4550D02*
D03*
X3829D02*
D03*
X4689Y5250D02*
D03*
X4571D02*
D03*
X2761Y4550D02*
D03*
X2879D02*
D03*
X2900Y6075D02*
D03*
X2782D02*
D03*
D12*
X3180Y4510D02*
D03*
X3070D02*
D03*
X4950Y4530D02*
D03*
X5060D02*
D03*
X2475Y6080D02*
D03*
X2585D02*
D03*
X4475Y6090D02*
D03*
X4365D02*
D03*
X3525Y6070D02*
D03*
X3415D02*
D03*
X4010Y4520D02*
D03*
X4120D02*
D03*
M02*
