M48
;Layer_Color=9474304
;FILE_FORMAT=2:5
INCH,LZ
;TYPE=PLATED
T1F00S00C0.02800
T2F00S00C0.03937
T3F00S00C0.04000
T4F00S00C0.05000
T5F00S00C0.05118
T6F00S00C0.06693
%
T01
X0490158Y0707677
T02
X0508268Y0427559
X0527953
Y0447244
X0508268
X0555118Y044718
X0574803
Y0427494
X0555118
X0553937Y0489994
Y050968
X0573622
Y0489994
X0528051Y0490059
X0508366
Y0509744
X0528051
X052815Y0553346
X0508465
Y0573032
X052815
X0553937Y0572967
Y0553282
X0573622
Y0572967
Y0616274
X0553937
X0528248Y0616338
X0508563
Y0636024
X0528248
X0553937Y0635959
X0573622
Y0679266
X0553937
Y0698951
X0573622
X0528051Y0699016
X0508366
Y0679331
X0528051
T03
X0482362Y0552323
Y0562323
Y0572323
Y0582323
Y0592323
Y0602323
Y0612323
Y0622323
X0402362
Y0612323
Y0602323
Y0592323
Y0582323
Y0572323
Y0562323
Y0552224
Y0632323
Y0642323
Y0652323
Y0662323
Y0672323
Y0682323
Y0692323
Y0702323
X0433465Y0659449
X0446063
X0482362Y0662323
Y0652323
Y0642323
Y0632323
T04
X0476378Y0508858
T05
X0457481Y0402166
X045748Y051437
X0443701
T06
X0439173Y0418898
X0452953Y0423228
Y0493307
X0439173Y0498425
M30
