G04*
G04 #@! TF.GenerationSoftware,Altium Limited,Altium Designer,19.1.8 (144)*
G04*
G04 Layer_Physical_Order=1*
G04 Layer_Color=255*
%FSLAX25Y25*%
%MOIN*%
G70*
G01*
G75*
%ADD10C,0.01000*%
G04:AMPARAMS|DCode=14|XSize=55mil|YSize=43mil|CornerRadius=7.96mil|HoleSize=0mil|Usage=FLASHONLY|Rotation=270.000|XOffset=0mil|YOffset=0mil|HoleType=Round|Shape=RoundedRectangle|*
%AMROUNDEDRECTD14*
21,1,0.05500,0.02709,0,0,270.0*
21,1,0.03909,0.04300,0,0,270.0*
1,1,0.01591,-0.01355,-0.01955*
1,1,0.01591,-0.01355,0.01955*
1,1,0.01591,0.01355,0.01955*
1,1,0.01591,0.01355,-0.01955*
%
%ADD14ROUNDEDRECTD14*%
%ADD23C,0.02500*%
%ADD24C,0.06693*%
%ADD25C,0.08000*%
%ADD26C,0.09449*%
%ADD27C,0.07087*%
%ADD28C,0.07000*%
%ADD29C,0.05000*%
%ADD30C,0.10000*%
G36*
X590551Y393701D02*
X393701D01*
Y728346D01*
X590551D01*
Y393701D01*
D02*
G37*
%LPC*%
G36*
X491157Y711051D02*
Y708677D01*
X493532D01*
X493215Y709442D01*
X492654Y710173D01*
X491923Y710734D01*
X491157Y711051D01*
D02*
G37*
G36*
X489157D02*
X488392Y710734D01*
X487661Y710173D01*
X487100Y709442D01*
X486783Y708677D01*
X489157D01*
Y711051D01*
D02*
G37*
G36*
X493532Y706677D02*
X491157D01*
Y704303D01*
X491923Y704620D01*
X492654Y705181D01*
X493215Y705912D01*
X493532Y706677D01*
D02*
G37*
G36*
X489157D02*
X486783D01*
X487100Y705912D01*
X487661Y705181D01*
X488392Y704620D01*
X489157Y704303D01*
Y706677D01*
D02*
G37*
G36*
X528051Y703198D02*
X526969Y703055D01*
X525960Y702638D01*
X525094Y701973D01*
X524429Y701107D01*
X524112Y700341D01*
X512305D01*
X511988Y701107D01*
X511323Y701973D01*
X510457Y702638D01*
X509449Y703055D01*
X508366Y703198D01*
X507284Y703055D01*
X506275Y702638D01*
X505409Y701973D01*
X504744Y701107D01*
X504326Y700098D01*
X504184Y699016D01*
X504326Y697933D01*
X504744Y696925D01*
X505409Y696059D01*
X506275Y695394D01*
X507284Y694976D01*
X508366Y694834D01*
X509449Y694976D01*
X510457Y695394D01*
X511323Y696059D01*
X511988Y696925D01*
X512305Y697690D01*
X524112D01*
X524429Y696925D01*
X525094Y696059D01*
X525960Y695394D01*
X526726Y695077D01*
Y686734D01*
X513623Y673631D01*
X513336Y673201D01*
X513235Y672694D01*
Y661387D01*
X512735Y661180D01*
X502702Y671213D01*
X502272Y671500D01*
X501765Y671601D01*
X424213D01*
X423705Y671500D01*
X423275Y671213D01*
X408512Y656449D01*
X408224Y656019D01*
X408123Y655512D01*
Y649959D01*
X404328Y646163D01*
X403485Y646512D01*
X402362Y646660D01*
X401240Y646512D01*
X400194Y646079D01*
X399295Y645390D01*
X398606Y644491D01*
X398173Y643445D01*
X398025Y642323D01*
X398173Y641200D01*
X398606Y640154D01*
X399295Y639256D01*
X400194Y638567D01*
X401240Y638133D01*
X402362Y637986D01*
X403485Y638133D01*
X404531Y638567D01*
X405429Y639256D01*
X406118Y640154D01*
X406552Y641200D01*
X406699Y642323D01*
X406552Y643445D01*
X406202Y644288D01*
X410386Y648472D01*
X410673Y648902D01*
X410774Y649409D01*
Y654963D01*
X424762Y668950D01*
X439380D01*
X439531Y668450D01*
X439467Y668407D01*
X439467Y668407D01*
X435048Y663988D01*
X434718Y664125D01*
X433465Y664290D01*
X432211Y664125D01*
X431044Y663642D01*
X430041Y662872D01*
X429272Y661869D01*
X428788Y660702D01*
X428623Y659449D01*
X428788Y658196D01*
X429272Y657028D01*
X430041Y656025D01*
X431044Y655256D01*
X432211Y654772D01*
X433465Y654607D01*
X434718Y654772D01*
X435885Y655256D01*
X436888Y656025D01*
X437657Y657028D01*
X438141Y658196D01*
X438306Y659449D01*
X438141Y660702D01*
X438004Y661032D01*
X441811Y664839D01*
X444868D01*
X444901Y664339D01*
X444758Y664320D01*
X443541Y663816D01*
X442497Y663015D01*
X441695Y661970D01*
X441192Y660754D01*
X441152Y660449D01*
X450975D01*
X450934Y660754D01*
X450430Y661970D01*
X449629Y663015D01*
X448585Y663816D01*
X447368Y664320D01*
X447225Y664339D01*
X447258Y664839D01*
X476890D01*
X478205Y663524D01*
X478173Y663445D01*
X478025Y662323D01*
X478173Y661200D01*
X478606Y660154D01*
X479295Y659256D01*
X480194Y658567D01*
X481240Y658134D01*
X482362Y657986D01*
X483485Y658134D01*
X484531Y658567D01*
X485429Y659256D01*
X486118Y660154D01*
X486552Y661200D01*
X486699Y662323D01*
X486552Y663445D01*
X486118Y664491D01*
X485429Y665390D01*
X484531Y666079D01*
X483485Y666512D01*
X482362Y666660D01*
X481240Y666512D01*
X481161Y666480D01*
X479234Y668407D01*
X479170Y668450D01*
X479321Y668950D01*
X501216D01*
X511555Y658611D01*
X511579Y658595D01*
Y655526D01*
X511703Y654903D01*
X512055Y654376D01*
X512583Y654023D01*
X513206Y653899D01*
X515915D01*
X516537Y654023D01*
X517065Y654376D01*
X517418Y654903D01*
X517542Y655526D01*
Y659435D01*
X517418Y660057D01*
X517065Y660585D01*
X516537Y660938D01*
X515915Y661062D01*
X515886D01*
Y672145D01*
X523440Y679699D01*
X523888Y679478D01*
X523869Y679331D01*
X524012Y678248D01*
X524429Y677240D01*
X525094Y676373D01*
X525960Y675709D01*
X526969Y675291D01*
X528051Y675148D01*
X529134Y675291D01*
X530142Y675709D01*
X531008Y676373D01*
X531673Y677240D01*
X532091Y678248D01*
X532233Y679331D01*
X532091Y680413D01*
X531673Y681422D01*
X531008Y682288D01*
X530142Y682953D01*
X529134Y683370D01*
X528051Y683513D01*
X527904Y683494D01*
X527683Y683942D01*
X528988Y685247D01*
X529276Y685677D01*
X529377Y686185D01*
Y695077D01*
X530142Y695394D01*
X531008Y696059D01*
X531673Y696925D01*
X532091Y697933D01*
X532233Y699016D01*
X532091Y700098D01*
X531673Y701107D01*
X531008Y701973D01*
X530142Y702638D01*
X529134Y703055D01*
X528051Y703198D01*
D02*
G37*
G36*
X402362Y706660D02*
X401240Y706512D01*
X400194Y706079D01*
X399295Y705390D01*
X398606Y704491D01*
X398173Y703445D01*
X398025Y702323D01*
X398173Y701200D01*
X398606Y700154D01*
X399295Y699256D01*
X400194Y698567D01*
X401240Y698134D01*
X402362Y697986D01*
X403485Y698134D01*
X404531Y698567D01*
X405429Y699256D01*
X406118Y700154D01*
X406552Y701200D01*
X406699Y702323D01*
X406552Y703445D01*
X406118Y704491D01*
X405429Y705390D01*
X404531Y706079D01*
X403485Y706512D01*
X402362Y706660D01*
D02*
G37*
G36*
X573622Y703133D02*
X572540Y702991D01*
X571531Y702573D01*
X570665Y701908D01*
X570000Y701042D01*
X569582Y700034D01*
X569440Y698951D01*
X569582Y697869D01*
X570000Y696860D01*
X570665Y695994D01*
X571531Y695329D01*
X572540Y694911D01*
X573622Y694769D01*
X574705Y694911D01*
X575713Y695329D01*
X576579Y695994D01*
X577244Y696860D01*
X577662Y697869D01*
X577804Y698951D01*
X577662Y700034D01*
X577244Y701042D01*
X576579Y701908D01*
X575713Y702573D01*
X574705Y702991D01*
X573622Y703133D01*
D02*
G37*
G36*
X553937D02*
X552855Y702991D01*
X551846Y702573D01*
X550980Y701908D01*
X550315Y701042D01*
X549897Y700034D01*
X549755Y698951D01*
X549897Y697869D01*
X550315Y696860D01*
X550980Y695994D01*
X551846Y695329D01*
X552855Y694911D01*
X553937Y694769D01*
X555019Y694911D01*
X556028Y695329D01*
X556894Y695994D01*
X557559Y696860D01*
X557977Y697869D01*
X558119Y698951D01*
X557977Y700034D01*
X557559Y701042D01*
X556894Y701908D01*
X556028Y702573D01*
X555019Y702991D01*
X553937Y703133D01*
D02*
G37*
G36*
X402362Y696660D02*
X401240Y696512D01*
X400194Y696079D01*
X399295Y695390D01*
X398606Y694491D01*
X398173Y693445D01*
X398025Y692323D01*
X398173Y691200D01*
X398606Y690154D01*
X399295Y689256D01*
X400194Y688567D01*
X401240Y688133D01*
X402362Y687986D01*
X403485Y688133D01*
X404531Y688567D01*
X405429Y689256D01*
X406118Y690154D01*
X406552Y691200D01*
X406699Y692323D01*
X406552Y693445D01*
X406118Y694491D01*
X405429Y695390D01*
X404531Y696079D01*
X403485Y696512D01*
X402362Y696660D01*
D02*
G37*
G36*
X573622Y683448D02*
X572540Y683306D01*
X571531Y682888D01*
X570665Y682223D01*
X570000Y681357D01*
X569683Y680592D01*
X557876D01*
X557559Y681357D01*
X556894Y682223D01*
X556028Y682888D01*
X555019Y683306D01*
X553937Y683448D01*
X552855Y683306D01*
X551846Y682888D01*
X550980Y682223D01*
X550315Y681357D01*
X549897Y680349D01*
X549755Y679266D01*
X549897Y678184D01*
X550315Y677175D01*
X550980Y676309D01*
X551846Y675644D01*
X552855Y675226D01*
X553937Y675084D01*
X555019Y675226D01*
X556028Y675644D01*
X556894Y676309D01*
X557559Y677175D01*
X557876Y677941D01*
X569683D01*
X570000Y677175D01*
X570665Y676309D01*
X571531Y675644D01*
X572296Y675327D01*
Y664915D01*
X568443Y661062D01*
X565982D01*
X565359Y660938D01*
X564831Y660585D01*
X564479Y660057D01*
X564355Y659435D01*
Y655526D01*
X564479Y654903D01*
X564831Y654376D01*
X565359Y654023D01*
X565982Y653899D01*
X568443D01*
X584304Y638038D01*
Y580071D01*
X583843Y579879D01*
X578139Y585583D01*
X577709Y585870D01*
X577202Y585971D01*
X500588D01*
X486202Y600357D01*
X486552Y601200D01*
X486699Y602323D01*
X486552Y603445D01*
X486118Y604491D01*
X485429Y605390D01*
X484531Y606079D01*
X483485Y606512D01*
X482362Y606660D01*
X481240Y606512D01*
X480194Y606079D01*
X479295Y605390D01*
X478606Y604491D01*
X478173Y603445D01*
X478025Y602323D01*
X478173Y601200D01*
X478606Y600154D01*
X479295Y599256D01*
X480194Y598567D01*
X481240Y598134D01*
X482362Y597986D01*
X483485Y598134D01*
X484328Y598483D01*
X488719Y594092D01*
X488472Y593631D01*
X488386Y593648D01*
X486468D01*
X486118Y594491D01*
X485429Y595390D01*
X484531Y596079D01*
X483485Y596512D01*
X482362Y596660D01*
X481240Y596512D01*
X480194Y596079D01*
X479295Y595390D01*
X478606Y594491D01*
X478173Y593445D01*
X478025Y592323D01*
X478173Y591200D01*
X478606Y590154D01*
X479295Y589256D01*
X479470Y589122D01*
X479310Y588648D01*
X437911D01*
X406202Y620357D01*
X406552Y621200D01*
X406699Y622323D01*
X406552Y623445D01*
X406118Y624491D01*
X405429Y625390D01*
X404531Y626079D01*
X403485Y626512D01*
X402362Y626660D01*
X401240Y626512D01*
X400194Y626079D01*
X399295Y625390D01*
X398606Y624491D01*
X398173Y623445D01*
X398025Y622323D01*
X398173Y621200D01*
X398606Y620154D01*
X399295Y619256D01*
X400194Y618567D01*
X401240Y618133D01*
X402362Y617986D01*
X403485Y618133D01*
X404328Y618483D01*
X436425Y586386D01*
X436855Y586098D01*
X437362Y585997D01*
X479310D01*
X479470Y585524D01*
X479295Y585390D01*
X478606Y584491D01*
X478173Y583445D01*
X478025Y582323D01*
X478173Y581200D01*
X478606Y580154D01*
X479295Y579256D01*
X479470Y579122D01*
X479310Y578648D01*
X437911D01*
X406202Y610357D01*
X406552Y611200D01*
X406699Y612323D01*
X406552Y613445D01*
X406118Y614491D01*
X405429Y615390D01*
X404531Y616079D01*
X403485Y616512D01*
X402362Y616660D01*
X401240Y616512D01*
X400194Y616079D01*
X399295Y615390D01*
X398606Y614491D01*
X398173Y613445D01*
X398025Y612323D01*
X398173Y611200D01*
X398606Y610154D01*
X399295Y609256D01*
X400194Y608567D01*
X401240Y608134D01*
X402362Y607986D01*
X403485Y608134D01*
X404328Y608483D01*
X436425Y576386D01*
X436855Y576098D01*
X437362Y575997D01*
X479310D01*
X479470Y575524D01*
X479295Y575390D01*
X478606Y574491D01*
X478173Y573445D01*
X478025Y572323D01*
X478173Y571200D01*
X478522Y570357D01*
X470519Y562355D01*
X470232Y561925D01*
X470131Y561417D01*
Y527559D01*
X470232Y527052D01*
X470519Y526622D01*
X488340Y508801D01*
Y475886D01*
X488441Y475379D01*
X488728Y474949D01*
X505460Y458216D01*
X505890Y457929D01*
X506398Y457828D01*
X532423D01*
X537060Y453191D01*
Y444227D01*
X537161Y443720D01*
X537449Y443290D01*
X551396Y429343D01*
X551078Y428577D01*
X550936Y427494D01*
X551078Y426412D01*
X551496Y425403D01*
X552161Y424537D01*
X553027Y423873D01*
X554036Y423455D01*
X555118Y423312D01*
X556201Y423455D01*
X557209Y423873D01*
X558075Y424537D01*
X558740Y425403D01*
X559057Y426169D01*
X570864D01*
X571081Y425646D01*
X566484Y421050D01*
X566197Y420620D01*
X566096Y420113D01*
Y408306D01*
X566067D01*
X565444Y408182D01*
X564917Y407829D01*
X564564Y407301D01*
X564440Y406679D01*
Y402770D01*
X564564Y402147D01*
X564917Y401620D01*
X565444Y401267D01*
X566067Y401143D01*
X568776D01*
X569398Y401267D01*
X569926Y401620D01*
X570279Y402147D01*
X570402Y402770D01*
Y406679D01*
X570279Y407301D01*
X569926Y407829D01*
X569398Y408182D01*
X568776Y408306D01*
X568747D01*
Y419563D01*
X572955Y423772D01*
X573721Y423455D01*
X574803Y423312D01*
X575886Y423455D01*
X576894Y423873D01*
X577760Y424537D01*
X578425Y425403D01*
X578843Y426412D01*
X578985Y427494D01*
X578843Y428577D01*
X578425Y429586D01*
X577760Y430452D01*
X576894Y431116D01*
X575886Y431534D01*
X574803Y431677D01*
X573721Y431534D01*
X572712Y431116D01*
X571846Y430452D01*
X571181Y429586D01*
X570864Y428820D01*
X559057D01*
X558740Y429586D01*
X558075Y430452D01*
X557209Y431116D01*
X556201Y431534D01*
X555118Y431677D01*
X554036Y431534D01*
X553270Y431217D01*
X539711Y444776D01*
Y453740D01*
X539610Y454247D01*
X539323Y454677D01*
X533910Y460091D01*
X533480Y460378D01*
X532972Y460479D01*
X506947D01*
X490991Y476435D01*
Y509350D01*
X490890Y509858D01*
X490603Y510288D01*
X472782Y528108D01*
Y560868D01*
X480397Y568483D01*
X481240Y568133D01*
X482362Y567986D01*
X483485Y568133D01*
X484531Y568567D01*
X485429Y569256D01*
X486118Y570154D01*
X486552Y571200D01*
X486699Y572323D01*
X486552Y573445D01*
X486118Y574491D01*
X485429Y575390D01*
X485254Y575524D01*
X485415Y575997D01*
X487089D01*
X501627Y561459D01*
Y529528D01*
X501728Y529020D01*
X502015Y528590D01*
X507921Y522685D01*
X508351Y522398D01*
X508858Y522297D01*
X532480D01*
X532988Y522398D01*
X533418Y522685D01*
X554874Y544141D01*
X555162Y544571D01*
X555263Y545079D01*
Y549343D01*
X556028Y549660D01*
X556894Y550325D01*
X557559Y551191D01*
X557876Y551956D01*
X569683D01*
X570000Y551191D01*
X570665Y550325D01*
X571531Y549660D01*
X572296Y549343D01*
Y538537D01*
X568443Y534684D01*
X565982D01*
X565359Y534560D01*
X564831Y534207D01*
X564479Y533679D01*
X564355Y533057D01*
Y529148D01*
X564479Y528525D01*
X564831Y527998D01*
X565359Y527645D01*
X565982Y527521D01*
X568691D01*
X569313Y527645D01*
X569841Y527998D01*
X570194Y528525D01*
X570318Y529148D01*
Y532809D01*
X574559Y537051D01*
X574847Y537481D01*
X574948Y537988D01*
Y549343D01*
X575713Y549660D01*
X576579Y550325D01*
X577244Y551191D01*
X577662Y552200D01*
X577804Y553282D01*
X577662Y554364D01*
X577244Y555373D01*
X576579Y556239D01*
X575713Y556904D01*
X574705Y557322D01*
X573622Y557464D01*
X572540Y557322D01*
X571531Y556904D01*
X570665Y556239D01*
X570000Y555373D01*
X569683Y554607D01*
X557876D01*
X557559Y555373D01*
X556894Y556239D01*
X556028Y556904D01*
X555019Y557322D01*
X553937Y557464D01*
X552855Y557322D01*
X551846Y556904D01*
X550980Y556239D01*
X550315Y555373D01*
X549897Y554364D01*
X549755Y553282D01*
X549897Y552200D01*
X550315Y551191D01*
X550980Y550325D01*
X551846Y549660D01*
X552611Y549343D01*
Y545628D01*
X531931Y524948D01*
X509407D01*
X504278Y530077D01*
Y551311D01*
X504778Y551411D01*
X504843Y551255D01*
X505507Y550389D01*
X506374Y549725D01*
X507382Y549307D01*
X508465Y549164D01*
X509547Y549307D01*
X510556Y549725D01*
X511422Y550389D01*
X512086Y551255D01*
X512504Y552264D01*
X512647Y553346D01*
X512504Y554429D01*
X512086Y555438D01*
X511422Y556304D01*
X510556Y556968D01*
X509547Y557386D01*
X508465Y557529D01*
X507382Y557386D01*
X506374Y556968D01*
X505507Y556304D01*
X504843Y555438D01*
X504778Y555282D01*
X504278Y555381D01*
Y562008D01*
X504177Y562515D01*
X503890Y562945D01*
X488575Y578260D01*
X488145Y578547D01*
X487638Y578648D01*
X485415D01*
X485254Y579122D01*
X485429Y579256D01*
X486118Y580154D01*
X486552Y581200D01*
X486699Y582323D01*
X486552Y583445D01*
X486118Y584491D01*
X485429Y585390D01*
X485254Y585524D01*
X485415Y585997D01*
X486498D01*
X500401Y572094D01*
X500831Y571807D01*
X501339Y571706D01*
X504526D01*
X504843Y570940D01*
X505507Y570074D01*
X506374Y569410D01*
X507382Y568992D01*
X508465Y568849D01*
X509547Y568992D01*
X510556Y569410D01*
X511422Y570074D01*
X512086Y570940D01*
X512404Y571706D01*
X524211D01*
X524427Y571183D01*
X520723Y567479D01*
X520436Y567049D01*
X520335Y566542D01*
Y534684D01*
X520306D01*
X519683Y534560D01*
X519155Y534207D01*
X518803Y533679D01*
X518679Y533057D01*
Y529148D01*
X518803Y528525D01*
X519155Y527998D01*
X519683Y527645D01*
X520306Y527521D01*
X523015D01*
X523637Y527645D01*
X524165Y527998D01*
X524518Y528525D01*
X524642Y529148D01*
Y533057D01*
X524518Y533679D01*
X524165Y534207D01*
X523637Y534560D01*
X523015Y534684D01*
X522986D01*
Y565993D01*
X526302Y569309D01*
X527067Y568992D01*
X528150Y568849D01*
X529232Y568992D01*
X530241Y569410D01*
X531107Y570074D01*
X531772Y570940D01*
X532189Y571949D01*
X532332Y573032D01*
X532189Y574114D01*
X531772Y575123D01*
X531107Y575989D01*
X530241Y576653D01*
X529232Y577071D01*
X528150Y577214D01*
X527067Y577071D01*
X526058Y576653D01*
X525192Y575989D01*
X524528Y575123D01*
X524211Y574357D01*
X512404D01*
X512086Y575123D01*
X511422Y575989D01*
X510556Y576653D01*
X509547Y577071D01*
X508465Y577214D01*
X507382Y577071D01*
X506374Y576653D01*
X505507Y575989D01*
X504843Y575123D01*
X504526Y574357D01*
X501888D01*
X487985Y588260D01*
X487555Y588547D01*
X487047Y588648D01*
X485415D01*
X485254Y589122D01*
X485429Y589256D01*
X486118Y590154D01*
X486468Y590997D01*
X487837D01*
X499063Y579771D01*
X499493Y579484D01*
X500000Y579383D01*
X574254D01*
X580367Y573270D01*
Y498614D01*
X575470Y493717D01*
X574705Y494034D01*
X573622Y494177D01*
X572540Y494034D01*
X571531Y493616D01*
X570665Y492952D01*
X570000Y492086D01*
X569683Y491320D01*
X557876D01*
X557559Y492086D01*
X556894Y492952D01*
X556028Y493616D01*
X555019Y494034D01*
X553937Y494177D01*
X552855Y494034D01*
X551846Y493616D01*
X550980Y492952D01*
X550315Y492086D01*
X549897Y491077D01*
X549755Y489994D01*
X549897Y488912D01*
X550315Y487903D01*
X550980Y487037D01*
X551846Y486373D01*
X552855Y485955D01*
X553937Y485812D01*
X555019Y485955D01*
X556028Y486373D01*
X556894Y487037D01*
X557559Y487903D01*
X557876Y488669D01*
X569683D01*
X569899Y488146D01*
X566399Y484646D01*
X566112Y484216D01*
X566011Y483709D01*
Y472085D01*
X565982D01*
X565359Y471961D01*
X564831Y471609D01*
X564479Y471081D01*
X564355Y470459D01*
Y466549D01*
X564479Y465927D01*
X564831Y465399D01*
X565359Y465047D01*
X565982Y464923D01*
X568691D01*
X569313Y465047D01*
X569841Y465399D01*
X570194Y465927D01*
X570318Y466549D01*
Y470459D01*
X570194Y471081D01*
X569841Y471609D01*
X569313Y471961D01*
X568691Y472085D01*
X568662D01*
Y483160D01*
X571774Y486272D01*
X572540Y485955D01*
X573622Y485812D01*
X574705Y485955D01*
X575713Y486373D01*
X576579Y487037D01*
X577244Y487903D01*
X577662Y488912D01*
X577804Y489994D01*
X577662Y491077D01*
X577345Y491843D01*
X581906Y496404D01*
X582367Y496212D01*
Y474006D01*
X569333Y460971D01*
X550529D01*
X543514Y467987D01*
X543084Y468274D01*
X542576Y468375D01*
X524642D01*
Y470459D01*
X524518Y471081D01*
X524165Y471609D01*
X523637Y471961D01*
X523015Y472085D01*
X522986D01*
Y489973D01*
X523440Y490427D01*
X523888Y490206D01*
X523869Y490059D01*
X524012Y488977D01*
X524429Y487968D01*
X525094Y487102D01*
X525960Y486437D01*
X526969Y486019D01*
X528051Y485877D01*
X529134Y486019D01*
X530142Y486437D01*
X531008Y487102D01*
X531673Y487968D01*
X532091Y488977D01*
X532233Y490059D01*
X532091Y491142D01*
X531673Y492150D01*
X531008Y493016D01*
X530142Y493681D01*
X529134Y494099D01*
X528051Y494241D01*
X527904Y494222D01*
X527683Y494670D01*
X528988Y495976D01*
X529276Y496406D01*
X529377Y496913D01*
Y505805D01*
X530142Y506122D01*
X531008Y506787D01*
X531673Y507653D01*
X532091Y508662D01*
X532233Y509744D01*
X532091Y510827D01*
X531673Y511835D01*
X531008Y512701D01*
X530142Y513366D01*
X529134Y513784D01*
X528051Y513926D01*
X526969Y513784D01*
X525960Y513366D01*
X525094Y512701D01*
X524429Y511835D01*
X524112Y511070D01*
X512305D01*
X511988Y511835D01*
X511323Y512701D01*
X510457Y513366D01*
X509449Y513784D01*
X508366Y513926D01*
X507284Y513784D01*
X506275Y513366D01*
X505409Y512701D01*
X504744Y511835D01*
X504326Y510827D01*
X504184Y509744D01*
X504326Y508662D01*
X504744Y507653D01*
X505409Y506787D01*
X506275Y506122D01*
X507284Y505704D01*
X508366Y505562D01*
X509449Y505704D01*
X510457Y506122D01*
X511323Y506787D01*
X511988Y507653D01*
X512305Y508419D01*
X524112D01*
X524429Y507653D01*
X525094Y506787D01*
X525960Y506122D01*
X526726Y505805D01*
Y497462D01*
X520723Y491459D01*
X520436Y491029D01*
X520335Y490522D01*
Y472085D01*
X520306D01*
X519683Y471961D01*
X519155Y471609D01*
X518803Y471081D01*
X518679Y470459D01*
Y466549D01*
X518803Y465927D01*
X519155Y465399D01*
X519683Y465047D01*
X520306Y464923D01*
X523015D01*
X523637Y465047D01*
X524165Y465399D01*
X524382Y465724D01*
X542027D01*
X549043Y458708D01*
X549473Y458421D01*
X549980Y458320D01*
X569882D01*
X570389Y458421D01*
X570819Y458708D01*
X583906Y471795D01*
X584367Y471603D01*
Y411045D01*
X573270Y399948D01*
X497198D01*
X472782Y424363D01*
Y489173D01*
X472681Y489680D01*
X472394Y490110D01*
X467861Y494643D01*
Y537402D01*
X467760Y537909D01*
X467473Y538339D01*
X452650Y553162D01*
X452220Y553449D01*
X451713Y553550D01*
X406467D01*
X406118Y554393D01*
X405429Y555291D01*
X404531Y555980D01*
X403485Y556414D01*
X402362Y556562D01*
X401240Y556414D01*
X400194Y555980D01*
X399295Y555291D01*
X398606Y554393D01*
X398173Y553347D01*
X398025Y552224D01*
X398173Y551102D01*
X398606Y550056D01*
X399295Y549158D01*
X400194Y548468D01*
X401240Y548035D01*
X402362Y547887D01*
X403485Y548035D01*
X404531Y548468D01*
X405429Y549158D01*
X406118Y550056D01*
X406467Y550899D01*
X451163D01*
X465210Y536853D01*
Y494095D01*
X465311Y493587D01*
X465598Y493157D01*
X470131Y488624D01*
Y423814D01*
X470232Y423307D01*
X470519Y422877D01*
X495712Y397685D01*
X496142Y397397D01*
X496649Y397297D01*
X573819D01*
X574326Y397397D01*
X574756Y397685D01*
X586630Y409559D01*
X586917Y409989D01*
X587018Y410496D01*
Y578983D01*
X586955Y579299D01*
Y638587D01*
X586855Y639094D01*
X586567Y639524D01*
X570318Y655774D01*
Y659187D01*
X574559Y663429D01*
X574847Y663859D01*
X574948Y664366D01*
Y675327D01*
X575713Y675644D01*
X576579Y676309D01*
X577244Y677175D01*
X577662Y678184D01*
X577804Y679266D01*
X577662Y680349D01*
X577244Y681357D01*
X576579Y682223D01*
X575713Y682888D01*
X574705Y683306D01*
X573622Y683448D01*
D02*
G37*
G36*
X402362Y686660D02*
X401240Y686512D01*
X400194Y686079D01*
X399295Y685390D01*
X398606Y684491D01*
X398173Y683445D01*
X398025Y682323D01*
X398173Y681200D01*
X398606Y680154D01*
X399295Y679256D01*
X400194Y678567D01*
X401240Y678133D01*
X402362Y677986D01*
X403485Y678133D01*
X404531Y678567D01*
X405429Y679256D01*
X406118Y680154D01*
X406552Y681200D01*
X406699Y682323D01*
X406552Y683445D01*
X406118Y684491D01*
X405429Y685390D01*
X404531Y686079D01*
X403485Y686512D01*
X402362Y686660D01*
D02*
G37*
G36*
X508366Y683513D02*
X507284Y683370D01*
X506275Y682953D01*
X505409Y682288D01*
X504744Y681422D01*
X504326Y680413D01*
X504184Y679331D01*
X504326Y678248D01*
X504744Y677240D01*
X505409Y676373D01*
X506275Y675709D01*
X507284Y675291D01*
X508366Y675148D01*
X509449Y675291D01*
X510457Y675709D01*
X511323Y676373D01*
X511988Y677240D01*
X512406Y678248D01*
X512548Y679331D01*
X512406Y680413D01*
X511988Y681422D01*
X511323Y682288D01*
X510457Y682953D01*
X509449Y683370D01*
X508366Y683513D01*
D02*
G37*
G36*
X403362Y676730D02*
Y673323D01*
X406769D01*
X406746Y673498D01*
X406293Y674592D01*
X405572Y675532D01*
X404632Y676254D01*
X403537Y676707D01*
X403362Y676730D01*
D02*
G37*
G36*
X401362Y676730D02*
X401187Y676707D01*
X400093Y676254D01*
X399153Y675532D01*
X398431Y674592D01*
X397978Y673498D01*
X397955Y673323D01*
X401362D01*
Y676730D01*
D02*
G37*
G36*
Y671323D02*
X397955D01*
X397978Y671148D01*
X398431Y670053D01*
X399153Y669113D01*
X400093Y668392D01*
X401187Y667939D01*
X401362Y667916D01*
Y671323D01*
D02*
G37*
G36*
X406769D02*
X403362D01*
Y667916D01*
X403537Y667939D01*
X404632Y668392D01*
X405572Y669113D01*
X406293Y670053D01*
X406746Y671148D01*
X406769Y671323D01*
D02*
G37*
G36*
X561591Y661266D02*
X561236D01*
Y658480D01*
X563421D01*
Y659435D01*
X563282Y660135D01*
X562885Y660729D01*
X562291Y661126D01*
X561591Y661266D01*
D02*
G37*
G36*
X559236D02*
X558882D01*
X558181Y661126D01*
X557587Y660729D01*
X557190Y660135D01*
X557051Y659435D01*
Y658480D01*
X559236D01*
Y661266D01*
D02*
G37*
G36*
X523015D02*
X522660D01*
Y658480D01*
X524845D01*
Y659435D01*
X524706Y660135D01*
X524309Y660729D01*
X523715Y661126D01*
X523015Y661266D01*
D02*
G37*
G36*
X520660D02*
X520306D01*
X519605Y661126D01*
X519011Y660729D01*
X518614Y660135D01*
X518475Y659435D01*
Y658480D01*
X520660D01*
Y661266D01*
D02*
G37*
G36*
X402362Y666660D02*
X401240Y666512D01*
X400194Y666079D01*
X399295Y665390D01*
X398606Y664491D01*
X398173Y663445D01*
X398025Y662323D01*
X398173Y661200D01*
X398606Y660154D01*
X399295Y659256D01*
X400194Y658567D01*
X401240Y658134D01*
X402362Y657986D01*
X403485Y658134D01*
X404531Y658567D01*
X405429Y659256D01*
X406118Y660154D01*
X406552Y661200D01*
X406699Y662323D01*
X406552Y663445D01*
X406118Y664491D01*
X405429Y665390D01*
X404531Y666079D01*
X403485Y666512D01*
X402362Y666660D01*
D02*
G37*
G36*
X450975Y658449D02*
X447063D01*
Y654537D01*
X447368Y654577D01*
X448585Y655081D01*
X449629Y655883D01*
X450430Y656927D01*
X450934Y658144D01*
X450975Y658449D01*
D02*
G37*
G36*
X445063D02*
X441152D01*
X441192Y658144D01*
X441695Y656927D01*
X442497Y655883D01*
X443541Y655081D01*
X444758Y654577D01*
X445063Y654537D01*
Y658449D01*
D02*
G37*
G36*
X563421Y656480D02*
X561236D01*
Y653695D01*
X561591D01*
X562291Y653834D01*
X562885Y654231D01*
X563282Y654825D01*
X563421Y655526D01*
Y656480D01*
D02*
G37*
G36*
X559236D02*
X557051D01*
Y655526D01*
X557190Y654825D01*
X557587Y654231D01*
X558181Y653834D01*
X558882Y653695D01*
X559236D01*
Y656480D01*
D02*
G37*
G36*
X524845Y656480D02*
X522660D01*
Y653695D01*
X523015D01*
X523715Y653834D01*
X524309Y654231D01*
X524706Y654825D01*
X524845Y655526D01*
Y656480D01*
D02*
G37*
G36*
X520660D02*
X518475D01*
Y655526D01*
X518614Y654825D01*
X519011Y654231D01*
X519605Y653834D01*
X520306Y653695D01*
X520660D01*
Y656480D01*
D02*
G37*
G36*
X482362Y656660D02*
X481240Y656512D01*
X480194Y656079D01*
X479295Y655390D01*
X478606Y654491D01*
X478173Y653445D01*
X478025Y652323D01*
X478173Y651200D01*
X478606Y650154D01*
X479295Y649256D01*
X480194Y648567D01*
X481240Y648134D01*
X482362Y647986D01*
X483485Y648134D01*
X484531Y648567D01*
X485429Y649256D01*
X486118Y650154D01*
X486552Y651200D01*
X486699Y652323D01*
X486552Y653445D01*
X486118Y654491D01*
X485429Y655390D01*
X484531Y656079D01*
X483485Y656512D01*
X482362Y656660D01*
D02*
G37*
G36*
X402362D02*
X401240Y656512D01*
X400194Y656079D01*
X399295Y655390D01*
X398606Y654491D01*
X398173Y653445D01*
X398025Y652323D01*
X398173Y651200D01*
X398606Y650154D01*
X399295Y649256D01*
X400194Y648567D01*
X401240Y648134D01*
X402362Y647986D01*
X403485Y648134D01*
X404531Y648567D01*
X405429Y649256D01*
X406118Y650154D01*
X406552Y651200D01*
X406699Y652323D01*
X406552Y653445D01*
X406118Y654491D01*
X405429Y655390D01*
X404531Y656079D01*
X403485Y656512D01*
X402362Y656660D01*
D02*
G37*
G36*
X482362Y646660D02*
X481240Y646512D01*
X480194Y646079D01*
X479295Y645390D01*
X478606Y644491D01*
X478173Y643445D01*
X478025Y642323D01*
X478173Y641200D01*
X478606Y640154D01*
X479295Y639256D01*
X479470Y639122D01*
X479310Y638648D01*
X407362D01*
X406855Y638547D01*
X406425Y638260D01*
X404328Y636163D01*
X403485Y636512D01*
X402362Y636660D01*
X401240Y636512D01*
X400194Y636079D01*
X399295Y635390D01*
X398606Y634491D01*
X398173Y633445D01*
X398025Y632323D01*
X398173Y631200D01*
X398606Y630154D01*
X399295Y629256D01*
X400194Y628567D01*
X401240Y628133D01*
X402362Y627986D01*
X403485Y628133D01*
X404531Y628567D01*
X405429Y629256D01*
X406118Y630154D01*
X406552Y631200D01*
X406699Y632323D01*
X406552Y633445D01*
X406202Y634288D01*
X407911Y635997D01*
X479310D01*
X479470Y635524D01*
X479295Y635390D01*
X478606Y634491D01*
X478173Y633445D01*
X478025Y632323D01*
X478173Y631200D01*
X478606Y630154D01*
X479295Y629256D01*
X480194Y628567D01*
X481240Y628133D01*
X482362Y627986D01*
X483485Y628133D01*
X484531Y628567D01*
X485429Y629256D01*
X486118Y630154D01*
X486552Y631200D01*
X486699Y632323D01*
X486552Y633445D01*
X486118Y634491D01*
X485429Y635390D01*
X485254Y635524D01*
X485415Y635997D01*
X492458D01*
X493369Y635086D01*
X493799Y634799D01*
X494306Y634698D01*
X504624D01*
X504941Y633932D01*
X505606Y633066D01*
X506472Y632402D01*
X507480Y631984D01*
X508563Y631841D01*
X509645Y631984D01*
X510654Y632402D01*
X511520Y633066D01*
X512185Y633932D01*
X512502Y634698D01*
X524309D01*
X524626Y633932D01*
X525291Y633066D01*
X526157Y632402D01*
X526922Y632085D01*
Y623745D01*
X519732Y616555D01*
X519445Y616125D01*
X519344Y615618D01*
Y597719D01*
X519155Y597593D01*
X518803Y597065D01*
X518679Y596443D01*
Y592534D01*
X518803Y591911D01*
X519155Y591383D01*
X519683Y591031D01*
X520306Y590907D01*
X523015D01*
X523637Y591031D01*
X524165Y591383D01*
X524518Y591911D01*
X524642Y592534D01*
Y596443D01*
X524518Y597065D01*
X524165Y597593D01*
X523637Y597946D01*
X523015Y598069D01*
X521995D01*
Y615069D01*
X523637Y616711D01*
X524086Y616490D01*
X524066Y616338D01*
X524208Y615256D01*
X524626Y614247D01*
X525291Y613381D01*
X526157Y612716D01*
X527165Y612299D01*
X528248Y612156D01*
X529330Y612299D01*
X530339Y612716D01*
X531205Y613381D01*
X531870Y614247D01*
X532288Y615256D01*
X532430Y616338D01*
X532288Y617421D01*
X531870Y618430D01*
X531205Y619296D01*
X530339Y619960D01*
X529330Y620378D01*
X528248Y620521D01*
X528096Y620501D01*
X527875Y620949D01*
X529185Y622259D01*
X529472Y622689D01*
X529573Y623196D01*
Y632084D01*
X530339Y632402D01*
X531205Y633066D01*
X531870Y633932D01*
X532288Y634941D01*
X532430Y636024D01*
X532288Y637106D01*
X531870Y638115D01*
X531205Y638981D01*
X530339Y639645D01*
X529330Y640063D01*
X528248Y640206D01*
X527165Y640063D01*
X526157Y639645D01*
X525291Y638981D01*
X524626Y638115D01*
X524309Y637349D01*
X512502D01*
X512185Y638115D01*
X511520Y638981D01*
X510654Y639645D01*
X509645Y640063D01*
X508563Y640206D01*
X507480Y640063D01*
X506472Y639645D01*
X505606Y638981D01*
X504941Y638115D01*
X504624Y637349D01*
X494855D01*
X493944Y638260D01*
X493514Y638547D01*
X493007Y638648D01*
X485415D01*
X485254Y639122D01*
X485429Y639256D01*
X486118Y640154D01*
X486552Y641200D01*
X486699Y642323D01*
X486552Y643445D01*
X486118Y644491D01*
X485429Y645390D01*
X484531Y646079D01*
X483485Y646512D01*
X482362Y646660D01*
D02*
G37*
G36*
X573622Y640141D02*
X572540Y639999D01*
X571531Y639581D01*
X570665Y638916D01*
X570000Y638050D01*
X569582Y637041D01*
X569440Y635959D01*
X569582Y634876D01*
X570000Y633868D01*
X570665Y633002D01*
X571531Y632337D01*
X572540Y631919D01*
X573622Y631777D01*
X574705Y631919D01*
X575713Y632337D01*
X576579Y633002D01*
X577244Y633868D01*
X577662Y634876D01*
X577804Y635959D01*
X577662Y637041D01*
X577244Y638050D01*
X576579Y638916D01*
X575713Y639581D01*
X574705Y639999D01*
X573622Y640141D01*
D02*
G37*
G36*
X553937D02*
X552855Y639999D01*
X551846Y639581D01*
X550980Y638916D01*
X550315Y638050D01*
X549897Y637041D01*
X549755Y635959D01*
X549897Y634876D01*
X550315Y633868D01*
X550980Y633002D01*
X551846Y632337D01*
X552855Y631919D01*
X553937Y631777D01*
X555019Y631919D01*
X556028Y632337D01*
X556894Y633002D01*
X557559Y633868D01*
X557977Y634876D01*
X558119Y635959D01*
X557977Y637041D01*
X557559Y638050D01*
X556894Y638916D01*
X556028Y639581D01*
X555019Y639999D01*
X553937Y640141D01*
D02*
G37*
G36*
X482362Y626660D02*
X481240Y626512D01*
X480194Y626079D01*
X479295Y625390D01*
X478606Y624491D01*
X478173Y623445D01*
X478025Y622323D01*
X478173Y621200D01*
X478606Y620154D01*
X479295Y619256D01*
X480194Y618567D01*
X481240Y618133D01*
X482362Y617986D01*
X483485Y618133D01*
X484531Y618567D01*
X485429Y619256D01*
X486118Y620154D01*
X486552Y621200D01*
X486699Y622323D01*
X486552Y623445D01*
X486118Y624491D01*
X485429Y625390D01*
X484531Y626079D01*
X483485Y626512D01*
X482362Y626660D01*
D02*
G37*
G36*
X573622Y620456D02*
X572540Y620314D01*
X571531Y619896D01*
X570665Y619231D01*
X570000Y618365D01*
X569683Y617599D01*
X557876D01*
X557559Y618365D01*
X556894Y619231D01*
X556028Y619896D01*
X555019Y620314D01*
X553937Y620456D01*
X552855Y620314D01*
X551846Y619896D01*
X550980Y619231D01*
X550315Y618365D01*
X549897Y617356D01*
X549755Y616274D01*
X549897Y615191D01*
X550311Y614193D01*
X526026Y589908D01*
X506455D01*
X486145Y610218D01*
X486552Y611200D01*
X486699Y612323D01*
X486552Y613445D01*
X486118Y614491D01*
X485429Y615390D01*
X484531Y616079D01*
X483485Y616512D01*
X482362Y616660D01*
X481240Y616512D01*
X480194Y616079D01*
X479295Y615390D01*
X478606Y614491D01*
X478173Y613445D01*
X478025Y612323D01*
X478173Y611200D01*
X478606Y610154D01*
X479295Y609256D01*
X480194Y608567D01*
X481240Y608134D01*
X482362Y607986D01*
X483485Y608134D01*
X484189Y608425D01*
X504968Y587645D01*
X505398Y587358D01*
X505905Y587257D01*
X526575D01*
X527082Y587358D01*
X527512Y587645D01*
X552322Y612455D01*
X552855Y612234D01*
X553937Y612092D01*
X555019Y612234D01*
X556028Y612652D01*
X556894Y613317D01*
X557559Y614183D01*
X557876Y614948D01*
X569683D01*
X569899Y614426D01*
X566399Y610925D01*
X566112Y610495D01*
X566011Y609988D01*
Y598069D01*
X565982D01*
X565359Y597946D01*
X564831Y597593D01*
X564479Y597065D01*
X564355Y596443D01*
Y592534D01*
X564479Y591911D01*
X564831Y591383D01*
X565359Y591031D01*
X565982Y590907D01*
X568691D01*
X569313Y591031D01*
X569841Y591383D01*
X570194Y591911D01*
X570318Y592534D01*
Y596443D01*
X570194Y597065D01*
X569841Y597593D01*
X569313Y597946D01*
X568691Y598069D01*
X568662D01*
Y609439D01*
X571774Y612551D01*
X572540Y612234D01*
X573622Y612092D01*
X574705Y612234D01*
X575713Y612652D01*
X576579Y613317D01*
X577244Y614183D01*
X577662Y615191D01*
X577804Y616274D01*
X577662Y617356D01*
X577244Y618365D01*
X576579Y619231D01*
X575713Y619896D01*
X574705Y620314D01*
X573622Y620456D01*
D02*
G37*
G36*
X508563Y620521D02*
X507480Y620378D01*
X506472Y619960D01*
X505606Y619296D01*
X504941Y618430D01*
X504523Y617421D01*
X504381Y616338D01*
X504523Y615256D01*
X504941Y614247D01*
X505606Y613381D01*
X506472Y612716D01*
X507480Y612299D01*
X508563Y612156D01*
X509645Y612299D01*
X510654Y612716D01*
X511520Y613381D01*
X512185Y614247D01*
X512603Y615256D01*
X512745Y616338D01*
X512603Y617421D01*
X512185Y618430D01*
X511520Y619296D01*
X510654Y619960D01*
X509645Y620378D01*
X508563Y620521D01*
D02*
G37*
G36*
X402362Y606660D02*
X401240Y606512D01*
X400194Y606079D01*
X399295Y605390D01*
X398606Y604491D01*
X398173Y603445D01*
X398025Y602323D01*
X398173Y601200D01*
X398606Y600154D01*
X399295Y599256D01*
X400194Y598567D01*
X401240Y598134D01*
X402362Y597986D01*
X403485Y598134D01*
X404531Y598567D01*
X405429Y599256D01*
X406118Y600154D01*
X406552Y601200D01*
X406699Y602323D01*
X406552Y603445D01*
X406118Y604491D01*
X405429Y605390D01*
X404531Y606079D01*
X403485Y606512D01*
X402362Y606660D01*
D02*
G37*
G36*
X561591Y598273D02*
X561236D01*
Y595488D01*
X563421D01*
Y596443D01*
X563282Y597143D01*
X562885Y597737D01*
X562291Y598134D01*
X561591Y598273D01*
D02*
G37*
G36*
X559236D02*
X558882D01*
X558181Y598134D01*
X557587Y597737D01*
X557190Y597143D01*
X557051Y596443D01*
Y595488D01*
X559236D01*
Y598273D01*
D02*
G37*
G36*
X515915D02*
X515560D01*
Y595488D01*
X517745D01*
Y596443D01*
X517606Y597143D01*
X517209Y597737D01*
X516615Y598134D01*
X515915Y598273D01*
D02*
G37*
G36*
X513560D02*
X513206D01*
X512505Y598134D01*
X511911Y597737D01*
X511514Y597143D01*
X511375Y596443D01*
Y595488D01*
X513560D01*
Y598273D01*
D02*
G37*
G36*
X563421Y593488D02*
X561236D01*
Y590703D01*
X561591D01*
X562291Y590842D01*
X562885Y591239D01*
X563282Y591833D01*
X563421Y592534D01*
Y593488D01*
D02*
G37*
G36*
X559236D02*
X557051D01*
Y592534D01*
X557190Y591833D01*
X557587Y591239D01*
X558181Y590842D01*
X558882Y590703D01*
X559236D01*
Y593488D01*
D02*
G37*
G36*
X517745Y593488D02*
X515560D01*
Y590703D01*
X515915D01*
X516615Y590842D01*
X517209Y591239D01*
X517606Y591833D01*
X517745Y592534D01*
Y593488D01*
D02*
G37*
G36*
X513560D02*
X511375D01*
Y592534D01*
X511514Y591833D01*
X511911Y591239D01*
X512505Y590842D01*
X513206Y590703D01*
X513560D01*
Y593488D01*
D02*
G37*
G36*
X402362Y596660D02*
X401240Y596512D01*
X400194Y596079D01*
X399295Y595390D01*
X398606Y594491D01*
X398173Y593445D01*
X398025Y592323D01*
X398173Y591200D01*
X398606Y590154D01*
X399295Y589256D01*
X400194Y588567D01*
X401240Y588133D01*
X402362Y587986D01*
X403485Y588133D01*
X404531Y588567D01*
X405429Y589256D01*
X406118Y590154D01*
X406552Y591200D01*
X406699Y592323D01*
X406552Y593445D01*
X406118Y594491D01*
X405429Y595390D01*
X404531Y596079D01*
X403485Y596512D01*
X402362Y596660D01*
D02*
G37*
G36*
Y586660D02*
X401240Y586512D01*
X400194Y586079D01*
X399295Y585390D01*
X398606Y584491D01*
X398173Y583445D01*
X398025Y582323D01*
X398173Y581200D01*
X398606Y580154D01*
X399295Y579256D01*
X400194Y578567D01*
X401240Y578133D01*
X402362Y577986D01*
X403485Y578133D01*
X404531Y578567D01*
X405429Y579256D01*
X406118Y580154D01*
X406552Y581200D01*
X406699Y582323D01*
X406552Y583445D01*
X406118Y584491D01*
X405429Y585390D01*
X404531Y586079D01*
X403485Y586512D01*
X402362Y586660D01*
D02*
G37*
G36*
X573622Y577149D02*
X572540Y577007D01*
X571531Y576589D01*
X570665Y575924D01*
X570000Y575058D01*
X569582Y574049D01*
X569440Y572967D01*
X569582Y571884D01*
X570000Y570876D01*
X570665Y570010D01*
X571531Y569345D01*
X572540Y568927D01*
X573622Y568785D01*
X574705Y568927D01*
X575713Y569345D01*
X576579Y570010D01*
X577244Y570876D01*
X577662Y571884D01*
X577804Y572967D01*
X577662Y574049D01*
X577244Y575058D01*
X576579Y575924D01*
X575713Y576589D01*
X574705Y577007D01*
X573622Y577149D01*
D02*
G37*
G36*
X553937D02*
X552855Y577007D01*
X551846Y576589D01*
X550980Y575924D01*
X550315Y575058D01*
X549897Y574049D01*
X549755Y572967D01*
X549897Y571884D01*
X550315Y570876D01*
X550980Y570010D01*
X551846Y569345D01*
X552855Y568927D01*
X553937Y568785D01*
X555019Y568927D01*
X556028Y569345D01*
X556894Y570010D01*
X557559Y570876D01*
X557977Y571884D01*
X558119Y572967D01*
X557977Y574049D01*
X557559Y575058D01*
X556894Y575924D01*
X556028Y576589D01*
X555019Y577007D01*
X553937Y577149D01*
D02*
G37*
G36*
X402362Y576660D02*
X401240Y576512D01*
X400194Y576079D01*
X399295Y575390D01*
X398606Y574491D01*
X398173Y573445D01*
X398025Y572323D01*
X398173Y571200D01*
X398606Y570154D01*
X399295Y569256D01*
X400194Y568567D01*
X401240Y568133D01*
X402362Y567986D01*
X403485Y568133D01*
X404531Y568567D01*
X405429Y569256D01*
X406118Y570154D01*
X406552Y571200D01*
X406699Y572323D01*
X406552Y573445D01*
X406118Y574491D01*
X405429Y575390D01*
X404531Y576079D01*
X403485Y576512D01*
X402362Y576660D01*
D02*
G37*
G36*
X482362Y566660D02*
X481240Y566512D01*
X480194Y566079D01*
X479295Y565390D01*
X478606Y564491D01*
X478173Y563445D01*
X478025Y562323D01*
X478173Y561200D01*
X478606Y560154D01*
X479295Y559256D01*
X480194Y558567D01*
X481240Y558134D01*
X482362Y557986D01*
X483485Y558134D01*
X484531Y558567D01*
X485429Y559256D01*
X486118Y560154D01*
X486552Y561200D01*
X486699Y562323D01*
X486552Y563445D01*
X486118Y564491D01*
X485429Y565390D01*
X484531Y566079D01*
X483485Y566512D01*
X482362Y566660D01*
D02*
G37*
G36*
X402362D02*
X401240Y566512D01*
X400194Y566079D01*
X399295Y565390D01*
X398606Y564491D01*
X398173Y563445D01*
X398025Y562323D01*
X398173Y561200D01*
X398606Y560154D01*
X399295Y559256D01*
X400194Y558567D01*
X401240Y558134D01*
X402362Y557986D01*
X403485Y558134D01*
X404531Y558567D01*
X405429Y559256D01*
X406118Y560154D01*
X406552Y561200D01*
X406699Y562323D01*
X406552Y563445D01*
X406118Y564491D01*
X405429Y565390D01*
X404531Y566079D01*
X403485Y566512D01*
X402362Y566660D01*
D02*
G37*
G36*
X528150Y557529D02*
X527067Y557386D01*
X526058Y556968D01*
X525192Y556304D01*
X524528Y555438D01*
X524110Y554429D01*
X523967Y553346D01*
X524110Y552264D01*
X524528Y551255D01*
X525192Y550389D01*
X526058Y549725D01*
X527067Y549307D01*
X528150Y549164D01*
X529232Y549307D01*
X530241Y549725D01*
X531107Y550389D01*
X531772Y551255D01*
X532189Y552264D01*
X532332Y553346D01*
X532189Y554429D01*
X531772Y555438D01*
X531107Y556304D01*
X530241Y556968D01*
X529232Y557386D01*
X528150Y557529D01*
D02*
G37*
G36*
X482362Y556660D02*
X481240Y556512D01*
X480194Y556079D01*
X479295Y555390D01*
X478606Y554491D01*
X478173Y553445D01*
X478025Y552323D01*
X478173Y551200D01*
X478606Y550154D01*
X479295Y549256D01*
X480194Y548567D01*
X481240Y548134D01*
X482362Y547986D01*
X483485Y548134D01*
X484531Y548567D01*
X485429Y549256D01*
X486118Y550154D01*
X486552Y551200D01*
X486699Y552323D01*
X486552Y553445D01*
X486118Y554491D01*
X485429Y555390D01*
X484531Y556079D01*
X483485Y556512D01*
X482362Y556660D01*
D02*
G37*
G36*
X561591Y534888D02*
X561236D01*
Y532102D01*
X563421D01*
Y533057D01*
X563282Y533757D01*
X562885Y534351D01*
X562291Y534748D01*
X561591Y534888D01*
D02*
G37*
G36*
X559236D02*
X558882D01*
X558181Y534748D01*
X557587Y534351D01*
X557190Y533757D01*
X557051Y533057D01*
Y532102D01*
X559236D01*
Y534888D01*
D02*
G37*
G36*
X515915D02*
X515560D01*
Y532102D01*
X517745D01*
Y533057D01*
X517606Y533757D01*
X517209Y534351D01*
X516615Y534748D01*
X515915Y534888D01*
D02*
G37*
G36*
X513560D02*
X513206D01*
X512505Y534748D01*
X511911Y534351D01*
X511514Y533757D01*
X511375Y533057D01*
Y532102D01*
X513560D01*
Y534888D01*
D02*
G37*
G36*
X563421Y530102D02*
X561236D01*
Y527317D01*
X561591D01*
X562291Y527457D01*
X562885Y527853D01*
X563282Y528447D01*
X563421Y529148D01*
Y530102D01*
D02*
G37*
G36*
X559236D02*
X557051D01*
Y529148D01*
X557190Y528447D01*
X557587Y527853D01*
X558181Y527457D01*
X558882Y527317D01*
X559236D01*
Y530102D01*
D02*
G37*
G36*
X517745Y530102D02*
X515560D01*
Y527317D01*
X515915D01*
X516615Y527457D01*
X517209Y527853D01*
X517606Y528447D01*
X517745Y529148D01*
Y530102D01*
D02*
G37*
G36*
X513560D02*
X511375D01*
Y529148D01*
X511514Y528447D01*
X511911Y527853D01*
X512505Y527457D01*
X513206Y527317D01*
X513560D01*
Y530102D01*
D02*
G37*
G36*
X458480Y518821D02*
Y515370D01*
X461931D01*
X461907Y515556D01*
X461449Y516662D01*
X460721Y517611D01*
X459772Y518339D01*
X458666Y518797D01*
X458480Y518821D01*
D02*
G37*
G36*
X456480D02*
X456294Y518797D01*
X455189Y518339D01*
X454240Y517611D01*
X453512Y516662D01*
X453054Y515556D01*
X453029Y515370D01*
X456480D01*
Y518821D01*
D02*
G37*
G36*
X443701Y518751D02*
X442567Y518602D01*
X441510Y518164D01*
X440603Y517468D01*
X439907Y516561D01*
X439469Y515504D01*
X439320Y514370D01*
X439469Y513237D01*
X439907Y512180D01*
X440603Y511273D01*
X441510Y510576D01*
X442567Y510139D01*
X443701Y509990D01*
X444835Y510139D01*
X445891Y510576D01*
X446799Y511273D01*
X447495Y512180D01*
X447932Y513237D01*
X448082Y514370D01*
X447932Y515504D01*
X447495Y516561D01*
X446799Y517468D01*
X445891Y518164D01*
X444835Y518602D01*
X443701Y518751D01*
D02*
G37*
G36*
X461931Y513370D02*
X458480D01*
Y509920D01*
X458666Y509944D01*
X459772Y510402D01*
X460721Y511130D01*
X461449Y512079D01*
X461907Y513184D01*
X461931Y513370D01*
D02*
G37*
G36*
X456480D02*
X453029D01*
X453054Y513184D01*
X453512Y512079D01*
X454240Y511130D01*
X455189Y510402D01*
X456294Y509944D01*
X456480Y509920D01*
Y513370D01*
D02*
G37*
G36*
X573622Y513862D02*
X572540Y513719D01*
X571531Y513302D01*
X570665Y512637D01*
X570000Y511771D01*
X569582Y510762D01*
X569440Y509680D01*
X569582Y508597D01*
X570000Y507588D01*
X570665Y506722D01*
X571531Y506058D01*
X572540Y505640D01*
X573622Y505497D01*
X574705Y505640D01*
X575713Y506058D01*
X576579Y506722D01*
X577244Y507588D01*
X577662Y508597D01*
X577804Y509680D01*
X577662Y510762D01*
X577244Y511771D01*
X576579Y512637D01*
X575713Y513302D01*
X574705Y513719D01*
X573622Y513862D01*
D02*
G37*
G36*
X553937D02*
X552855Y513719D01*
X551846Y513302D01*
X550980Y512637D01*
X550315Y511771D01*
X549897Y510762D01*
X549755Y509680D01*
X549897Y508597D01*
X550315Y507588D01*
X550980Y506722D01*
X551846Y506058D01*
X552855Y505640D01*
X553937Y505497D01*
X555019Y505640D01*
X556028Y506058D01*
X556894Y506722D01*
X557559Y507588D01*
X557977Y508597D01*
X558119Y509680D01*
X557977Y510762D01*
X557559Y511771D01*
X556894Y512637D01*
X556028Y513302D01*
X555019Y513719D01*
X553937Y513862D01*
D02*
G37*
G36*
X439173Y503997D02*
X437731Y503807D01*
X436387Y503251D01*
X435233Y502365D01*
X434348Y501211D01*
X433791Y499867D01*
X433601Y498425D01*
X433791Y496983D01*
X434348Y495639D01*
X435233Y494485D01*
X436387Y493600D01*
X437731Y493043D01*
X439173Y492853D01*
X440615Y493043D01*
X441959Y493600D01*
X443113Y494485D01*
X443999Y495639D01*
X444555Y496983D01*
X444745Y498425D01*
X444555Y499867D01*
X443999Y501211D01*
X443113Y502365D01*
X441959Y503251D01*
X440615Y503807D01*
X439173Y503997D01*
D02*
G37*
G36*
X452953Y498879D02*
X451511Y498689D01*
X450167Y498133D01*
X449013Y497247D01*
X448127Y496093D01*
X447571Y494749D01*
X447381Y493307D01*
X447571Y491865D01*
X448127Y490521D01*
X449013Y489367D01*
X450167Y488482D01*
X451511Y487925D01*
X452953Y487735D01*
X454395Y487925D01*
X455739Y488482D01*
X456893Y489367D01*
X457778Y490521D01*
X458335Y491865D01*
X458525Y493307D01*
X458335Y494749D01*
X457778Y496093D01*
X456893Y497247D01*
X455739Y498133D01*
X454395Y498689D01*
X452953Y498879D01*
D02*
G37*
G36*
X508366Y494241D02*
X507284Y494099D01*
X506275Y493681D01*
X505409Y493016D01*
X504744Y492150D01*
X504326Y491142D01*
X504184Y490059D01*
X504326Y488977D01*
X504744Y487968D01*
X505409Y487102D01*
X506275Y486437D01*
X507284Y486019D01*
X508366Y485877D01*
X509449Y486019D01*
X510457Y486437D01*
X511323Y487102D01*
X511988Y487968D01*
X512406Y488977D01*
X512548Y490059D01*
X512406Y491142D01*
X511988Y492150D01*
X511323Y493016D01*
X510457Y493681D01*
X509449Y494099D01*
X508366Y494241D01*
D02*
G37*
G36*
X561591Y472289D02*
X561236D01*
Y469504D01*
X563421D01*
Y470459D01*
X563282Y471159D01*
X562885Y471753D01*
X562291Y472150D01*
X561591Y472289D01*
D02*
G37*
G36*
X559236D02*
X558882D01*
X558181Y472150D01*
X557587Y471753D01*
X557190Y471159D01*
X557051Y470459D01*
Y469504D01*
X559236D01*
Y472289D01*
D02*
G37*
G36*
X515915D02*
X515560D01*
Y469504D01*
X517745D01*
Y470459D01*
X517606Y471159D01*
X517209Y471753D01*
X516615Y472150D01*
X515915Y472289D01*
D02*
G37*
G36*
X513560D02*
X513206D01*
X512505Y472150D01*
X511911Y471753D01*
X511514Y471159D01*
X511375Y470459D01*
Y469504D01*
X513560D01*
Y472289D01*
D02*
G37*
G36*
X563421Y467504D02*
X561236D01*
Y464719D01*
X561591D01*
X562291Y464858D01*
X562885Y465255D01*
X563282Y465849D01*
X563421Y466549D01*
Y467504D01*
D02*
G37*
G36*
X559236D02*
X557051D01*
Y466549D01*
X557190Y465849D01*
X557587Y465255D01*
X558181Y464858D01*
X558882Y464719D01*
X559236D01*
Y467504D01*
D02*
G37*
G36*
X517745Y467504D02*
X515560D01*
Y464719D01*
X515915D01*
X516615Y464858D01*
X517209Y465255D01*
X517606Y465849D01*
X517745Y466549D01*
Y467504D01*
D02*
G37*
G36*
X513560D02*
X511375D01*
Y466549D01*
X511514Y465849D01*
X511911Y465255D01*
X512505Y464858D01*
X513206Y464719D01*
X513560D01*
Y467504D01*
D02*
G37*
G36*
X574803Y451362D02*
X573721Y451219D01*
X572712Y450802D01*
X571846Y450137D01*
X571181Y449271D01*
X570763Y448262D01*
X570621Y447180D01*
X570763Y446097D01*
X571181Y445088D01*
X571846Y444222D01*
X572712Y443558D01*
X573721Y443140D01*
X574803Y442997D01*
X575886Y443140D01*
X576894Y443558D01*
X577760Y444222D01*
X578425Y445088D01*
X578843Y446097D01*
X578985Y447180D01*
X578843Y448262D01*
X578425Y449271D01*
X577760Y450137D01*
X576894Y450802D01*
X575886Y451219D01*
X574803Y451362D01*
D02*
G37*
G36*
X555118D02*
X554036Y451219D01*
X553027Y450802D01*
X552161Y450137D01*
X551496Y449271D01*
X551078Y448262D01*
X550936Y447180D01*
X551078Y446097D01*
X551496Y445088D01*
X552161Y444222D01*
X553027Y443558D01*
X554036Y443140D01*
X555118Y442997D01*
X556201Y443140D01*
X557209Y443558D01*
X558075Y444222D01*
X558740Y445088D01*
X559158Y446097D01*
X559300Y447180D01*
X559158Y448262D01*
X558740Y449271D01*
X558075Y450137D01*
X557209Y450802D01*
X556201Y451219D01*
X555118Y451362D01*
D02*
G37*
G36*
X476378Y514686D02*
X475241Y514574D01*
X474148Y514243D01*
X473140Y513704D01*
X472257Y512979D01*
X471532Y512096D01*
X470994Y511089D01*
X470662Y509995D01*
X470550Y508858D01*
X470662Y507721D01*
X470994Y506628D01*
X471532Y505620D01*
X472257Y504737D01*
X473140Y504012D01*
X474148Y503474D01*
X475052Y503199D01*
Y479134D01*
X475153Y478627D01*
X475441Y478197D01*
X504545Y449092D01*
X504228Y448327D01*
X504085Y447244D01*
X504228Y446162D01*
X504646Y445153D01*
X505310Y444287D01*
X506177Y443622D01*
X507185Y443204D01*
X508268Y443062D01*
X509350Y443204D01*
X510359Y443622D01*
X511225Y444287D01*
X511890Y445153D01*
X512207Y445919D01*
X524014D01*
X524331Y445153D01*
X524996Y444287D01*
X525862Y443622D01*
X526627Y443305D01*
Y436966D01*
X521117Y431456D01*
X520829Y431026D01*
X520728Y430518D01*
Y408306D01*
X520699D01*
X520077Y408182D01*
X519549Y407829D01*
X519197Y407301D01*
X519073Y406679D01*
Y402770D01*
X519197Y402147D01*
X519549Y401620D01*
X520077Y401267D01*
X520699Y401143D01*
X523408D01*
X524031Y401267D01*
X524559Y401620D01*
X524911Y402147D01*
X525035Y402770D01*
Y406679D01*
X524911Y407301D01*
X524559Y407829D01*
X524031Y408182D01*
X523408Y408306D01*
X523379D01*
Y426699D01*
X523879Y426732D01*
X523913Y426477D01*
X524331Y425468D01*
X524996Y424602D01*
X525862Y423937D01*
X526870Y423519D01*
X527953Y423377D01*
X529035Y423519D01*
X530044Y423937D01*
X530910Y424602D01*
X531575Y425468D01*
X531992Y426477D01*
X532135Y427559D01*
X531992Y428642D01*
X531575Y429650D01*
X530910Y430516D01*
X530044Y431181D01*
X529035Y431599D01*
X527953Y431741D01*
X526870Y431599D01*
X525862Y431181D01*
X524996Y430516D01*
X524331Y429650D01*
X523913Y428642D01*
X523879Y428386D01*
X523379Y428419D01*
Y429969D01*
X528890Y435480D01*
X529177Y435910D01*
X529278Y436417D01*
Y443305D01*
X530044Y443622D01*
X530910Y444287D01*
X531575Y445153D01*
X531992Y446162D01*
X532135Y447244D01*
X531992Y448327D01*
X531575Y449335D01*
X530910Y450201D01*
X530044Y450866D01*
X529035Y451284D01*
X527953Y451426D01*
X526870Y451284D01*
X525862Y450866D01*
X524996Y450201D01*
X524331Y449335D01*
X524014Y448570D01*
X512207D01*
X511890Y449335D01*
X511225Y450201D01*
X510359Y450866D01*
X509350Y451284D01*
X508268Y451426D01*
X507185Y451284D01*
X506420Y450967D01*
X477703Y479683D01*
Y503199D01*
X478608Y503474D01*
X479616Y504012D01*
X480499Y504737D01*
X481224Y505620D01*
X481762Y506628D01*
X482094Y507721D01*
X482206Y508858D01*
X482094Y509995D01*
X481762Y511089D01*
X481224Y512096D01*
X480499Y512979D01*
X479616Y513704D01*
X478608Y514243D01*
X477515Y514574D01*
X476378Y514686D01*
D02*
G37*
G36*
X508268Y431741D02*
X507185Y431599D01*
X506177Y431181D01*
X505310Y430516D01*
X504646Y429650D01*
X504228Y428642D01*
X504085Y427559D01*
X504228Y426477D01*
X504646Y425468D01*
X505310Y424602D01*
X506177Y423937D01*
X507185Y423519D01*
X508268Y423377D01*
X509350Y423519D01*
X510359Y423937D01*
X511225Y424602D01*
X511890Y425468D01*
X512307Y426477D01*
X512450Y427559D01*
X512307Y428642D01*
X511890Y429650D01*
X511225Y430516D01*
X510359Y431181D01*
X509350Y431599D01*
X508268Y431741D01*
D02*
G37*
G36*
X452953Y428800D02*
X451511Y428611D01*
X450167Y428054D01*
X449013Y427168D01*
X448127Y426014D01*
X447571Y424671D01*
X447381Y423228D01*
X447571Y421786D01*
X448127Y420442D01*
X449013Y419288D01*
X450167Y418403D01*
X451511Y417846D01*
X452953Y417656D01*
X454395Y417846D01*
X455739Y418403D01*
X456893Y419288D01*
X457778Y420442D01*
X458335Y421786D01*
X458525Y423228D01*
X458335Y424671D01*
X457778Y426014D01*
X456893Y427168D01*
X455739Y428054D01*
X454395Y428611D01*
X452953Y428800D01*
D02*
G37*
G36*
X439173Y424470D02*
X437731Y424280D01*
X436387Y423723D01*
X435233Y422838D01*
X434348Y421684D01*
X433791Y420340D01*
X433601Y418898D01*
X433791Y417455D01*
X434348Y416112D01*
X435233Y414958D01*
X436387Y414072D01*
X437731Y413515D01*
X439173Y413326D01*
X440615Y413515D01*
X441959Y414072D01*
X443113Y414958D01*
X443999Y416112D01*
X444555Y417455D01*
X444745Y418898D01*
X444555Y420340D01*
X443999Y421684D01*
X443113Y422838D01*
X441959Y423723D01*
X440615Y424280D01*
X439173Y424470D01*
D02*
G37*
G36*
X561676Y408509D02*
X561321D01*
Y405724D01*
X563506D01*
Y406679D01*
X563367Y407379D01*
X562970Y407973D01*
X562376Y408370D01*
X561676Y408509D01*
D02*
G37*
G36*
X559321D02*
X558967D01*
X558266Y408370D01*
X557672Y407973D01*
X557275Y407379D01*
X557136Y406679D01*
Y405724D01*
X559321D01*
Y408509D01*
D02*
G37*
G36*
X516308D02*
X515954D01*
Y405724D01*
X518139D01*
Y406679D01*
X518000Y407379D01*
X517603Y407973D01*
X517009Y408370D01*
X516308Y408509D01*
D02*
G37*
G36*
X513954D02*
X513599D01*
X512899Y408370D01*
X512305Y407973D01*
X511908Y407379D01*
X511769Y406679D01*
Y405724D01*
X513954D01*
Y408509D01*
D02*
G37*
G36*
X563506Y403724D02*
X561321D01*
Y400939D01*
X561676D01*
X562376Y401079D01*
X562970Y401475D01*
X563367Y402069D01*
X563506Y402770D01*
Y403724D01*
D02*
G37*
G36*
X559321D02*
X557136D01*
Y402770D01*
X557275Y402069D01*
X557672Y401475D01*
X558266Y401079D01*
X558967Y400939D01*
X559321D01*
Y403724D01*
D02*
G37*
G36*
X518139Y403724D02*
X515954D01*
Y400939D01*
X516308D01*
X517009Y401079D01*
X517603Y401475D01*
X518000Y402069D01*
X518139Y402770D01*
Y403724D01*
D02*
G37*
G36*
X513954D02*
X511769D01*
Y402770D01*
X511908Y402069D01*
X512305Y401475D01*
X512899Y401079D01*
X513599Y400939D01*
X513954D01*
Y403724D01*
D02*
G37*
G36*
X457481Y406546D02*
X456347Y406397D01*
X455290Y405960D01*
X454383Y405263D01*
X453687Y404356D01*
X453249Y403299D01*
X453100Y402166D01*
X453249Y401032D01*
X453687Y399975D01*
X454383Y399068D01*
X455290Y398372D01*
X456347Y397934D01*
X457481Y397785D01*
X458614Y397934D01*
X459671Y398372D01*
X460578Y399068D01*
X461274Y399975D01*
X461712Y401032D01*
X461861Y402166D01*
X461712Y403299D01*
X461274Y404356D01*
X460578Y405263D01*
X459671Y405960D01*
X458614Y406397D01*
X457481Y406546D01*
D02*
G37*
%LPD*%
G36*
X500039Y583320D02*
X576653D01*
X582367Y577605D01*
Y575672D01*
X581906Y575481D01*
X575740Y581646D01*
X575310Y581933D01*
X574803Y582034D01*
X500549D01*
X499707Y582877D01*
X499953Y583337D01*
X500039Y583320D01*
D02*
G37*
D10*
X527953Y436417D02*
Y447244D01*
X522054Y430518D02*
X527953Y436417D01*
X522054Y404724D02*
Y430518D01*
X555118Y427494D02*
X574803D01*
X567421Y420113D02*
X574803Y427494D01*
X567421Y404724D02*
Y420113D01*
X402362Y552224D02*
X451713D01*
X466535Y537402D01*
Y494095D02*
Y537402D01*
Y494095D02*
X471457Y489173D01*
Y423814D02*
Y489173D01*
Y423814D02*
X496649Y398622D01*
X573819D01*
X585693Y410496D01*
Y578983D01*
X585630Y579046D02*
X585693Y578983D01*
X585630Y579046D02*
Y638587D01*
X567336Y656880D02*
X585630Y638587D01*
X567336Y656880D02*
Y657480D01*
X505905Y588583D02*
X526575D01*
X482362Y612126D02*
X505905Y588583D01*
X526575D02*
X553937Y615945D01*
X520669Y595479D02*
Y615618D01*
X528248Y623196D01*
X520669Y595479D02*
X521660Y594488D01*
X528248Y623196D02*
Y636024D01*
X506924Y573032D02*
X508465Y574572D01*
X501339Y573032D02*
X506924D01*
X487047Y587323D02*
X501339Y573032D01*
X471457Y527559D02*
Y561417D01*
X482362Y572323D01*
X402362Y612323D02*
X437362Y577323D01*
X487638D01*
X508858Y523622D02*
X532480D01*
X502953Y529528D02*
X508858Y523622D01*
X502953Y529528D02*
Y562008D01*
X487638Y577323D02*
X502953Y562008D01*
X402362Y622323D02*
X437362Y587323D01*
X487047D01*
X500000Y580709D02*
X574803D01*
X488386Y592323D02*
X500000Y580709D01*
X482362Y592323D02*
X488386D01*
X471457Y527559D02*
X489665Y509350D01*
Y475886D02*
Y509350D01*
Y475886D02*
X506398Y459154D01*
X532972D01*
X538386Y453740D01*
Y444227D02*
Y453740D01*
Y444227D02*
X555118Y427494D01*
X508465Y573032D02*
Y574572D01*
X476378Y479134D02*
Y508858D01*
Y479134D02*
X508268Y447244D01*
X527953D01*
X500039Y584646D02*
X577202D01*
X482362Y602323D02*
X500039Y584646D01*
X577202D02*
X583693Y578154D01*
Y473457D02*
Y578154D01*
X569882Y459646D02*
X583693Y473457D01*
X549980Y459646D02*
X569882D01*
X542576Y467050D02*
X549980Y459646D01*
X523115Y467050D02*
X542576D01*
X521660Y468504D02*
X523115Y467050D01*
X581693Y498065D02*
Y573819D01*
X574803Y580709D02*
X581693Y573819D01*
X573622Y489994D02*
X581693Y498065D01*
X553937Y489994D02*
X573622D01*
X567336Y483709D02*
X573622Y489994D01*
X567336Y468504D02*
Y483709D01*
X521660Y468504D02*
Y490522D01*
X528051Y496913D01*
Y509744D01*
X508366D02*
X528051D01*
X532480Y523622D02*
X553937Y545079D01*
Y553282D01*
X521660Y531103D02*
Y566542D01*
X567336Y531703D02*
X573622Y537988D01*
X567336Y531103D02*
Y531703D01*
X573622Y537988D02*
Y553282D01*
X553937D02*
X573622D01*
X521660Y566542D02*
X528150Y573032D01*
X508465D02*
X528150D01*
X567336Y594488D02*
Y609988D01*
X573622Y616274D01*
X553937D02*
X573622D01*
X482362Y612126D02*
Y612323D01*
X553937Y615945D02*
Y616274D01*
X402362Y632323D02*
X407362Y637323D01*
X493007D01*
X494306Y636024D01*
X508563D01*
X528248D01*
X409449Y649409D02*
Y655512D01*
X402362Y642323D02*
X409449Y649409D01*
X514560Y657920D02*
Y672694D01*
X409449Y655512D02*
X424213Y670276D01*
X501765D01*
X512493Y659548D01*
X512933D01*
X514560Y657920D01*
Y657480D02*
Y657920D01*
X567336Y658080D02*
X573622Y664366D01*
X567336Y657480D02*
Y658080D01*
X573622Y664366D02*
Y679266D01*
X553937D02*
X573622D01*
X514560Y672694D02*
X528051Y686185D01*
Y699016D01*
X508366D02*
X528051D01*
D14*
X514560Y657480D02*
D03*
X521660D02*
D03*
X522054Y404724D02*
D03*
X514954D02*
D03*
X560236Y657480D02*
D03*
X567336D02*
D03*
X560236Y594488D02*
D03*
X567336D02*
D03*
X560236Y531103D02*
D03*
X567336D02*
D03*
X560236Y468504D02*
D03*
X567336D02*
D03*
X560321Y404724D02*
D03*
X567421D02*
D03*
X514560Y468504D02*
D03*
X521660D02*
D03*
X514560Y594488D02*
D03*
X521660D02*
D03*
X514560Y531103D02*
D03*
X521660D02*
D03*
D23*
X477756Y666929D02*
X482362Y662323D01*
X440945Y666929D02*
X477756D01*
X433465Y659449D02*
X440945Y666929D01*
D24*
X553937Y698951D02*
D03*
Y679266D02*
D03*
X573622Y698951D02*
D03*
Y679266D02*
D03*
X508366Y699016D02*
D03*
Y679331D02*
D03*
X528051Y699016D02*
D03*
Y679331D02*
D03*
X553937Y635959D02*
D03*
Y616274D02*
D03*
X573622Y635959D02*
D03*
Y616274D02*
D03*
X508563Y636024D02*
D03*
Y616338D02*
D03*
X528248Y636024D02*
D03*
Y616338D02*
D03*
X553937Y572967D02*
D03*
Y553282D02*
D03*
X573622Y572967D02*
D03*
Y553282D02*
D03*
X508465Y573032D02*
D03*
Y553346D02*
D03*
X528150Y573032D02*
D03*
Y553346D02*
D03*
X553937Y509680D02*
D03*
Y489994D02*
D03*
X573622Y509680D02*
D03*
Y489994D02*
D03*
X508366Y509744D02*
D03*
Y490059D02*
D03*
X528051Y509744D02*
D03*
Y490059D02*
D03*
X527953Y427559D02*
D03*
Y447244D02*
D03*
X508268Y427559D02*
D03*
Y447244D02*
D03*
X574803Y427494D02*
D03*
Y447180D02*
D03*
X555118Y427494D02*
D03*
Y447180D02*
D03*
D25*
X433465Y659449D02*
D03*
X446063D02*
D03*
D26*
X452953Y423228D02*
D03*
X439173Y418898D02*
D03*
Y498425D02*
D03*
X452953Y493307D02*
D03*
D27*
X457480Y514370D02*
D03*
X443701D02*
D03*
X457481Y402166D02*
D03*
D28*
X482362Y552323D02*
D03*
Y562323D02*
D03*
Y572323D02*
D03*
Y582323D02*
D03*
Y592323D02*
D03*
Y602323D02*
D03*
Y612323D02*
D03*
Y622323D02*
D03*
Y632323D02*
D03*
Y642323D02*
D03*
Y652323D02*
D03*
Y662323D02*
D03*
X402362Y702323D02*
D03*
Y692323D02*
D03*
Y682323D02*
D03*
Y672323D02*
D03*
Y662323D02*
D03*
Y652323D02*
D03*
Y642323D02*
D03*
Y632323D02*
D03*
Y622323D02*
D03*
Y612323D02*
D03*
Y602323D02*
D03*
Y592323D02*
D03*
Y582323D02*
D03*
Y572323D02*
D03*
Y562323D02*
D03*
Y552224D02*
D03*
D29*
X490158Y707677D02*
D03*
D30*
X476378Y508858D02*
D03*
M02*
