G04*
G04 #@! TF.GenerationSoftware,Altium Limited,Altium Designer,19.1.8 (144)*
G04*
G04 Layer_Physical_Order=2*
G04 Layer_Color=16711680*
%FSLAX25Y25*%
%MOIN*%
G70*
G01*
G75*
%ADD10C,0.01000*%
%ADD24C,0.06693*%
%ADD25C,0.08000*%
%ADD26C,0.09449*%
%ADD27C,0.07087*%
%ADD28C,0.07000*%
%ADD29C,0.05000*%
%ADD30C,0.10000*%
%ADD31R,0.18110X0.03937*%
%ADD32R,0.13386X0.06299*%
%ADD33C,0.03000*%
%ADD34C,0.04000*%
G36*
X590551Y394685D02*
X448819D01*
Y412402D01*
X449803Y413386D01*
X495079D01*
Y672244D01*
X484707D01*
Y687389D01*
X487414D01*
Y692926D01*
X467704D01*
Y687389D01*
X480017D01*
Y672244D01*
X406768D01*
X406699Y672323D01*
X406552Y673445D01*
X406118Y674491D01*
X405429Y675390D01*
X404531Y676079D01*
X403485Y676512D01*
X402362Y676660D01*
X401240Y676512D01*
X400194Y676079D01*
X399295Y675390D01*
X398606Y674491D01*
X398173Y673445D01*
X398025Y672323D01*
X397956Y672244D01*
X393701D01*
Y727362D01*
X394685Y728346D01*
X590551D01*
Y394685D01*
D02*
G37*
%LPC*%
G36*
X464186Y711430D02*
X449200D01*
Y703531D01*
X464186D01*
Y711430D01*
D02*
G37*
G36*
X574622Y703203D02*
Y699951D01*
X577874D01*
X577857Y700086D01*
X577419Y701143D01*
X576722Y702051D01*
X575814Y702748D01*
X574757Y703186D01*
X574622Y703203D01*
D02*
G37*
G36*
X572622D02*
X572487Y703186D01*
X571430Y702748D01*
X570522Y702051D01*
X569825Y701143D01*
X569387Y700086D01*
X569370Y699951D01*
X572622D01*
Y703203D01*
D02*
G37*
G36*
X554937D02*
Y699951D01*
X558189D01*
X558172Y700086D01*
X557734Y701143D01*
X557037Y702051D01*
X556129Y702748D01*
X555072Y703186D01*
X554937Y703203D01*
D02*
G37*
G36*
X552937D02*
X552802Y703186D01*
X551745Y702748D01*
X550837Y702051D01*
X550140Y701143D01*
X549702Y700086D01*
X549685Y699951D01*
X552937D01*
Y703203D01*
D02*
G37*
G36*
X402362Y706660D02*
X401240Y706512D01*
X400194Y706079D01*
X399295Y705390D01*
X398606Y704491D01*
X398173Y703445D01*
X398025Y702323D01*
X398173Y701200D01*
X398606Y700154D01*
X399295Y699256D01*
X400194Y698567D01*
X401240Y698134D01*
X402362Y697986D01*
X403485Y698134D01*
X404531Y698567D01*
X405429Y699256D01*
X406118Y700154D01*
X406552Y701200D01*
X406699Y702323D01*
X406552Y703445D01*
X406118Y704491D01*
X405429Y705390D01*
X404531Y706079D01*
X403485Y706512D01*
X402362Y706660D01*
D02*
G37*
G36*
X528051Y703198D02*
X526969Y703055D01*
X525960Y702638D01*
X525094Y701973D01*
X524429Y701107D01*
X524012Y700098D01*
X523869Y699016D01*
X524012Y697933D01*
X524429Y696925D01*
X525094Y696059D01*
X525960Y695394D01*
X526969Y694976D01*
X528051Y694834D01*
X529134Y694976D01*
X530142Y695394D01*
X531008Y696059D01*
X531673Y696925D01*
X532091Y697933D01*
X532233Y699016D01*
X532091Y700098D01*
X531673Y701107D01*
X531008Y701973D01*
X530142Y702638D01*
X529134Y703055D01*
X528051Y703198D01*
D02*
G37*
G36*
X508366D02*
X507284Y703055D01*
X506275Y702638D01*
X505409Y701973D01*
X504744Y701107D01*
X504326Y700098D01*
X504184Y699016D01*
X504326Y697933D01*
X504744Y696925D01*
X505409Y696059D01*
X506275Y695394D01*
X507284Y694976D01*
X508366Y694834D01*
X509449Y694976D01*
X510457Y695394D01*
X511323Y696059D01*
X511988Y696925D01*
X512406Y697933D01*
X512548Y699016D01*
X512406Y700098D01*
X511988Y701107D01*
X511323Y701973D01*
X510457Y702638D01*
X509449Y703055D01*
X508366Y703198D01*
D02*
G37*
G36*
X490158Y711006D02*
X489296Y710892D01*
X488493Y710560D01*
X487804Y710031D01*
X487275Y709341D01*
X486942Y708539D01*
X486930Y708443D01*
X484117Y705631D01*
X483669Y705046D01*
X483386Y704365D01*
X483290Y703634D01*
Y700462D01*
X477559D01*
X477136Y700406D01*
X467704D01*
Y694869D01*
X477136D01*
X477559Y694814D01*
X484646D01*
X485069Y694869D01*
X487414D01*
Y696413D01*
X488111Y697109D01*
X488560Y697694D01*
X488842Y698376D01*
X488938Y699106D01*
Y702464D01*
X490924Y704450D01*
X491019Y704462D01*
X491822Y704795D01*
X492511Y705324D01*
X493040Y706013D01*
X493372Y706816D01*
X493486Y707677D01*
X493372Y708539D01*
X493040Y709341D01*
X492511Y710031D01*
X491822Y710560D01*
X491019Y710892D01*
X490158Y711006D01*
D02*
G37*
G36*
X577874Y697951D02*
X574622D01*
Y694699D01*
X574757Y694717D01*
X575814Y695155D01*
X576722Y695851D01*
X577419Y696759D01*
X577857Y697817D01*
X577874Y697951D01*
D02*
G37*
G36*
X572622D02*
X569370D01*
X569387Y697817D01*
X569825Y696759D01*
X570522Y695851D01*
X571430Y695155D01*
X572487Y694717D01*
X572622Y694699D01*
Y697951D01*
D02*
G37*
G36*
X558189D02*
X554937D01*
Y694699D01*
X555072Y694717D01*
X556129Y695155D01*
X557037Y695851D01*
X557734Y696759D01*
X558172Y697817D01*
X558189Y697951D01*
D02*
G37*
G36*
X552937D02*
X549685D01*
X549702Y697817D01*
X550140Y696759D01*
X550837Y695851D01*
X551745Y695155D01*
X552802Y694717D01*
X552937Y694699D01*
Y697951D01*
D02*
G37*
G36*
X403362Y696730D02*
Y693323D01*
X406769D01*
X406746Y693498D01*
X406293Y694592D01*
X405572Y695532D01*
X404632Y696254D01*
X403537Y696707D01*
X403362Y696730D01*
D02*
G37*
G36*
X401362Y696730D02*
X401187Y696707D01*
X400093Y696254D01*
X399153Y695532D01*
X398431Y694592D01*
X397978Y693498D01*
X397955Y693323D01*
X401362D01*
Y696730D01*
D02*
G37*
G36*
Y691323D02*
X397955D01*
X397978Y691148D01*
X398431Y690053D01*
X399153Y689113D01*
X400093Y688392D01*
X401187Y687939D01*
X401362Y687916D01*
Y691323D01*
D02*
G37*
G36*
X406769D02*
X403362D01*
Y687916D01*
X403537Y687939D01*
X404632Y688392D01*
X405572Y689113D01*
X406293Y690053D01*
X406746Y691148D01*
X406769Y691323D01*
D02*
G37*
G36*
X509366Y683583D02*
Y680331D01*
X512618D01*
X512601Y680465D01*
X512163Y681523D01*
X511466Y682431D01*
X510558Y683127D01*
X509501Y683565D01*
X509366Y683583D01*
D02*
G37*
G36*
X529051D02*
Y680331D01*
X532303D01*
X532286Y680465D01*
X531848Y681523D01*
X531151Y682431D01*
X530243Y683127D01*
X529186Y683565D01*
X529051Y683583D01*
D02*
G37*
G36*
X527051Y683583D02*
X526917Y683565D01*
X525859Y683127D01*
X524951Y682431D01*
X524255Y681523D01*
X523817Y680465D01*
X523799Y680331D01*
X527051D01*
Y683583D01*
D02*
G37*
G36*
X507366D02*
X507232Y683565D01*
X506174Y683127D01*
X505266Y682431D01*
X504569Y681523D01*
X504132Y680465D01*
X504114Y680331D01*
X507366D01*
Y683583D01*
D02*
G37*
G36*
X402362Y686660D02*
X401240Y686512D01*
X400194Y686079D01*
X399295Y685390D01*
X398606Y684491D01*
X398173Y683445D01*
X398025Y682323D01*
X398173Y681200D01*
X398606Y680154D01*
X399295Y679256D01*
X400194Y678567D01*
X401240Y678133D01*
X402362Y677986D01*
X403485Y678133D01*
X404531Y678567D01*
X405429Y679256D01*
X406118Y680154D01*
X406552Y681200D01*
X406699Y682323D01*
X406552Y683445D01*
X406118Y684491D01*
X405429Y685390D01*
X404531Y686079D01*
X403485Y686512D01*
X402362Y686660D01*
D02*
G37*
G36*
X464186Y683477D02*
X449200D01*
Y675578D01*
X464186D01*
Y683477D01*
D02*
G37*
G36*
X573622Y683448D02*
X572540Y683306D01*
X571531Y682888D01*
X570665Y682223D01*
X570000Y681357D01*
X569582Y680349D01*
X569440Y679266D01*
X569582Y678184D01*
X570000Y677175D01*
X570665Y676309D01*
X571531Y675644D01*
X572540Y675226D01*
X573622Y675084D01*
X574705Y675226D01*
X575713Y675644D01*
X576579Y676309D01*
X577244Y677175D01*
X577662Y678184D01*
X577804Y679266D01*
X577662Y680349D01*
X577244Y681357D01*
X576579Y682223D01*
X575713Y682888D01*
X574705Y683306D01*
X573622Y683448D01*
D02*
G37*
G36*
X553937D02*
X552855Y683306D01*
X551846Y682888D01*
X550980Y682223D01*
X550315Y681357D01*
X549897Y680349D01*
X549755Y679266D01*
X549897Y678184D01*
X550315Y677175D01*
X550980Y676309D01*
X551846Y675644D01*
X552855Y675226D01*
X553937Y675084D01*
X555019Y675226D01*
X556028Y675644D01*
X556894Y676309D01*
X557559Y677175D01*
X557977Y678184D01*
X558119Y679266D01*
X557977Y680349D01*
X557559Y681357D01*
X556894Y682223D01*
X556028Y682888D01*
X555019Y683306D01*
X553937Y683448D01*
D02*
G37*
G36*
X532303Y678331D02*
X529051D01*
Y675078D01*
X529186Y675096D01*
X530243Y675534D01*
X531151Y676231D01*
X531848Y677139D01*
X532286Y678196D01*
X532303Y678331D01*
D02*
G37*
G36*
X512618D02*
X509366D01*
Y675078D01*
X509501Y675096D01*
X510558Y675534D01*
X511466Y676231D01*
X512163Y677139D01*
X512601Y678196D01*
X512618Y678331D01*
D02*
G37*
G36*
X527051D02*
X523799D01*
X523817Y678196D01*
X524255Y677139D01*
X524951Y676231D01*
X525859Y675534D01*
X526917Y675096D01*
X527051Y675078D01*
Y678331D01*
D02*
G37*
G36*
X507366D02*
X504114D01*
X504132Y678196D01*
X504569Y677139D01*
X505266Y676231D01*
X506174Y675534D01*
X507232Y675096D01*
X507366Y675078D01*
Y678331D01*
D02*
G37*
G36*
X574622Y640211D02*
Y636959D01*
X577874D01*
X577857Y637094D01*
X577419Y638151D01*
X576722Y639059D01*
X575814Y639756D01*
X574757Y640194D01*
X574622Y640211D01*
D02*
G37*
G36*
X572622D02*
X572487Y640194D01*
X571430Y639756D01*
X570522Y639059D01*
X569825Y638151D01*
X569387Y637094D01*
X569370Y636959D01*
X572622D01*
Y640211D01*
D02*
G37*
G36*
X554937D02*
Y636959D01*
X558189D01*
X558172Y637094D01*
X557734Y638151D01*
X557037Y639059D01*
X556129Y639756D01*
X555072Y640194D01*
X554937Y640211D01*
D02*
G37*
G36*
X552937D02*
X552802Y640194D01*
X551745Y639756D01*
X550837Y639059D01*
X550140Y638151D01*
X549702Y637094D01*
X549685Y636959D01*
X552937D01*
Y640211D01*
D02*
G37*
G36*
X528248Y640206D02*
X527165Y640063D01*
X526157Y639645D01*
X525291Y638981D01*
X524626Y638115D01*
X524208Y637106D01*
X524066Y636024D01*
X524208Y634941D01*
X524626Y633932D01*
X525291Y633066D01*
X526157Y632402D01*
X527165Y631984D01*
X528248Y631841D01*
X529330Y631984D01*
X530339Y632402D01*
X531205Y633066D01*
X531870Y633932D01*
X532288Y634941D01*
X532430Y636024D01*
X532288Y637106D01*
X531870Y638115D01*
X531205Y638981D01*
X530339Y639645D01*
X529330Y640063D01*
X528248Y640206D01*
D02*
G37*
G36*
X508563D02*
X507480Y640063D01*
X506472Y639645D01*
X505606Y638981D01*
X504941Y638115D01*
X504523Y637106D01*
X504381Y636024D01*
X504523Y634941D01*
X504941Y633932D01*
X505606Y633066D01*
X506472Y632402D01*
X507480Y631984D01*
X508563Y631841D01*
X509645Y631984D01*
X510654Y632402D01*
X511520Y633066D01*
X512185Y633932D01*
X512603Y634941D01*
X512745Y636024D01*
X512603Y637106D01*
X512185Y638115D01*
X511520Y638981D01*
X510654Y639645D01*
X509645Y640063D01*
X508563Y640206D01*
D02*
G37*
G36*
X577874Y634959D02*
X574622D01*
Y631707D01*
X574757Y631724D01*
X575814Y632162D01*
X576722Y632859D01*
X577419Y633767D01*
X577857Y634824D01*
X577874Y634959D01*
D02*
G37*
G36*
X572622D02*
X569370D01*
X569387Y634824D01*
X569825Y633767D01*
X570522Y632859D01*
X571430Y632162D01*
X572487Y631724D01*
X572622Y631707D01*
Y634959D01*
D02*
G37*
G36*
X558189D02*
X554937D01*
Y631707D01*
X555072Y631724D01*
X556129Y632162D01*
X557037Y632859D01*
X557734Y633767D01*
X558172Y634824D01*
X558189Y634959D01*
D02*
G37*
G36*
X552937D02*
X549685D01*
X549702Y634824D01*
X550140Y633767D01*
X550837Y632859D01*
X551745Y632162D01*
X552802Y631724D01*
X552937Y631707D01*
Y634959D01*
D02*
G37*
G36*
X529248Y620591D02*
Y617339D01*
X532500D01*
X532482Y617473D01*
X532045Y618530D01*
X531348Y619438D01*
X530440Y620135D01*
X529383Y620573D01*
X529248Y620591D01*
D02*
G37*
G36*
X509563D02*
Y617339D01*
X512815D01*
X512797Y617473D01*
X512360Y618530D01*
X511663Y619438D01*
X510755Y620135D01*
X509697Y620573D01*
X509563Y620591D01*
D02*
G37*
G36*
X527248D02*
X527113Y620573D01*
X526056Y620135D01*
X525148Y619438D01*
X524451Y618530D01*
X524013Y617473D01*
X523996Y617339D01*
X527248D01*
Y620591D01*
D02*
G37*
G36*
X507563D02*
X507428Y620573D01*
X506371Y620135D01*
X505463Y619438D01*
X504766Y618530D01*
X504328Y617473D01*
X504311Y617339D01*
X507563D01*
Y620591D01*
D02*
G37*
G36*
X573622Y620456D02*
X572540Y620314D01*
X571531Y619896D01*
X570665Y619231D01*
X570000Y618365D01*
X569582Y617356D01*
X569440Y616274D01*
X569582Y615191D01*
X570000Y614183D01*
X570665Y613317D01*
X571531Y612652D01*
X572540Y612234D01*
X573622Y612092D01*
X574705Y612234D01*
X575713Y612652D01*
X576579Y613317D01*
X577244Y614183D01*
X577662Y615191D01*
X577804Y616274D01*
X577662Y617356D01*
X577244Y618365D01*
X576579Y619231D01*
X575713Y619896D01*
X574705Y620314D01*
X573622Y620456D01*
D02*
G37*
G36*
X553937D02*
X552855Y620314D01*
X551846Y619896D01*
X550980Y619231D01*
X550315Y618365D01*
X549897Y617356D01*
X549755Y616274D01*
X549897Y615191D01*
X550315Y614183D01*
X550980Y613317D01*
X551846Y612652D01*
X552855Y612234D01*
X553937Y612092D01*
X555019Y612234D01*
X556028Y612652D01*
X556894Y613317D01*
X557559Y614183D01*
X557977Y615191D01*
X558119Y616274D01*
X557977Y617356D01*
X557559Y618365D01*
X556894Y619231D01*
X556028Y619896D01*
X555019Y620314D01*
X553937Y620456D01*
D02*
G37*
G36*
X532500Y615339D02*
X529248D01*
Y612086D01*
X529383Y612104D01*
X530440Y612542D01*
X531348Y613238D01*
X532045Y614147D01*
X532482Y615204D01*
X532500Y615339D01*
D02*
G37*
G36*
X512815D02*
X509563D01*
Y612086D01*
X509697Y612104D01*
X510755Y612542D01*
X511663Y613238D01*
X512360Y614147D01*
X512797Y615204D01*
X512815Y615339D01*
D02*
G37*
G36*
X527248D02*
X523996D01*
X524013Y615204D01*
X524451Y614147D01*
X525148Y613238D01*
X526056Y612542D01*
X527113Y612104D01*
X527248Y612086D01*
Y615339D01*
D02*
G37*
G36*
X507563D02*
X504311D01*
X504328Y615204D01*
X504766Y614147D01*
X505463Y613238D01*
X506371Y612542D01*
X507428Y612104D01*
X507563Y612086D01*
Y615339D01*
D02*
G37*
G36*
X574622Y577219D02*
Y573967D01*
X577874D01*
X577857Y574102D01*
X577419Y575159D01*
X576722Y576067D01*
X575814Y576764D01*
X574757Y577202D01*
X574622Y577219D01*
D02*
G37*
G36*
X572622D02*
X572487Y577202D01*
X571430Y576764D01*
X570522Y576067D01*
X569825Y575159D01*
X569387Y574102D01*
X569370Y573967D01*
X572622D01*
Y577219D01*
D02*
G37*
G36*
X554937D02*
Y573967D01*
X558189D01*
X558172Y574102D01*
X557734Y575159D01*
X557037Y576067D01*
X556129Y576764D01*
X555072Y577202D01*
X554937Y577219D01*
D02*
G37*
G36*
X552937D02*
X552802Y577202D01*
X551745Y576764D01*
X550837Y576067D01*
X550140Y575159D01*
X549702Y574102D01*
X549685Y573967D01*
X552937D01*
Y577219D01*
D02*
G37*
G36*
X528150Y577214D02*
X527067Y577071D01*
X526058Y576653D01*
X525192Y575989D01*
X524528Y575123D01*
X524110Y574114D01*
X523967Y573032D01*
X524110Y571949D01*
X524528Y570940D01*
X525192Y570074D01*
X526058Y569410D01*
X527067Y568992D01*
X528150Y568849D01*
X529232Y568992D01*
X530241Y569410D01*
X531107Y570074D01*
X531772Y570940D01*
X532189Y571949D01*
X532332Y573032D01*
X532189Y574114D01*
X531772Y575123D01*
X531107Y575989D01*
X530241Y576653D01*
X529232Y577071D01*
X528150Y577214D01*
D02*
G37*
G36*
X508465D02*
X507382Y577071D01*
X506374Y576653D01*
X505507Y575989D01*
X504843Y575123D01*
X504425Y574114D01*
X504282Y573032D01*
X504425Y571949D01*
X504843Y570940D01*
X505507Y570074D01*
X506374Y569410D01*
X507382Y568992D01*
X508465Y568849D01*
X509547Y568992D01*
X510556Y569410D01*
X511422Y570074D01*
X512086Y570940D01*
X512504Y571949D01*
X512647Y573032D01*
X512504Y574114D01*
X512086Y575123D01*
X511422Y575989D01*
X510556Y576653D01*
X509547Y577071D01*
X508465Y577214D01*
D02*
G37*
G36*
X577874Y571967D02*
X574622D01*
Y568715D01*
X574757Y568732D01*
X575814Y569170D01*
X576722Y569867D01*
X577419Y570775D01*
X577857Y571832D01*
X577874Y571967D01*
D02*
G37*
G36*
X572622D02*
X569370D01*
X569387Y571832D01*
X569825Y570775D01*
X570522Y569867D01*
X571430Y569170D01*
X572487Y568732D01*
X572622Y568715D01*
Y571967D01*
D02*
G37*
G36*
X558189D02*
X554937D01*
Y568715D01*
X555072Y568732D01*
X556129Y569170D01*
X557037Y569867D01*
X557734Y570775D01*
X558172Y571832D01*
X558189Y571967D01*
D02*
G37*
G36*
X552937D02*
X549685D01*
X549702Y571832D01*
X550140Y570775D01*
X550837Y569867D01*
X551745Y569170D01*
X552802Y568732D01*
X552937Y568715D01*
Y571967D01*
D02*
G37*
G36*
X529150Y557599D02*
Y554347D01*
X532402D01*
X532384Y554481D01*
X531946Y555539D01*
X531250Y556446D01*
X530342Y557143D01*
X529284Y557581D01*
X529150Y557599D01*
D02*
G37*
G36*
X509465D02*
Y554347D01*
X512717D01*
X512699Y554481D01*
X512261Y555539D01*
X511564Y556446D01*
X510657Y557143D01*
X509599Y557581D01*
X509465Y557599D01*
D02*
G37*
G36*
X507465D02*
X507330Y557581D01*
X506273Y557143D01*
X505365Y556446D01*
X504668Y555539D01*
X504230Y554481D01*
X504212Y554347D01*
X507465D01*
Y557599D01*
D02*
G37*
G36*
X527150D02*
X527015Y557581D01*
X525958Y557143D01*
X525050Y556446D01*
X524353Y555539D01*
X523915Y554481D01*
X523897Y554347D01*
X527150D01*
Y557599D01*
D02*
G37*
G36*
X573622Y557464D02*
X572540Y557322D01*
X571531Y556904D01*
X570665Y556239D01*
X570000Y555373D01*
X569582Y554364D01*
X569440Y553282D01*
X569582Y552200D01*
X570000Y551191D01*
X570665Y550325D01*
X571531Y549660D01*
X572540Y549242D01*
X573622Y549100D01*
X574705Y549242D01*
X575713Y549660D01*
X576579Y550325D01*
X577244Y551191D01*
X577662Y552200D01*
X577804Y553282D01*
X577662Y554364D01*
X577244Y555373D01*
X576579Y556239D01*
X575713Y556904D01*
X574705Y557322D01*
X573622Y557464D01*
D02*
G37*
G36*
X553937D02*
X552855Y557322D01*
X551846Y556904D01*
X550980Y556239D01*
X550315Y555373D01*
X549897Y554364D01*
X549755Y553282D01*
X549897Y552200D01*
X550315Y551191D01*
X550980Y550325D01*
X551846Y549660D01*
X552855Y549242D01*
X553937Y549100D01*
X555019Y549242D01*
X556028Y549660D01*
X556894Y550325D01*
X557559Y551191D01*
X557977Y552200D01*
X558119Y553282D01*
X557977Y554364D01*
X557559Y555373D01*
X556894Y556239D01*
X556028Y556904D01*
X555019Y557322D01*
X553937Y557464D01*
D02*
G37*
G36*
X532402Y552347D02*
X529150D01*
Y549094D01*
X529284Y549112D01*
X530342Y549550D01*
X531250Y550247D01*
X531946Y551155D01*
X532384Y552212D01*
X532402Y552347D01*
D02*
G37*
G36*
X512717D02*
X509465D01*
Y549094D01*
X509599Y549112D01*
X510657Y549550D01*
X511564Y550247D01*
X512261Y551155D01*
X512699Y552212D01*
X512717Y552347D01*
D02*
G37*
G36*
X527150D02*
X523897D01*
X523915Y552212D01*
X524353Y551155D01*
X525050Y550247D01*
X525958Y549550D01*
X527015Y549112D01*
X527150Y549094D01*
Y552347D01*
D02*
G37*
G36*
X507465D02*
X504212D01*
X504230Y552212D01*
X504668Y551155D01*
X505365Y550247D01*
X506273Y549550D01*
X507330Y549112D01*
X507465Y549094D01*
Y552347D01*
D02*
G37*
G36*
X574622Y513932D02*
Y510679D01*
X577874D01*
X577857Y510814D01*
X577419Y511871D01*
X576722Y512780D01*
X575814Y513476D01*
X574757Y513914D01*
X574622Y513932D01*
D02*
G37*
G36*
X572622D02*
X572487Y513914D01*
X571430Y513476D01*
X570522Y512780D01*
X569825Y511871D01*
X569387Y510814D01*
X569370Y510679D01*
X572622D01*
Y513932D01*
D02*
G37*
G36*
X554937D02*
Y510679D01*
X558189D01*
X558172Y510814D01*
X557734Y511871D01*
X557037Y512780D01*
X556129Y513476D01*
X555072Y513914D01*
X554937Y513932D01*
D02*
G37*
G36*
X552937D02*
X552802Y513914D01*
X551745Y513476D01*
X550837Y512780D01*
X550140Y511871D01*
X549702Y510814D01*
X549685Y510679D01*
X552937D01*
Y513932D01*
D02*
G37*
G36*
X528051Y513926D02*
X526969Y513784D01*
X525960Y513366D01*
X525094Y512701D01*
X524429Y511835D01*
X524012Y510827D01*
X523869Y509744D01*
X524012Y508662D01*
X524429Y507653D01*
X525094Y506787D01*
X525960Y506122D01*
X526969Y505704D01*
X528051Y505562D01*
X529134Y505704D01*
X530142Y506122D01*
X531008Y506787D01*
X531673Y507653D01*
X532091Y508662D01*
X532233Y509744D01*
X532091Y510827D01*
X531673Y511835D01*
X531008Y512701D01*
X530142Y513366D01*
X529134Y513784D01*
X528051Y513926D01*
D02*
G37*
G36*
X508366D02*
X507284Y513784D01*
X506275Y513366D01*
X505409Y512701D01*
X504744Y511835D01*
X504326Y510827D01*
X504184Y509744D01*
X504326Y508662D01*
X504744Y507653D01*
X505409Y506787D01*
X506275Y506122D01*
X507284Y505704D01*
X508366Y505562D01*
X509449Y505704D01*
X510457Y506122D01*
X511323Y506787D01*
X511988Y507653D01*
X512406Y508662D01*
X512548Y509744D01*
X512406Y510827D01*
X511988Y511835D01*
X511323Y512701D01*
X510457Y513366D01*
X509449Y513784D01*
X508366Y513926D01*
D02*
G37*
G36*
X577874Y508679D02*
X574622D01*
Y505427D01*
X574757Y505445D01*
X575814Y505883D01*
X576722Y506580D01*
X577419Y507488D01*
X577857Y508545D01*
X577874Y508679D01*
D02*
G37*
G36*
X572622D02*
X569370D01*
X569387Y508545D01*
X569825Y507488D01*
X570522Y506580D01*
X571430Y505883D01*
X572487Y505445D01*
X572622Y505427D01*
Y508679D01*
D02*
G37*
G36*
X558189D02*
X554937D01*
Y505427D01*
X555072Y505445D01*
X556129Y505883D01*
X557037Y506580D01*
X557734Y507488D01*
X558172Y508545D01*
X558189Y508679D01*
D02*
G37*
G36*
X552937D02*
X549685D01*
X549702Y508545D01*
X550140Y507488D01*
X550837Y506580D01*
X551745Y505883D01*
X552802Y505445D01*
X552937Y505427D01*
Y508679D01*
D02*
G37*
G36*
X529051Y494311D02*
Y491059D01*
X532303D01*
X532286Y491194D01*
X531848Y492251D01*
X531151Y493159D01*
X530243Y493856D01*
X529186Y494294D01*
X529051Y494311D01*
D02*
G37*
G36*
X509366D02*
Y491059D01*
X512618D01*
X512601Y491194D01*
X512163Y492251D01*
X511466Y493159D01*
X510558Y493856D01*
X509501Y494294D01*
X509366Y494311D01*
D02*
G37*
G36*
X507366Y494311D02*
X507232Y494294D01*
X506174Y493856D01*
X505266Y493159D01*
X504569Y492251D01*
X504132Y491194D01*
X504114Y491059D01*
X507366D01*
Y494311D01*
D02*
G37*
G36*
X527051D02*
X526917Y494294D01*
X525859Y493856D01*
X524951Y493159D01*
X524255Y492251D01*
X523817Y491194D01*
X523799Y491059D01*
X527051D01*
Y494311D01*
D02*
G37*
G36*
X573622Y494177D02*
X572540Y494034D01*
X571531Y493616D01*
X570665Y492952D01*
X570000Y492086D01*
X569582Y491077D01*
X569440Y489994D01*
X569582Y488912D01*
X570000Y487903D01*
X570665Y487037D01*
X571531Y486373D01*
X572540Y485955D01*
X573622Y485812D01*
X574705Y485955D01*
X575713Y486373D01*
X576579Y487037D01*
X577244Y487903D01*
X577662Y488912D01*
X577804Y489994D01*
X577662Y491077D01*
X577244Y492086D01*
X576579Y492952D01*
X575713Y493616D01*
X574705Y494034D01*
X573622Y494177D01*
D02*
G37*
G36*
X553937D02*
X552855Y494034D01*
X551846Y493616D01*
X550980Y492952D01*
X550315Y492086D01*
X549897Y491077D01*
X549755Y489994D01*
X549897Y488912D01*
X550315Y487903D01*
X550980Y487037D01*
X551846Y486373D01*
X552855Y485955D01*
X553937Y485812D01*
X555019Y485955D01*
X556028Y486373D01*
X556894Y487037D01*
X557559Y487903D01*
X557977Y488912D01*
X558119Y489994D01*
X557977Y491077D01*
X557559Y492086D01*
X556894Y492952D01*
X556028Y493616D01*
X555019Y494034D01*
X553937Y494177D01*
D02*
G37*
G36*
X532303Y489059D02*
X529051D01*
Y485807D01*
X529186Y485824D01*
X530243Y486262D01*
X531151Y486959D01*
X531848Y487867D01*
X532286Y488924D01*
X532303Y489059D01*
D02*
G37*
G36*
X512618D02*
X509366D01*
Y485807D01*
X509501Y485824D01*
X510558Y486262D01*
X511466Y486959D01*
X512163Y487867D01*
X512601Y488924D01*
X512618Y489059D01*
D02*
G37*
G36*
X527051D02*
X523799D01*
X523817Y488924D01*
X524255Y487867D01*
X524951Y486959D01*
X525859Y486262D01*
X526917Y485824D01*
X527051Y485807D01*
Y489059D01*
D02*
G37*
G36*
X507366D02*
X504114D01*
X504132Y488924D01*
X504569Y487867D01*
X505266Y486959D01*
X506174Y486262D01*
X507232Y485824D01*
X507366Y485807D01*
Y489059D01*
D02*
G37*
G36*
X575803Y451432D02*
Y448179D01*
X579056D01*
X579038Y448314D01*
X578600Y449371D01*
X577903Y450280D01*
X576995Y450976D01*
X575938Y451414D01*
X575803Y451432D01*
D02*
G37*
G36*
X573803D02*
X573668Y451414D01*
X572611Y450976D01*
X571703Y450280D01*
X571006Y449371D01*
X570569Y448314D01*
X570551Y448179D01*
X573803D01*
Y451432D01*
D02*
G37*
G36*
X556118D02*
Y448179D01*
X559370D01*
X559353Y448314D01*
X558915Y449371D01*
X558218Y450280D01*
X557310Y450976D01*
X556253Y451414D01*
X556118Y451432D01*
D02*
G37*
G36*
X554118D02*
X553983Y451414D01*
X552926Y450976D01*
X552018Y450280D01*
X551322Y449371D01*
X550883Y448314D01*
X550866Y448179D01*
X554118D01*
Y451432D01*
D02*
G37*
G36*
X527953Y451426D02*
X526870Y451284D01*
X525862Y450866D01*
X524996Y450201D01*
X524331Y449335D01*
X523913Y448327D01*
X523771Y447244D01*
X523913Y446162D01*
X524331Y445153D01*
X524996Y444287D01*
X525862Y443622D01*
X526870Y443204D01*
X527953Y443062D01*
X529035Y443204D01*
X530044Y443622D01*
X530910Y444287D01*
X531575Y445153D01*
X531992Y446162D01*
X532135Y447244D01*
X531992Y448327D01*
X531575Y449335D01*
X530910Y450201D01*
X530044Y450866D01*
X529035Y451284D01*
X527953Y451426D01*
D02*
G37*
G36*
X508268D02*
X507185Y451284D01*
X506177Y450866D01*
X505310Y450201D01*
X504646Y449335D01*
X504228Y448327D01*
X504085Y447244D01*
X504228Y446162D01*
X504646Y445153D01*
X505310Y444287D01*
X506177Y443622D01*
X507185Y443204D01*
X508268Y443062D01*
X509350Y443204D01*
X510359Y443622D01*
X511225Y444287D01*
X511890Y445153D01*
X512307Y446162D01*
X512450Y447244D01*
X512307Y448327D01*
X511890Y449335D01*
X511225Y450201D01*
X510359Y450866D01*
X509350Y451284D01*
X508268Y451426D01*
D02*
G37*
G36*
X579056Y446179D02*
X575803D01*
Y442927D01*
X575938Y442945D01*
X576995Y443383D01*
X577903Y444080D01*
X578600Y444988D01*
X579038Y446045D01*
X579056Y446179D01*
D02*
G37*
G36*
X573803D02*
X570551D01*
X570569Y446045D01*
X571006Y444988D01*
X571703Y444080D01*
X572611Y443383D01*
X573668Y442945D01*
X573803Y442927D01*
Y446179D01*
D02*
G37*
G36*
X559370D02*
X556118D01*
Y442927D01*
X556253Y442945D01*
X557310Y443383D01*
X558218Y444080D01*
X558915Y444988D01*
X559353Y446045D01*
X559370Y446179D01*
D02*
G37*
G36*
X554118D02*
X550866D01*
X550883Y446045D01*
X551322Y444988D01*
X552018Y444080D01*
X552926Y443383D01*
X553983Y442945D01*
X554118Y442927D01*
Y446179D01*
D02*
G37*
G36*
X528953Y431811D02*
Y428559D01*
X532205D01*
X532187Y428694D01*
X531749Y429751D01*
X531053Y430659D01*
X530145Y431356D01*
X529087Y431794D01*
X528953Y431811D01*
D02*
G37*
G36*
X509268D02*
Y428559D01*
X512520D01*
X512502Y428694D01*
X512064Y429751D01*
X511368Y430659D01*
X510460Y431356D01*
X509402Y431794D01*
X509268Y431811D01*
D02*
G37*
G36*
X507268D02*
X507133Y431794D01*
X506076Y431356D01*
X505168Y430659D01*
X504471Y429751D01*
X504033Y428694D01*
X504015Y428559D01*
X507268D01*
Y431811D01*
D02*
G37*
G36*
X526953D02*
X526818Y431794D01*
X525761Y431356D01*
X524853Y430659D01*
X524156Y429751D01*
X523718Y428694D01*
X523701Y428559D01*
X526953D01*
Y431811D01*
D02*
G37*
G36*
X574803Y431677D02*
X573721Y431534D01*
X572712Y431116D01*
X571846Y430452D01*
X571181Y429586D01*
X570763Y428577D01*
X570621Y427494D01*
X570763Y426412D01*
X571181Y425403D01*
X571846Y424537D01*
X572712Y423873D01*
X573721Y423455D01*
X574803Y423312D01*
X575886Y423455D01*
X576894Y423873D01*
X577760Y424537D01*
X578425Y425403D01*
X578843Y426412D01*
X578985Y427494D01*
X578843Y428577D01*
X578425Y429586D01*
X577760Y430452D01*
X576894Y431116D01*
X575886Y431534D01*
X574803Y431677D01*
D02*
G37*
G36*
X555118D02*
X554036Y431534D01*
X553027Y431116D01*
X552161Y430452D01*
X551496Y429586D01*
X551078Y428577D01*
X550936Y427494D01*
X551078Y426412D01*
X551496Y425403D01*
X552161Y424537D01*
X553027Y423873D01*
X554036Y423455D01*
X555118Y423312D01*
X556201Y423455D01*
X557209Y423873D01*
X558075Y424537D01*
X558740Y425403D01*
X559158Y426412D01*
X559300Y427494D01*
X559158Y428577D01*
X558740Y429586D01*
X558075Y430452D01*
X557209Y431116D01*
X556201Y431534D01*
X555118Y431677D01*
D02*
G37*
G36*
X532205Y426559D02*
X528953D01*
Y423307D01*
X529087Y423324D01*
X530145Y423762D01*
X531053Y424459D01*
X531749Y425367D01*
X532187Y426424D01*
X532205Y426559D01*
D02*
G37*
G36*
X512520D02*
X509268D01*
Y423307D01*
X509402Y423324D01*
X510460Y423762D01*
X511368Y424459D01*
X512064Y425367D01*
X512502Y426424D01*
X512520Y426559D01*
D02*
G37*
G36*
X526953D02*
X523701D01*
X523718Y426424D01*
X524156Y425367D01*
X524853Y424459D01*
X525761Y423762D01*
X526818Y423324D01*
X526953Y423307D01*
Y426559D01*
D02*
G37*
G36*
X507268D02*
X504015D01*
X504033Y426424D01*
X504471Y425367D01*
X505168Y424459D01*
X506076Y423762D01*
X507133Y423324D01*
X507268Y423307D01*
Y426559D01*
D02*
G37*
G36*
X458481Y406616D02*
Y403166D01*
X461932D01*
X461907Y403352D01*
X461449Y404457D01*
X460721Y405406D01*
X459772Y406134D01*
X458667Y406592D01*
X458481Y406616D01*
D02*
G37*
G36*
X456481D02*
X456295Y406592D01*
X455189Y406134D01*
X454240Y405406D01*
X453512Y404457D01*
X453054Y403352D01*
X453030Y403166D01*
X456481D01*
Y406616D01*
D02*
G37*
G36*
X461932Y401166D02*
X458481D01*
Y397715D01*
X458667Y397739D01*
X459772Y398197D01*
X460721Y398925D01*
X461449Y399874D01*
X461907Y400980D01*
X461932Y401166D01*
D02*
G37*
G36*
X456481D02*
X453030D01*
X453054Y400980D01*
X453512Y399874D01*
X454240Y398925D01*
X455189Y398197D01*
X456295Y397739D01*
X456481Y397715D01*
Y401166D01*
D02*
G37*
%LPD*%
D10*
X480894Y690158D02*
X482362Y688689D01*
X477559Y690158D02*
X480894D01*
X443701Y514370D02*
Y543661D01*
X482362Y582323D01*
D24*
X553937Y698951D02*
D03*
Y679266D02*
D03*
X573622Y698951D02*
D03*
Y679266D02*
D03*
X508366Y699016D02*
D03*
Y679331D02*
D03*
X528051Y699016D02*
D03*
Y679331D02*
D03*
X553937Y635959D02*
D03*
Y616274D02*
D03*
X573622Y635959D02*
D03*
Y616274D02*
D03*
X508563Y636024D02*
D03*
Y616338D02*
D03*
X528248Y636024D02*
D03*
Y616338D02*
D03*
X553937Y572967D02*
D03*
Y553282D02*
D03*
X573622Y572967D02*
D03*
Y553282D02*
D03*
X508465Y573032D02*
D03*
Y553346D02*
D03*
X528150Y573032D02*
D03*
Y553346D02*
D03*
X553937Y509680D02*
D03*
Y489994D02*
D03*
X573622Y509680D02*
D03*
Y489994D02*
D03*
X508366Y509744D02*
D03*
Y490059D02*
D03*
X528051Y509744D02*
D03*
Y490059D02*
D03*
X527953Y427559D02*
D03*
Y447244D02*
D03*
X508268Y427559D02*
D03*
Y447244D02*
D03*
X574803Y427494D02*
D03*
Y447180D02*
D03*
X555118Y427494D02*
D03*
Y447180D02*
D03*
D25*
X433465Y659449D02*
D03*
X446063D02*
D03*
D26*
X452953Y423228D02*
D03*
X439173Y418898D02*
D03*
Y498425D02*
D03*
X452953Y493307D02*
D03*
D27*
X457480Y514370D02*
D03*
X443701D02*
D03*
X457481Y402166D02*
D03*
D28*
X482362Y552323D02*
D03*
Y562323D02*
D03*
Y572323D02*
D03*
Y582323D02*
D03*
Y592323D02*
D03*
Y602323D02*
D03*
Y612323D02*
D03*
Y622323D02*
D03*
Y632323D02*
D03*
Y642323D02*
D03*
Y652323D02*
D03*
Y662323D02*
D03*
X402362Y702323D02*
D03*
Y692323D02*
D03*
Y682323D02*
D03*
Y672323D02*
D03*
Y662323D02*
D03*
Y652323D02*
D03*
Y642323D02*
D03*
Y632323D02*
D03*
Y622323D02*
D03*
Y612323D02*
D03*
Y602323D02*
D03*
Y592323D02*
D03*
Y582323D02*
D03*
Y572323D02*
D03*
Y562323D02*
D03*
Y552224D02*
D03*
D29*
X490158Y707677D02*
D03*
D30*
X476378Y508858D02*
D03*
D31*
X477559Y690158D02*
D03*
Y697638D02*
D03*
D32*
X456693Y707480D02*
D03*
Y679528D02*
D03*
D33*
X482362Y662323D02*
Y688689D01*
D34*
X486114Y703634D02*
X490158Y707677D01*
X486114Y699106D02*
Y703634D01*
X484646Y697638D02*
X486114Y699106D01*
X477559Y697638D02*
X484646D01*
M02*
