G04*
G04 #@! TF.GenerationSoftware,Altium Limited,Altium Designer,19.1.8 (144)*
G04*
G04 Layer_Color=255*
%FSLAX25Y25*%
%MOIN*%
G70*
G01*
G75*
%ADD24C,0.06693*%
%ADD25C,0.08000*%
%ADD26C,0.09449*%
%ADD27C,0.07087*%
%ADD28C,0.07000*%
%ADD31R,0.18110X0.03937*%
%ADD32R,0.13386X0.06299*%
D24*
X553937Y698951D02*
D03*
Y679266D02*
D03*
X573622Y698951D02*
D03*
Y679266D02*
D03*
X508366Y699016D02*
D03*
Y679331D02*
D03*
X528051Y699016D02*
D03*
Y679331D02*
D03*
X553937Y635959D02*
D03*
Y616274D02*
D03*
X573622Y635959D02*
D03*
Y616274D02*
D03*
X508563Y636024D02*
D03*
Y616338D02*
D03*
X528248Y636024D02*
D03*
Y616338D02*
D03*
X553937Y572967D02*
D03*
Y553282D02*
D03*
X573622Y572967D02*
D03*
Y553282D02*
D03*
X508465Y573032D02*
D03*
Y553346D02*
D03*
X528150Y573032D02*
D03*
Y553346D02*
D03*
X553937Y509680D02*
D03*
Y489994D02*
D03*
X573622Y509680D02*
D03*
Y489994D02*
D03*
X508366Y509744D02*
D03*
Y490059D02*
D03*
X528051Y509744D02*
D03*
Y490059D02*
D03*
X527953Y427559D02*
D03*
Y447244D02*
D03*
X508268Y427559D02*
D03*
Y447244D02*
D03*
X574803Y427494D02*
D03*
Y447180D02*
D03*
X555118Y427494D02*
D03*
Y447180D02*
D03*
D25*
X433465Y659449D02*
D03*
X446063D02*
D03*
D26*
X452953Y423228D02*
D03*
X439173Y418898D02*
D03*
Y498425D02*
D03*
X452953Y493307D02*
D03*
D27*
X457480Y514370D02*
D03*
X443701D02*
D03*
X457481Y402166D02*
D03*
D28*
X482362Y552323D02*
D03*
Y562323D02*
D03*
Y572323D02*
D03*
Y582323D02*
D03*
Y592323D02*
D03*
Y602323D02*
D03*
Y612323D02*
D03*
Y622323D02*
D03*
Y632323D02*
D03*
Y642323D02*
D03*
Y652323D02*
D03*
Y662323D02*
D03*
X402362Y702323D02*
D03*
Y692323D02*
D03*
Y682323D02*
D03*
Y672323D02*
D03*
Y662323D02*
D03*
Y652323D02*
D03*
Y642323D02*
D03*
Y632323D02*
D03*
Y622323D02*
D03*
Y612323D02*
D03*
Y602323D02*
D03*
Y592323D02*
D03*
Y582323D02*
D03*
Y572323D02*
D03*
Y562323D02*
D03*
Y552224D02*
D03*
D31*
X477559Y690158D02*
D03*
Y697638D02*
D03*
D32*
X456693Y707480D02*
D03*
Y679528D02*
D03*
M02*
