G04*
G04 #@! TF.GenerationSoftware,Altium Limited,Altium Designer,19.1.8 (144)*
G04*
G04 Layer_Color=65535*
%FSLAX25Y25*%
%MOIN*%
G70*
G01*
G75*
%ADD10C,0.01000*%
%ADD11C,0.00500*%
%ADD12C,0.00787*%
%ADD13C,0.00800*%
D10*
X542496Y678861D02*
G03*
X542496Y699356I21283J10248D01*
G01*
X539492Y699421D02*
G03*
X539492Y678926I-21283J-10248D01*
G01*
X542496Y615869D02*
G03*
X542496Y636364I21283J10248D01*
G01*
X539689Y636429D02*
G03*
X539689Y615933I-21283J-10248D01*
G01*
X542496Y552877D02*
G03*
X542496Y573372I21283J10248D01*
G01*
X539591Y573437D02*
G03*
X539591Y552941I-21283J-10248D01*
G01*
X542496Y489589D02*
G03*
X542496Y510085I21283J10248D01*
G01*
X539492Y510149D02*
G03*
X539492Y489654I-21283J-10248D01*
G01*
X539394Y447649D02*
G03*
X539394Y427154I-21283J-10248D01*
G01*
X543677Y427089D02*
G03*
X543677Y447585I21283J10248D01*
G01*
X542520Y678872D02*
Y699345D01*
X539468Y678937D02*
Y699409D01*
X542520Y615880D02*
Y636353D01*
X539665Y615945D02*
Y636417D01*
X542520Y552888D02*
Y573361D01*
X539567Y552953D02*
Y573425D01*
X542520Y489601D02*
Y510073D01*
X539468Y489665D02*
Y510138D01*
X539370Y427165D02*
Y447638D01*
X543701Y427101D02*
Y447573D01*
X413189Y399213D02*
Y517323D01*
X413189Y407087D02*
Y509449D01*
Y407087D02*
X419488D01*
X413189Y509449D02*
X419095D01*
X563779Y396654D02*
Y689075D01*
X488976Y437205D02*
X518307D01*
Y500197D01*
X524860Y653480D02*
Y661480D01*
X511360D02*
X524860D01*
X511360Y653480D02*
Y661480D01*
Y653480D02*
X524860D01*
X488976Y500197D02*
X518307D01*
X488976Y689173D02*
X518307D01*
X488976Y626181D02*
X518307D01*
X488976Y563189D02*
X518307D01*
Y626181D02*
Y689173D01*
Y500197D02*
Y563189D01*
Y626181D01*
X488976Y689173D02*
Y723622D01*
X511754Y400724D02*
Y408724D01*
Y400724D02*
X525254D01*
Y408724D01*
X511754D02*
X525254D01*
X557036Y661480D02*
X570536D01*
Y653480D02*
Y661480D01*
X557036Y653480D02*
X570536D01*
X557036D02*
Y661480D01*
Y598488D02*
X570536D01*
Y590488D02*
Y598488D01*
X557036Y590488D02*
X570536D01*
X557036D02*
Y598488D01*
Y535103D02*
X570536D01*
Y527103D02*
Y535103D01*
X557036Y527103D02*
X570536D01*
X557036D02*
Y535103D01*
Y472504D02*
X570536D01*
Y464504D02*
Y472504D01*
X557036Y464504D02*
X570536D01*
X557036D02*
Y472504D01*
X557121Y408724D02*
X570621D01*
Y400724D02*
Y408724D01*
X557121Y400724D02*
X570621D01*
X557121D02*
Y408724D01*
X397362Y726823D02*
X487362D01*
Y526823D02*
Y726823D01*
X397362Y526823D02*
X487362D01*
X397362D02*
Y726823D01*
X511360Y472504D02*
X524860D01*
Y464504D02*
Y472504D01*
X511360Y464504D02*
X524860D01*
X511360D02*
Y472504D01*
Y598488D02*
X524860D01*
Y590488D02*
Y598488D01*
X511360Y590488D02*
X524860D01*
X511360D02*
Y598488D01*
Y535103D02*
X524860D01*
Y527103D02*
Y535103D01*
X511360Y527103D02*
X524860D01*
X511360D02*
Y535103D01*
X393701Y393701D02*
Y728346D01*
X590551D01*
Y393701D02*
Y728346D01*
X393701Y393701D02*
X590551D01*
D11*
X462795Y517323D02*
X462795Y399213D01*
X429331D02*
X462795D01*
X429331D02*
Y517323D01*
X462795D01*
D12*
X450591Y437402D02*
Y433466D01*
X452559Y435434D01*
X449935D01*
X448623Y437402D02*
Y436746D01*
X447967D01*
Y437402D01*
X448623D01*
X442720Y433466D02*
X444032Y434122D01*
X445343Y435434D01*
Y436746D01*
X444688Y437402D01*
X443376D01*
X442720Y436746D01*
Y436090D01*
X443376Y435434D01*
X445343D01*
X441408Y437402D02*
Y434778D01*
X440752D01*
X440096Y435434D01*
Y437402D01*
Y435434D01*
X439440Y434778D01*
X438784Y435434D01*
Y437402D01*
X437472D02*
Y434778D01*
X436816D01*
X436160Y435434D01*
Y437402D01*
Y435434D01*
X435504Y434778D01*
X434848Y435434D01*
Y437402D01*
X460827Y504594D02*
X460171Y503938D01*
X458859D01*
X458203Y504594D01*
Y507218D01*
X458859Y507874D01*
X460171D01*
X460827Y507218D01*
Y504594D01*
X456891Y507874D02*
Y507218D01*
X456235D01*
Y507874D01*
X456891D01*
X453611Y507218D02*
X452955Y507874D01*
X451643D01*
X450987Y507218D01*
Y504594D01*
X451643Y503938D01*
X452955D01*
X453611Y504594D01*
Y505250D01*
X452955Y505906D01*
X450987D01*
X449676Y507874D02*
Y505250D01*
X449019D01*
X448364Y505906D01*
Y507874D01*
Y505906D01*
X447708Y505250D01*
X447052Y505906D01*
Y507874D01*
X445740D02*
Y505250D01*
X445084D01*
X444428Y505906D01*
Y507874D01*
Y505906D01*
X443772Y505250D01*
X443116Y505906D01*
Y507874D01*
D13*
X547156Y402713D02*
Y406712D01*
X549155D01*
X549822Y406046D01*
Y404713D01*
X549155Y404046D01*
X547156D01*
X548489D02*
X549822Y402713D01*
X551155Y406712D02*
X553820D01*
Y406046D01*
X551155Y403380D01*
Y402713D01*
X545107Y655470D02*
Y659469D01*
X547107D01*
X547773Y658802D01*
Y657469D01*
X547107Y656803D01*
X545107D01*
X546440D02*
X547773Y655470D01*
X549106D02*
X550439D01*
X549772D01*
Y659469D01*
X549106Y658802D01*
X552438Y655470D02*
X553771D01*
X553105D01*
Y659469D01*
X552438Y658802D01*
X543720Y592470D02*
Y596469D01*
X545719D01*
X546386Y595802D01*
Y594469D01*
X545719Y593803D01*
X543720D01*
X545053D02*
X546386Y592470D01*
X547719D02*
X549052D01*
X548385D01*
Y596469D01*
X547719Y595802D01*
X551051D02*
X551718Y596469D01*
X553050D01*
X553717Y595802D01*
Y593137D01*
X553050Y592470D01*
X551718D01*
X551051Y593137D01*
Y595802D01*
X547120Y529076D02*
Y533075D01*
X549119D01*
X549786Y532409D01*
Y531076D01*
X549119Y530409D01*
X547120D01*
X548453D02*
X549786Y529076D01*
X551118Y529743D02*
X551785Y529076D01*
X553118D01*
X553784Y529743D01*
Y532409D01*
X553118Y533075D01*
X551785D01*
X551118Y532409D01*
Y531742D01*
X551785Y531076D01*
X553784D01*
X547108Y466476D02*
Y470475D01*
X549107D01*
X549773Y469809D01*
Y468476D01*
X549107Y467809D01*
X547108D01*
X548440D02*
X549773Y466476D01*
X551106Y469809D02*
X551773Y470475D01*
X553106D01*
X553772Y469809D01*
Y469142D01*
X553106Y468476D01*
X553772Y467809D01*
Y467143D01*
X553106Y466476D01*
X551773D01*
X551106Y467143D01*
Y467809D01*
X551773Y468476D01*
X551106Y469142D01*
Y469809D01*
X551773Y468476D02*
X553106D01*
X577756Y460630D02*
Y464629D01*
X579755D01*
X580422Y463962D01*
Y462629D01*
X579755Y461963D01*
X577756D01*
X581755Y460630D02*
X583087D01*
X582421D01*
Y464629D01*
X581755Y463962D01*
X585087D02*
X585753Y464629D01*
X587086D01*
X587753Y463962D01*
Y461296D01*
X587086Y460630D01*
X585753D01*
X585087Y461296D01*
Y463962D01*
X467520Y403543D02*
Y407542D01*
X469519D01*
X470186Y406876D01*
Y405543D01*
X469519Y404876D01*
X467520D01*
X468853D02*
X470186Y403543D01*
X471518D02*
X472851D01*
X472185D01*
Y407542D01*
X471518Y406876D01*
X491339Y453937D02*
Y457936D01*
X493338D01*
X494004Y457269D01*
Y455936D01*
X493338Y455270D01*
X491339D01*
X495337Y454603D02*
X496004Y453937D01*
X497337D01*
X498003Y454603D01*
Y457269D01*
X497337Y457936D01*
X496004D01*
X495337Y457269D01*
Y456603D01*
X496004Y455936D01*
X498003D01*
X494095Y518110D02*
Y522109D01*
X496094D01*
X496760Y521443D01*
Y520110D01*
X496094Y519443D01*
X494095D01*
X498093Y522109D02*
X500759D01*
Y521443D01*
X498093Y518777D01*
Y518110D01*
X501395Y466483D02*
Y470481D01*
X503394D01*
X504060Y469815D01*
Y468482D01*
X503394Y467816D01*
X501395D01*
X502727D02*
X504060Y466483D01*
X505393Y469815D02*
X506060Y470481D01*
X507393D01*
X508059Y469815D01*
Y469148D01*
X507393Y468482D01*
X506726D01*
X507393D01*
X508059Y467816D01*
Y467149D01*
X507393Y466483D01*
X506060D01*
X505393Y467149D01*
X541732Y520472D02*
Y524471D01*
X543732D01*
X544398Y523805D01*
Y522472D01*
X543732Y521805D01*
X541732D01*
X545731Y523805D02*
X546397Y524471D01*
X547730D01*
X548397Y523805D01*
Y523138D01*
X547730Y522472D01*
X548397Y521805D01*
Y521139D01*
X547730Y520472D01*
X546397D01*
X545731Y521139D01*
Y521805D01*
X546397Y522472D01*
X545731Y523138D01*
Y523805D01*
X546397Y522472D02*
X547730D01*
X501776Y402726D02*
Y406725D01*
X503775D01*
X504441Y406058D01*
Y404725D01*
X503775Y404059D01*
X501776D01*
X503109D02*
X504441Y402726D01*
X508440D02*
X505774D01*
X508440Y405392D01*
Y406058D01*
X507774Y406725D01*
X506441D01*
X505774Y406058D01*
X500787Y659449D02*
Y663448D01*
X502787D01*
X503453Y662781D01*
Y661448D01*
X502787Y660782D01*
X500787D01*
X502120D02*
X503453Y659449D01*
X507452Y663448D02*
X506119Y662781D01*
X504786Y661448D01*
Y660115D01*
X505453Y659449D01*
X506785D01*
X507452Y660115D01*
Y660782D01*
X506785Y661448D01*
X504786D01*
X501400Y592483D02*
Y596481D01*
X503400D01*
X504066Y595815D01*
Y594482D01*
X503400Y593816D01*
X501400D01*
X502733D02*
X504066Y592483D01*
X508065Y596481D02*
X505399D01*
Y594482D01*
X506732Y595149D01*
X507398D01*
X508065Y594482D01*
Y593149D01*
X507398Y592483D01*
X506066D01*
X505399Y593149D01*
X501395Y529083D02*
Y533081D01*
X503394D01*
X504060Y532415D01*
Y531082D01*
X503394Y530416D01*
X501395D01*
X502727D02*
X504060Y529083D01*
X507393D02*
Y533081D01*
X505393Y531082D01*
X508059D01*
X494095Y581102D02*
Y585101D01*
X496094D01*
X496760Y584435D01*
Y583102D01*
X496094Y582435D01*
X494095D01*
X500759Y585101D02*
X498093D01*
Y583102D01*
X499426Y583768D01*
X500093D01*
X500759Y583102D01*
Y581769D01*
X500093Y581102D01*
X498760D01*
X498093Y581769D01*
X541339Y583661D02*
Y587660D01*
X543338D01*
X544004Y586994D01*
Y585661D01*
X543338Y584994D01*
X541339D01*
X548003Y587660D02*
X546670Y586994D01*
X545337Y585661D01*
Y584328D01*
X546004Y583661D01*
X547337D01*
X548003Y584328D01*
Y584994D01*
X547337Y585661D01*
X545337D01*
X494488Y646457D02*
Y650455D01*
X496488D01*
X497154Y649789D01*
Y648456D01*
X496488Y647790D01*
X494488D01*
X498487Y649789D02*
X499153Y650455D01*
X500486D01*
X501153Y649789D01*
Y649122D01*
X500486Y648456D01*
X499820D01*
X500486D01*
X501153Y647790D01*
Y647123D01*
X500486Y646457D01*
X499153D01*
X498487Y647123D01*
X541339Y646654D02*
Y650652D01*
X543338D01*
X544004Y649986D01*
Y648653D01*
X543338Y647986D01*
X541339D01*
X547337Y646654D02*
Y650652D01*
X545337Y648653D01*
X548003D01*
X496161Y713583D02*
Y717581D01*
X498161D01*
X498827Y716915D01*
Y715582D01*
X498161Y714916D01*
X496161D01*
X500160Y713583D02*
X501493D01*
X500827D01*
Y717581D01*
X500160Y716915D01*
X542913Y717061D02*
Y721060D01*
X544913D01*
X545579Y720394D01*
Y719061D01*
X544913Y718394D01*
X542913D01*
X549578Y717061D02*
X546912D01*
X549578Y719727D01*
Y720394D01*
X548911Y721060D01*
X547578D01*
X546912Y720394D01*
X475394Y523684D02*
Y520352D01*
X476060Y519685D01*
X477393D01*
X478059Y520352D01*
Y523684D01*
X479392Y519685D02*
X480725D01*
X480059D01*
Y523684D01*
X479392Y523017D01*
M02*
