G04*
G04 #@! TF.GenerationSoftware,Altium Limited,Altium Designer,19.1.8 (144)*
G04*
G04 Layer_Color=255*
%FSLAX25Y25*%
%MOIN*%
G70*
G01*
G75*
%ADD10C,0.01000*%
G04:AMPARAMS|DCode=14|XSize=55mil|YSize=43mil|CornerRadius=7.96mil|HoleSize=0mil|Usage=FLASHONLY|Rotation=270.000|XOffset=0mil|YOffset=0mil|HoleType=Round|Shape=RoundedRectangle|*
%AMROUNDEDRECTD14*
21,1,0.05500,0.02709,0,0,270.0*
21,1,0.03909,0.04300,0,0,270.0*
1,1,0.01591,-0.01355,-0.01955*
1,1,0.01591,-0.01355,0.01955*
1,1,0.01591,0.01355,0.01955*
1,1,0.01591,0.01355,-0.01955*
%
%ADD14ROUNDEDRECTD14*%
%ADD24C,0.06693*%
%ADD25C,0.08000*%
%ADD26C,0.09449*%
%ADD27C,0.07087*%
%ADD28C,0.07000*%
D10*
X393701Y393701D02*
Y728346D01*
X590551D01*
Y393701D02*
Y728346D01*
X393701Y393701D02*
X590551D01*
D14*
X514560Y657480D02*
D03*
X521660D02*
D03*
X522054Y404724D02*
D03*
X514954D02*
D03*
X560236Y657480D02*
D03*
X567336D02*
D03*
X560236Y594488D02*
D03*
X567336D02*
D03*
X560236Y531103D02*
D03*
X567336D02*
D03*
X560236Y468504D02*
D03*
X567336D02*
D03*
X560321Y404724D02*
D03*
X567421D02*
D03*
X514560Y468504D02*
D03*
X521660D02*
D03*
X514560Y594488D02*
D03*
X521660D02*
D03*
X514560Y531103D02*
D03*
X521660D02*
D03*
D24*
X553937Y698951D02*
D03*
Y679266D02*
D03*
X573622Y698951D02*
D03*
Y679266D02*
D03*
X508366Y699016D02*
D03*
Y679331D02*
D03*
X528051Y699016D02*
D03*
Y679331D02*
D03*
X553937Y635959D02*
D03*
Y616274D02*
D03*
X573622Y635959D02*
D03*
Y616274D02*
D03*
X508563Y636024D02*
D03*
Y616338D02*
D03*
X528248Y636024D02*
D03*
Y616338D02*
D03*
X553937Y572967D02*
D03*
Y553282D02*
D03*
X573622Y572967D02*
D03*
Y553282D02*
D03*
X508465Y573032D02*
D03*
Y553346D02*
D03*
X528150Y573032D02*
D03*
Y553346D02*
D03*
X553937Y509680D02*
D03*
Y489994D02*
D03*
X573622Y509680D02*
D03*
Y489994D02*
D03*
X508366Y509744D02*
D03*
Y490059D02*
D03*
X528051Y509744D02*
D03*
Y490059D02*
D03*
X527953Y427559D02*
D03*
Y447244D02*
D03*
X508268Y427559D02*
D03*
Y447244D02*
D03*
X574803Y427494D02*
D03*
Y447180D02*
D03*
X555118Y427494D02*
D03*
Y447180D02*
D03*
D25*
X433465Y659449D02*
D03*
X446063D02*
D03*
D26*
X452953Y423228D02*
D03*
X439173Y418898D02*
D03*
Y498425D02*
D03*
X452953Y493307D02*
D03*
D27*
X457480Y514370D02*
D03*
X443701D02*
D03*
X457481Y402166D02*
D03*
D28*
X482362Y552323D02*
D03*
Y562323D02*
D03*
Y572323D02*
D03*
Y582323D02*
D03*
Y592323D02*
D03*
Y602323D02*
D03*
Y612323D02*
D03*
Y622323D02*
D03*
Y632323D02*
D03*
Y642323D02*
D03*
Y652323D02*
D03*
Y662323D02*
D03*
X402362Y702323D02*
D03*
Y692323D02*
D03*
Y682323D02*
D03*
Y672323D02*
D03*
Y662323D02*
D03*
Y652323D02*
D03*
Y642323D02*
D03*
Y632323D02*
D03*
Y622323D02*
D03*
Y612323D02*
D03*
Y602323D02*
D03*
Y592323D02*
D03*
Y582323D02*
D03*
Y572323D02*
D03*
Y562323D02*
D03*
Y552224D02*
D03*
M02*
