M48
;Layer_Color=9474304
;FILE_FORMAT=2:3
INCH,LZ
;TYPE=PLATED
T1F00S00C0.028
T2F00S00C0.030
T3F00S00C0.036
T4F00S00C0.060
T5F00S00C0.070
T6F00S00C0.100
%
T01
X02815Y03898
X03635Y0426
T02
X02585Y0457
X02685
X02785
X03039Y04365
X03139
X03239
Y04165
X03339
X03439
X03539
Y04365
X03639
X03739
X03839
X03939
X04039
X04139
Y04165
X04239
X04039
X03939
X03839
X03739
Y03965
X03839
X03639
X03539
X03439
X03339
X03239
X04495Y04095
X047Y052
Y0575
X0415
X045Y052
X033
X0255
Y0575
Y064
X036Y068
X0415Y064
X047
T03
X03039Y03765
Y04565
X03139
X03239
X03339
X03439
X03539
X03639
X03739
X03839
X03939
X04039
X04139
X04239
X04339
X04439
X04539
X04139Y03765
X04039
X03939
X03839
X03739
X03639
X03539
X03439
X03339
X03239
X03139
X0329Y0482
Y05017
Y05415
Y05612
Y0601
Y06207
X0386
X04057
Y0601
X0386
X0386Y05612
X04057
Y05415
X0386
Y05017
X04057
Y0482
X0386
X04308
Y05017
X04505
Y0482
Y05415
Y05612
X04308
Y05415
X04308Y0601
Y06207
X04505
Y0601
X03093
Y06207
X02842
X02645
Y0601
X02842
Y05612
X02645
Y05415
X02842
X03093
Y05612
Y05017
Y0482
X02842
Y05017
X02645
Y0482
X02645Y06608
Y06805
X02842
Y06608
X03093
Y06805
X0329
Y06608
X0386
Y06805
X04057
Y06608
X04308
Y06805
X04505
Y06608
T04
X02194Y04656
X02331
X02194Y06367
T05
X02098Y04866
X02428Y04821
X02428Y06201
X02098Y06156
T06
X0213Y03815
X04689
Y04515
X0213Y06875
X04689
M30
