G04 Layer_Physical_Order=1*
G04 Layer_Color=255*
%FSLAX23Y23*%
%MOIN*%
G70*
G01*
G75*
%ADD10R,0.040X0.047*%
%ADD11R,0.047X0.040*%
%ADD12C,0.010*%
%ADD13C,0.015*%
%ADD14C,0.062*%
%ADD15C,0.126*%
%ADD16C,0.060*%
%ADD17R,0.060X0.060*%
%ADD18C,0.063*%
%ADD19C,0.150*%
%ADD20C,0.090*%
%ADD21C,0.080*%
%ADD22R,0.080X0.080*%
%ADD23C,0.050*%
G36*
X4605Y6920D02*
X4601Y6912D01*
X4595Y6894D01*
X4594Y6875D01*
X4595Y6856D01*
X4601Y6838D01*
X4610Y6822D01*
X4622Y6807D01*
X4636Y6796D01*
X4652Y6787D01*
X4670Y6781D01*
X4689Y6780D01*
X4708Y6781D01*
X4726Y6787D01*
X4742Y6796D01*
X4746Y6799D01*
X4751Y6797D01*
Y4578D01*
X4746Y4576D01*
X4735Y4584D01*
X4721Y4592D01*
X4705Y4597D01*
X4689Y4598D01*
X4673Y4597D01*
X4657Y4592D01*
X4643Y4584D01*
X4630Y4574D01*
X4620Y4561D01*
X4612Y4547D01*
X4607Y4531D01*
X4606Y4515D01*
X4607Y4499D01*
X4612Y4483D01*
X4620Y4469D01*
X4630Y4456D01*
X4643Y4446D01*
X4657Y4438D01*
X4673Y4433D01*
X4689Y4432D01*
X4705Y4433D01*
X4721Y4438D01*
X4735Y4446D01*
X4746Y4454D01*
X4751Y4452D01*
Y3878D01*
X4746Y3876D01*
X4735Y3884D01*
X4721Y3892D01*
X4705Y3897D01*
X4689Y3898D01*
X4673Y3897D01*
X4657Y3892D01*
X4643Y3884D01*
X4630Y3874D01*
X4620Y3861D01*
X4612Y3847D01*
X4607Y3831D01*
X4606Y3815D01*
X4607Y3799D01*
X4612Y3783D01*
X4620Y3769D01*
X4630Y3756D01*
X4637Y3750D01*
X4635Y3745D01*
X4191D01*
X4188Y3750D01*
X4189Y3752D01*
X4190Y3765D01*
X4189Y3778D01*
X4184Y3791D01*
X4175Y3801D01*
X4165Y3810D01*
X4152Y3815D01*
X4139Y3816D01*
X4126Y3815D01*
X4113Y3810D01*
X4103Y3801D01*
X4094Y3791D01*
X4092Y3784D01*
X4086D01*
X4084Y3791D01*
X4075Y3801D01*
X4065Y3810D01*
X4052Y3815D01*
X4039Y3816D01*
X4026Y3815D01*
X4013Y3810D01*
X4003Y3801D01*
X3994Y3791D01*
X3992Y3784D01*
X3986D01*
X3984Y3791D01*
X3975Y3801D01*
X3965Y3810D01*
X3952Y3815D01*
X3939Y3816D01*
X3926Y3815D01*
X3913Y3810D01*
X3903Y3801D01*
X3894Y3791D01*
X3892Y3784D01*
X3886D01*
X3884Y3791D01*
X3875Y3801D01*
X3865Y3810D01*
X3852Y3815D01*
X3839Y3816D01*
X3826Y3815D01*
X3813Y3810D01*
X3803Y3801D01*
X3794Y3791D01*
X3792Y3784D01*
X3786D01*
X3784Y3791D01*
X3775Y3801D01*
X3765Y3810D01*
X3752Y3815D01*
X3739Y3816D01*
X3726Y3815D01*
X3713Y3810D01*
X3703Y3801D01*
X3694Y3791D01*
X3692Y3784D01*
X3686D01*
X3684Y3791D01*
X3675Y3801D01*
X3665Y3810D01*
X3652Y3815D01*
X3639Y3816D01*
X3626Y3815D01*
X3613Y3810D01*
X3603Y3801D01*
X3594Y3791D01*
X3592Y3784D01*
X3586D01*
X3584Y3791D01*
X3575Y3801D01*
X3565Y3810D01*
X3552Y3815D01*
X3539Y3816D01*
X3526Y3815D01*
X3513Y3810D01*
X3503Y3801D01*
X3494Y3791D01*
X3492Y3784D01*
X3486D01*
X3484Y3791D01*
X3475Y3801D01*
X3465Y3810D01*
X3452Y3815D01*
X3439Y3816D01*
X3426Y3815D01*
X3413Y3810D01*
X3403Y3801D01*
X3394Y3791D01*
X3392Y3784D01*
X3386D01*
X3384Y3791D01*
X3375Y3801D01*
X3365Y3810D01*
X3352Y3815D01*
X3339Y3816D01*
X3326Y3815D01*
X3313Y3810D01*
X3303Y3801D01*
X3294Y3791D01*
X3292Y3784D01*
X3286D01*
X3284Y3791D01*
X3275Y3801D01*
X3265Y3810D01*
X3252Y3815D01*
X3239Y3816D01*
X3226Y3815D01*
X3213Y3810D01*
X3203Y3801D01*
X3194Y3791D01*
X3192Y3784D01*
X3186D01*
X3184Y3791D01*
X3175Y3801D01*
X3165Y3810D01*
X3152Y3815D01*
X3139Y3816D01*
X3126Y3815D01*
X3113Y3810D01*
X3103Y3801D01*
X3094Y3791D01*
X3092Y3784D01*
X3086D01*
X3084Y3791D01*
X3075Y3801D01*
X3065Y3810D01*
X3052Y3815D01*
X3039Y3816D01*
X3026Y3815D01*
X3013Y3810D01*
X3003Y3801D01*
X2994Y3791D01*
X2989Y3778D01*
X2988Y3765D01*
X2989Y3752D01*
X2990Y3750D01*
X2987Y3745D01*
X2202D01*
X2200Y3750D01*
X2209Y3762D01*
X2218Y3778D01*
X2224Y3796D01*
X2225Y3815D01*
X2224Y3834D01*
X2218Y3852D01*
X2209Y3868D01*
X2197Y3882D01*
X2183Y3894D01*
X2167Y3903D01*
X2149Y3909D01*
X2130Y3910D01*
X2111Y3909D01*
X2093Y3903D01*
X2077Y3894D01*
X2073Y3891D01*
X2068Y3893D01*
Y4804D01*
X2073Y4806D01*
X2085Y4802D01*
X2098Y4801D01*
X2110Y4802D01*
X2123Y4806D01*
X2134Y4812D01*
X2144Y4820D01*
X2152Y4830D01*
X2158Y4842D01*
X2161Y4852D01*
X2166Y4851D01*
Y4800D01*
X2100Y4735D01*
X2096Y4729D01*
X2093Y4722D01*
X2092Y4715D01*
Y4520D01*
X2093Y4513D01*
X2096Y4506D01*
X2100Y4500D01*
X2210Y4390D01*
X2216Y4386D01*
X2223Y4383D01*
X2230Y4382D01*
X2643D01*
X2647Y4376D01*
X2654Y4371D01*
X2658Y4370D01*
Y3908D01*
X2659Y3901D01*
X2662Y3894D01*
X2666Y3888D01*
X2720Y3835D01*
X2726Y3830D01*
X2732Y3828D01*
X2740Y3827D01*
X3909D01*
X3917Y3828D01*
X3923Y3830D01*
X3929Y3835D01*
X3985Y3890D01*
X3989Y3896D01*
X3992Y3903D01*
X3993Y3910D01*
Y4039D01*
X3992Y4046D01*
X3989Y4053D01*
X3985Y4059D01*
X3933Y4111D01*
X3935Y4115D01*
X3939Y4115D01*
X3952Y4116D01*
X3964Y4121D01*
X3975Y4129D01*
X3983Y4140D01*
X3986Y4149D01*
X3992D01*
X3995Y4140D01*
X4003Y4129D01*
X4014Y4121D01*
X4026Y4116D01*
X4039Y4115D01*
X4052Y4116D01*
X4064Y4121D01*
X4075Y4129D01*
X4083Y4140D01*
X4086Y4149D01*
X4092D01*
X4095Y4140D01*
X4103Y4129D01*
X4114Y4121D01*
X4126Y4116D01*
X4139Y4115D01*
X4152Y4116D01*
X4164Y4121D01*
X4175Y4129D01*
X4183Y4140D01*
X4186Y4149D01*
X4192D01*
X4195Y4140D01*
X4203Y4129D01*
X4214Y4121D01*
X4226Y4116D01*
X4239Y4115D01*
X4252Y4116D01*
X4264Y4121D01*
X4275Y4129D01*
X4283Y4140D01*
X4288Y4152D01*
X4289Y4165D01*
X4288Y4178D01*
X4283Y4190D01*
X4275Y4201D01*
X4264Y4209D01*
X4252Y4214D01*
X4239Y4215D01*
X4226Y4214D01*
X4214Y4209D01*
X4203Y4201D01*
X4195Y4190D01*
X4192Y4181D01*
X4186D01*
X4183Y4190D01*
X4175Y4201D01*
X4164Y4209D01*
X4152Y4214D01*
X4139Y4215D01*
X4126Y4214D01*
X4114Y4209D01*
X4103Y4201D01*
X4095Y4190D01*
X4092Y4181D01*
X4086D01*
X4083Y4190D01*
X4075Y4201D01*
X4064Y4209D01*
X4052Y4214D01*
X4039Y4215D01*
X4026Y4214D01*
X4014Y4209D01*
X4003Y4201D01*
X3995Y4190D01*
X3992Y4181D01*
X3986D01*
X3983Y4190D01*
X3975Y4201D01*
X3964Y4209D01*
X3952Y4214D01*
X3939Y4215D01*
X3926Y4214D01*
X3914Y4209D01*
X3903Y4201D01*
X3895Y4190D01*
X3892Y4181D01*
X3886D01*
X3883Y4190D01*
X3875Y4201D01*
X3864Y4209D01*
X3852Y4214D01*
X3839Y4215D01*
X3826Y4214D01*
X3814Y4209D01*
X3803Y4201D01*
X3795Y4190D01*
X3790Y4178D01*
X3789Y4165D01*
X3790Y4152D01*
X3795Y4140D01*
X3803Y4129D01*
X3814Y4121D01*
X3826Y4116D01*
X3839Y4115D01*
X3849Y4116D01*
X3937Y4028D01*
Y3921D01*
X3898Y3882D01*
X3513D01*
X3511Y3887D01*
X3539Y3915D01*
X3539Y3915D01*
X3552Y3916D01*
X3564Y3921D01*
X3575Y3929D01*
X3583Y3940D01*
X3586Y3949D01*
X3592D01*
X3595Y3940D01*
X3603Y3929D01*
X3614Y3921D01*
X3626Y3916D01*
X3639Y3915D01*
X3652Y3916D01*
X3664Y3921D01*
X3675Y3929D01*
X3683Y3940D01*
X3686Y3949D01*
X3692D01*
X3695Y3940D01*
X3703Y3929D01*
X3714Y3921D01*
X3726Y3916D01*
X3739Y3915D01*
X3752Y3916D01*
X3764Y3921D01*
X3775Y3929D01*
X3783Y3940D01*
X3786Y3949D01*
X3792D01*
X3795Y3940D01*
X3803Y3929D01*
X3814Y3921D01*
X3826Y3916D01*
X3839Y3915D01*
X3852Y3916D01*
X3864Y3921D01*
X3875Y3929D01*
X3883Y3940D01*
X3888Y3952D01*
X3889Y3965D01*
X3888Y3978D01*
X3883Y3990D01*
X3875Y4001D01*
X3864Y4009D01*
X3852Y4014D01*
X3839Y4015D01*
X3826Y4014D01*
X3814Y4009D01*
X3803Y4001D01*
X3795Y3990D01*
X3792Y3981D01*
X3786D01*
X3783Y3990D01*
X3775Y4001D01*
X3764Y4009D01*
X3752Y4014D01*
X3739Y4015D01*
X3726Y4014D01*
X3714Y4009D01*
X3703Y4001D01*
X3695Y3990D01*
X3692Y3981D01*
X3686D01*
X3683Y3990D01*
X3675Y4001D01*
X3664Y4009D01*
X3652Y4014D01*
X3639Y4015D01*
X3626Y4014D01*
X3614Y4009D01*
X3603Y4001D01*
X3595Y3990D01*
X3592Y3981D01*
X3586D01*
X3583Y3990D01*
X3575Y4001D01*
X3564Y4009D01*
X3552Y4014D01*
X3539Y4015D01*
X3526Y4014D01*
X3514Y4009D01*
X3503Y4001D01*
X3495Y3990D01*
X3492Y3981D01*
X3486D01*
X3483Y3990D01*
X3475Y4001D01*
X3464Y4009D01*
X3452Y4014D01*
X3439Y4015D01*
X3437Y4015D01*
X3434Y4020D01*
X3436Y4022D01*
X3570D01*
X3577Y4023D01*
X3584Y4026D01*
X3590Y4030D01*
X3655Y4095D01*
X3659Y4101D01*
X3662Y4108D01*
X3663Y4115D01*
Y4225D01*
X3667Y4228D01*
X3674Y4237D01*
X3679Y4248D01*
X3680Y4260D01*
X3679Y4272D01*
X3674Y4283D01*
X3667Y4292D01*
X3658Y4299D01*
X3647Y4304D01*
X3635Y4305D01*
X3623Y4304D01*
X3618Y4302D01*
X3617Y4303D01*
X3614Y4306D01*
Y4317D01*
X3619Y4319D01*
X3626Y4316D01*
X3639Y4315D01*
X3652Y4316D01*
X3664Y4321D01*
X3675Y4329D01*
X3683Y4340D01*
X3686Y4349D01*
X3692D01*
X3695Y4340D01*
X3703Y4329D01*
X3714Y4321D01*
X3726Y4316D01*
X3739Y4315D01*
X3752Y4316D01*
X3764Y4321D01*
X3775Y4329D01*
X3783Y4340D01*
X3786Y4349D01*
X3792D01*
X3795Y4340D01*
X3803Y4329D01*
X3814Y4321D01*
X3826Y4316D01*
X3839Y4315D01*
X3852Y4316D01*
X3864Y4321D01*
X3875Y4329D01*
X3883Y4340D01*
X3886Y4349D01*
X3892D01*
X3895Y4340D01*
X3903Y4329D01*
X3914Y4321D01*
X3926Y4316D01*
X3939Y4315D01*
X3952Y4316D01*
X3964Y4321D01*
X3975Y4329D01*
X3983Y4340D01*
X3986Y4349D01*
X3992D01*
X3995Y4340D01*
X4003Y4329D01*
X4014Y4321D01*
X4026Y4316D01*
X4039Y4315D01*
X4052Y4316D01*
X4064Y4321D01*
X4075Y4329D01*
X4083Y4340D01*
X4086Y4349D01*
X4092D01*
X4095Y4340D01*
X4103Y4329D01*
X4114Y4321D01*
X4126Y4316D01*
X4139Y4315D01*
X4152Y4316D01*
X4164Y4321D01*
X4175Y4329D01*
X4183Y4340D01*
X4188Y4352D01*
X4189Y4365D01*
X4188Y4378D01*
X4183Y4390D01*
X4175Y4401D01*
X4164Y4408D01*
Y4520D01*
X4165Y4520D01*
X4175Y4529D01*
X4184Y4539D01*
X4189Y4552D01*
X4190Y4565D01*
X4189Y4578D01*
X4184Y4591D01*
X4175Y4601D01*
X4165Y4610D01*
X4152Y4615D01*
X4139Y4616D01*
X4126Y4615D01*
X4113Y4610D01*
X4103Y4601D01*
X4094Y4591D01*
X4092Y4584D01*
X4086D01*
X4084Y4591D01*
X4075Y4601D01*
X4065Y4610D01*
X4052Y4615D01*
X4039Y4616D01*
X4026Y4615D01*
X4013Y4610D01*
X4003Y4601D01*
X3994Y4591D01*
X3992Y4584D01*
X3986D01*
X3984Y4591D01*
X3975Y4601D01*
X3965Y4610D01*
X3952Y4615D01*
X3939Y4616D01*
X3926Y4615D01*
X3921Y4613D01*
X3915Y4616D01*
X3914Y4619D01*
X3910Y4625D01*
X3862Y4672D01*
X3864Y4677D01*
X4492D01*
X4493Y4673D01*
X4437Y4616D01*
X4426Y4615D01*
X4413Y4610D01*
X4403Y4601D01*
X4394Y4591D01*
X4392Y4584D01*
X4386D01*
X4384Y4591D01*
X4375Y4601D01*
X4365Y4610D01*
X4352Y4615D01*
X4339Y4616D01*
X4326Y4615D01*
X4313Y4610D01*
X4303Y4601D01*
X4294Y4591D01*
X4289Y4578D01*
X4288Y4565D01*
X4289Y4552D01*
X4294Y4539D01*
X4303Y4529D01*
X4313Y4520D01*
X4326Y4515D01*
X4339Y4514D01*
X4352Y4515D01*
X4365Y4520D01*
X4375Y4529D01*
X4384Y4539D01*
X4386Y4546D01*
X4392D01*
X4394Y4539D01*
X4403Y4529D01*
X4413Y4520D01*
X4426Y4515D01*
X4439Y4514D01*
X4452Y4515D01*
X4465Y4520D01*
X4475Y4529D01*
X4484Y4539D01*
X4486Y4546D01*
X4492D01*
X4494Y4539D01*
X4503Y4529D01*
X4513Y4520D01*
X4526Y4515D01*
X4539Y4514D01*
X4552Y4515D01*
X4565Y4520D01*
X4575Y4529D01*
X4584Y4539D01*
X4589Y4552D01*
X4590Y4565D01*
X4589Y4578D01*
X4584Y4591D01*
X4575Y4601D01*
X4565Y4610D01*
X4552Y4615D01*
X4539Y4616D01*
X4526Y4615D01*
X4518Y4611D01*
X4515Y4616D01*
X4585Y4685D01*
X4665Y4765D01*
X4669Y4771D01*
X4672Y4778D01*
X4673Y4785D01*
Y5710D01*
X4672Y5717D01*
X4669Y5724D01*
X4665Y5730D01*
X4540Y5855D01*
X4534Y5859D01*
X4527Y5862D01*
X4520Y5863D01*
X3796D01*
X3629Y6030D01*
Y6091D01*
X3635Y6094D01*
X3641Y6090D01*
X3649Y6089D01*
X3688D01*
X3696Y6090D01*
X3703Y6095D01*
X3705Y6097D01*
X3710Y6096D01*
Y6005D01*
X3711Y5995D01*
X3717Y5987D01*
X3802Y5902D01*
X3810Y5896D01*
X3820Y5895D01*
X4085D01*
X4095Y5896D01*
X4103Y5902D01*
X4326Y6125D01*
X4332Y6133D01*
X4334Y6143D01*
Y6162D01*
X4334Y6162D01*
X4345Y6170D01*
X4353Y6181D01*
X4358Y6193D01*
X4360Y6207D01*
X4358Y6220D01*
X4353Y6233D01*
X4345Y6244D01*
X4334Y6252D01*
X4322Y6257D01*
X4308Y6259D01*
X4295Y6257D01*
X4282Y6252D01*
X4271Y6244D01*
X4263Y6233D01*
X4258Y6220D01*
X4256Y6207D01*
X4258Y6193D01*
X4263Y6181D01*
X4271Y6170D01*
X4282Y6162D01*
X4283Y6162D01*
Y6154D01*
X4074Y5945D01*
X3831D01*
X3760Y6016D01*
Y6067D01*
X3765Y6069D01*
X3810Y6024D01*
X3810Y6023D01*
X3808Y6010D01*
X3810Y5997D01*
X3815Y5984D01*
X3823Y5973D01*
X3834Y5965D01*
X3847Y5960D01*
X3860Y5958D01*
X3873Y5960D01*
X3886Y5965D01*
X3897Y5973D01*
X3905Y5984D01*
X3910Y5997D01*
X3912Y6010D01*
X3910Y6023D01*
X3905Y6036D01*
X3897Y6047D01*
X3886Y6055D01*
X3873Y6060D01*
X3860Y6062D01*
X3847Y6060D01*
X3846Y6060D01*
X3801Y6105D01*
Y6230D01*
X3800Y6239D01*
X3794Y6248D01*
X3709Y6333D01*
Y6361D01*
X3707Y6368D01*
X3703Y6375D01*
X3696Y6380D01*
X3694Y6380D01*
Y6400D01*
X3696Y6400D01*
X3703Y6405D01*
X3707Y6412D01*
X3709Y6419D01*
Y6467D01*
X3707Y6474D01*
X3703Y6481D01*
X3696Y6485D01*
X3688Y6487D01*
X3649D01*
X3641Y6485D01*
X3635Y6481D01*
X3629Y6485D01*
X3627Y6486D01*
Y6499D01*
X3629Y6500D01*
X3635Y6504D01*
X3641Y6500D01*
X3649Y6498D01*
X3688D01*
X3696Y6500D01*
X3703Y6504D01*
X3707Y6511D01*
X3708Y6517D01*
X3794D01*
X3804Y6518D01*
X3812Y6524D01*
X3846Y6558D01*
X3847Y6558D01*
X3860Y6556D01*
X3873Y6558D01*
X3886Y6563D01*
X3897Y6571D01*
X3905Y6582D01*
X3910Y6595D01*
X3912Y6608D01*
X3910Y6622D01*
X3905Y6634D01*
X3897Y6645D01*
X3886Y6653D01*
X3873Y6658D01*
X3863Y6660D01*
X3861Y6665D01*
X3906Y6710D01*
X4238D01*
X4248Y6711D01*
X4256Y6717D01*
X4294Y6755D01*
X4295Y6755D01*
X4308Y6753D01*
X4321Y6755D01*
X4334Y6760D01*
X4345Y6768D01*
X4353Y6779D01*
X4358Y6792D01*
X4360Y6805D01*
X4358Y6818D01*
X4353Y6831D01*
X4345Y6842D01*
X4334Y6850D01*
X4321Y6855D01*
X4308Y6857D01*
X4295Y6855D01*
X4282Y6850D01*
X4271Y6842D01*
X4263Y6831D01*
X4258Y6818D01*
X4256Y6805D01*
X4258Y6792D01*
X4258Y6791D01*
X4227Y6760D01*
X4091D01*
X4090Y6765D01*
X4094Y6768D01*
X4102Y6779D01*
X4107Y6792D01*
X4109Y6805D01*
X4107Y6818D01*
X4102Y6831D01*
X4094Y6842D01*
X4083Y6850D01*
X4070Y6855D01*
X4057Y6857D01*
X4043Y6855D01*
X4031Y6850D01*
X4020Y6842D01*
X4012Y6831D01*
X4007Y6818D01*
X4005Y6805D01*
X4007Y6792D01*
X4012Y6779D01*
X4020Y6768D01*
X4024Y6765D01*
X4022Y6760D01*
X3895D01*
X3895Y6760D01*
X3893Y6765D01*
X3897Y6768D01*
X3905Y6779D01*
X3910Y6792D01*
X3912Y6805D01*
X3910Y6818D01*
X3905Y6831D01*
X3897Y6842D01*
X3886Y6850D01*
X3873Y6855D01*
X3860Y6857D01*
X3847Y6855D01*
X3834Y6850D01*
X3823Y6842D01*
X3815Y6831D01*
X3810Y6818D01*
X3808Y6805D01*
X3810Y6794D01*
X3702Y6686D01*
X3696Y6690D01*
X3688Y6692D01*
X3649D01*
X3641Y6690D01*
X3634Y6686D01*
X3632Y6682D01*
X3629Y6680D01*
X3625Y6681D01*
X3625Y6681D01*
X3621Y6682D01*
X3611D01*
Y6648D01*
X3591D01*
Y6682D01*
X3582D01*
X3578Y6681D01*
X3574Y6679D01*
X3571D01*
X3567Y6681D01*
X3563Y6682D01*
X3554D01*
Y6648D01*
X3534D01*
Y6682D01*
X3524D01*
X3520Y6681D01*
X3520Y6681D01*
X3516Y6680D01*
X3513Y6682D01*
X3511Y6686D01*
X3504Y6690D01*
X3496Y6692D01*
X3457D01*
X3449Y6690D01*
X3442Y6686D01*
X3438Y6679D01*
X3437Y6676D01*
X3330D01*
X3323Y6675D01*
X3316Y6672D01*
X3310Y6668D01*
X3301Y6659D01*
X3290Y6660D01*
X3276Y6658D01*
X3264Y6653D01*
X3253Y6645D01*
X3245Y6634D01*
X3240Y6622D01*
X3238Y6610D01*
X3233Y6608D01*
X3119Y6723D01*
Y6760D01*
X3119Y6760D01*
X3130Y6768D01*
X3138Y6779D01*
X3143Y6792D01*
X3145Y6805D01*
X3143Y6818D01*
X3138Y6831D01*
X3130Y6842D01*
X3119Y6850D01*
X3106Y6855D01*
X3093Y6857D01*
X3080Y6855D01*
X3067Y6850D01*
X3056Y6842D01*
X3048Y6831D01*
X3043Y6818D01*
X3041Y6805D01*
X3043Y6792D01*
X3048Y6779D01*
X3056Y6768D01*
X3067Y6760D01*
X3068Y6760D01*
Y6712D01*
X3069Y6702D01*
X3075Y6694D01*
X3105Y6663D01*
X3103Y6659D01*
X3093Y6660D01*
X3080Y6658D01*
X3067Y6653D01*
X3056Y6645D01*
X3048Y6634D01*
X3043Y6622D01*
X3041Y6608D01*
X3043Y6595D01*
X3048Y6582D01*
X3056Y6571D01*
X3067Y6563D01*
X3074Y6560D01*
X3073Y6555D01*
X2931D01*
X2892Y6594D01*
X2892Y6595D01*
X2894Y6608D01*
X2892Y6622D01*
X2887Y6634D01*
X2879Y6645D01*
X2868Y6653D01*
X2855Y6658D01*
X2842Y6660D01*
X2828Y6658D01*
X2816Y6653D01*
X2805Y6645D01*
X2797Y6634D01*
X2792Y6622D01*
X2790Y6608D01*
X2792Y6595D01*
X2797Y6582D01*
X2805Y6571D01*
X2816Y6563D01*
X2828Y6558D01*
X2842Y6556D01*
X2855Y6558D01*
X2856Y6558D01*
X2902Y6512D01*
X2910Y6506D01*
X2920Y6505D01*
X3443D01*
X3449Y6500D01*
X3457Y6499D01*
X3496D01*
X3504Y6500D01*
X3510Y6504D01*
X3516Y6500D01*
X3518Y6500D01*
Y6485D01*
X3516Y6485D01*
X3510Y6481D01*
X3504Y6485D01*
X3496Y6486D01*
X3457D01*
X3449Y6485D01*
X3442Y6480D01*
X3438Y6473D01*
X3436Y6466D01*
Y6418D01*
X3438Y6411D01*
X3442Y6404D01*
X3449Y6400D01*
X3451Y6399D01*
Y6381D01*
X3449Y6380D01*
X3442Y6376D01*
X3438Y6369D01*
X3437Y6363D01*
X3343D01*
X3333Y6362D01*
X3325Y6356D01*
X3074Y6105D01*
X2912D01*
X2902Y6104D01*
X2894Y6098D01*
X2856Y6060D01*
X2855Y6060D01*
X2842Y6062D01*
X2829Y6060D01*
X2816Y6055D01*
X2805Y6047D01*
X2797Y6036D01*
X2792Y6023D01*
X2790Y6010D01*
X2792Y5997D01*
X2797Y5984D01*
X2805Y5973D01*
X2816Y5965D01*
X2829Y5960D01*
X2842Y5958D01*
X2855Y5960D01*
X2868Y5965D01*
X2879Y5973D01*
X2887Y5984D01*
X2892Y5997D01*
X2894Y6010D01*
X2892Y6023D01*
X2892Y6024D01*
X2923Y6055D01*
X3059D01*
X3060Y6050D01*
X3056Y6047D01*
X3048Y6036D01*
X3043Y6023D01*
X3041Y6010D01*
X3043Y5997D01*
X3048Y5984D01*
X3056Y5973D01*
X3067Y5965D01*
X3080Y5960D01*
X3093Y5958D01*
X3106Y5960D01*
X3119Y5965D01*
X3130Y5973D01*
X3138Y5984D01*
X3143Y5997D01*
X3145Y6010D01*
X3143Y6023D01*
X3138Y6036D01*
X3130Y6047D01*
X3119Y6055D01*
X3108Y6060D01*
X3106Y6063D01*
X3106Y6065D01*
X3235Y6194D01*
X3240Y6192D01*
X3245Y6181D01*
X3253Y6170D01*
X3264Y6162D01*
X3276Y6157D01*
X3290Y6155D01*
X3303Y6157D01*
X3316Y6162D01*
X3327Y6170D01*
X3335Y6181D01*
X3340Y6193D01*
X3342Y6207D01*
X3340Y6220D01*
X3340Y6221D01*
X3384Y6265D01*
X3433D01*
X3437Y6260D01*
X3436Y6257D01*
Y6209D01*
X3438Y6202D01*
X3442Y6195D01*
X3449Y6190D01*
X3451Y6190D01*
Y6175D01*
X3449Y6175D01*
X3442Y6170D01*
X3438Y6163D01*
X3436Y6156D01*
Y6108D01*
X3438Y6101D01*
X3442Y6094D01*
X3449Y6090D01*
X3457Y6088D01*
X3496D01*
X3504Y6090D01*
X3510Y6094D01*
X3516Y6090D01*
X3524Y6088D01*
X3563D01*
X3569Y6089D01*
X3573Y6086D01*
X3574Y6085D01*
Y6019D01*
X3575Y6011D01*
X3577Y6005D01*
X3582Y5999D01*
X3765Y5815D01*
X3771Y5811D01*
X3778Y5808D01*
X3785Y5807D01*
X4509D01*
X4617Y5699D01*
Y4796D01*
X4554Y4733D01*
X4080D01*
X4078Y4737D01*
X4306Y4965D01*
X4308Y4965D01*
X4321Y4967D01*
X4334Y4972D01*
X4345Y4980D01*
X4353Y4991D01*
X4358Y5003D01*
X4360Y5017D01*
X4358Y5030D01*
X4353Y5043D01*
X4345Y5054D01*
X4334Y5062D01*
X4321Y5067D01*
X4308Y5069D01*
X4295Y5067D01*
X4282Y5062D01*
X4271Y5054D01*
X4263Y5043D01*
X4258Y5030D01*
X4256Y5017D01*
X4258Y5003D01*
X4262Y4993D01*
X4109Y4840D01*
X4104Y4841D01*
X4102Y4846D01*
X4094Y4857D01*
X4083Y4865D01*
X4070Y4870D01*
X4057Y4872D01*
X4044Y4870D01*
X4031Y4865D01*
X4020Y4857D01*
X4012Y4846D01*
X4007Y4833D01*
X4005Y4820D01*
X4007Y4807D01*
X4012Y4794D01*
X4020Y4783D01*
X4030Y4775D01*
X4030Y4773D01*
X4029Y4770D01*
X3887D01*
X3887Y4775D01*
X3897Y4783D01*
X3905Y4794D01*
X3910Y4807D01*
X3912Y4820D01*
X3910Y4833D01*
X3905Y4846D01*
X3897Y4857D01*
X3886Y4865D01*
X3874Y4870D01*
X3860Y4872D01*
X3847Y4870D01*
X3846Y4870D01*
X3830Y4886D01*
Y4969D01*
X3835Y4971D01*
X3847Y4967D01*
X3860Y4965D01*
X3874Y4967D01*
X3886Y4972D01*
X3897Y4980D01*
X3905Y4991D01*
X3910Y5003D01*
X3912Y5017D01*
X3910Y5030D01*
X3905Y5043D01*
X3897Y5054D01*
X3886Y5062D01*
X3874Y5067D01*
X3860Y5069D01*
X3847Y5067D01*
X3835Y5062D01*
X3830Y5065D01*
Y5155D01*
X3829Y5165D01*
X3823Y5173D01*
X3711Y5285D01*
X3709Y5287D01*
Y5291D01*
X3707Y5298D01*
X3703Y5305D01*
X3696Y5310D01*
X3694Y5310D01*
Y5340D01*
X3696Y5340D01*
X3703Y5345D01*
X3707Y5352D01*
X3709Y5359D01*
Y5395D01*
X3714Y5396D01*
X3721Y5391D01*
X3731Y5390D01*
X3815D01*
X3815Y5389D01*
X3823Y5378D01*
X3834Y5370D01*
X3847Y5365D01*
X3860Y5363D01*
X3874Y5365D01*
X3886Y5370D01*
X3897Y5378D01*
X3905Y5389D01*
X3910Y5402D01*
X3912Y5415D01*
X3910Y5428D01*
X3905Y5441D01*
X3897Y5452D01*
X3886Y5460D01*
X3874Y5465D01*
X3860Y5467D01*
X3847Y5465D01*
X3834Y5460D01*
X3823Y5452D01*
X3815Y5441D01*
X3815Y5440D01*
X3742D01*
X3709Y5473D01*
X3709Y5473D01*
Y5521D01*
X3712Y5525D01*
X4246D01*
X4256Y5526D01*
X4264Y5532D01*
X4294Y5562D01*
X4295Y5562D01*
X4308Y5560D01*
X4321Y5562D01*
X4334Y5567D01*
X4345Y5575D01*
X4353Y5586D01*
X4358Y5598D01*
X4360Y5612D01*
X4358Y5625D01*
X4353Y5638D01*
X4345Y5649D01*
X4334Y5657D01*
X4321Y5662D01*
X4308Y5664D01*
X4295Y5662D01*
X4282Y5657D01*
X4271Y5649D01*
X4263Y5638D01*
X4258Y5625D01*
X4256Y5612D01*
X4258Y5598D01*
X4258Y5598D01*
X4236Y5575D01*
X4100D01*
X4097Y5580D01*
X4102Y5586D01*
X4107Y5598D01*
X4109Y5612D01*
X4107Y5625D01*
X4102Y5638D01*
X4094Y5649D01*
X4083Y5657D01*
X4070Y5662D01*
X4057Y5664D01*
X4044Y5662D01*
X4031Y5657D01*
X4020Y5649D01*
X4012Y5638D01*
X4007Y5625D01*
X4005Y5612D01*
X4007Y5598D01*
X4012Y5586D01*
X4017Y5580D01*
X4014Y5575D01*
X3903D01*
X3901Y5580D01*
X3905Y5586D01*
X3910Y5598D01*
X3912Y5612D01*
X3910Y5625D01*
X3905Y5638D01*
X3897Y5649D01*
X3886Y5657D01*
X3874Y5662D01*
X3860Y5664D01*
X3847Y5662D01*
X3834Y5657D01*
X3823Y5649D01*
X3823Y5648D01*
X3708D01*
X3707Y5651D01*
X3703Y5658D01*
X3696Y5662D01*
X3688Y5664D01*
X3649D01*
X3641Y5662D01*
X3634Y5658D01*
X3632Y5654D01*
X3629Y5652D01*
X3625Y5653D01*
X3625Y5653D01*
X3621Y5654D01*
X3611D01*
Y5620D01*
X3591D01*
Y5654D01*
X3582D01*
X3578Y5653D01*
X3574Y5651D01*
X3574Y5650D01*
X3568D01*
X3567Y5651D01*
X3564Y5653D01*
X3560Y5654D01*
X3550D01*
Y5620D01*
X3530D01*
Y5654D01*
X3520D01*
X3516Y5653D01*
X3516Y5653D01*
X3512Y5652D01*
X3510Y5654D01*
X3507Y5658D01*
X3500Y5662D01*
X3493Y5664D01*
X3453D01*
X3445Y5662D01*
X3439Y5658D01*
X3434Y5651D01*
X3433Y5644D01*
Y5619D01*
X3279Y5466D01*
X3276Y5465D01*
X3264Y5460D01*
X3255Y5454D01*
X3250Y5456D01*
Y5536D01*
X3276Y5562D01*
X3276Y5562D01*
X3290Y5560D01*
X3303Y5562D01*
X3316Y5567D01*
X3327Y5575D01*
X3335Y5586D01*
X3340Y5598D01*
X3342Y5612D01*
X3340Y5625D01*
X3335Y5638D01*
X3327Y5649D01*
X3316Y5657D01*
X3303Y5662D01*
X3290Y5664D01*
X3276Y5662D01*
X3264Y5657D01*
X3253Y5649D01*
X3245Y5638D01*
X3240Y5625D01*
X3238Y5612D01*
X3240Y5598D01*
X3240Y5598D01*
X3207Y5565D01*
X3201Y5557D01*
X3200Y5547D01*
Y5390D01*
X3201Y5380D01*
X3207Y5372D01*
X3229Y5350D01*
X3227Y5345D01*
X2948D01*
X2892Y5401D01*
X2892Y5402D01*
X2894Y5415D01*
X2892Y5428D01*
X2887Y5441D01*
X2879Y5452D01*
X2868Y5460D01*
X2855Y5465D01*
X2842Y5467D01*
X2829Y5465D01*
X2816Y5460D01*
X2805Y5452D01*
X2797Y5441D01*
X2792Y5428D01*
X2790Y5415D01*
X2792Y5402D01*
X2797Y5389D01*
X2805Y5378D01*
X2816Y5370D01*
X2829Y5365D01*
X2842Y5363D01*
X2855Y5365D01*
X2856Y5365D01*
X2919Y5302D01*
X2927Y5296D01*
X2937Y5295D01*
X3204D01*
X3205Y5290D01*
X3200Y5286D01*
X2824Y4910D01*
X2818Y4902D01*
X2816Y4892D01*
Y4865D01*
X2816Y4865D01*
X2805Y4857D01*
X2797Y4846D01*
X2792Y4833D01*
X2790Y4820D01*
X2792Y4807D01*
X2797Y4794D01*
X2805Y4783D01*
X2816Y4775D01*
X2829Y4770D01*
X2842Y4768D01*
X2855Y4770D01*
X2868Y4775D01*
X2879Y4783D01*
X2887Y4794D01*
X2892Y4807D01*
X2894Y4820D01*
X2892Y4833D01*
X2887Y4846D01*
X2879Y4857D01*
X2868Y4865D01*
X2867Y4865D01*
Y4881D01*
X3229Y5242D01*
X3432D01*
X3433Y5237D01*
X3437Y5230D01*
X3436Y5228D01*
X3435Y5225D01*
X3395D01*
X3385Y5224D01*
X3377Y5218D01*
X3272Y5113D01*
X3266Y5105D01*
X3264Y5095D01*
Y5062D01*
X3264Y5062D01*
X3253Y5054D01*
X3245Y5043D01*
X3240Y5030D01*
X3238Y5017D01*
X3240Y5003D01*
X3245Y4991D01*
X3253Y4980D01*
X3264Y4972D01*
X3276Y4967D01*
X3290Y4965D01*
X3303Y4967D01*
X3316Y4972D01*
X3327Y4980D01*
X3335Y4991D01*
X3340Y5003D01*
X3342Y5017D01*
X3340Y5030D01*
X3335Y5043D01*
X3327Y5054D01*
X3316Y5062D01*
X3315Y5062D01*
Y5084D01*
X3406Y5175D01*
X3431D01*
Y5129D01*
X3433Y5122D01*
X3437Y5115D01*
X3444Y5110D01*
X3446Y5110D01*
Y5080D01*
X3444Y5080D01*
X3437Y5075D01*
X3433Y5068D01*
X3431Y5061D01*
Y5013D01*
X3433Y5006D01*
X3437Y4999D01*
X3444Y4995D01*
X3452Y4993D01*
X3491D01*
X3499Y4995D01*
X3505Y4999D01*
X3511Y4995D01*
X3519Y4993D01*
X3558D01*
X3566Y4995D01*
X3569Y4997D01*
X3574Y4994D01*
Y4884D01*
X3575Y4876D01*
X3577Y4870D01*
X3582Y4864D01*
X3758Y4688D01*
X3756Y4683D01*
X3466D01*
X3340Y4809D01*
X3342Y4820D01*
X3340Y4833D01*
X3335Y4846D01*
X3327Y4857D01*
X3316Y4865D01*
X3303Y4870D01*
X3290Y4872D01*
X3276Y4870D01*
X3264Y4865D01*
X3253Y4857D01*
X3245Y4846D01*
X3240Y4833D01*
X3238Y4820D01*
X3240Y4807D01*
X3245Y4794D01*
X3253Y4783D01*
X3264Y4775D01*
X3276Y4770D01*
X3290Y4768D01*
X3301Y4770D01*
X3435Y4635D01*
X3441Y4631D01*
X3448Y4628D01*
X3455Y4627D01*
X3829D01*
X3835Y4621D01*
X3833Y4616D01*
X3826Y4615D01*
X3813Y4610D01*
X3803Y4601D01*
X3794Y4591D01*
X3792Y4584D01*
X3786D01*
X3784Y4591D01*
X3775Y4601D01*
X3765Y4610D01*
X3752Y4615D01*
X3739Y4616D01*
X3726Y4615D01*
X3713Y4610D01*
X3703Y4601D01*
X3694Y4591D01*
X3692Y4584D01*
X3686D01*
X3684Y4591D01*
X3675Y4601D01*
X3665Y4610D01*
X3652Y4615D01*
X3639Y4616D01*
X3626Y4615D01*
X3613Y4610D01*
X3603Y4601D01*
X3594Y4591D01*
X3592Y4584D01*
X3586D01*
X3584Y4591D01*
X3575Y4601D01*
X3565Y4610D01*
X3552Y4615D01*
X3539Y4616D01*
X3526Y4615D01*
X3513Y4610D01*
X3503Y4601D01*
X3494Y4591D01*
X3492Y4584D01*
X3486D01*
X3484Y4591D01*
X3475Y4601D01*
X3465Y4610D01*
X3452Y4615D01*
X3439Y4616D01*
X3426Y4615D01*
X3413Y4610D01*
X3403Y4601D01*
X3394Y4591D01*
X3392Y4584D01*
X3386D01*
X3384Y4591D01*
X3375Y4601D01*
X3365Y4610D01*
X3352Y4615D01*
X3339Y4616D01*
X3326Y4615D01*
X3313Y4610D01*
X3303Y4601D01*
X3294Y4591D01*
X3292Y4584D01*
X3286D01*
X3284Y4591D01*
X3275Y4601D01*
X3265Y4610D01*
X3252Y4615D01*
X3239Y4616D01*
X3226Y4615D01*
X3213Y4610D01*
X3203Y4601D01*
X3194Y4591D01*
X3192Y4584D01*
X3186D01*
X3184Y4591D01*
X3175Y4601D01*
X3165Y4610D01*
X3152Y4615D01*
X3139Y4616D01*
X3126Y4615D01*
X3113Y4610D01*
X3103Y4601D01*
X3094Y4591D01*
X3092Y4584D01*
X3086D01*
X3084Y4591D01*
X3075Y4601D01*
X3065Y4610D01*
X3052Y4615D01*
X3039Y4616D01*
X3026Y4615D01*
X3013Y4610D01*
X3003Y4601D01*
X2994Y4591D01*
X2989Y4578D01*
X2988Y4565D01*
X2989Y4552D01*
X2994Y4539D01*
X3003Y4529D01*
X3013Y4520D01*
X3026Y4515D01*
X3039Y4514D01*
X3052Y4515D01*
X3053Y4515D01*
X3106Y4462D01*
X3114Y4456D01*
X3124Y4455D01*
X3373D01*
X3481Y4347D01*
X3489Y4341D01*
X3495Y4340D01*
X3495Y4340D01*
X3503Y4329D01*
X3514Y4321D01*
X3526Y4316D01*
X3539Y4315D01*
X3552Y4316D01*
X3555Y4317D01*
X3560Y4314D01*
X3560Y4313D01*
X3521Y4273D01*
X3515Y4265D01*
X3514Y4255D01*
Y4208D01*
X3503Y4201D01*
X3495Y4190D01*
X3492Y4181D01*
X3486D01*
X3483Y4190D01*
X3475Y4201D01*
X3464Y4209D01*
X3452Y4214D01*
X3439Y4215D01*
X3426Y4214D01*
X3414Y4209D01*
X3403Y4201D01*
X3395Y4190D01*
X3392Y4181D01*
X3386D01*
X3383Y4190D01*
X3375Y4201D01*
X3364Y4209D01*
X3352Y4214D01*
X3339Y4215D01*
X3326Y4214D01*
X3314Y4209D01*
X3303Y4201D01*
X3295Y4190D01*
X3290Y4178D01*
X3289Y4165D01*
X3290Y4152D01*
X3295Y4140D01*
X3303Y4129D01*
X3314Y4121D01*
X3326Y4116D01*
X3339Y4115D01*
X3352Y4116D01*
X3364Y4121D01*
X3375Y4129D01*
X3383Y4140D01*
X3386Y4149D01*
X3392D01*
X3395Y4140D01*
X3403Y4129D01*
X3414Y4121D01*
X3426Y4116D01*
X3439Y4115D01*
X3452Y4116D01*
X3464Y4121D01*
X3475Y4129D01*
X3483Y4140D01*
X3486Y4149D01*
X3492D01*
X3495Y4140D01*
X3503Y4129D01*
X3514Y4121D01*
X3526Y4116D01*
X3539Y4115D01*
X3552Y4116D01*
X3564Y4121D01*
X3575Y4129D01*
X3583Y4140D01*
X3588Y4152D01*
X3589Y4165D01*
X3588Y4178D01*
X3583Y4190D01*
X3575Y4201D01*
X3564Y4208D01*
Y4244D01*
X3586Y4266D01*
X3590Y4263D01*
X3590Y4260D01*
X3591Y4248D01*
X3596Y4237D01*
X3603Y4228D01*
X3607Y4225D01*
Y4126D01*
X3559Y4078D01*
X3424D01*
X3417Y4077D01*
X3410Y4074D01*
X3404Y4070D01*
X3349Y4014D01*
X3339Y4015D01*
X3326Y4014D01*
X3314Y4009D01*
X3303Y4001D01*
X3295Y3990D01*
X3292Y3981D01*
X3286D01*
X3283Y3990D01*
X3275Y4001D01*
X3264Y4009D01*
X3252Y4014D01*
X3239Y4015D01*
X3226Y4014D01*
X3214Y4009D01*
X3203Y4001D01*
X3195Y3990D01*
X3190Y3978D01*
X3189Y3965D01*
X3190Y3952D01*
X3195Y3940D01*
X3202Y3931D01*
X3200Y3926D01*
X2850D01*
X2847Y3930D01*
X2838Y3937D01*
X2827Y3942D01*
X2815Y3943D01*
X2803Y3942D01*
X2792Y3937D01*
X2783Y3930D01*
X2776Y3921D01*
X2771Y3910D01*
X2770Y3898D01*
X2771Y3887D01*
X2768Y3882D01*
X2751D01*
X2714Y3919D01*
Y4371D01*
X2716Y4371D01*
X2723Y4376D01*
X2727Y4382D01*
X2728Y4383D01*
X2741D01*
X2745Y4376D01*
X2752Y4372D01*
X2759Y4370D01*
X2807D01*
X2814Y4372D01*
X2821Y4376D01*
X2825Y4383D01*
X2827Y4391D01*
Y4430D01*
X2825Y4438D01*
X2821Y4444D01*
X2825Y4450D01*
X2827Y4458D01*
Y4497D01*
X2825Y4505D01*
X2821Y4512D01*
X2814Y4516D01*
X2810Y4517D01*
Y4527D01*
X2821Y4534D01*
X2829Y4545D01*
X2834Y4557D01*
X2835Y4570D01*
X2834Y4583D01*
X2829Y4595D01*
X2821Y4606D01*
X2810Y4614D01*
X2798Y4619D01*
X2785Y4620D01*
X2772Y4619D01*
X2760Y4614D01*
X2749Y4606D01*
X2741Y4595D01*
X2738Y4586D01*
X2732D01*
X2729Y4595D01*
X2721Y4606D01*
X2710Y4614D01*
X2698Y4619D01*
X2685Y4620D01*
X2672Y4619D01*
X2660Y4614D01*
X2649Y4606D01*
X2641Y4595D01*
X2636Y4583D01*
X2635Y4570D01*
X2636Y4557D01*
X2641Y4545D01*
X2649Y4534D01*
X2660Y4527D01*
Y4517D01*
X2654Y4516D01*
X2647Y4511D01*
X2643Y4505D01*
X2641Y4497D01*
Y4457D01*
X2643Y4450D01*
X2647Y4444D01*
X2643Y4438D01*
X2241D01*
X2148Y4531D01*
Y4704D01*
X2213Y4769D01*
X2218Y4775D01*
X2221Y4782D01*
X2222Y4789D01*
Y6306D01*
X2234D01*
X2242Y6308D01*
X2248Y6312D01*
X2253Y6319D01*
X2254Y6327D01*
Y6407D01*
X2253Y6414D01*
X2248Y6421D01*
X2242Y6425D01*
X2234Y6427D01*
X2154D01*
X2146Y6425D01*
X2139Y6421D01*
X2135Y6414D01*
X2133Y6407D01*
Y6327D01*
X2135Y6319D01*
X2139Y6312D01*
X2146Y6308D01*
X2154Y6306D01*
X2166D01*
Y6171D01*
X2161Y6171D01*
X2158Y6181D01*
X2152Y6192D01*
X2144Y6202D01*
X2134Y6211D01*
X2123Y6217D01*
X2110Y6220D01*
X2098Y6222D01*
X2085Y6220D01*
X2073Y6217D01*
X2068Y6219D01*
Y6797D01*
X2073Y6799D01*
X2077Y6796D01*
X2093Y6787D01*
X2111Y6781D01*
X2130Y6780D01*
X2149Y6781D01*
X2167Y6787D01*
X2183Y6796D01*
X2197Y6807D01*
X2209Y6822D01*
X2218Y6838D01*
X2224Y6856D01*
X2225Y6875D01*
X2224Y6894D01*
X2218Y6912D01*
X2214Y6920D01*
X2216Y6925D01*
X4603D01*
X4605Y6920D01*
D02*
G37*
%LPC*%
G36*
X3093Y5467D02*
X3080Y5465D01*
X3067Y5460D01*
X3056Y5452D01*
X3048Y5441D01*
X3043Y5428D01*
X3041Y5415D01*
X3043Y5402D01*
X3048Y5389D01*
X3056Y5378D01*
X3067Y5370D01*
X3080Y5365D01*
X3093Y5363D01*
X3106Y5365D01*
X3119Y5370D01*
X3130Y5378D01*
X3138Y5389D01*
X3143Y5402D01*
X3145Y5415D01*
X3143Y5428D01*
X3138Y5441D01*
X3130Y5452D01*
X3119Y5460D01*
X3106Y5465D01*
X3093Y5467D01*
D02*
G37*
G36*
X4057D02*
X4044Y5465D01*
X4031Y5460D01*
X4020Y5452D01*
X4012Y5441D01*
X4007Y5428D01*
X4005Y5415D01*
X4007Y5402D01*
X4012Y5389D01*
X4020Y5378D01*
X4031Y5370D01*
X4044Y5365D01*
X4057Y5363D01*
X4070Y5365D01*
X4083Y5370D01*
X4094Y5378D01*
X4102Y5389D01*
X4107Y5402D01*
X4109Y5415D01*
X4107Y5428D01*
X4102Y5441D01*
X4094Y5452D01*
X4083Y5460D01*
X4070Y5465D01*
X4057Y5467D01*
D02*
G37*
G36*
X2645D02*
X2632Y5465D01*
X2619Y5460D01*
X2608Y5452D01*
X2600Y5441D01*
X2595Y5428D01*
X2593Y5415D01*
X2595Y5402D01*
X2600Y5389D01*
X2608Y5378D01*
X2619Y5370D01*
X2632Y5365D01*
X2645Y5363D01*
X2659Y5365D01*
X2671Y5370D01*
X2682Y5378D01*
X2690Y5389D01*
X2695Y5402D01*
X2697Y5415D01*
X2695Y5428D01*
X2690Y5441D01*
X2682Y5452D01*
X2671Y5460D01*
X2659Y5465D01*
X2645Y5467D01*
D02*
G37*
G36*
X4057Y5069D02*
X4044Y5067D01*
X4031Y5062D01*
X4020Y5054D01*
X4012Y5043D01*
X4007Y5030D01*
X4005Y5017D01*
X4007Y5003D01*
X4012Y4991D01*
X4020Y4980D01*
X4031Y4972D01*
X4044Y4967D01*
X4057Y4965D01*
X4070Y4967D01*
X4083Y4972D01*
X4094Y4980D01*
X4102Y4991D01*
X4107Y5003D01*
X4109Y5017D01*
X4107Y5030D01*
X4102Y5043D01*
X4094Y5054D01*
X4083Y5062D01*
X4070Y5067D01*
X4057Y5069D01*
D02*
G37*
G36*
X4505D02*
X4491Y5067D01*
X4479Y5062D01*
X4468Y5054D01*
X4460Y5043D01*
X4455Y5030D01*
X4453Y5017D01*
X4455Y5003D01*
X4460Y4991D01*
X4468Y4980D01*
X4479Y4972D01*
X4491Y4967D01*
X4505Y4965D01*
X4518Y4967D01*
X4531Y4972D01*
X4542Y4980D01*
X4550Y4991D01*
X4555Y5003D01*
X4557Y5017D01*
X4555Y5030D01*
X4550Y5043D01*
X4542Y5054D01*
X4531Y5062D01*
X4518Y5067D01*
X4505Y5069D01*
D02*
G37*
G36*
X2842Y5664D02*
X2829Y5662D01*
X2816Y5657D01*
X2805Y5649D01*
X2797Y5638D01*
X2792Y5625D01*
X2790Y5612D01*
X2792Y5598D01*
X2797Y5586D01*
X2805Y5575D01*
X2816Y5567D01*
X2829Y5562D01*
X2842Y5560D01*
X2855Y5562D01*
X2868Y5567D01*
X2879Y5575D01*
X2887Y5586D01*
X2892Y5598D01*
X2894Y5612D01*
X2892Y5625D01*
X2887Y5638D01*
X2879Y5649D01*
X2868Y5657D01*
X2855Y5662D01*
X2842Y5664D01*
D02*
G37*
G36*
X3093D02*
X3080Y5662D01*
X3067Y5657D01*
X3056Y5649D01*
X3048Y5638D01*
X3043Y5625D01*
X3041Y5612D01*
X3043Y5598D01*
X3048Y5586D01*
X3056Y5575D01*
X3067Y5567D01*
X3080Y5562D01*
X3093Y5560D01*
X3106Y5562D01*
X3119Y5567D01*
X3130Y5575D01*
X3138Y5586D01*
X3143Y5598D01*
X3145Y5612D01*
X3143Y5625D01*
X3138Y5638D01*
X3130Y5649D01*
X3119Y5657D01*
X3106Y5662D01*
X3093Y5664D01*
D02*
G37*
G36*
X2645D02*
X2632Y5662D01*
X2619Y5657D01*
X2608Y5649D01*
X2600Y5638D01*
X2595Y5625D01*
X2593Y5612D01*
X2595Y5598D01*
X2600Y5586D01*
X2608Y5575D01*
X2619Y5567D01*
X2632Y5562D01*
X2645Y5560D01*
X2659Y5562D01*
X2671Y5567D01*
X2682Y5575D01*
X2690Y5586D01*
X2695Y5598D01*
X2697Y5612D01*
X2695Y5625D01*
X2690Y5638D01*
X2682Y5649D01*
X2671Y5657D01*
X2659Y5662D01*
X2645Y5664D01*
D02*
G37*
G36*
X4308Y5467D02*
X4295Y5465D01*
X4282Y5460D01*
X4271Y5452D01*
X4263Y5441D01*
X4258Y5428D01*
X4256Y5415D01*
X4258Y5402D01*
X4263Y5389D01*
X4271Y5378D01*
X4282Y5370D01*
X4295Y5365D01*
X4308Y5363D01*
X4321Y5365D01*
X4334Y5370D01*
X4345Y5378D01*
X4353Y5389D01*
X4358Y5402D01*
X4360Y5415D01*
X4358Y5428D01*
X4353Y5441D01*
X4345Y5452D01*
X4334Y5460D01*
X4321Y5465D01*
X4308Y5467D01*
D02*
G37*
G36*
X4505D02*
X4491Y5465D01*
X4479Y5460D01*
X4468Y5452D01*
X4460Y5441D01*
X4455Y5428D01*
X4453Y5415D01*
X4455Y5402D01*
X4460Y5389D01*
X4468Y5378D01*
X4479Y5370D01*
X4491Y5365D01*
X4505Y5363D01*
X4518Y5365D01*
X4531Y5370D01*
X4542Y5378D01*
X4550Y5389D01*
X4555Y5402D01*
X4557Y5415D01*
X4555Y5428D01*
X4550Y5441D01*
X4542Y5452D01*
X4531Y5460D01*
X4518Y5465D01*
X4505Y5467D01*
D02*
G37*
G36*
X2645Y4872D02*
X2632Y4870D01*
X2619Y4865D01*
X2608Y4857D01*
X2600Y4846D01*
X2595Y4833D01*
X2593Y4820D01*
X2595Y4807D01*
X2600Y4794D01*
X2608Y4783D01*
X2619Y4775D01*
X2632Y4770D01*
X2645Y4768D01*
X2659Y4770D01*
X2671Y4775D01*
X2682Y4783D01*
X2690Y4794D01*
X2695Y4807D01*
X2697Y4820D01*
X2695Y4833D01*
X2690Y4846D01*
X2682Y4857D01*
X2671Y4865D01*
X2659Y4870D01*
X2645Y4872D01*
D02*
G37*
G36*
X3093D02*
X3080Y4870D01*
X3067Y4865D01*
X3056Y4857D01*
X3048Y4846D01*
X3043Y4833D01*
X3041Y4820D01*
X3043Y4807D01*
X3048Y4794D01*
X3056Y4783D01*
X3067Y4775D01*
X3080Y4770D01*
X3093Y4768D01*
X3106Y4770D01*
X3119Y4775D01*
X3130Y4783D01*
X3138Y4794D01*
X3143Y4807D01*
X3145Y4820D01*
X3143Y4833D01*
X3138Y4846D01*
X3130Y4857D01*
X3119Y4865D01*
X3106Y4870D01*
X3093Y4872D01*
D02*
G37*
G36*
X2428Y4886D02*
X2415Y4885D01*
X2403Y4881D01*
X2392Y4875D01*
X2382Y4867D01*
X2374Y4857D01*
X2368Y4846D01*
X2364Y4834D01*
X2363Y4821D01*
X2364Y4808D01*
X2368Y4796D01*
X2374Y4785D01*
X2382Y4775D01*
X2392Y4767D01*
X2403Y4761D01*
X2415Y4757D01*
X2428Y4756D01*
X2441Y4757D01*
X2453Y4761D01*
X2464Y4767D01*
X2474Y4775D01*
X2482Y4785D01*
X2488Y4796D01*
X2492Y4808D01*
X2493Y4821D01*
X2492Y4834D01*
X2488Y4846D01*
X2482Y4857D01*
X2474Y4867D01*
X2464Y4875D01*
X2453Y4881D01*
X2441Y4885D01*
X2428Y4886D01*
D02*
G37*
G36*
X3239Y4415D02*
X3226Y4414D01*
X3214Y4409D01*
X3203Y4401D01*
X3195Y4390D01*
X3192Y4381D01*
X3186D01*
X3183Y4390D01*
X3175Y4401D01*
X3164Y4409D01*
X3152Y4414D01*
X3139Y4415D01*
X3126Y4414D01*
X3114Y4409D01*
X3103Y4401D01*
X3095Y4390D01*
X3090Y4378D01*
X3089Y4365D01*
X3090Y4352D01*
X3095Y4340D01*
X3103Y4329D01*
X3114Y4321D01*
X3126Y4316D01*
X3139Y4315D01*
X3152Y4316D01*
X3164Y4321D01*
X3175Y4329D01*
X3183Y4340D01*
X3186Y4349D01*
X3192D01*
X3195Y4340D01*
X3203Y4329D01*
X3214Y4321D01*
X3226Y4316D01*
X3239Y4315D01*
X3252Y4316D01*
X3264Y4321D01*
X3275Y4329D01*
X3283Y4340D01*
X3288Y4352D01*
X3289Y4365D01*
X3288Y4378D01*
X3283Y4390D01*
X3275Y4401D01*
X3264Y4409D01*
X3252Y4414D01*
X3239Y4415D01*
D02*
G37*
G36*
X2331Y4716D02*
X2319Y4715D01*
X2308Y4712D01*
X2297Y4706D01*
X2288Y4699D01*
X2281Y4689D01*
X2275Y4679D01*
X2272Y4668D01*
X2271Y4656D01*
X2272Y4644D01*
X2275Y4633D01*
X2281Y4623D01*
X2288Y4613D01*
X2297Y4606D01*
X2308Y4600D01*
X2319Y4597D01*
X2331Y4596D01*
X2343Y4597D01*
X2354Y4600D01*
X2364Y4606D01*
X2373Y4613D01*
X2381Y4623D01*
X2387Y4633D01*
X2390Y4644D01*
X2391Y4656D01*
X2390Y4668D01*
X2387Y4679D01*
X2381Y4689D01*
X2373Y4699D01*
X2364Y4706D01*
X2354Y4712D01*
X2343Y4715D01*
X2331Y4716D01*
D02*
G37*
G36*
X2842Y5069D02*
X2829Y5067D01*
X2816Y5062D01*
X2805Y5054D01*
X2797Y5043D01*
X2792Y5030D01*
X2790Y5017D01*
X2792Y5003D01*
X2797Y4991D01*
X2805Y4980D01*
X2816Y4972D01*
X2829Y4967D01*
X2842Y4965D01*
X2855Y4967D01*
X2868Y4972D01*
X2879Y4980D01*
X2887Y4991D01*
X2892Y5003D01*
X2894Y5017D01*
X2892Y5030D01*
X2887Y5043D01*
X2879Y5054D01*
X2868Y5062D01*
X2855Y5067D01*
X2842Y5069D01*
D02*
G37*
G36*
X3093D02*
X3080Y5067D01*
X3067Y5062D01*
X3056Y5054D01*
X3048Y5043D01*
X3043Y5030D01*
X3041Y5017D01*
X3043Y5003D01*
X3048Y4991D01*
X3056Y4980D01*
X3067Y4972D01*
X3080Y4967D01*
X3093Y4965D01*
X3106Y4967D01*
X3119Y4972D01*
X3130Y4980D01*
X3138Y4991D01*
X3143Y5003D01*
X3145Y5017D01*
X3143Y5030D01*
X3138Y5043D01*
X3130Y5054D01*
X3119Y5062D01*
X3106Y5067D01*
X3093Y5069D01*
D02*
G37*
G36*
X2645D02*
X2632Y5067D01*
X2619Y5062D01*
X2608Y5054D01*
X2600Y5043D01*
X2595Y5030D01*
X2593Y5017D01*
X2595Y5003D01*
X2600Y4991D01*
X2608Y4980D01*
X2619Y4972D01*
X2632Y4967D01*
X2645Y4965D01*
X2659Y4967D01*
X2671Y4972D01*
X2682Y4980D01*
X2690Y4991D01*
X2695Y5003D01*
X2697Y5017D01*
X2695Y5030D01*
X2690Y5043D01*
X2682Y5054D01*
X2671Y5062D01*
X2659Y5067D01*
X2645Y5069D01*
D02*
G37*
G36*
X4308Y4872D02*
X4295Y4870D01*
X4282Y4865D01*
X4271Y4857D01*
X4263Y4846D01*
X4258Y4833D01*
X4256Y4820D01*
X4258Y4807D01*
X4263Y4794D01*
X4271Y4783D01*
X4282Y4775D01*
X4295Y4770D01*
X4308Y4768D01*
X4321Y4770D01*
X4334Y4775D01*
X4345Y4783D01*
X4353Y4794D01*
X4358Y4807D01*
X4360Y4820D01*
X4358Y4833D01*
X4353Y4846D01*
X4345Y4857D01*
X4334Y4865D01*
X4321Y4870D01*
X4308Y4872D01*
D02*
G37*
G36*
X4505D02*
X4491Y4870D01*
X4479Y4865D01*
X4468Y4857D01*
X4460Y4846D01*
X4455Y4833D01*
X4453Y4820D01*
X4455Y4807D01*
X4460Y4794D01*
X4468Y4783D01*
X4479Y4775D01*
X4491Y4770D01*
X4505Y4768D01*
X4518Y4770D01*
X4531Y4775D01*
X4542Y4783D01*
X4550Y4794D01*
X4555Y4807D01*
X4557Y4820D01*
X4555Y4833D01*
X4550Y4846D01*
X4542Y4857D01*
X4531Y4865D01*
X4518Y4870D01*
X4505Y4872D01*
D02*
G37*
G36*
Y5664D02*
X4491Y5662D01*
X4479Y5657D01*
X4468Y5649D01*
X4460Y5638D01*
X4455Y5625D01*
X4453Y5612D01*
X4455Y5598D01*
X4460Y5586D01*
X4468Y5575D01*
X4479Y5567D01*
X4491Y5562D01*
X4505Y5560D01*
X4518Y5562D01*
X4531Y5567D01*
X4542Y5575D01*
X4550Y5586D01*
X4555Y5598D01*
X4557Y5612D01*
X4555Y5625D01*
X4550Y5638D01*
X4542Y5649D01*
X4531Y5657D01*
X4518Y5662D01*
X4505Y5664D01*
D02*
G37*
G36*
X4057Y6660D02*
X4043Y6658D01*
X4031Y6653D01*
X4020Y6645D01*
X4012Y6634D01*
X4007Y6622D01*
X4005Y6608D01*
X4007Y6595D01*
X4012Y6582D01*
X4020Y6571D01*
X4031Y6563D01*
X4043Y6558D01*
X4057Y6556D01*
X4070Y6558D01*
X4083Y6563D01*
X4094Y6571D01*
X4102Y6582D01*
X4107Y6595D01*
X4109Y6608D01*
X4107Y6622D01*
X4102Y6634D01*
X4094Y6645D01*
X4083Y6653D01*
X4070Y6658D01*
X4057Y6660D01*
D02*
G37*
G36*
X4308D02*
X4295Y6658D01*
X4282Y6653D01*
X4271Y6645D01*
X4263Y6634D01*
X4258Y6622D01*
X4256Y6608D01*
X4258Y6595D01*
X4263Y6582D01*
X4271Y6571D01*
X4282Y6563D01*
X4295Y6558D01*
X4308Y6556D01*
X4321Y6558D01*
X4334Y6563D01*
X4345Y6571D01*
X4353Y6582D01*
X4358Y6595D01*
X4360Y6608D01*
X4358Y6622D01*
X4353Y6634D01*
X4345Y6645D01*
X4334Y6653D01*
X4321Y6658D01*
X4308Y6660D01*
D02*
G37*
G36*
X2645D02*
X2632Y6658D01*
X2619Y6653D01*
X2608Y6645D01*
X2600Y6634D01*
X2595Y6622D01*
X2593Y6608D01*
X2595Y6595D01*
X2600Y6582D01*
X2608Y6571D01*
X2619Y6563D01*
X2632Y6558D01*
X2645Y6556D01*
X2658Y6558D01*
X2671Y6563D01*
X2682Y6571D01*
X2690Y6582D01*
X2695Y6595D01*
X2697Y6608D01*
X2695Y6622D01*
X2690Y6634D01*
X2682Y6645D01*
X2671Y6653D01*
X2658Y6658D01*
X2645Y6660D01*
D02*
G37*
G36*
X4057Y6259D02*
X4043Y6257D01*
X4031Y6252D01*
X4020Y6244D01*
X4012Y6233D01*
X4007Y6220D01*
X4005Y6207D01*
X4007Y6193D01*
X4012Y6181D01*
X4020Y6170D01*
X4031Y6162D01*
X4043Y6157D01*
X4057Y6155D01*
X4070Y6157D01*
X4083Y6162D01*
X4094Y6170D01*
X4102Y6181D01*
X4107Y6193D01*
X4109Y6207D01*
X4107Y6220D01*
X4102Y6233D01*
X4094Y6244D01*
X4083Y6252D01*
X4070Y6257D01*
X4057Y6259D01*
D02*
G37*
G36*
X4505D02*
X4492Y6257D01*
X4479Y6252D01*
X4468Y6244D01*
X4460Y6233D01*
X4455Y6220D01*
X4453Y6207D01*
X4455Y6193D01*
X4460Y6181D01*
X4468Y6170D01*
X4479Y6162D01*
X4492Y6157D01*
X4505Y6155D01*
X4518Y6157D01*
X4531Y6162D01*
X4542Y6170D01*
X4550Y6181D01*
X4555Y6193D01*
X4557Y6207D01*
X4555Y6220D01*
X4550Y6233D01*
X4542Y6244D01*
X4531Y6252D01*
X4518Y6257D01*
X4505Y6259D01*
D02*
G37*
G36*
X3290Y6857D02*
X3276Y6855D01*
X3264Y6850D01*
X3253Y6842D01*
X3245Y6831D01*
X3240Y6818D01*
X3238Y6805D01*
X3240Y6792D01*
X3245Y6779D01*
X3253Y6768D01*
X3264Y6760D01*
X3276Y6755D01*
X3290Y6753D01*
X3303Y6755D01*
X3316Y6760D01*
X3327Y6768D01*
X3335Y6779D01*
X3340Y6792D01*
X3342Y6805D01*
X3340Y6818D01*
X3335Y6831D01*
X3327Y6842D01*
X3316Y6850D01*
X3303Y6855D01*
X3290Y6857D01*
D02*
G37*
G36*
X4505D02*
X4491Y6855D01*
X4479Y6850D01*
X4468Y6842D01*
X4460Y6831D01*
X4455Y6818D01*
X4453Y6805D01*
X4455Y6792D01*
X4460Y6779D01*
X4468Y6768D01*
X4479Y6760D01*
X4491Y6755D01*
X4505Y6753D01*
X4518Y6755D01*
X4531Y6760D01*
X4542Y6768D01*
X4550Y6779D01*
X4555Y6792D01*
X4557Y6805D01*
X4555Y6818D01*
X4550Y6831D01*
X4542Y6842D01*
X4531Y6850D01*
X4518Y6855D01*
X4505Y6857D01*
D02*
G37*
G36*
X2842D02*
X2828Y6855D01*
X2816Y6850D01*
X2805Y6842D01*
X2797Y6831D01*
X2792Y6818D01*
X2790Y6805D01*
X2792Y6792D01*
X2797Y6779D01*
X2805Y6768D01*
X2816Y6760D01*
X2828Y6755D01*
X2842Y6753D01*
X2855Y6755D01*
X2868Y6760D01*
X2879Y6768D01*
X2887Y6779D01*
X2892Y6792D01*
X2894Y6805D01*
X2892Y6818D01*
X2887Y6831D01*
X2879Y6842D01*
X2868Y6850D01*
X2855Y6855D01*
X2842Y6857D01*
D02*
G37*
G36*
X4505Y6660D02*
X4491Y6658D01*
X4479Y6653D01*
X4468Y6645D01*
X4460Y6634D01*
X4455Y6622D01*
X4453Y6608D01*
X4455Y6595D01*
X4460Y6582D01*
X4468Y6571D01*
X4479Y6563D01*
X4491Y6558D01*
X4505Y6556D01*
X4518Y6558D01*
X4531Y6563D01*
X4542Y6571D01*
X4550Y6582D01*
X4555Y6595D01*
X4557Y6608D01*
X4555Y6622D01*
X4550Y6634D01*
X4542Y6645D01*
X4531Y6653D01*
X4518Y6658D01*
X4505Y6660D01*
D02*
G37*
G36*
X2645Y6857D02*
X2632Y6855D01*
X2619Y6850D01*
X2608Y6842D01*
X2600Y6831D01*
X2595Y6818D01*
X2593Y6805D01*
X2595Y6792D01*
X2600Y6779D01*
X2608Y6768D01*
X2619Y6760D01*
X2632Y6755D01*
X2645Y6753D01*
X2658Y6755D01*
X2671Y6760D01*
X2682Y6768D01*
X2690Y6779D01*
X2695Y6792D01*
X2697Y6805D01*
X2695Y6818D01*
X2690Y6831D01*
X2682Y6842D01*
X2671Y6850D01*
X2658Y6855D01*
X2645Y6857D01*
D02*
G37*
G36*
X4308Y6062D02*
X4295Y6060D01*
X4282Y6055D01*
X4271Y6047D01*
X4263Y6036D01*
X4258Y6023D01*
X4256Y6010D01*
X4258Y5997D01*
X4263Y5984D01*
X4271Y5973D01*
X4282Y5965D01*
X4295Y5960D01*
X4308Y5958D01*
X4322Y5960D01*
X4334Y5965D01*
X4345Y5973D01*
X4353Y5984D01*
X4358Y5997D01*
X4360Y6010D01*
X4358Y6023D01*
X4353Y6036D01*
X4345Y6047D01*
X4334Y6055D01*
X4322Y6060D01*
X4308Y6062D01*
D02*
G37*
G36*
X4505D02*
X4492Y6060D01*
X4479Y6055D01*
X4468Y6047D01*
X4460Y6036D01*
X4455Y6023D01*
X4453Y6010D01*
X4455Y5997D01*
X4460Y5984D01*
X4468Y5973D01*
X4479Y5965D01*
X4492Y5960D01*
X4505Y5958D01*
X4518Y5960D01*
X4531Y5965D01*
X4542Y5973D01*
X4550Y5984D01*
X4555Y5997D01*
X4557Y6010D01*
X4555Y6023D01*
X4550Y6036D01*
X4542Y6047D01*
X4531Y6055D01*
X4518Y6060D01*
X4505Y6062D01*
D02*
G37*
G36*
X4057D02*
X4043Y6060D01*
X4031Y6055D01*
X4020Y6047D01*
X4012Y6036D01*
X4007Y6023D01*
X4005Y6010D01*
X4007Y5997D01*
X4012Y5984D01*
X4020Y5973D01*
X4031Y5965D01*
X4043Y5960D01*
X4057Y5958D01*
X4070Y5960D01*
X4083Y5965D01*
X4094Y5973D01*
X4102Y5984D01*
X4107Y5997D01*
X4109Y6010D01*
X4107Y6023D01*
X4102Y6036D01*
X4094Y6047D01*
X4083Y6055D01*
X4070Y6060D01*
X4057Y6062D01*
D02*
G37*
G36*
X2645D02*
X2632Y6060D01*
X2619Y6055D01*
X2608Y6047D01*
X2600Y6036D01*
X2595Y6023D01*
X2593Y6010D01*
X2595Y5997D01*
X2600Y5984D01*
X2608Y5973D01*
X2619Y5965D01*
X2632Y5960D01*
X2645Y5958D01*
X2659Y5960D01*
X2671Y5965D01*
X2682Y5973D01*
X2690Y5984D01*
X2695Y5997D01*
X2697Y6010D01*
X2695Y6023D01*
X2690Y6036D01*
X2682Y6047D01*
X2671Y6055D01*
X2659Y6060D01*
X2645Y6062D01*
D02*
G37*
G36*
X3290D02*
X3276Y6060D01*
X3264Y6055D01*
X3253Y6047D01*
X3245Y6036D01*
X3240Y6023D01*
X3238Y6010D01*
X3240Y5997D01*
X3245Y5984D01*
X3253Y5973D01*
X3264Y5965D01*
X3276Y5960D01*
X3290Y5958D01*
X3303Y5960D01*
X3316Y5965D01*
X3327Y5973D01*
X3335Y5984D01*
X3340Y5997D01*
X3342Y6010D01*
X3340Y6023D01*
X3335Y6036D01*
X3327Y6047D01*
X3316Y6055D01*
X3303Y6060D01*
X3290Y6062D01*
D02*
G37*
G36*
X3093Y6259D02*
X3080Y6257D01*
X3067Y6252D01*
X3056Y6244D01*
X3048Y6233D01*
X3043Y6220D01*
X3041Y6207D01*
X3043Y6193D01*
X3048Y6181D01*
X3056Y6170D01*
X3067Y6162D01*
X3080Y6157D01*
X3093Y6155D01*
X3106Y6157D01*
X3119Y6162D01*
X3130Y6170D01*
X3138Y6181D01*
X3143Y6193D01*
X3145Y6207D01*
X3143Y6220D01*
X3138Y6233D01*
X3130Y6244D01*
X3119Y6252D01*
X3106Y6257D01*
X3093Y6259D01*
D02*
G37*
G36*
X3860D02*
X3847Y6257D01*
X3834Y6252D01*
X3823Y6244D01*
X3815Y6233D01*
X3810Y6220D01*
X3808Y6207D01*
X3810Y6193D01*
X3815Y6181D01*
X3823Y6170D01*
X3834Y6162D01*
X3847Y6157D01*
X3860Y6155D01*
X3873Y6157D01*
X3886Y6162D01*
X3897Y6170D01*
X3905Y6181D01*
X3910Y6193D01*
X3912Y6207D01*
X3910Y6220D01*
X3905Y6233D01*
X3897Y6244D01*
X3886Y6252D01*
X3873Y6257D01*
X3860Y6259D01*
D02*
G37*
G36*
X2842D02*
X2829Y6257D01*
X2816Y6252D01*
X2805Y6244D01*
X2797Y6233D01*
X2792Y6220D01*
X2790Y6207D01*
X2792Y6193D01*
X2797Y6181D01*
X2805Y6170D01*
X2816Y6162D01*
X2829Y6157D01*
X2842Y6155D01*
X2855Y6157D01*
X2868Y6162D01*
X2879Y6170D01*
X2887Y6181D01*
X2892Y6193D01*
X2894Y6207D01*
X2892Y6220D01*
X2887Y6233D01*
X2879Y6244D01*
X2868Y6252D01*
X2855Y6257D01*
X2842Y6259D01*
D02*
G37*
G36*
X2428Y6267D02*
X2416Y6265D01*
X2403Y6262D01*
X2392Y6256D01*
X2382Y6247D01*
X2374Y6238D01*
X2368Y6226D01*
X2364Y6214D01*
X2363Y6201D01*
X2364Y6189D01*
X2368Y6176D01*
X2374Y6165D01*
X2382Y6155D01*
X2392Y6147D01*
X2403Y6141D01*
X2416Y6137D01*
X2428Y6136D01*
X2441Y6137D01*
X2453Y6141D01*
X2465Y6147D01*
X2474Y6155D01*
X2483Y6165D01*
X2489Y6176D01*
X2492Y6189D01*
X2494Y6201D01*
X2492Y6214D01*
X2489Y6226D01*
X2483Y6238D01*
X2474Y6247D01*
X2465Y6256D01*
X2453Y6262D01*
X2441Y6265D01*
X2428Y6267D01*
D02*
G37*
G36*
X2645Y6259D02*
X2632Y6257D01*
X2619Y6252D01*
X2608Y6244D01*
X2600Y6233D01*
X2595Y6220D01*
X2593Y6207D01*
X2595Y6193D01*
X2600Y6181D01*
X2608Y6170D01*
X2619Y6162D01*
X2632Y6157D01*
X2645Y6155D01*
X2659Y6157D01*
X2671Y6162D01*
X2682Y6170D01*
X2690Y6181D01*
X2695Y6193D01*
X2697Y6207D01*
X2695Y6220D01*
X2690Y6233D01*
X2682Y6244D01*
X2671Y6252D01*
X2659Y6257D01*
X2645Y6259D01*
D02*
G37*
%LPD*%
D10*
X3544Y6132D02*
D03*
X3476D02*
D03*
X3544Y6233D02*
D03*
X3476D02*
D03*
Y6338D02*
D03*
X3544D02*
D03*
X3476Y6442D02*
D03*
X3544D02*
D03*
X3476Y6543D02*
D03*
X3544D02*
D03*
X3476Y6648D02*
D03*
X3544D02*
D03*
X3539Y5037D02*
D03*
X3471D02*
D03*
X3539Y5153D02*
D03*
X3471D02*
D03*
Y5268D02*
D03*
X3539D02*
D03*
X3471Y5382D02*
D03*
X3539D02*
D03*
X3471Y5498D02*
D03*
X3539D02*
D03*
X3473Y5620D02*
D03*
X3540D02*
D03*
X3601Y6133D02*
D03*
X3669D02*
D03*
X3601Y6232D02*
D03*
X3669D02*
D03*
Y6337D02*
D03*
X3601D02*
D03*
X3669Y6443D02*
D03*
X3601D02*
D03*
X3669Y6542D02*
D03*
X3601D02*
D03*
X3669Y6648D02*
D03*
X3601D02*
D03*
Y5038D02*
D03*
X3669D02*
D03*
X3601Y5152D02*
D03*
X3669D02*
D03*
Y5267D02*
D03*
X3601D02*
D03*
X3669Y5383D02*
D03*
X3601D02*
D03*
X3669Y5497D02*
D03*
X3601D02*
D03*
X3669Y5620D02*
D03*
X3601D02*
D03*
D11*
X2783Y4478D02*
D03*
Y4410D02*
D03*
X2685Y4410D02*
D03*
Y4477D02*
D03*
D12*
X3461Y5561D02*
X3522D01*
X3405Y5505D02*
X3461Y5561D01*
X3405Y5445D02*
Y5505D01*
X2685Y4477D02*
Y4570D01*
Y4472D02*
Y4477D01*
X2500Y5885D02*
X2605Y5780D01*
X3463Y6530D02*
X3476Y6543D01*
X2920Y6530D02*
X3463D01*
X2842Y6608D02*
X2920Y6530D01*
X3343Y6338D02*
X3476D01*
X3085Y6080D02*
X3343Y6338D01*
X2912Y6080D02*
X3085D01*
X3225Y5547D02*
X3290Y5612D01*
X3225Y5390D02*
Y5547D01*
Y5390D02*
X3255Y5360D01*
X3320D02*
X3405Y5445D01*
X3255Y5360D02*
X3320D01*
X3471Y5476D02*
Y5498D01*
X3695Y5210D02*
X3730Y5175D01*
X3658Y5210D02*
X3695D01*
X3601Y5267D02*
X3658Y5210D01*
X3124Y4480D02*
X3384D01*
X3499Y4365D01*
X3539D01*
X3589Y4305D02*
Y4515D01*
X3539Y4255D02*
X3589Y4305D01*
X3539Y4165D02*
Y4255D01*
X2585Y4570D02*
X2595D01*
X2785Y4480D02*
Y4570D01*
X2500Y4655D02*
X2585Y4570D01*
X2500Y4655D02*
Y5885D01*
X3380Y5780D02*
X3540Y5620D01*
X2605Y5780D02*
X3380D01*
X2500Y5885D02*
Y6605D01*
X2600Y6705D01*
X2815D01*
X2985Y6875D01*
X3365D01*
X3544Y6696D01*
Y6648D02*
Y6696D01*
X3805Y4875D02*
X3860Y4820D01*
X3805Y4875D02*
Y5155D01*
X3693Y5267D02*
X3805Y5155D01*
X3669Y5267D02*
X3693D01*
X4050Y4745D02*
X4308Y5003D01*
X3820Y4745D02*
X4050D01*
X3730Y4835D02*
X3820Y4745D01*
X3730Y4835D02*
Y5175D01*
X4246Y5550D02*
X4308Y5612D01*
X3601Y5383D02*
Y5497D01*
X3669Y5267D02*
Y5383D01*
X3601Y5152D02*
Y5267D01*
X3669Y5038D02*
Y5152D01*
X3539Y5153D02*
Y5244D01*
X3290Y5017D02*
Y5095D01*
X3395Y5200D01*
X3495D01*
X3539Y5244D01*
Y5268D01*
X3471Y5037D02*
Y5153D01*
Y5268D02*
Y5382D01*
X3539D02*
Y5498D01*
X3540Y5620D02*
X3601D01*
X2842Y6010D02*
X2912Y6080D01*
X3544Y6233D02*
Y6324D01*
X3290Y6207D02*
X3373Y6290D01*
X3510D01*
X3544Y6324D01*
Y6338D01*
X3669Y6133D02*
Y6232D01*
Y6337D02*
Y6443D01*
X3601D02*
Y6542D01*
X3476Y6132D02*
Y6233D01*
Y6338D02*
Y6442D01*
X3544D02*
Y6543D01*
X3520Y6600D02*
X3544Y6576D01*
X3093Y6712D02*
X3245Y6560D01*
X3390D01*
X3430Y6600D01*
X3520D01*
X4238Y6735D02*
X4308Y6805D01*
X3895Y6735D02*
X4238D01*
X3755Y6595D02*
X3895Y6735D01*
X3794Y6542D02*
X3860Y6608D01*
X3669Y6542D02*
X3794D01*
X3544Y6543D02*
Y6576D01*
Y6648D02*
X3601D01*
Y6542D02*
Y6578D01*
X3618Y6595D01*
X3755D01*
X3093Y6712D02*
Y6805D01*
X2194Y4631D02*
Y4656D01*
Y4631D02*
X2255Y4570D01*
X2585D01*
X3820Y5920D02*
X4085D01*
X4308Y6143D01*
Y6207D01*
X2842Y4820D02*
Y4892D01*
X3218Y5268D01*
X3471D01*
X2842Y5415D02*
X2937Y5320D01*
X3315D01*
X3471Y5476D01*
X4308Y5003D02*
Y5017D01*
X3539Y4565D02*
X3589Y4515D01*
X4139Y4365D02*
Y4565D01*
X3039D02*
X3124Y4480D01*
X3601Y5497D02*
Y5533D01*
X3618Y5550D01*
X4246D01*
X3522Y5561D02*
X3539Y5544D01*
Y5498D02*
Y5544D01*
X3669Y5477D02*
Y5497D01*
Y5477D02*
X3731Y5415D01*
X3860D01*
X3601Y6323D02*
Y6337D01*
Y6323D02*
X3643Y6281D01*
X3691D01*
X3601Y6232D02*
Y6323D01*
X3776Y6094D02*
X3860Y6010D01*
X3776Y6094D02*
Y6230D01*
X3669Y6337D02*
X3776Y6230D01*
X3735Y6005D02*
X3820Y5920D01*
X3735Y6005D02*
Y6237D01*
X3691Y6281D02*
X3735Y6237D01*
X3039Y4365D02*
Y4431D01*
X2595Y4570D02*
X2670Y4645D01*
X2825D01*
X3039Y4431D01*
D13*
X2681Y4415D02*
X2686Y4410D01*
X2686Y3908D02*
Y4410D01*
X3539Y3954D02*
Y3965D01*
X3483Y3898D02*
X3539Y3954D01*
X2821Y3898D02*
X3483D01*
X2686Y4410D02*
X2783D01*
X2685Y4410D02*
X2686D01*
X2230D02*
X2685D01*
X2120Y4520D02*
X2230Y4410D01*
X2686Y3908D02*
X2740Y3855D01*
X3909D01*
X3965Y3910D01*
X3890Y4414D02*
X3939Y4365D01*
X3890Y4414D02*
Y4605D01*
X3840Y4655D02*
X3890Y4605D01*
X3290Y6608D02*
X3330Y6648D01*
X4439Y4565D02*
Y4579D01*
X4645Y4785D02*
Y5710D01*
X4520Y5835D02*
X4645Y5710D01*
X3785Y5835D02*
X4520D01*
X3601Y6019D02*
X3785Y5835D01*
X3601Y6019D02*
Y6133D01*
X3852Y5620D02*
X3860Y5612D01*
X3669Y5620D02*
X3852D01*
X3601Y5037D02*
X3601Y5038D01*
X3539Y5037D02*
X3601D01*
X3290Y5415D02*
Y5437D01*
X3473Y5620D01*
X3544Y6132D02*
X3544Y6133D01*
X3601D01*
X3703Y6648D02*
X3860Y6805D01*
X3669Y6648D02*
X3703D01*
X3330D02*
X3476D01*
X2120Y4715D02*
X2194Y4789D01*
Y6367D01*
X2120Y4520D02*
Y4715D01*
X3839Y4165D02*
Y4181D01*
Y4365D02*
Y4565D01*
X3939Y4365D02*
Y4565D01*
X3639Y4365D02*
Y4565D01*
X3739Y4365D02*
Y4565D01*
X3965Y3910D02*
Y4039D01*
X3839Y4165D02*
X3965Y4039D01*
X4039Y4365D02*
Y4565D01*
X3635Y4115D02*
Y4260D01*
X3601Y4884D02*
Y5038D01*
Y4884D02*
X3780Y4705D01*
X4565D01*
X4439Y4579D02*
X4565Y4705D01*
X4645Y4785D01*
X3290Y4820D02*
X3455Y4655D01*
X3840D01*
X2815Y3895D02*
X2821Y3901D01*
X3570Y4050D02*
X3635Y4115D01*
X3424Y4050D02*
X3570D01*
X3339Y3965D02*
X3424Y4050D01*
D14*
X4139Y3765D02*
D03*
X4039D02*
D03*
X3939D02*
D03*
X3839D02*
D03*
X3739D02*
D03*
X3639D02*
D03*
X3539D02*
D03*
X3439D02*
D03*
X3339D02*
D03*
X3239D02*
D03*
X3139D02*
D03*
X3039D02*
D03*
Y4565D02*
D03*
X3139D02*
D03*
X3239D02*
D03*
X3339D02*
D03*
X3439D02*
D03*
X3539D02*
D03*
X3639D02*
D03*
X3739D02*
D03*
X3839D02*
D03*
X3939D02*
D03*
X4039D02*
D03*
X4139D02*
D03*
X4239D02*
D03*
X4339D02*
D03*
X4439D02*
D03*
X4539D02*
D03*
D15*
X4689Y3815D02*
D03*
Y4515D02*
D03*
D16*
X2785Y4570D02*
D03*
X2685D02*
D03*
X3239Y4365D02*
D03*
X3139D02*
D03*
X3539D02*
D03*
X3739D02*
D03*
X3839D02*
D03*
X4139D02*
D03*
X4039D02*
D03*
X3639D02*
D03*
X3939D02*
D03*
X3239Y3965D02*
D03*
X3439D02*
D03*
X3539D02*
D03*
X3839D02*
D03*
X3739D02*
D03*
X3339D02*
D03*
X3639D02*
D03*
X3339Y4165D02*
D03*
X3439D02*
D03*
X3539D02*
D03*
X3839D02*
D03*
X3939D02*
D03*
X4239D02*
D03*
X4139D02*
D03*
X3739D02*
D03*
X4039D02*
D03*
D17*
X2585Y4570D02*
D03*
X3039Y4365D02*
D03*
X3239Y4165D02*
D03*
D18*
X4308Y5017D02*
D03*
X4505D02*
D03*
Y4820D02*
D03*
X4308D02*
D03*
X4057Y5017D02*
D03*
X3860D02*
D03*
Y4820D02*
D03*
X4057D02*
D03*
X4308Y5612D02*
D03*
X4505D02*
D03*
Y5415D02*
D03*
X4308D02*
D03*
X4057Y5612D02*
D03*
X3860D02*
D03*
Y5415D02*
D03*
X4057D02*
D03*
X4308Y6207D02*
D03*
X4505D02*
D03*
Y6010D02*
D03*
X4308D02*
D03*
X4057Y6207D02*
D03*
X3860D02*
D03*
Y6010D02*
D03*
X4057D02*
D03*
X4308Y6805D02*
D03*
X4505D02*
D03*
Y6608D02*
D03*
X4308D02*
D03*
X4057Y6805D02*
D03*
X3860D02*
D03*
Y6608D02*
D03*
X4057D02*
D03*
X3093Y5017D02*
D03*
X3290D02*
D03*
Y4820D02*
D03*
X3093D02*
D03*
X2842Y5017D02*
D03*
X2645D02*
D03*
Y4820D02*
D03*
X2842D02*
D03*
X3093Y5612D02*
D03*
X3290D02*
D03*
Y5415D02*
D03*
X3093D02*
D03*
X2842Y5612D02*
D03*
X2645D02*
D03*
Y5415D02*
D03*
X2842D02*
D03*
X3093Y6207D02*
D03*
X3290D02*
D03*
Y6010D02*
D03*
X3093D02*
D03*
X2842Y6207D02*
D03*
X2645D02*
D03*
Y6010D02*
D03*
X2842D02*
D03*
X3093Y6805D02*
D03*
X3290D02*
D03*
Y6608D02*
D03*
X3093D02*
D03*
X2842Y6805D02*
D03*
X2645D02*
D03*
Y6608D02*
D03*
X2842D02*
D03*
D19*
X2130Y3815D02*
D03*
X4689Y6875D02*
D03*
X2130D02*
D03*
D20*
X2098Y4866D02*
D03*
Y6156D02*
D03*
X2428Y4821D02*
D03*
X2428Y6201D02*
D03*
D21*
X2331Y4656D02*
D03*
X2194D02*
D03*
D22*
Y6367D02*
D03*
D23*
X2815Y3898D02*
D03*
X3600Y6800D02*
D03*
X4495Y4095D02*
D03*
X2550Y5200D02*
D03*
X3300D02*
D03*
X4500D02*
D03*
X4700Y5750D02*
D03*
Y6400D02*
D03*
X4150D02*
D03*
X2550Y5750D02*
D03*
X4700Y5200D02*
D03*
X4150Y5750D02*
D03*
X2550Y6400D02*
D03*
X3635Y4260D02*
D03*
M02*
