G04 Layer_Color=65535*
%FSLAX23Y23*%
%MOIN*%
G70*
G01*
G75*
%ADD12C,0.010*%
%ADD24C,0.006*%
%ADD25C,0.007*%
%ADD26C,0.008*%
D12*
X4195Y4815D02*
G03*
X4194Y5020I213J103D01*
G01*
X4170Y5022D02*
G03*
X4171Y4817I-213J-103D01*
G01*
X4195Y5410D02*
G03*
X4194Y5615I213J103D01*
G01*
X4170Y5617D02*
G03*
X4171Y5412I-213J-103D01*
G01*
X4195Y6005D02*
G03*
X4194Y6210I213J103D01*
G01*
X4170Y6212D02*
G03*
X4171Y6007I-213J-103D01*
G01*
X4195Y6603D02*
G03*
X4194Y6808I213J103D01*
G01*
X4170Y6810D02*
G03*
X4171Y6605I-213J-103D01*
G01*
X2980Y4815D02*
G03*
X2979Y5020I213J103D01*
G01*
X2955Y5022D02*
G03*
X2956Y4817I-213J-103D01*
G01*
X2980Y5410D02*
G03*
X2979Y5615I213J103D01*
G01*
X2955Y5617D02*
G03*
X2956Y5412I-213J-103D01*
G01*
X2980Y6005D02*
G03*
X2979Y6210I213J103D01*
G01*
X2955Y6212D02*
G03*
X2956Y6007I-213J-103D01*
G01*
X2980Y6603D02*
G03*
X2979Y6808I213J103D01*
G01*
X2955Y6810D02*
G03*
X2956Y6605I-213J-103D01*
G01*
X4237Y3718D02*
Y3820D01*
X2942D02*
X4237D01*
X2942Y3718D02*
Y3820D01*
Y3718D02*
X4237D01*
X4599Y4565D02*
X4600Y4564D01*
Y4513D02*
Y4564D01*
X2978Y4513D02*
X4600D01*
X2978D02*
Y4615D01*
X4600D01*
Y4564D02*
Y4615D01*
X2535Y4570D02*
Y4620D01*
X2835D01*
Y4520D02*
Y4620D01*
X2535Y4520D02*
X2835D01*
X2535D02*
Y4570D01*
X2989Y4365D02*
Y4415D01*
X3289D01*
Y4315D02*
Y4415D01*
X2989Y4315D02*
X3289D01*
X2989D02*
Y4365D01*
X3489Y4415D02*
X4189D01*
Y4315D02*
Y4415D01*
X3489Y4315D02*
X4189D01*
X3489D02*
Y4415D01*
X3189Y4015D02*
X3889D01*
Y3915D02*
Y4015D01*
X3189Y3915D02*
X3889D01*
X3189D02*
Y4015D01*
Y4115D02*
Y4215D01*
Y4115D02*
X3589D01*
Y4215D01*
X3189D02*
X3589D01*
X3689D02*
X4289D01*
Y4115D02*
Y4215D01*
X3689Y4115D02*
X4289D01*
X3689D02*
Y4215D01*
X4194Y4918D02*
Y5020D01*
Y4815D02*
Y4918D01*
X4171D02*
Y5022D01*
Y4817D02*
Y4918D01*
X4194Y5513D02*
Y5615D01*
Y5410D02*
Y5513D01*
X4171D02*
Y5617D01*
Y5412D02*
Y5513D01*
X4194Y6108D02*
Y6210D01*
Y6005D02*
Y6108D01*
X4171D02*
Y6212D01*
Y6007D02*
Y6108D01*
X4194Y6707D02*
Y6808D01*
Y6603D02*
Y6707D01*
X4171D02*
Y6810D01*
Y6605D02*
Y6707D01*
X2979Y4918D02*
Y5020D01*
Y4815D02*
Y4918D01*
X2956D02*
Y5022D01*
Y4817D02*
Y4918D01*
X2979Y5513D02*
Y5615D01*
Y5410D02*
Y5513D01*
X2956D02*
Y5617D01*
Y5412D02*
Y5513D01*
X2979Y6108D02*
Y6210D01*
Y6005D02*
Y6108D01*
X2956D02*
Y6212D01*
Y6007D02*
Y6108D01*
X2979Y6707D02*
Y6808D01*
Y6603D02*
Y6707D01*
X2956D02*
Y6810D01*
Y6605D02*
Y6707D01*
X2098Y4622D02*
Y4798D01*
Y4622D02*
X2148D01*
X2098Y4930D02*
Y6091D01*
Y6221D02*
Y6396D01*
X2132D01*
X2262Y6394D02*
X2430D01*
X2431Y4620D02*
Y4749D01*
X2378Y4620D02*
X2431D01*
Y4881D02*
X2432Y6132D01*
X2430Y6266D02*
Y6394D01*
D24*
X2138Y4602D02*
G03*
X2138Y4602I-5J0D01*
G01*
D25*
X2642Y5826D02*
X2649Y5833D01*
X2662D01*
X2669Y5826D01*
Y5820D01*
X2662Y5813D01*
X2669Y5806D01*
Y5800D01*
X2662Y5793D01*
X2649D01*
X2642Y5800D01*
Y5806D01*
X2649Y5813D01*
X2642Y5820D01*
Y5826D01*
X2649Y5813D02*
X2662D01*
X2682Y5820D02*
X2709Y5793D01*
X2695Y5806D01*
X2709Y5820D01*
X2682Y5793D01*
X2749D02*
X2722D01*
X2749Y5820D01*
Y5826D01*
X2742Y5833D01*
X2729D01*
X2722Y5826D01*
X2802Y5833D02*
Y5793D01*
X2822D01*
X2829Y5800D01*
Y5806D01*
Y5813D01*
X2822Y5820D01*
X2802D01*
X2849Y5793D02*
X2862D01*
X2869Y5800D01*
Y5813D01*
X2862Y5820D01*
X2849D01*
X2842Y5813D01*
Y5800D01*
X2849Y5793D01*
X2882Y5820D02*
Y5800D01*
X2889Y5793D01*
X2909D01*
Y5820D01*
X2929Y5826D02*
Y5820D01*
X2922D01*
X2935D01*
X2929D01*
Y5800D01*
X2935Y5793D01*
X2962Y5826D02*
Y5820D01*
X2955D01*
X2969D01*
X2962D01*
Y5800D01*
X2969Y5793D01*
X2995D02*
X3009D01*
X3015Y5800D01*
Y5813D01*
X3009Y5820D01*
X2995D01*
X2989Y5813D01*
Y5800D01*
X2995Y5793D01*
X3029D02*
Y5820D01*
X3049D01*
X3055Y5813D01*
Y5793D01*
X3069D02*
X3089D01*
X3095Y5800D01*
X3089Y5806D01*
X3075D01*
X3069Y5813D01*
X3075Y5820D01*
X3095D01*
X3149D02*
Y5800D01*
X3155Y5793D01*
X3162Y5800D01*
X3168Y5793D01*
X3175Y5800D01*
Y5820D01*
X3188Y5793D02*
X3202D01*
X3195D01*
Y5820D01*
X3188D01*
X3228Y5793D02*
Y5826D01*
Y5813D01*
X3222D01*
X3235D01*
X3228D01*
Y5826D01*
X3235Y5833D01*
X3255Y5793D02*
X3268D01*
X3262D01*
Y5820D01*
X3255D01*
X3328Y5833D02*
Y5806D01*
X3342Y5793D01*
X3355Y5806D01*
Y5833D01*
X3368Y5826D02*
X3375Y5833D01*
X3388D01*
X3395Y5826D01*
Y5820D01*
X3388Y5813D01*
X3382D01*
X3388D01*
X3395Y5806D01*
Y5800D01*
X3388Y5793D01*
X3375D01*
X3368Y5800D01*
X3688Y5833D02*
Y5793D01*
X3715D01*
X3735Y5820D02*
X3748D01*
X3755Y5813D01*
Y5793D01*
X3735D01*
X3728Y5800D01*
X3735Y5806D01*
X3755D01*
X3768Y5820D02*
Y5800D01*
X3775Y5793D01*
X3795D01*
Y5820D01*
X3808D02*
Y5793D01*
Y5806D01*
X3815Y5813D01*
X3822Y5820D01*
X3828D01*
X3868Y5793D02*
X3855D01*
X3848Y5800D01*
Y5813D01*
X3855Y5820D01*
X3868D01*
X3875Y5813D01*
Y5806D01*
X3848D01*
X3888Y5793D02*
Y5820D01*
X3908D01*
X3915Y5813D01*
Y5793D01*
X3935Y5826D02*
Y5820D01*
X3928D01*
X3942D01*
X3935D01*
Y5800D01*
X3942Y5793D01*
X4028Y5826D02*
X4022Y5833D01*
X4008D01*
X4002Y5826D01*
Y5800D01*
X4008Y5793D01*
X4022D01*
X4028Y5800D01*
X4048Y5793D02*
X4062D01*
X4068Y5800D01*
Y5813D01*
X4062Y5820D01*
X4048D01*
X4042Y5813D01*
Y5800D01*
X4048Y5793D01*
X4082D02*
X4095D01*
X4088D01*
Y5833D01*
X4082D01*
X4122Y5820D02*
X4135D01*
X4142Y5813D01*
Y5793D01*
X4122D01*
X4115Y5800D01*
X4122Y5806D01*
X4142D01*
X4155Y5793D02*
X4175D01*
X4182Y5800D01*
X4175Y5806D01*
X4162D01*
X4155Y5813D01*
X4162Y5820D01*
X4182D01*
X4235Y5793D02*
X4248D01*
X4241D01*
Y5833D01*
X4235Y5826D01*
X4295Y5793D02*
X4268D01*
X4295Y5820D01*
Y5826D01*
X4288Y5833D01*
X4275D01*
X4268Y5826D01*
X4308Y5793D02*
X4335Y5820D01*
X4375Y5793D02*
X4348D01*
X4375Y5820D01*
Y5826D01*
X4368Y5833D01*
X4355D01*
X4348Y5826D01*
X4388D02*
X4395Y5833D01*
X4408D01*
X4415Y5826D01*
Y5800D01*
X4408Y5793D01*
X4395D01*
X4388Y5800D01*
Y5826D01*
X4428Y5793D02*
X4441D01*
X4435D01*
Y5833D01*
X4428Y5826D01*
X4461D02*
X4468Y5833D01*
X4481D01*
X4488Y5826D01*
Y5820D01*
X4481Y5813D01*
X4488Y5806D01*
Y5800D01*
X4481Y5793D01*
X4468D01*
X4461Y5800D01*
Y5806D01*
X4468Y5813D01*
X4461Y5820D01*
Y5826D01*
X4468Y5813D02*
X4481D01*
X2660Y5240D02*
Y5200D01*
X2687D01*
X2700Y5227D02*
Y5207D01*
X2707Y5200D01*
X2727D01*
Y5227D01*
X2740Y5200D02*
Y5227D01*
X2747D01*
X2753Y5220D01*
Y5200D01*
Y5220D01*
X2760Y5227D01*
X2767Y5220D01*
Y5200D01*
X2780D02*
X2793D01*
X2787D01*
Y5227D01*
X2780D01*
X2833Y5200D02*
X2820D01*
X2813Y5207D01*
Y5220D01*
X2820Y5227D01*
X2833D01*
X2840Y5220D01*
Y5213D01*
X2813D01*
X2853Y5227D02*
Y5200D01*
Y5213D01*
X2860Y5220D01*
X2867Y5227D01*
X2873D01*
X2913Y5200D02*
X2900D01*
X2893Y5207D01*
Y5220D01*
X2900Y5227D01*
X2913D01*
X2920Y5220D01*
Y5213D01*
X2893D01*
X3000Y5233D02*
X2993Y5240D01*
X2980D01*
X2973Y5233D01*
Y5207D01*
X2980Y5200D01*
X2993D01*
X3000Y5207D01*
X3013Y5240D02*
Y5200D01*
Y5220D01*
X3020Y5227D01*
X3033D01*
X3040Y5220D01*
Y5200D01*
X3073D02*
X3060D01*
X3053Y5207D01*
Y5220D01*
X3060Y5227D01*
X3073D01*
X3080Y5220D01*
Y5213D01*
X3053D01*
X3093Y5227D02*
Y5200D01*
Y5213D01*
X3100Y5220D01*
X3107Y5227D01*
X3113D01*
X3133Y5200D02*
X3147D01*
X3140D01*
Y5227D01*
X3133D01*
X3167D02*
X3180Y5200D01*
X3193Y5227D01*
X3226Y5200D02*
X3213D01*
X3206Y5207D01*
Y5220D01*
X3213Y5227D01*
X3226D01*
X3233Y5220D01*
Y5213D01*
X3206D01*
D26*
X2929Y4365D02*
Y4385D01*
X2939D01*
X2942Y4382D01*
Y4375D01*
X2939Y4372D01*
X2929D01*
X2962Y4385D02*
X2956Y4382D01*
X2949Y4375D01*
Y4368D01*
X2952Y4365D01*
X2959D01*
X2962Y4368D01*
Y4372D01*
X2959Y4375D01*
X2949D01*
X4209Y4305D02*
Y4325D01*
X4219D01*
X4222Y4322D01*
Y4315D01*
X4219Y4312D01*
X4209D01*
X4239Y4305D02*
Y4325D01*
X4229Y4315D01*
X4242D01*
X4630Y4610D02*
Y4650D01*
X4650D01*
X4657Y4643D01*
Y4630D01*
X4650Y4623D01*
X4630D01*
X4670Y4643D02*
X4677Y4650D01*
X4690D01*
X4697Y4643D01*
Y4637D01*
X4690Y4630D01*
X4697Y4623D01*
Y4617D01*
X4690Y4610D01*
X4677D01*
X4670Y4617D01*
Y4623D01*
X4677Y4630D01*
X4670Y4637D01*
Y4643D01*
X4677Y4630D02*
X4690D01*
X4279Y3765D02*
Y3805D01*
X4299D01*
X4306Y3798D01*
Y3785D01*
X4299Y3778D01*
X4279D01*
X4319Y3805D02*
X4346D01*
Y3798D01*
X4319Y3772D01*
Y3765D01*
X2659Y4351D02*
Y4371D01*
X2669D01*
X2672Y4368D01*
Y4361D01*
X2669Y4358D01*
X2659D01*
X2666D02*
X2672Y4351D01*
X2692D02*
X2679D01*
X2692Y4364D01*
Y4368D01*
X2689Y4371D01*
X2682D01*
X2679Y4368D01*
X2712Y4371D02*
X2706Y4368D01*
X2699Y4361D01*
Y4354D01*
X2702Y4351D01*
X2709D01*
X2712Y4354D01*
Y4358D01*
X2709Y4361D01*
X2699D01*
X2759Y4351D02*
Y4371D01*
X2769D01*
X2772Y4368D01*
Y4361D01*
X2769Y4358D01*
X2759D01*
X2766D02*
X2772Y4351D01*
X2792D02*
X2779D01*
X2792Y4364D01*
Y4368D01*
X2789Y4371D01*
X2782D01*
X2779Y4368D01*
X2812Y4371D02*
X2799D01*
Y4361D01*
X2806Y4364D01*
X2809D01*
X2812Y4361D01*
Y4354D01*
X2809Y4351D01*
X2802D01*
X2799Y4354D01*
X3586Y5676D02*
Y5696D01*
X3596D01*
X3599Y5693D01*
Y5686D01*
X3596Y5683D01*
X3586D01*
X3593D02*
X3599Y5676D01*
X3619D02*
X3606D01*
X3619Y5689D01*
Y5693D01*
X3616Y5696D01*
X3609D01*
X3606Y5693D01*
X3636Y5676D02*
Y5696D01*
X3626Y5686D01*
X3639D01*
X3586Y5553D02*
Y5573D01*
X3596D01*
X3599Y5570D01*
Y5563D01*
X3596Y5560D01*
X3586D01*
X3593D02*
X3599Y5553D01*
X3619D02*
X3606D01*
X3619Y5566D01*
Y5570D01*
X3616Y5573D01*
X3609D01*
X3606Y5570D01*
X3626D02*
X3629Y5573D01*
X3636D01*
X3639Y5570D01*
Y5566D01*
X3636Y5563D01*
X3633D01*
X3636D01*
X3639Y5560D01*
Y5556D01*
X3636Y5553D01*
X3629D01*
X3626Y5556D01*
X3586Y5439D02*
Y5459D01*
X3596D01*
X3599Y5456D01*
Y5449D01*
X3596Y5446D01*
X3586D01*
X3593D02*
X3599Y5439D01*
X3619D02*
X3606D01*
X3619Y5452D01*
Y5456D01*
X3616Y5459D01*
X3609D01*
X3606Y5456D01*
X3639Y5439D02*
X3626D01*
X3639Y5452D01*
Y5456D01*
X3636Y5459D01*
X3629D01*
X3626Y5456D01*
X3586Y5323D02*
Y5343D01*
X3596D01*
X3599Y5340D01*
Y5333D01*
X3596Y5330D01*
X3586D01*
X3593D02*
X3599Y5323D01*
X3619D02*
X3606D01*
X3619Y5336D01*
Y5340D01*
X3616Y5343D01*
X3609D01*
X3606Y5340D01*
X3626Y5323D02*
X3633D01*
X3629D01*
Y5343D01*
X3626Y5340D01*
X3586Y5208D02*
Y5228D01*
X3596D01*
X3599Y5225D01*
Y5218D01*
X3596Y5215D01*
X3586D01*
X3592D02*
X3599Y5208D01*
X3619D02*
X3606D01*
X3619Y5221D01*
Y5225D01*
X3616Y5228D01*
X3609D01*
X3606Y5225D01*
X3626D02*
X3629Y5228D01*
X3636D01*
X3639Y5225D01*
Y5211D01*
X3636Y5208D01*
X3629D01*
X3626Y5211D01*
Y5225D01*
X3586Y5094D02*
Y5114D01*
X3596D01*
X3599Y5110D01*
Y5104D01*
X3596Y5100D01*
X3586D01*
X3592D02*
X3599Y5094D01*
X3606D02*
X3612D01*
X3609D01*
Y5114D01*
X3606Y5110D01*
X3622Y5097D02*
X3626Y5094D01*
X3632D01*
X3636Y5097D01*
Y5110D01*
X3632Y5114D01*
X3626D01*
X3622Y5110D01*
Y5107D01*
X3626Y5104D01*
X3636D01*
X3590Y6687D02*
Y6707D01*
X3600D01*
X3603Y6704D01*
Y6697D01*
X3600Y6694D01*
X3590D01*
X3597D02*
X3603Y6687D01*
X3610D02*
X3617D01*
X3613D01*
Y6707D01*
X3610Y6704D01*
X3627D02*
X3630Y6707D01*
X3637D01*
X3640Y6704D01*
Y6700D01*
X3637Y6697D01*
X3640Y6694D01*
Y6690D01*
X3637Y6687D01*
X3630D01*
X3627Y6690D01*
Y6694D01*
X3630Y6697D01*
X3627Y6700D01*
Y6704D01*
X3630Y6697D02*
X3637D01*
X3590Y6580D02*
Y6600D01*
X3600D01*
X3603Y6597D01*
Y6590D01*
X3600Y6587D01*
X3590D01*
X3597D02*
X3603Y6580D01*
X3610D02*
X3617D01*
X3613D01*
Y6600D01*
X3610Y6597D01*
X3627Y6600D02*
X3640D01*
Y6597D01*
X3627Y6583D01*
Y6580D01*
X3595Y6483D02*
Y6503D01*
X3605D01*
X3608Y6500D01*
Y6493D01*
X3605Y6490D01*
X3595D01*
X3602D02*
X3608Y6483D01*
X3615D02*
X3622D01*
X3618D01*
Y6503D01*
X3615Y6500D01*
X3645Y6503D02*
X3638Y6500D01*
X3632Y6493D01*
Y6486D01*
X3635Y6483D01*
X3642D01*
X3645Y6486D01*
Y6490D01*
X3642Y6493D01*
X3632D01*
X3590Y6375D02*
Y6395D01*
X3600D01*
X3603Y6392D01*
Y6385D01*
X3600Y6382D01*
X3590D01*
X3597D02*
X3603Y6375D01*
X3610D02*
X3617D01*
X3613D01*
Y6395D01*
X3610Y6392D01*
X3640Y6395D02*
X3627D01*
Y6385D01*
X3633Y6388D01*
X3637D01*
X3640Y6385D01*
Y6378D01*
X3637Y6375D01*
X3630D01*
X3627Y6378D01*
X3590Y6275D02*
Y6295D01*
X3600D01*
X3603Y6292D01*
Y6285D01*
X3600Y6282D01*
X3590D01*
X3597D02*
X3603Y6275D01*
X3610D02*
X3617D01*
X3613D01*
Y6295D01*
X3610Y6292D01*
X3637Y6275D02*
Y6295D01*
X3627Y6285D01*
X3640D01*
X3587Y6173D02*
Y6193D01*
X3597D01*
X3600Y6190D01*
Y6183D01*
X3597Y6180D01*
X3587D01*
X3594D02*
X3600Y6173D01*
X3607D02*
X3614D01*
X3610D01*
Y6193D01*
X3607Y6190D01*
X3624D02*
X3627Y6193D01*
X3634D01*
X3637Y6190D01*
Y6187D01*
X3634Y6183D01*
X3630D01*
X3634D01*
X3637Y6180D01*
Y6177D01*
X3634Y6173D01*
X3627D01*
X3624Y6177D01*
X3457Y5676D02*
Y5696D01*
X3467D01*
X3470Y5692D01*
Y5686D01*
X3467Y5682D01*
X3457D01*
X3463D02*
X3470Y5676D01*
X3477D02*
X3483D01*
X3480D01*
Y5696D01*
X3477Y5692D01*
X3507Y5676D02*
X3493D01*
X3507Y5689D01*
Y5692D01*
X3503Y5696D01*
X3497D01*
X3493Y5692D01*
X3455Y5554D02*
Y5574D01*
X3465D01*
X3469Y5570D01*
Y5564D01*
X3465Y5560D01*
X3455D01*
X3462D02*
X3469Y5554D01*
X3475D02*
X3482D01*
X3479D01*
Y5574D01*
X3475Y5570D01*
X3492Y5554D02*
X3499D01*
X3495D01*
Y5574D01*
X3492Y5570D01*
X3455Y5437D02*
Y5457D01*
X3465D01*
X3469Y5454D01*
Y5447D01*
X3465Y5444D01*
X3455D01*
X3462D02*
X3469Y5437D01*
X3475D02*
X3482D01*
X3479D01*
Y5457D01*
X3475Y5454D01*
X3492D02*
X3495Y5457D01*
X3502D01*
X3505Y5454D01*
Y5441D01*
X3502Y5437D01*
X3495D01*
X3492Y5441D01*
Y5454D01*
X3455Y5323D02*
Y5343D01*
X3465D01*
X3469Y5340D01*
Y5333D01*
X3465Y5330D01*
X3455D01*
X3462D02*
X3469Y5323D01*
X3475Y5327D02*
X3479Y5323D01*
X3485D01*
X3489Y5327D01*
Y5340D01*
X3485Y5343D01*
X3479D01*
X3475Y5340D01*
Y5337D01*
X3479Y5333D01*
X3489D01*
X3456Y5209D02*
Y5229D01*
X3466D01*
X3469Y5226D01*
Y5219D01*
X3466Y5216D01*
X3456D01*
X3463D02*
X3469Y5209D01*
X3476Y5226D02*
X3479Y5229D01*
X3486D01*
X3489Y5226D01*
Y5222D01*
X3486Y5219D01*
X3489Y5216D01*
Y5212D01*
X3486Y5209D01*
X3479D01*
X3476Y5212D01*
Y5216D01*
X3479Y5219D01*
X3476Y5222D01*
Y5226D01*
X3479Y5219D02*
X3486D01*
X3456Y5093D02*
Y5113D01*
X3466D01*
X3469Y5110D01*
Y5103D01*
X3466Y5100D01*
X3456D01*
X3463D02*
X3469Y5093D01*
X3476Y5113D02*
X3489D01*
Y5110D01*
X3476Y5096D01*
Y5093D01*
X3459Y6690D02*
Y6710D01*
X3469D01*
X3472Y6707D01*
Y6700D01*
X3469Y6697D01*
X3459D01*
X3465D02*
X3472Y6690D01*
X3492Y6710D02*
X3485Y6707D01*
X3479Y6700D01*
Y6694D01*
X3482Y6690D01*
X3489D01*
X3492Y6694D01*
Y6697D01*
X3489Y6700D01*
X3479D01*
X3460Y6584D02*
Y6604D01*
X3470D01*
X3473Y6601D01*
Y6594D01*
X3470Y6591D01*
X3460D01*
X3467D02*
X3473Y6584D01*
X3493Y6604D02*
X3480D01*
Y6594D01*
X3487Y6597D01*
X3490D01*
X3493Y6594D01*
Y6587D01*
X3490Y6584D01*
X3483D01*
X3480Y6587D01*
X3467Y6480D02*
Y6500D01*
X3477D01*
X3480Y6497D01*
Y6490D01*
X3477Y6487D01*
X3467D01*
X3473D02*
X3480Y6480D01*
X3497D02*
Y6500D01*
X3487Y6490D01*
X3500D01*
X3467Y6378D02*
Y6398D01*
X3477D01*
X3480Y6395D01*
Y6388D01*
X3477Y6385D01*
X3467D01*
X3473D02*
X3480Y6378D01*
X3487Y6395D02*
X3490Y6398D01*
X3497D01*
X3500Y6395D01*
Y6392D01*
X3497Y6388D01*
X3493D01*
X3497D01*
X3500Y6385D01*
Y6382D01*
X3497Y6378D01*
X3490D01*
X3487Y6382D01*
X3471Y6275D02*
Y6295D01*
X3481D01*
X3484Y6292D01*
Y6285D01*
X3481Y6282D01*
X3471D01*
X3478D02*
X3484Y6275D01*
X3504D02*
X3491D01*
X3504Y6288D01*
Y6292D01*
X3501Y6295D01*
X3494D01*
X3491Y6292D01*
X3470Y6170D02*
Y6190D01*
X3480D01*
X3483Y6187D01*
Y6180D01*
X3480Y6177D01*
X3470D01*
X3477D02*
X3483Y6170D01*
X3490D02*
X3497D01*
X3493D01*
Y6190D01*
X3490Y6187D01*
X3909Y3915D02*
Y3935D01*
X3919D01*
X3922Y3932D01*
Y3925D01*
X3919Y3922D01*
X3909D01*
X3942Y3935D02*
X3929D01*
Y3925D01*
X3936Y3928D01*
X3939D01*
X3942Y3925D01*
Y3918D01*
X3939Y3915D01*
X3932D01*
X3929Y3918D01*
X2540Y4650D02*
Y4670D01*
X2550D01*
X2553Y4667D01*
Y4660D01*
X2550Y4657D01*
X2540D01*
X2560Y4667D02*
X2563Y4670D01*
X2570D01*
X2573Y4667D01*
Y4663D01*
X2570Y4660D01*
X2567D01*
X2570D01*
X2573Y4657D01*
Y4653D01*
X2570Y4650D01*
X2563D01*
X2560Y4653D01*
X3609Y4105D02*
Y4125D01*
X3619D01*
X3622Y4122D01*
Y4115D01*
X3619Y4112D01*
X3609D01*
X3642Y4105D02*
X3629D01*
X3642Y4118D01*
Y4122D01*
X3639Y4125D01*
X3632D01*
X3629Y4122D01*
X4309Y4185D02*
Y4205D01*
X4319D01*
X4322Y4202D01*
Y4195D01*
X4319Y4192D01*
X4309D01*
X4329Y4185D02*
X4336D01*
X4332D01*
Y4205D01*
X4329Y4202D01*
X4185Y5153D02*
Y5133D01*
X4195D01*
X4198Y5137D01*
Y5140D01*
X4195Y5143D01*
X4185D01*
X4195D01*
X4198Y5147D01*
Y5150D01*
X4195Y5153D01*
X4185D01*
X4205Y5133D02*
X4212D01*
X4208D01*
Y5153D01*
X4205Y5150D01*
X4235Y5153D02*
X4228Y5150D01*
X4222Y5143D01*
Y5137D01*
X4225Y5133D01*
X4232D01*
X4235Y5137D01*
Y5140D01*
X4232Y5143D01*
X4222D01*
X3727Y5150D02*
Y5130D01*
X3737D01*
X3741Y5133D01*
Y5137D01*
X3737Y5140D01*
X3727D01*
X3737D01*
X3741Y5143D01*
Y5147D01*
X3737Y5150D01*
X3727D01*
X3747Y5130D02*
X3754D01*
X3751D01*
Y5150D01*
X3747Y5147D01*
X3777Y5150D02*
X3764D01*
Y5140D01*
X3771Y5143D01*
X3774D01*
X3777Y5140D01*
Y5133D01*
X3774Y5130D01*
X3767D01*
X3764Y5133D01*
X4189Y5753D02*
Y5733D01*
X4199D01*
X4202Y5737D01*
Y5740D01*
X4199Y5743D01*
X4189D01*
X4199D01*
X4202Y5747D01*
Y5750D01*
X4199Y5753D01*
X4189D01*
X4209Y5733D02*
X4216D01*
X4212D01*
Y5753D01*
X4209Y5750D01*
X4236Y5733D02*
Y5753D01*
X4226Y5743D01*
X4239D01*
X3723Y5738D02*
Y5718D01*
X3733D01*
X3737Y5721D01*
Y5725D01*
X3733Y5728D01*
X3723D01*
X3733D01*
X3737Y5731D01*
Y5735D01*
X3733Y5738D01*
X3723D01*
X3743Y5718D02*
X3750D01*
X3747D01*
Y5738D01*
X3743Y5735D01*
X3760D02*
X3763Y5738D01*
X3770D01*
X3773Y5735D01*
Y5731D01*
X3770Y5728D01*
X3767D01*
X3770D01*
X3773Y5725D01*
Y5721D01*
X3770Y5718D01*
X3763D01*
X3760Y5721D01*
X4189Y6344D02*
Y6324D01*
X4199D01*
X4202Y6327D01*
Y6331D01*
X4199Y6334D01*
X4189D01*
X4199D01*
X4202Y6337D01*
Y6341D01*
X4199Y6344D01*
X4189D01*
X4209Y6324D02*
X4216D01*
X4212D01*
Y6344D01*
X4209Y6341D01*
X4239Y6324D02*
X4226D01*
X4239Y6337D01*
Y6341D01*
X4236Y6344D01*
X4229D01*
X4226Y6341D01*
X3715Y6325D02*
Y6305D01*
X3725D01*
X3729Y6308D01*
Y6312D01*
X3725Y6315D01*
X3715D01*
X3725D01*
X3729Y6318D01*
Y6322D01*
X3725Y6325D01*
X3715D01*
X3735Y6305D02*
X3742D01*
X3739D01*
Y6325D01*
X3735Y6322D01*
X3752Y6305D02*
X3759D01*
X3755D01*
Y6325D01*
X3752Y6322D01*
X4161Y6922D02*
Y6902D01*
X4171D01*
X4175Y6906D01*
Y6909D01*
X4171Y6912D01*
X4161D01*
X4171D01*
X4175Y6916D01*
Y6919D01*
X4171Y6922D01*
X4161D01*
X4181Y6902D02*
X4188D01*
X4185D01*
Y6922D01*
X4181Y6919D01*
X4198D02*
X4201Y6922D01*
X4208D01*
X4211Y6919D01*
Y6906D01*
X4208Y6902D01*
X4201D01*
X4198Y6906D01*
Y6919D01*
X3727Y6925D02*
Y6905D01*
X3737D01*
X3740Y6908D01*
Y6912D01*
X3737Y6915D01*
X3727D01*
X3737D01*
X3740Y6918D01*
Y6922D01*
X3737Y6925D01*
X3727D01*
X3747Y6908D02*
X3750Y6905D01*
X3757D01*
X3760Y6908D01*
Y6922D01*
X3757Y6925D01*
X3750D01*
X3747Y6922D01*
Y6918D01*
X3750Y6915D01*
X3760D01*
X3000Y5142D02*
Y5122D01*
X3010D01*
X3013Y5125D01*
Y5129D01*
X3010Y5132D01*
X3000D01*
X3010D01*
X3013Y5135D01*
Y5139D01*
X3010Y5142D01*
X3000D01*
X3020Y5139D02*
X3023Y5142D01*
X3030D01*
X3033Y5139D01*
Y5135D01*
X3030Y5132D01*
X3033Y5129D01*
Y5125D01*
X3030Y5122D01*
X3023D01*
X3020Y5125D01*
Y5129D01*
X3023Y5132D01*
X3020Y5135D01*
Y5139D01*
X3023Y5132D02*
X3030D01*
X2910Y5140D02*
Y5120D01*
X2920D01*
X2923Y5123D01*
Y5127D01*
X2920Y5130D01*
X2910D01*
X2920D01*
X2923Y5133D01*
Y5137D01*
X2920Y5140D01*
X2910D01*
X2930D02*
X2943D01*
Y5137D01*
X2930Y5123D01*
Y5120D01*
X2982Y5737D02*
Y5717D01*
X2992D01*
X2995Y5721D01*
Y5724D01*
X2992Y5727D01*
X2982D01*
X2992D01*
X2995Y5731D01*
Y5734D01*
X2992Y5737D01*
X2982D01*
X3015D02*
X3008Y5734D01*
X3002Y5727D01*
Y5721D01*
X3005Y5717D01*
X3012D01*
X3015Y5721D01*
Y5724D01*
X3012Y5727D01*
X3002D01*
X2900Y5740D02*
Y5720D01*
X2910D01*
X2913Y5723D01*
Y5727D01*
X2910Y5730D01*
X2900D01*
X2910D01*
X2913Y5733D01*
Y5737D01*
X2910Y5740D01*
X2900D01*
X2933D02*
X2920D01*
Y5730D01*
X2927Y5733D01*
X2930D01*
X2933Y5730D01*
Y5723D01*
X2930Y5720D01*
X2923D01*
X2920Y5723D01*
X2978Y6324D02*
Y6304D01*
X2988D01*
X2991Y6308D01*
Y6311D01*
X2988Y6314D01*
X2978D01*
X2988D01*
X2991Y6318D01*
Y6321D01*
X2988Y6324D01*
X2978D01*
X3008Y6304D02*
Y6324D01*
X2998Y6314D01*
X3011D01*
X2910Y6330D02*
Y6310D01*
X2920D01*
X2923Y6313D01*
Y6317D01*
X2920Y6320D01*
X2910D01*
X2920D01*
X2923Y6323D01*
Y6327D01*
X2920Y6330D01*
X2910D01*
X2930Y6327D02*
X2933Y6330D01*
X2940D01*
X2943Y6327D01*
Y6323D01*
X2940Y6320D01*
X2937D01*
X2940D01*
X2943Y6317D01*
Y6313D01*
X2940Y6310D01*
X2933D01*
X2930Y6313D01*
X2985Y6920D02*
Y6900D01*
X2995D01*
X2998Y6903D01*
Y6907D01*
X2995Y6910D01*
X2985D01*
X2995D01*
X2998Y6913D01*
Y6917D01*
X2995Y6920D01*
X2985D01*
X3018Y6900D02*
X3005D01*
X3018Y6913D01*
Y6917D01*
X3015Y6920D01*
X3008D01*
X3005Y6917D01*
X2915Y6918D02*
Y6898D01*
X2925D01*
X2928Y6901D01*
Y6905D01*
X2925Y6908D01*
X2915D01*
X2925D01*
X2928Y6911D01*
Y6915D01*
X2925Y6918D01*
X2915D01*
X2935Y6898D02*
X2942D01*
X2938D01*
Y6918D01*
X2935Y6915D01*
X2286Y6419D02*
Y6459D01*
X2306D01*
X2313Y6452D01*
Y6439D01*
X2306Y6432D01*
X2286D01*
X2326Y6459D02*
X2353D01*
X2339D01*
Y6419D01*
X2366D02*
X2379D01*
X2373D01*
Y6459D01*
X2366Y6452D01*
X2860Y4565D02*
X2870D01*
X2865D01*
Y4595D01*
X2860Y4590D01*
X3309Y4345D02*
X3322D01*
X3316D01*
Y4385D01*
X3309Y4378D01*
X4219Y4355D02*
X4232D01*
X4226D01*
Y4395D01*
X4219Y4388D01*
X3909Y3955D02*
X3922D01*
X3916D01*
Y3995D01*
X3909Y3988D01*
X3619Y4155D02*
X3632D01*
X3626D01*
Y4195D01*
X3619Y4188D01*
X4319Y4120D02*
X4332D01*
X4326D01*
Y4160D01*
X4319Y4153D01*
M02*
