G04 Layer_Physical_Order=2*
G04 Layer_Color=16711680*
%FSLAX23Y23*%
%MOIN*%
G70*
G01*
G75*
%ADD12C,0.010*%
%ADD13C,0.015*%
%ADD14C,0.062*%
%ADD15C,0.126*%
%ADD16C,0.060*%
%ADD17R,0.060X0.060*%
%ADD18C,0.063*%
%ADD19C,0.150*%
%ADD20C,0.090*%
%ADD21C,0.080*%
%ADD22R,0.080X0.080*%
%ADD23C,0.050*%
G36*
X4624Y6930D02*
X4618Y6922D01*
X4610Y6908D01*
X4605Y6892D01*
X4604Y6875D01*
X4605Y6858D01*
X4610Y6842D01*
X4618Y6828D01*
X4629Y6815D01*
X4642Y6804D01*
X4656Y6796D01*
X4672Y6791D01*
X4689Y6790D01*
X4706Y6791D01*
X4722Y6796D01*
X4736Y6804D01*
X4749Y6815D01*
X4756Y6822D01*
X4761Y6821D01*
Y4546D01*
X4756Y4545D01*
X4750Y4556D01*
X4741Y4567D01*
X4730Y4576D01*
X4717Y4583D01*
X4703Y4587D01*
X4689Y4588D01*
X4675Y4587D01*
X4661Y4583D01*
X4648Y4576D01*
X4637Y4567D01*
X4628Y4556D01*
X4621Y4543D01*
X4617Y4529D01*
X4616Y4515D01*
X4617Y4501D01*
X4621Y4487D01*
X4628Y4474D01*
X4637Y4463D01*
X4648Y4454D01*
X4661Y4447D01*
X4675Y4443D01*
X4689Y4442D01*
X4703Y4443D01*
X4717Y4447D01*
X4730Y4454D01*
X4741Y4463D01*
X4750Y4474D01*
X4756Y4485D01*
X4761Y4484D01*
Y3846D01*
X4756Y3845D01*
X4750Y3856D01*
X4741Y3867D01*
X4730Y3876D01*
X4717Y3883D01*
X4703Y3887D01*
X4689Y3888D01*
X4675Y3887D01*
X4661Y3883D01*
X4648Y3876D01*
X4637Y3867D01*
X4628Y3856D01*
X4621Y3843D01*
X4617Y3829D01*
X4616Y3815D01*
X4617Y3801D01*
X4621Y3787D01*
X4628Y3774D01*
X4637Y3763D01*
X4648Y3754D01*
X4661Y3747D01*
X4675Y3743D01*
X4689Y3742D01*
X4703Y3743D01*
X4717Y3747D01*
X4730Y3754D01*
X4741Y3763D01*
X4750Y3774D01*
X4756Y3785D01*
X4761Y3784D01*
Y3735D01*
X4174D01*
X4172Y3740D01*
X4175Y3744D01*
X4179Y3754D01*
X4180Y3765D01*
X4179Y3776D01*
X4175Y3786D01*
X4168Y3794D01*
X4160Y3801D01*
X4154Y3803D01*
Y4059D01*
X4224Y4128D01*
X4229Y4126D01*
X4239Y4125D01*
X4249Y4126D01*
X4259Y4130D01*
X4268Y4136D01*
X4274Y4145D01*
X4278Y4155D01*
X4279Y4165D01*
X4278Y4175D01*
X4274Y4185D01*
X4268Y4194D01*
X4259Y4200D01*
X4249Y4204D01*
X4239Y4205D01*
X4229Y4204D01*
X4219Y4200D01*
X4210Y4194D01*
X4204Y4185D01*
X4200Y4175D01*
X4199Y4165D01*
X4200Y4155D01*
X4202Y4150D01*
X4128Y4076D01*
X4125Y4071D01*
X4124Y4065D01*
Y3803D01*
X4118Y3801D01*
X4110Y3794D01*
X4103Y3786D01*
X4099Y3776D01*
X4098Y3765D01*
X4099Y3754D01*
X4103Y3744D01*
X4106Y3740D01*
X4104Y3735D01*
X4074D01*
X4072Y3740D01*
X4075Y3744D01*
X4079Y3754D01*
X4080Y3765D01*
X4079Y3776D01*
X4075Y3786D01*
X4068Y3794D01*
X4060Y3801D01*
X4054Y3803D01*
Y4059D01*
X4124Y4128D01*
X4129Y4126D01*
X4139Y4125D01*
X4149Y4126D01*
X4159Y4130D01*
X4168Y4136D01*
X4174Y4145D01*
X4178Y4155D01*
X4179Y4165D01*
X4178Y4175D01*
X4174Y4185D01*
X4168Y4194D01*
X4159Y4200D01*
X4149Y4204D01*
X4139Y4205D01*
X4129Y4204D01*
X4119Y4200D01*
X4110Y4194D01*
X4104Y4185D01*
X4100Y4175D01*
X4099Y4165D01*
X4100Y4155D01*
X4102Y4150D01*
X4028Y4076D01*
X4025Y4071D01*
X4024Y4065D01*
Y3803D01*
X4018Y3801D01*
X4010Y3794D01*
X4003Y3786D01*
X3999Y3776D01*
X3998Y3765D01*
X3999Y3754D01*
X4003Y3744D01*
X4006Y3740D01*
X4004Y3735D01*
X3974D01*
X3972Y3740D01*
X3975Y3744D01*
X3979Y3754D01*
X3980Y3765D01*
X3979Y3776D01*
X3975Y3786D01*
X3968Y3794D01*
X3960Y3801D01*
X3954Y3803D01*
Y4059D01*
X4024Y4128D01*
X4029Y4126D01*
X4039Y4125D01*
X4049Y4126D01*
X4059Y4130D01*
X4068Y4136D01*
X4074Y4145D01*
X4078Y4155D01*
X4079Y4165D01*
X4078Y4175D01*
X4074Y4185D01*
X4068Y4194D01*
X4059Y4200D01*
X4049Y4204D01*
X4039Y4205D01*
X4029Y4204D01*
X4019Y4200D01*
X4010Y4194D01*
X4004Y4185D01*
X4000Y4175D01*
X3999Y4165D01*
X4000Y4155D01*
X4002Y4150D01*
X3928Y4076D01*
X3925Y4071D01*
X3924Y4065D01*
Y3803D01*
X3918Y3801D01*
X3910Y3794D01*
X3903Y3786D01*
X3899Y3776D01*
X3898Y3765D01*
X3899Y3754D01*
X3903Y3744D01*
X3906Y3740D01*
X3904Y3735D01*
X3874D01*
X3872Y3740D01*
X3875Y3744D01*
X3879Y3754D01*
X3880Y3765D01*
X3879Y3776D01*
X3875Y3786D01*
X3868Y3794D01*
X3860Y3801D01*
X3857Y3802D01*
Y3929D01*
X3859Y3930D01*
X3868Y3936D01*
X3874Y3945D01*
X3878Y3955D01*
X3879Y3965D01*
X3878Y3975D01*
X3874Y3985D01*
X3868Y3994D01*
X3859Y4000D01*
X3849Y4004D01*
X3839Y4005D01*
X3829Y4004D01*
X3819Y4000D01*
X3810Y3994D01*
X3804Y3985D01*
X3800Y3975D01*
X3799Y3965D01*
X3800Y3955D01*
X3804Y3945D01*
X3810Y3936D01*
X3819Y3930D01*
X3821Y3929D01*
Y3802D01*
X3818Y3801D01*
X3810Y3794D01*
X3803Y3786D01*
X3799Y3776D01*
X3798Y3765D01*
X3799Y3754D01*
X3803Y3744D01*
X3806Y3740D01*
X3804Y3735D01*
X3774D01*
X3772Y3740D01*
X3775Y3744D01*
X3779Y3754D01*
X3780Y3765D01*
X3779Y3776D01*
X3775Y3786D01*
X3768Y3794D01*
X3760Y3801D01*
X3757Y3802D01*
Y3929D01*
X3759Y3930D01*
X3768Y3936D01*
X3774Y3945D01*
X3778Y3955D01*
X3779Y3965D01*
X3778Y3975D01*
X3774Y3985D01*
X3768Y3994D01*
X3759Y4000D01*
X3749Y4004D01*
X3739Y4005D01*
X3729Y4004D01*
X3719Y4000D01*
X3710Y3994D01*
X3704Y3985D01*
X3700Y3975D01*
X3699Y3965D01*
X3700Y3955D01*
X3704Y3945D01*
X3710Y3936D01*
X3719Y3930D01*
X3721Y3929D01*
Y3802D01*
X3718Y3801D01*
X3710Y3794D01*
X3703Y3786D01*
X3699Y3776D01*
X3698Y3765D01*
X3699Y3754D01*
X3703Y3744D01*
X3706Y3740D01*
X3704Y3735D01*
X3674D01*
X3672Y3740D01*
X3675Y3744D01*
X3679Y3754D01*
X3680Y3765D01*
X3679Y3776D01*
X3675Y3786D01*
X3668Y3794D01*
X3660Y3801D01*
X3657Y3802D01*
Y3929D01*
X3659Y3930D01*
X3668Y3936D01*
X3674Y3945D01*
X3678Y3955D01*
X3679Y3965D01*
X3678Y3975D01*
X3674Y3985D01*
X3668Y3994D01*
X3659Y4000D01*
X3649Y4004D01*
X3639Y4005D01*
X3629Y4004D01*
X3619Y4000D01*
X3610Y3994D01*
X3604Y3985D01*
X3600Y3975D01*
X3599Y3965D01*
X3600Y3955D01*
X3604Y3945D01*
X3610Y3936D01*
X3619Y3930D01*
X3621Y3929D01*
Y3802D01*
X3618Y3801D01*
X3610Y3794D01*
X3603Y3786D01*
X3599Y3776D01*
X3598Y3765D01*
X3599Y3754D01*
X3603Y3744D01*
X3606Y3740D01*
X3604Y3735D01*
X3574D01*
X3572Y3740D01*
X3575Y3744D01*
X3579Y3754D01*
X3580Y3765D01*
X3579Y3776D01*
X3575Y3786D01*
X3568Y3794D01*
X3560Y3801D01*
X3557Y3802D01*
Y3929D01*
X3559Y3930D01*
X3568Y3936D01*
X3574Y3945D01*
X3578Y3955D01*
X3579Y3965D01*
X3578Y3975D01*
X3574Y3985D01*
X3568Y3994D01*
X3559Y4000D01*
X3549Y4004D01*
X3539Y4005D01*
X3529Y4004D01*
X3519Y4000D01*
X3510Y3994D01*
X3504Y3985D01*
X3500Y3975D01*
X3499Y3965D01*
X3500Y3955D01*
X3504Y3945D01*
X3510Y3936D01*
X3519Y3930D01*
X3521Y3929D01*
Y3802D01*
X3518Y3801D01*
X3510Y3794D01*
X3503Y3786D01*
X3499Y3776D01*
X3498Y3765D01*
X3499Y3754D01*
X3503Y3744D01*
X3506Y3740D01*
X3504Y3735D01*
X3474D01*
X3472Y3740D01*
X3475Y3744D01*
X3479Y3754D01*
X3480Y3765D01*
X3479Y3776D01*
X3475Y3786D01*
X3468Y3794D01*
X3460Y3801D01*
X3457Y3802D01*
Y3929D01*
X3459Y3930D01*
X3468Y3936D01*
X3474Y3945D01*
X3478Y3955D01*
X3479Y3965D01*
X3478Y3975D01*
X3474Y3985D01*
X3468Y3994D01*
X3459Y4000D01*
X3449Y4004D01*
X3439Y4005D01*
X3429Y4004D01*
X3419Y4000D01*
X3410Y3994D01*
X3404Y3985D01*
X3400Y3975D01*
X3399Y3965D01*
X3400Y3955D01*
X3404Y3945D01*
X3410Y3936D01*
X3419Y3930D01*
X3421Y3929D01*
Y3802D01*
X3418Y3801D01*
X3410Y3794D01*
X3403Y3786D01*
X3399Y3776D01*
X3398Y3765D01*
X3399Y3754D01*
X3403Y3744D01*
X3406Y3740D01*
X3404Y3735D01*
X3374D01*
X3372Y3740D01*
X3375Y3744D01*
X3379Y3754D01*
X3380Y3765D01*
X3379Y3776D01*
X3375Y3786D01*
X3368Y3794D01*
X3360Y3801D01*
X3357Y3802D01*
Y3929D01*
X3359Y3930D01*
X3368Y3936D01*
X3374Y3945D01*
X3378Y3955D01*
X3379Y3965D01*
X3378Y3975D01*
X3374Y3985D01*
X3368Y3994D01*
X3359Y4000D01*
X3349Y4004D01*
X3339Y4005D01*
X3329Y4004D01*
X3319Y4000D01*
X3310Y3994D01*
X3304Y3985D01*
X3300Y3975D01*
X3299Y3965D01*
X3300Y3955D01*
X3304Y3945D01*
X3310Y3936D01*
X3319Y3930D01*
X3321Y3929D01*
Y3802D01*
X3318Y3801D01*
X3310Y3794D01*
X3303Y3786D01*
X3299Y3776D01*
X3298Y3765D01*
X3299Y3754D01*
X3303Y3744D01*
X3306Y3740D01*
X3304Y3735D01*
X3274D01*
X3272Y3740D01*
X3275Y3744D01*
X3279Y3754D01*
X3280Y3765D01*
X3279Y3776D01*
X3275Y3786D01*
X3268Y3794D01*
X3260Y3801D01*
X3257Y3802D01*
Y3929D01*
X3259Y3930D01*
X3268Y3936D01*
X3274Y3945D01*
X3278Y3955D01*
X3279Y3965D01*
X3278Y3975D01*
X3274Y3985D01*
X3268Y3994D01*
X3259Y4000D01*
X3249Y4004D01*
X3239Y4005D01*
X3229Y4004D01*
X3219Y4000D01*
X3210Y3994D01*
X3204Y3985D01*
X3200Y3975D01*
X3199Y3965D01*
X3200Y3955D01*
X3204Y3945D01*
X3210Y3936D01*
X3219Y3930D01*
X3221Y3929D01*
Y3802D01*
X3218Y3801D01*
X3210Y3794D01*
X3203Y3786D01*
X3199Y3776D01*
X3198Y3765D01*
X3199Y3754D01*
X3203Y3744D01*
X3206Y3740D01*
X3204Y3735D01*
X3174D01*
X3172Y3740D01*
X3175Y3744D01*
X3179Y3754D01*
X3180Y3765D01*
X3179Y3776D01*
X3175Y3786D01*
X3168Y3794D01*
X3160Y3801D01*
X3150Y3805D01*
X3139Y3806D01*
X3128Y3805D01*
X3123Y3803D01*
X2875Y4050D01*
Y4495D01*
X2874Y4501D01*
X2871Y4506D01*
X2822Y4555D01*
X2824Y4560D01*
X2825Y4570D01*
X2824Y4580D01*
X2820Y4590D01*
X2814Y4599D01*
X2805Y4605D01*
X2795Y4609D01*
X2785Y4610D01*
X2775Y4609D01*
X2765Y4605D01*
X2756Y4599D01*
X2750Y4590D01*
X2746Y4580D01*
X2745Y4570D01*
X2746Y4560D01*
X2750Y4550D01*
X2756Y4541D01*
X2765Y4535D01*
X2775Y4531D01*
X2785Y4530D01*
X2795Y4531D01*
X2800Y4533D01*
X2845Y4489D01*
Y4044D01*
X2846Y4038D01*
X2849Y4033D01*
X3101Y3781D01*
X3099Y3776D01*
X3098Y3765D01*
X3099Y3754D01*
X3103Y3744D01*
X3106Y3740D01*
X3104Y3735D01*
X3074D01*
X3072Y3740D01*
X3075Y3744D01*
X3079Y3754D01*
X3080Y3765D01*
X3079Y3776D01*
X3075Y3786D01*
X3068Y3794D01*
X3060Y3801D01*
X3050Y3805D01*
X3039Y3806D01*
X3028Y3805D01*
X3023Y3803D01*
X2750Y4075D01*
Y4520D01*
X2749Y4526D01*
X2746Y4531D01*
X2722Y4555D01*
X2724Y4560D01*
X2725Y4570D01*
X2724Y4580D01*
X2720Y4590D01*
X2714Y4599D01*
X2705Y4605D01*
X2695Y4609D01*
X2685Y4610D01*
X2675Y4609D01*
X2665Y4605D01*
X2656Y4599D01*
X2650Y4590D01*
X2646Y4580D01*
X2645Y4570D01*
X2646Y4560D01*
X2650Y4550D01*
X2656Y4541D01*
X2665Y4535D01*
X2675Y4531D01*
X2685Y4530D01*
X2695Y4531D01*
X2700Y4533D01*
X2720Y4514D01*
Y4069D01*
X2721Y4063D01*
X2724Y4058D01*
X3001Y3781D01*
X2999Y3776D01*
X2998Y3765D01*
X2999Y3754D01*
X3003Y3744D01*
X3006Y3740D01*
X3004Y3735D01*
X2172D01*
X2171Y3740D01*
X2177Y3744D01*
X2190Y3755D01*
X2201Y3768D01*
X2209Y3782D01*
X2214Y3798D01*
X2215Y3815D01*
X2214Y3832D01*
X2209Y3848D01*
X2201Y3862D01*
X2190Y3875D01*
X2177Y3886D01*
X2163Y3894D01*
X2147Y3899D01*
X2130Y3900D01*
X2113Y3899D01*
X2097Y3894D01*
X2083Y3886D01*
X2070Y3875D01*
X2063Y3868D01*
X2058Y3869D01*
Y4821D01*
X2063Y4823D01*
X2070Y4818D01*
X2083Y4813D01*
X2098Y4811D01*
X2112Y4813D01*
X2125Y4818D01*
X2137Y4827D01*
X2146Y4839D01*
X2151Y4852D01*
X2153Y4866D01*
X2151Y4881D01*
X2146Y4894D01*
X2137Y4906D01*
X2125Y4915D01*
X2112Y4920D01*
X2098Y4922D01*
X2083Y4920D01*
X2070Y4915D01*
X2063Y4910D01*
X2058Y4912D01*
Y6111D01*
X2063Y6113D01*
X2070Y6108D01*
X2083Y6103D01*
X2098Y6101D01*
X2112Y6103D01*
X2125Y6108D01*
X2137Y6117D01*
X2146Y6128D01*
X2151Y6142D01*
X2153Y6156D01*
X2151Y6171D01*
X2146Y6184D01*
X2137Y6195D01*
X2125Y6204D01*
X2112Y6210D01*
X2098Y6212D01*
X2083Y6210D01*
X2070Y6204D01*
X2063Y6199D01*
X2058Y6202D01*
Y6821D01*
X2063Y6822D01*
X2070Y6815D01*
X2083Y6804D01*
X2097Y6796D01*
X2113Y6791D01*
X2130Y6790D01*
X2147Y6791D01*
X2163Y6796D01*
X2177Y6804D01*
X2190Y6815D01*
X2201Y6828D01*
X2209Y6842D01*
X2214Y6858D01*
X2215Y6875D01*
X2214Y6892D01*
X2209Y6908D01*
X2201Y6922D01*
X2195Y6930D01*
X2197Y6935D01*
X4622D01*
X4624Y6930D01*
D02*
G37*
%LPC*%
G36*
X4339Y4606D02*
X4328Y4605D01*
X4318Y4601D01*
X4310Y4594D01*
X4303Y4586D01*
X4299Y4576D01*
X4298Y4565D01*
X4299Y4554D01*
X4303Y4544D01*
X4310Y4536D01*
X4318Y4529D01*
X4328Y4525D01*
X4339Y4524D01*
X4350Y4525D01*
X4360Y4529D01*
X4368Y4536D01*
X4375Y4544D01*
X4379Y4554D01*
X4380Y4565D01*
X4379Y4576D01*
X4375Y4586D01*
X4368Y4594D01*
X4360Y4601D01*
X4350Y4605D01*
X4339Y4606D01*
D02*
G37*
G36*
X4139D02*
X4128Y4605D01*
X4118Y4601D01*
X4110Y4594D01*
X4103Y4586D01*
X4099Y4576D01*
X4098Y4565D01*
X4099Y4554D01*
X4103Y4544D01*
X4110Y4536D01*
X4118Y4529D01*
X4128Y4525D01*
X4139Y4524D01*
X4150Y4525D01*
X4160Y4529D01*
X4168Y4536D01*
X4175Y4544D01*
X4179Y4554D01*
X4180Y4565D01*
X4179Y4576D01*
X4175Y4586D01*
X4168Y4594D01*
X4160Y4601D01*
X4150Y4605D01*
X4139Y4606D01*
D02*
G37*
G36*
X3039D02*
X3028Y4605D01*
X3018Y4601D01*
X3010Y4594D01*
X3003Y4586D01*
X2999Y4576D01*
X2998Y4565D01*
X2999Y4554D01*
X3003Y4544D01*
X3010Y4536D01*
X3018Y4529D01*
X3028Y4525D01*
X3039Y4524D01*
X3050Y4525D01*
X3060Y4529D01*
X3068Y4536D01*
X3075Y4544D01*
X3079Y4554D01*
X3080Y4565D01*
X3079Y4576D01*
X3075Y4586D01*
X3068Y4594D01*
X3060Y4601D01*
X3050Y4605D01*
X3039Y4606D01*
D02*
G37*
G36*
X4039D02*
X4028Y4605D01*
X4018Y4601D01*
X4010Y4594D01*
X4003Y4586D01*
X3999Y4576D01*
X3998Y4565D01*
X3999Y4554D01*
X4003Y4544D01*
X4010Y4536D01*
X4018Y4529D01*
X4028Y4525D01*
X4039Y4524D01*
X4050Y4525D01*
X4060Y4529D01*
X4068Y4536D01*
X4075Y4544D01*
X4079Y4554D01*
X4080Y4565D01*
X4079Y4576D01*
X4075Y4586D01*
X4068Y4594D01*
X4060Y4601D01*
X4050Y4605D01*
X4039Y4606D01*
D02*
G37*
G36*
X4057Y4862D02*
X4046Y4860D01*
X4036Y4856D01*
X4027Y4850D01*
X4021Y4841D01*
X4018Y4835D01*
X3899D01*
X3896Y4841D01*
X3890Y4850D01*
X3881Y4856D01*
X3871Y4860D01*
X3860Y4862D01*
X3849Y4860D01*
X3839Y4856D01*
X3831Y4850D01*
X3824Y4841D01*
X3820Y4831D01*
X3818Y4820D01*
X3820Y4809D01*
X3824Y4799D01*
X3831Y4790D01*
X3839Y4784D01*
X3849Y4780D01*
X3860Y4778D01*
X3871Y4780D01*
X3881Y4784D01*
X3890Y4790D01*
X3896Y4799D01*
X3899Y4805D01*
X4018D01*
X4021Y4799D01*
X4027Y4790D01*
X4036Y4784D01*
X4046Y4780D01*
X4057Y4778D01*
X4068Y4780D01*
X4078Y4784D01*
X4087Y4790D01*
X4093Y4799D01*
X4097Y4809D01*
X4099Y4820D01*
X4097Y4831D01*
X4093Y4841D01*
X4087Y4850D01*
X4078Y4856D01*
X4068Y4860D01*
X4057Y4862D01*
D02*
G37*
G36*
X3290Y5059D02*
X3279Y5057D01*
X3269Y5053D01*
X3260Y5046D01*
X3254Y5038D01*
X3251Y5032D01*
X3132D01*
X3129Y5038D01*
X3123Y5046D01*
X3114Y5053D01*
X3104Y5057D01*
X3093Y5059D01*
X3082Y5057D01*
X3072Y5053D01*
X3063Y5046D01*
X3057Y5038D01*
X3053Y5028D01*
X3051Y5017D01*
X3053Y5006D01*
X3057Y4996D01*
X3063Y4987D01*
X3072Y4981D01*
X3082Y4976D01*
X3093Y4975D01*
X3104Y4976D01*
X3114Y4981D01*
X3123Y4987D01*
X3129Y4996D01*
X3132Y5002D01*
X3251D01*
X3254Y4996D01*
X3260Y4987D01*
X3269Y4981D01*
X3279Y4976D01*
X3290Y4975D01*
X3301Y4976D01*
X3311Y4981D01*
X3319Y4987D01*
X3326Y4996D01*
X3330Y5006D01*
X3332Y5017D01*
X3330Y5028D01*
X3326Y5038D01*
X3319Y5046D01*
X3311Y5053D01*
X3301Y5057D01*
X3290Y5059D01*
D02*
G37*
G36*
X2428Y4876D02*
X2414Y4875D01*
X2400Y4869D01*
X2389Y4860D01*
X2380Y4849D01*
X2374Y4835D01*
X2373Y4821D01*
X2374Y4807D01*
X2380Y4793D01*
X2389Y4782D01*
X2400Y4773D01*
X2414Y4767D01*
X2428Y4766D01*
X2442Y4767D01*
X2456Y4773D01*
X2467Y4782D01*
X2476Y4793D01*
X2482Y4807D01*
X2483Y4821D01*
X2482Y4835D01*
X2476Y4849D01*
X2467Y4860D01*
X2456Y4869D01*
X2442Y4875D01*
X2428Y4876D01*
D02*
G37*
G36*
X2842Y4862D02*
X2831Y4860D01*
X2821Y4856D01*
X2812Y4850D01*
X2806Y4841D01*
X2803Y4835D01*
X2684D01*
X2681Y4841D01*
X2675Y4850D01*
X2666Y4856D01*
X2656Y4860D01*
X2645Y4862D01*
X2634Y4860D01*
X2624Y4856D01*
X2616Y4850D01*
X2609Y4841D01*
X2605Y4831D01*
X2603Y4820D01*
X2605Y4809D01*
X2609Y4799D01*
X2616Y4790D01*
X2624Y4784D01*
X2634Y4780D01*
X2645Y4778D01*
X2656Y4780D01*
X2666Y4784D01*
X2675Y4790D01*
X2681Y4799D01*
X2684Y4805D01*
X2803D01*
X2806Y4799D01*
X2812Y4790D01*
X2821Y4784D01*
X2831Y4780D01*
X2842Y4778D01*
X2853Y4780D01*
X2863Y4784D01*
X2872Y4790D01*
X2878Y4799D01*
X2882Y4809D01*
X2884Y4820D01*
X2882Y4831D01*
X2878Y4841D01*
X2872Y4850D01*
X2863Y4856D01*
X2853Y4860D01*
X2842Y4862D01*
D02*
G37*
G36*
X4139Y4405D02*
X4129Y4404D01*
X4119Y4400D01*
X4110Y4394D01*
X4104Y4385D01*
X4100Y4375D01*
X4099Y4365D01*
X4100Y4355D01*
X4104Y4345D01*
X4110Y4336D01*
X4119Y4330D01*
X4129Y4326D01*
X4139Y4325D01*
X4149Y4326D01*
X4159Y4330D01*
X4168Y4336D01*
X4174Y4345D01*
X4178Y4355D01*
X4179Y4365D01*
X4178Y4375D01*
X4174Y4385D01*
X4168Y4394D01*
X4159Y4400D01*
X4149Y4404D01*
X4139Y4405D01*
D02*
G37*
G36*
X3439Y4606D02*
X3428Y4605D01*
X3418Y4601D01*
X3410Y4594D01*
X3403Y4586D01*
X3399Y4576D01*
X3398Y4565D01*
X3399Y4554D01*
X3403Y4544D01*
X3410Y4536D01*
X3418Y4529D01*
X3424Y4527D01*
Y4202D01*
X3419Y4200D01*
X3410Y4194D01*
X3404Y4185D01*
X3400Y4175D01*
X3399Y4165D01*
X3400Y4155D01*
X3404Y4145D01*
X3410Y4136D01*
X3419Y4130D01*
X3429Y4126D01*
X3439Y4125D01*
X3449Y4126D01*
X3459Y4130D01*
X3468Y4136D01*
X3474Y4145D01*
X3478Y4155D01*
X3479Y4165D01*
X3478Y4175D01*
X3474Y4185D01*
X3468Y4194D01*
X3459Y4200D01*
X3454Y4202D01*
Y4527D01*
X3460Y4529D01*
X3468Y4536D01*
X3475Y4544D01*
X3479Y4554D01*
X3480Y4565D01*
X3479Y4576D01*
X3475Y4586D01*
X3468Y4594D01*
X3460Y4601D01*
X3450Y4605D01*
X3439Y4606D01*
D02*
G37*
G36*
X3539Y4205D02*
X3529Y4204D01*
X3519Y4200D01*
X3510Y4194D01*
X3504Y4185D01*
X3500Y4175D01*
X3499Y4165D01*
X3500Y4155D01*
X3504Y4145D01*
X3510Y4136D01*
X3519Y4130D01*
X3529Y4126D01*
X3539Y4125D01*
X3549Y4126D01*
X3559Y4130D01*
X3568Y4136D01*
X3574Y4145D01*
X3578Y4155D01*
X3579Y4165D01*
X3578Y4175D01*
X3574Y4185D01*
X3568Y4194D01*
X3559Y4200D01*
X3549Y4204D01*
X3539Y4205D01*
D02*
G37*
G36*
X2331Y4706D02*
X2318Y4705D01*
X2306Y4700D01*
X2295Y4692D01*
X2287Y4681D01*
X2282Y4669D01*
X2280Y4656D01*
X2282Y4643D01*
X2287Y4631D01*
X2295Y4620D01*
X2306Y4612D01*
X2309Y4611D01*
Y4313D01*
X2310Y4306D01*
X2314Y4301D01*
X2729Y3885D01*
X2729Y3885D01*
X2735Y3882D01*
X2742Y3880D01*
X2785D01*
X2790Y3873D01*
X2797Y3867D01*
X2806Y3864D01*
X2815Y3863D01*
X2824Y3864D01*
X2833Y3867D01*
X2840Y3873D01*
X2846Y3880D01*
X2849Y3889D01*
X2850Y3898D01*
X2849Y3907D01*
X2846Y3916D01*
X2840Y3923D01*
X2833Y3929D01*
X2824Y3932D01*
X2815Y3933D01*
X2806Y3932D01*
X2797Y3929D01*
X2790Y3923D01*
X2785Y3916D01*
X2749D01*
X2345Y4321D01*
Y4608D01*
X2356Y4612D01*
X2367Y4620D01*
X2375Y4631D01*
X2380Y4643D01*
X2381Y4656D01*
X2380Y4669D01*
X2375Y4681D01*
X2367Y4692D01*
X2356Y4700D01*
X2344Y4705D01*
X2331Y4706D01*
D02*
G37*
G36*
X3339Y4606D02*
X3328Y4605D01*
X3318Y4601D01*
X3310Y4594D01*
X3303Y4586D01*
X3299Y4576D01*
X3298Y4565D01*
X3299Y4554D01*
X3303Y4544D01*
X3310Y4536D01*
X3318Y4529D01*
X3324Y4527D01*
Y4202D01*
X3319Y4200D01*
X3310Y4194D01*
X3304Y4185D01*
X3300Y4175D01*
X3299Y4165D01*
X3300Y4155D01*
X3304Y4145D01*
X3310Y4136D01*
X3319Y4130D01*
X3329Y4126D01*
X3339Y4125D01*
X3349Y4126D01*
X3359Y4130D01*
X3368Y4136D01*
X3374Y4145D01*
X3378Y4155D01*
X3379Y4165D01*
X3378Y4175D01*
X3374Y4185D01*
X3368Y4194D01*
X3359Y4200D01*
X3354Y4202D01*
Y4527D01*
X3360Y4529D01*
X3368Y4536D01*
X3375Y4544D01*
X3379Y4554D01*
X3380Y4565D01*
X3379Y4576D01*
X3375Y4586D01*
X3368Y4594D01*
X3360Y4601D01*
X3350Y4605D01*
X3339Y4606D01*
D02*
G37*
G36*
X3239D02*
X3228Y4605D01*
X3218Y4601D01*
X3210Y4594D01*
X3203Y4586D01*
X3199Y4576D01*
X3198Y4565D01*
X3199Y4554D01*
X3203Y4544D01*
X3210Y4536D01*
X3218Y4529D01*
X3224Y4527D01*
Y4402D01*
X3219Y4400D01*
X3210Y4394D01*
X3204Y4385D01*
X3200Y4375D01*
X3199Y4365D01*
X3200Y4355D01*
X3204Y4345D01*
X3210Y4336D01*
X3219Y4330D01*
X3229Y4326D01*
X3239Y4325D01*
X3249Y4326D01*
X3259Y4330D01*
X3268Y4336D01*
X3274Y4345D01*
X3278Y4355D01*
X3279Y4365D01*
X3278Y4375D01*
X3274Y4385D01*
X3268Y4394D01*
X3259Y4400D01*
X3254Y4402D01*
Y4527D01*
X3260Y4529D01*
X3268Y4536D01*
X3275Y4544D01*
X3279Y4554D01*
X3280Y4565D01*
X3279Y4576D01*
X3275Y4586D01*
X3268Y4594D01*
X3260Y4601D01*
X3250Y4605D01*
X3239Y4606D01*
D02*
G37*
G36*
X4039Y4405D02*
X4029Y4404D01*
X4019Y4400D01*
X4010Y4394D01*
X4004Y4385D01*
X4000Y4375D01*
X3999Y4365D01*
X4000Y4355D01*
X4004Y4345D01*
X4010Y4336D01*
X4019Y4330D01*
X4029Y4326D01*
X4039Y4325D01*
X4049Y4326D01*
X4059Y4330D01*
X4068Y4336D01*
X4074Y4345D01*
X4078Y4355D01*
X4079Y4365D01*
X4078Y4375D01*
X4074Y4385D01*
X4068Y4394D01*
X4059Y4400D01*
X4049Y4404D01*
X4039Y4405D01*
D02*
G37*
G36*
X4539Y4606D02*
X4528Y4605D01*
X4518Y4601D01*
X4510Y4594D01*
X4503Y4586D01*
X4499Y4576D01*
X4498Y4565D01*
X4499Y4554D01*
X4501Y4549D01*
X4206Y4254D01*
X4206Y4254D01*
X4205Y4260D01*
X4452Y4506D01*
X4452Y4506D01*
X4455Y4512D01*
X4457Y4519D01*
Y4528D01*
X4460Y4529D01*
X4468Y4536D01*
X4475Y4544D01*
X4479Y4554D01*
X4480Y4565D01*
X4479Y4576D01*
X4475Y4586D01*
X4468Y4594D01*
X4460Y4601D01*
X4450Y4605D01*
X4439Y4606D01*
X4428Y4605D01*
X4418Y4601D01*
X4410Y4594D01*
X4403Y4586D01*
X4399Y4576D01*
X4398Y4565D01*
X4399Y4554D01*
X4403Y4544D01*
X4410Y4536D01*
X4418Y4530D01*
X4418Y4527D01*
X4418Y4524D01*
X4178Y4283D01*
X3939D01*
X3939Y4283D01*
X3932Y4281D01*
X3926Y4278D01*
X3926Y4278D01*
X3852Y4203D01*
X3849Y4204D01*
X3839Y4205D01*
X3829Y4204D01*
X3819Y4200D01*
X3810Y4194D01*
X3804Y4185D01*
X3800Y4175D01*
X3799Y4165D01*
X3800Y4155D01*
X3804Y4145D01*
X3810Y4136D01*
X3819Y4130D01*
X3829Y4126D01*
X3839Y4125D01*
X3849Y4126D01*
X3859Y4130D01*
X3868Y4136D01*
X3874Y4145D01*
X3878Y4155D01*
X3879Y4165D01*
X3878Y4175D01*
X3877Y4178D01*
X3946Y4247D01*
X3992D01*
X3995Y4242D01*
X3954Y4202D01*
X3949Y4204D01*
X3939Y4205D01*
X3929Y4204D01*
X3919Y4200D01*
X3910Y4194D01*
X3904Y4185D01*
X3900Y4175D01*
X3899Y4165D01*
X3900Y4155D01*
X3904Y4145D01*
X3910Y4136D01*
X3919Y4130D01*
X3929Y4126D01*
X3939Y4125D01*
X3949Y4126D01*
X3959Y4130D01*
X3968Y4136D01*
X3974Y4145D01*
X3978Y4155D01*
X3979Y4165D01*
X3978Y4175D01*
X3976Y4180D01*
X4015Y4220D01*
X4209D01*
X4215Y4221D01*
X4220Y4224D01*
X4523Y4527D01*
X4528Y4525D01*
X4539Y4524D01*
X4550Y4525D01*
X4560Y4529D01*
X4568Y4536D01*
X4575Y4544D01*
X4579Y4554D01*
X4580Y4565D01*
X4579Y4576D01*
X4575Y4586D01*
X4568Y4594D01*
X4560Y4601D01*
X4550Y4605D01*
X4539Y4606D01*
D02*
G37*
G36*
X3139D02*
X3128Y4605D01*
X3118Y4601D01*
X3110Y4594D01*
X3103Y4586D01*
X3099Y4576D01*
X3098Y4565D01*
X3099Y4554D01*
X3103Y4544D01*
X3110Y4536D01*
X3118Y4529D01*
X3124Y4527D01*
Y4402D01*
X3119Y4400D01*
X3110Y4394D01*
X3104Y4385D01*
X3100Y4375D01*
X3099Y4365D01*
X3100Y4355D01*
X3104Y4345D01*
X3110Y4336D01*
X3119Y4330D01*
X3129Y4326D01*
X3139Y4325D01*
X3149Y4326D01*
X3159Y4330D01*
X3168Y4336D01*
X3174Y4345D01*
X3178Y4355D01*
X3179Y4365D01*
X3178Y4375D01*
X3174Y4385D01*
X3168Y4394D01*
X3159Y4400D01*
X3154Y4402D01*
Y4527D01*
X3160Y4529D01*
X3168Y4536D01*
X3175Y4544D01*
X3179Y4554D01*
X3180Y4565D01*
X3179Y4576D01*
X3175Y4586D01*
X3168Y4594D01*
X3160Y4601D01*
X3150Y4605D01*
X3139Y4606D01*
D02*
G37*
G36*
X2218Y6418D02*
X2213Y6417D01*
X2154D01*
X2150Y6416D01*
X2147Y6414D01*
X2144Y6410D01*
X2144Y6407D01*
Y6327D01*
X2144Y6323D01*
X2147Y6319D01*
X2150Y6317D01*
X2154Y6316D01*
X2234D01*
X2238Y6317D01*
X2241Y6319D01*
X2243Y6323D01*
X2244Y6327D01*
Y6407D01*
X2243Y6410D01*
X2241Y6414D01*
X2238Y6416D01*
X2234Y6417D01*
X2224D01*
X2218Y6418D01*
D02*
G37*
G36*
X2842Y6650D02*
X2831Y6649D01*
X2821Y6644D01*
X2812Y6638D01*
X2806Y6629D01*
X2803Y6623D01*
X2684D01*
X2681Y6629D01*
X2675Y6638D01*
X2666Y6644D01*
X2656Y6649D01*
X2645Y6650D01*
X2634Y6649D01*
X2624Y6644D01*
X2615Y6638D01*
X2609Y6629D01*
X2605Y6619D01*
X2603Y6608D01*
X2605Y6597D01*
X2609Y6587D01*
X2615Y6579D01*
X2624Y6572D01*
X2634Y6568D01*
X2645Y6566D01*
X2656Y6568D01*
X2666Y6572D01*
X2675Y6579D01*
X2681Y6587D01*
X2684Y6593D01*
X2803D01*
X2806Y6587D01*
X2812Y6579D01*
X2821Y6572D01*
X2831Y6568D01*
X2842Y6566D01*
X2853Y6568D01*
X2863Y6572D01*
X2871Y6579D01*
X2878Y6587D01*
X2882Y6597D01*
X2884Y6608D01*
X2882Y6619D01*
X2878Y6629D01*
X2871Y6638D01*
X2863Y6644D01*
X2853Y6649D01*
X2842Y6650D01*
D02*
G37*
G36*
X3290Y6249D02*
X3279Y6247D01*
X3269Y6243D01*
X3260Y6236D01*
X3254Y6228D01*
X3251Y6222D01*
X3132D01*
X3129Y6228D01*
X3123Y6236D01*
X3114Y6243D01*
X3104Y6247D01*
X3093Y6249D01*
X3082Y6247D01*
X3072Y6243D01*
X3063Y6236D01*
X3057Y6228D01*
X3053Y6218D01*
X3051Y6207D01*
X3053Y6196D01*
X3057Y6186D01*
X3063Y6177D01*
X3072Y6171D01*
X3082Y6166D01*
X3093Y6165D01*
X3104Y6166D01*
X3114Y6171D01*
X3123Y6177D01*
X3129Y6186D01*
X3132Y6192D01*
X3251D01*
X3254Y6186D01*
X3260Y6177D01*
X3269Y6171D01*
X3279Y6166D01*
X3290Y6165D01*
X3301Y6166D01*
X3311Y6171D01*
X3319Y6177D01*
X3326Y6186D01*
X3330Y6196D01*
X3332Y6207D01*
X3330Y6218D01*
X3326Y6228D01*
X3319Y6236D01*
X3311Y6243D01*
X3301Y6247D01*
X3290Y6249D01*
D02*
G37*
G36*
X4505D02*
X4494Y6247D01*
X4484Y6243D01*
X4475Y6236D01*
X4469Y6228D01*
X4466Y6222D01*
X4347D01*
X4344Y6228D01*
X4338Y6236D01*
X4329Y6243D01*
X4319Y6247D01*
X4308Y6249D01*
X4297Y6247D01*
X4287Y6243D01*
X4279Y6236D01*
X4272Y6228D01*
X4268Y6218D01*
X4266Y6207D01*
X4268Y6196D01*
X4272Y6186D01*
X4279Y6177D01*
X4287Y6171D01*
X4297Y6166D01*
X4308Y6165D01*
X4319Y6166D01*
X4329Y6171D01*
X4338Y6177D01*
X4344Y6186D01*
X4347Y6192D01*
X4466D01*
X4469Y6186D01*
X4475Y6177D01*
X4484Y6171D01*
X4494Y6166D01*
X4505Y6165D01*
X4516Y6166D01*
X4526Y6171D01*
X4535Y6177D01*
X4541Y6186D01*
X4545Y6196D01*
X4547Y6207D01*
X4545Y6218D01*
X4541Y6228D01*
X4535Y6236D01*
X4526Y6243D01*
X4516Y6247D01*
X4505Y6249D01*
D02*
G37*
G36*
X4505Y6847D02*
X4494Y6845D01*
X4484Y6841D01*
X4475Y6835D01*
X4469Y6826D01*
X4466Y6820D01*
X4347D01*
X4344Y6826D01*
X4338Y6835D01*
X4329Y6841D01*
X4319Y6845D01*
X4308Y6847D01*
X4297Y6845D01*
X4287Y6841D01*
X4278Y6835D01*
X4272Y6826D01*
X4268Y6816D01*
X4266Y6805D01*
X4268Y6794D01*
X4272Y6784D01*
X4278Y6775D01*
X4287Y6769D01*
X4297Y6765D01*
X4308Y6763D01*
X4319Y6765D01*
X4329Y6769D01*
X4338Y6775D01*
X4344Y6784D01*
X4347Y6790D01*
X4466D01*
X4469Y6784D01*
X4475Y6775D01*
X4484Y6769D01*
X4494Y6765D01*
X4505Y6763D01*
X4516Y6765D01*
X4526Y6769D01*
X4534Y6775D01*
X4541Y6784D01*
X4545Y6794D01*
X4547Y6805D01*
X4545Y6816D01*
X4541Y6826D01*
X4534Y6835D01*
X4526Y6841D01*
X4516Y6845D01*
X4505Y6847D01*
D02*
G37*
G36*
X4057D02*
X4046Y6845D01*
X4036Y6841D01*
X4027Y6835D01*
X4021Y6826D01*
X4019Y6823D01*
X3898D01*
X3896Y6826D01*
X3890Y6835D01*
X3881Y6841D01*
X3871Y6845D01*
X3860Y6847D01*
X3849Y6845D01*
X3839Y6841D01*
X3830Y6835D01*
X3824Y6826D01*
X3820Y6816D01*
X3818Y6805D01*
X3820Y6794D01*
X3824Y6784D01*
X3830Y6775D01*
X3839Y6769D01*
X3849Y6765D01*
X3860Y6763D01*
X3871Y6765D01*
X3881Y6769D01*
X3890Y6775D01*
X3896Y6784D01*
X3898Y6787D01*
X4019D01*
X4021Y6784D01*
X4027Y6775D01*
X4036Y6769D01*
X4046Y6765D01*
X4057Y6763D01*
X4068Y6765D01*
X4071Y6766D01*
X4241Y6596D01*
X4247Y6592D01*
X4254Y6590D01*
X4271D01*
X4272Y6587D01*
X4278Y6579D01*
X4287Y6572D01*
X4290Y6571D01*
Y6465D01*
X4071Y6246D01*
X4068Y6247D01*
X4057Y6249D01*
X4046Y6247D01*
X4036Y6243D01*
X4027Y6236D01*
X4021Y6228D01*
X4019Y6225D01*
X3898D01*
X3896Y6228D01*
X3890Y6236D01*
X3881Y6243D01*
X3871Y6247D01*
X3860Y6249D01*
X3849Y6247D01*
X3839Y6243D01*
X3830Y6236D01*
X3824Y6228D01*
X3820Y6218D01*
X3818Y6207D01*
X3820Y6196D01*
X3821Y6193D01*
X3676Y6048D01*
X3673Y6043D01*
X3671Y6036D01*
Y4598D01*
X3666Y4596D01*
X3660Y4601D01*
X3650Y4605D01*
X3639Y4606D01*
X3628Y4605D01*
X3618Y4601D01*
X3613Y4597D01*
X3608Y4599D01*
Y5710D01*
X3608Y5710D01*
X3606Y5717D01*
X3603Y5722D01*
X3329Y5996D01*
X3330Y5999D01*
X3332Y6010D01*
X3330Y6021D01*
X3326Y6031D01*
X3319Y6040D01*
X3311Y6046D01*
X3301Y6050D01*
X3290Y6052D01*
X3279Y6050D01*
X3269Y6046D01*
X3260Y6040D01*
X3254Y6031D01*
X3252Y6028D01*
X3131D01*
X3129Y6031D01*
X3123Y6040D01*
X3114Y6046D01*
X3104Y6050D01*
X3093Y6052D01*
X3082Y6050D01*
X3072Y6046D01*
X3063Y6040D01*
X3057Y6031D01*
X3056Y6028D01*
X3046D01*
X2881Y6193D01*
X2882Y6196D01*
X2884Y6207D01*
X2882Y6218D01*
X2881Y6221D01*
X3106Y6445D01*
X3110Y6451D01*
X3111Y6458D01*
Y6571D01*
X3114Y6572D01*
X3123Y6579D01*
X3129Y6587D01*
X3131Y6590D01*
X3252D01*
X3254Y6587D01*
X3260Y6579D01*
X3269Y6572D01*
X3279Y6568D01*
X3290Y6566D01*
X3301Y6568D01*
X3311Y6572D01*
X3319Y6579D01*
X3326Y6587D01*
X3330Y6597D01*
X3332Y6608D01*
X3330Y6619D01*
X3326Y6629D01*
X3319Y6638D01*
X3311Y6644D01*
X3301Y6649D01*
X3290Y6650D01*
X3279Y6649D01*
X3269Y6644D01*
X3260Y6638D01*
X3254Y6629D01*
X3252Y6626D01*
X3131D01*
X3129Y6629D01*
X3123Y6638D01*
X3114Y6644D01*
X3104Y6649D01*
X3093Y6650D01*
X3082Y6649D01*
X3072Y6644D01*
X3063Y6638D01*
X3057Y6629D01*
X3056Y6626D01*
X3046D01*
X2881Y6791D01*
X2882Y6794D01*
X2884Y6805D01*
X2882Y6816D01*
X2878Y6826D01*
X2871Y6835D01*
X2863Y6841D01*
X2853Y6845D01*
X2842Y6847D01*
X2831Y6845D01*
X2821Y6841D01*
X2812Y6835D01*
X2806Y6826D01*
X2804Y6823D01*
X2683D01*
X2681Y6826D01*
X2675Y6835D01*
X2666Y6841D01*
X2656Y6845D01*
X2645Y6847D01*
X2634Y6845D01*
X2624Y6841D01*
X2615Y6835D01*
X2609Y6826D01*
X2605Y6816D01*
X2603Y6805D01*
X2605Y6794D01*
X2609Y6784D01*
X2615Y6775D01*
X2624Y6769D01*
X2634Y6765D01*
X2645Y6763D01*
X2656Y6765D01*
X2666Y6769D01*
X2675Y6775D01*
X2681Y6784D01*
X2683Y6787D01*
X2804D01*
X2806Y6784D01*
X2812Y6775D01*
X2821Y6769D01*
X2831Y6765D01*
X2842Y6763D01*
X2853Y6765D01*
X2856Y6766D01*
X3026Y6596D01*
X3032Y6592D01*
X3039Y6590D01*
X3056D01*
X3057Y6587D01*
X3063Y6579D01*
X3072Y6572D01*
X3075Y6571D01*
Y6465D01*
X2856Y6246D01*
X2853Y6247D01*
X2842Y6249D01*
X2831Y6247D01*
X2821Y6243D01*
X2812Y6236D01*
X2806Y6228D01*
X2804Y6225D01*
X2683D01*
X2681Y6228D01*
X2675Y6236D01*
X2666Y6243D01*
X2656Y6247D01*
X2645Y6249D01*
X2634Y6247D01*
X2624Y6243D01*
X2616Y6236D01*
X2609Y6228D01*
X2605Y6218D01*
X2603Y6207D01*
X2605Y6196D01*
X2609Y6186D01*
X2616Y6177D01*
X2624Y6171D01*
X2634Y6166D01*
X2645Y6165D01*
X2656Y6166D01*
X2666Y6171D01*
X2675Y6177D01*
X2681Y6186D01*
X2683Y6189D01*
X2804D01*
X2806Y6186D01*
X2812Y6177D01*
X2821Y6171D01*
X2831Y6166D01*
X2842Y6165D01*
X2853Y6166D01*
X2856Y6168D01*
X3026Y5997D01*
X3032Y5994D01*
X3039Y5992D01*
X3056D01*
X3057Y5989D01*
X3063Y5980D01*
X3072Y5974D01*
X3082Y5970D01*
X3093Y5968D01*
X3104Y5970D01*
X3114Y5974D01*
X3123Y5980D01*
X3129Y5989D01*
X3131Y5992D01*
X3252D01*
X3254Y5989D01*
X3260Y5980D01*
X3269Y5974D01*
X3279Y5970D01*
X3290Y5968D01*
X3301Y5970D01*
X3304Y5971D01*
X3572Y5702D01*
Y4597D01*
X3567Y4595D01*
X3560Y4601D01*
X3550Y4605D01*
X3539Y4606D01*
X3528Y4605D01*
X3518Y4601D01*
X3510Y4594D01*
X3503Y4586D01*
X3499Y4576D01*
X3498Y4565D01*
X3499Y4554D01*
X3503Y4544D01*
X3510Y4536D01*
X3518Y4529D01*
X3528Y4525D01*
X3539Y4524D01*
X3550Y4525D01*
X3560Y4529D01*
X3567Y4535D01*
X3572Y4533D01*
Y4395D01*
X3570Y4394D01*
X3567Y4394D01*
X3559Y4400D01*
X3549Y4404D01*
X3539Y4405D01*
X3529Y4404D01*
X3519Y4400D01*
X3510Y4394D01*
X3504Y4385D01*
X3500Y4375D01*
X3499Y4365D01*
X3500Y4355D01*
X3504Y4345D01*
X3510Y4336D01*
X3519Y4330D01*
X3529Y4326D01*
X3539Y4325D01*
X3549Y4326D01*
X3559Y4330D01*
X3567Y4336D01*
X3570Y4336D01*
X3572Y4335D01*
Y4305D01*
X3574Y4298D01*
X3577Y4292D01*
X3601Y4269D01*
X3600Y4260D01*
X3601Y4251D01*
X3604Y4242D01*
X3610Y4235D01*
X3617Y4229D01*
X3626Y4226D01*
X3635Y4225D01*
X3644Y4226D01*
X3653Y4229D01*
X3660Y4235D01*
X3666Y4242D01*
X3669Y4251D01*
X3670Y4260D01*
X3669Y4269D01*
X3666Y4278D01*
X3660Y4285D01*
X3653Y4291D01*
X3644Y4294D01*
X3635Y4295D01*
X3626Y4294D01*
X3608Y4312D01*
Y4332D01*
X3613Y4335D01*
X3619Y4330D01*
X3629Y4326D01*
X3639Y4325D01*
X3649Y4326D01*
X3659Y4330D01*
X3668Y4336D01*
X3674Y4345D01*
X3678Y4355D01*
X3679Y4365D01*
X3678Y4375D01*
X3674Y4385D01*
X3668Y4394D01*
X3659Y4400D01*
X3649Y4404D01*
X3639Y4405D01*
X3629Y4404D01*
X3619Y4400D01*
X3613Y4395D01*
X3608Y4398D01*
Y4531D01*
X3613Y4533D01*
X3618Y4529D01*
X3628Y4525D01*
X3639Y4524D01*
X3650Y4525D01*
X3660Y4529D01*
X3666Y4534D01*
X3671Y4532D01*
Y4515D01*
X3673Y4508D01*
X3676Y4502D01*
X3801Y4378D01*
X3800Y4375D01*
X3799Y4365D01*
X3800Y4355D01*
X3804Y4345D01*
X3810Y4336D01*
X3815Y4333D01*
X3813Y4328D01*
X3801D01*
X3777Y4352D01*
X3778Y4355D01*
X3779Y4365D01*
X3778Y4375D01*
X3774Y4385D01*
X3768Y4394D01*
X3759Y4400D01*
X3749Y4404D01*
X3739Y4405D01*
X3729Y4404D01*
X3719Y4400D01*
X3710Y4394D01*
X3704Y4385D01*
X3700Y4375D01*
X3699Y4365D01*
X3700Y4355D01*
X3704Y4345D01*
X3710Y4336D01*
X3719Y4330D01*
X3729Y4326D01*
X3739Y4325D01*
X3749Y4326D01*
X3752Y4327D01*
X3781Y4298D01*
X3781Y4298D01*
X3787Y4294D01*
X3794Y4292D01*
X3860D01*
X3867Y4294D01*
X3873Y4298D01*
X3903Y4327D01*
X3906Y4333D01*
X3907Y4334D01*
X3912Y4335D01*
X3919Y4330D01*
X3929Y4326D01*
X3939Y4325D01*
X3949Y4326D01*
X3959Y4330D01*
X3968Y4336D01*
X3974Y4345D01*
X3978Y4355D01*
X3979Y4365D01*
X3978Y4375D01*
X3974Y4385D01*
X3968Y4394D01*
X3959Y4400D01*
X3949Y4404D01*
X3939Y4405D01*
X3929Y4404D01*
X3919Y4400D01*
X3913Y4395D01*
X3908Y4398D01*
Y4531D01*
X3913Y4533D01*
X3918Y4529D01*
X3928Y4525D01*
X3939Y4524D01*
X3950Y4525D01*
X3960Y4529D01*
X3968Y4536D01*
X3975Y4544D01*
X3979Y4554D01*
X3980Y4565D01*
X3979Y4576D01*
X3975Y4586D01*
X3968Y4594D01*
X3960Y4601D01*
X3950Y4605D01*
X3943Y4606D01*
X3941Y4611D01*
X3972Y4642D01*
X4148D01*
X4155Y4644D01*
X4161Y4647D01*
X4294Y4781D01*
X4297Y4780D01*
X4308Y4778D01*
X4319Y4780D01*
X4329Y4784D01*
X4338Y4790D01*
X4344Y4799D01*
X4346Y4802D01*
X4467D01*
X4469Y4799D01*
X4475Y4790D01*
X4484Y4784D01*
X4494Y4780D01*
X4505Y4778D01*
X4516Y4780D01*
X4526Y4784D01*
X4534Y4790D01*
X4541Y4799D01*
X4545Y4809D01*
X4547Y4820D01*
X4545Y4831D01*
X4541Y4841D01*
X4534Y4850D01*
X4526Y4856D01*
X4516Y4860D01*
X4505Y4862D01*
X4494Y4860D01*
X4484Y4856D01*
X4475Y4850D01*
X4469Y4841D01*
X4467Y4838D01*
X4346D01*
X4344Y4841D01*
X4338Y4850D01*
X4329Y4856D01*
X4319Y4860D01*
X4308Y4862D01*
X4297Y4860D01*
X4287Y4856D01*
X4278Y4850D01*
X4272Y4841D01*
X4271Y4838D01*
X4261D01*
X4096Y5003D01*
X4097Y5006D01*
X4099Y5017D01*
X4097Y5028D01*
X4093Y5038D01*
X4087Y5046D01*
X4078Y5053D01*
X4075Y5054D01*
Y5157D01*
X4294Y5376D01*
X4297Y5375D01*
X4308Y5373D01*
X4319Y5375D01*
X4329Y5379D01*
X4338Y5385D01*
X4344Y5394D01*
X4346Y5397D01*
X4467D01*
X4469Y5394D01*
X4475Y5385D01*
X4484Y5379D01*
X4494Y5375D01*
X4505Y5373D01*
X4516Y5375D01*
X4526Y5379D01*
X4534Y5385D01*
X4541Y5394D01*
X4545Y5404D01*
X4547Y5415D01*
X4545Y5426D01*
X4541Y5436D01*
X4534Y5445D01*
X4526Y5451D01*
X4516Y5455D01*
X4505Y5457D01*
X4494Y5455D01*
X4484Y5451D01*
X4475Y5445D01*
X4469Y5436D01*
X4467Y5433D01*
X4346D01*
X4344Y5436D01*
X4338Y5445D01*
X4329Y5451D01*
X4319Y5455D01*
X4308Y5457D01*
X4297Y5455D01*
X4294Y5454D01*
X4124Y5624D01*
X4118Y5628D01*
X4111Y5630D01*
X4094D01*
X4093Y5633D01*
X4087Y5641D01*
X4078Y5648D01*
X4068Y5652D01*
X4057Y5654D01*
X4046Y5652D01*
X4036Y5648D01*
X4027Y5641D01*
X4021Y5633D01*
X4019Y5630D01*
X3898D01*
X3896Y5633D01*
X3890Y5641D01*
X3881Y5648D01*
X3871Y5652D01*
X3860Y5654D01*
X3849Y5652D01*
X3839Y5648D01*
X3831Y5641D01*
X3824Y5633D01*
X3820Y5623D01*
X3818Y5612D01*
X3820Y5601D01*
X3824Y5591D01*
X3831Y5582D01*
X3839Y5576D01*
X3849Y5571D01*
X3860Y5570D01*
X3871Y5571D01*
X3881Y5576D01*
X3890Y5582D01*
X3896Y5591D01*
X3898Y5594D01*
X4019D01*
X4021Y5591D01*
X4027Y5582D01*
X4036Y5576D01*
X4046Y5571D01*
X4057Y5570D01*
X4068Y5571D01*
X4078Y5576D01*
X4087Y5582D01*
X4093Y5591D01*
X4094Y5594D01*
X4104D01*
X4269Y5429D01*
X4268Y5426D01*
X4266Y5415D01*
X4268Y5404D01*
X4269Y5401D01*
X4044Y5177D01*
X4040Y5171D01*
X4039Y5164D01*
Y5054D01*
X4036Y5053D01*
X4027Y5046D01*
X4021Y5038D01*
X4019Y5035D01*
X3898D01*
X3896Y5038D01*
X3890Y5046D01*
X3881Y5053D01*
X3871Y5057D01*
X3860Y5059D01*
X3849Y5057D01*
X3839Y5053D01*
X3831Y5046D01*
X3824Y5038D01*
X3820Y5028D01*
X3818Y5017D01*
X3820Y5006D01*
X3824Y4996D01*
X3831Y4987D01*
X3839Y4981D01*
X3849Y4976D01*
X3860Y4975D01*
X3871Y4976D01*
X3881Y4981D01*
X3890Y4987D01*
X3896Y4996D01*
X3898Y4999D01*
X4019D01*
X4021Y4996D01*
X4027Y4987D01*
X4036Y4981D01*
X4046Y4976D01*
X4057Y4975D01*
X4068Y4976D01*
X4071Y4978D01*
X4241Y4807D01*
X4247Y4804D01*
X4254Y4802D01*
X4258D01*
X4260Y4798D01*
X4141Y4678D01*
X3965D01*
X3958Y4676D01*
X3952Y4673D01*
X3877Y4598D01*
X3875Y4594D01*
X3869Y4593D01*
X3868Y4594D01*
X3860Y4601D01*
X3850Y4605D01*
X3839Y4606D01*
X3828Y4605D01*
X3818Y4601D01*
X3810Y4594D01*
X3803Y4586D01*
X3799Y4576D01*
X3798Y4565D01*
X3799Y4554D01*
X3803Y4544D01*
X3810Y4536D01*
X3818Y4529D01*
X3828Y4525D01*
X3839Y4524D01*
X3850Y4525D01*
X3860Y4529D01*
X3867Y4535D01*
X3872Y4533D01*
Y4395D01*
X3870Y4394D01*
X3867Y4394D01*
X3859Y4400D01*
X3849Y4404D01*
X3839Y4405D01*
X3829Y4404D01*
X3826Y4403D01*
X3707Y4522D01*
Y4532D01*
X3712Y4534D01*
X3718Y4529D01*
X3728Y4525D01*
X3739Y4524D01*
X3750Y4525D01*
X3760Y4529D01*
X3768Y4536D01*
X3775Y4544D01*
X3779Y4554D01*
X3780Y4565D01*
X3779Y4576D01*
X3775Y4586D01*
X3768Y4594D01*
X3760Y4601D01*
X3750Y4605D01*
X3739Y4606D01*
X3728Y4605D01*
X3718Y4601D01*
X3712Y4596D01*
X3707Y4598D01*
Y6028D01*
X3846Y6168D01*
X3849Y6166D01*
X3860Y6165D01*
X3871Y6166D01*
X3881Y6171D01*
X3890Y6177D01*
X3896Y6186D01*
X3898Y6189D01*
X4019D01*
X4021Y6186D01*
X4027Y6177D01*
X4036Y6171D01*
X4046Y6166D01*
X4057Y6165D01*
X4068Y6166D01*
X4078Y6171D01*
X4086Y6177D01*
X4093Y6186D01*
X4094Y6189D01*
X4104D01*
X4269Y6024D01*
X4268Y6021D01*
X4266Y6010D01*
X4268Y5999D01*
X4272Y5989D01*
X4279Y5980D01*
X4287Y5974D01*
X4297Y5970D01*
X4308Y5968D01*
X4319Y5970D01*
X4329Y5974D01*
X4338Y5980D01*
X4344Y5989D01*
X4346Y5992D01*
X4467D01*
X4469Y5989D01*
X4475Y5980D01*
X4484Y5974D01*
X4494Y5970D01*
X4505Y5968D01*
X4516Y5970D01*
X4526Y5974D01*
X4535Y5980D01*
X4541Y5989D01*
X4545Y5999D01*
X4547Y6010D01*
X4545Y6021D01*
X4541Y6031D01*
X4535Y6040D01*
X4526Y6046D01*
X4516Y6050D01*
X4505Y6052D01*
X4494Y6050D01*
X4484Y6046D01*
X4475Y6040D01*
X4469Y6031D01*
X4467Y6028D01*
X4346D01*
X4344Y6031D01*
X4338Y6040D01*
X4329Y6046D01*
X4319Y6050D01*
X4308Y6052D01*
X4297Y6050D01*
X4294Y6049D01*
X4124Y6219D01*
X4118Y6223D01*
X4111Y6225D01*
X4106D01*
X4105Y6229D01*
X4321Y6445D01*
X4325Y6451D01*
X4326Y6458D01*
Y6571D01*
X4329Y6572D01*
X4338Y6579D01*
X4344Y6587D01*
X4346Y6590D01*
X4467D01*
X4469Y6587D01*
X4475Y6579D01*
X4484Y6572D01*
X4494Y6568D01*
X4505Y6566D01*
X4516Y6568D01*
X4526Y6572D01*
X4534Y6579D01*
X4541Y6587D01*
X4545Y6597D01*
X4547Y6608D01*
X4545Y6619D01*
X4541Y6629D01*
X4534Y6638D01*
X4526Y6644D01*
X4516Y6649D01*
X4505Y6650D01*
X4494Y6649D01*
X4484Y6644D01*
X4475Y6638D01*
X4469Y6629D01*
X4467Y6626D01*
X4346D01*
X4344Y6629D01*
X4338Y6638D01*
X4329Y6644D01*
X4319Y6649D01*
X4308Y6650D01*
X4297Y6649D01*
X4287Y6644D01*
X4278Y6638D01*
X4272Y6629D01*
X4271Y6626D01*
X4261D01*
X4096Y6791D01*
X4097Y6794D01*
X4099Y6805D01*
X4097Y6816D01*
X4093Y6826D01*
X4086Y6835D01*
X4078Y6841D01*
X4068Y6845D01*
X4057Y6847D01*
D02*
G37*
G36*
Y6650D02*
X4046Y6649D01*
X4036Y6644D01*
X4027Y6638D01*
X4021Y6629D01*
X4018Y6623D01*
X3899D01*
X3896Y6629D01*
X3890Y6638D01*
X3881Y6644D01*
X3871Y6649D01*
X3860Y6650D01*
X3849Y6649D01*
X3839Y6644D01*
X3830Y6638D01*
X3824Y6629D01*
X3820Y6619D01*
X3818Y6608D01*
X3820Y6597D01*
X3824Y6587D01*
X3830Y6579D01*
X3839Y6572D01*
X3849Y6568D01*
X3860Y6566D01*
X3871Y6568D01*
X3881Y6572D01*
X3890Y6579D01*
X3896Y6587D01*
X3899Y6593D01*
X4018D01*
X4021Y6587D01*
X4027Y6579D01*
X4036Y6572D01*
X4046Y6568D01*
X4057Y6566D01*
X4068Y6568D01*
X4078Y6572D01*
X4086Y6579D01*
X4093Y6587D01*
X4097Y6597D01*
X4099Y6608D01*
X4097Y6619D01*
X4093Y6629D01*
X4086Y6638D01*
X4078Y6644D01*
X4068Y6649D01*
X4057Y6650D01*
D02*
G37*
G36*
X3290Y6847D02*
X3279Y6845D01*
X3269Y6841D01*
X3260Y6835D01*
X3254Y6826D01*
X3251Y6820D01*
X3132D01*
X3129Y6826D01*
X3123Y6835D01*
X3114Y6841D01*
X3104Y6845D01*
X3093Y6847D01*
X3082Y6845D01*
X3072Y6841D01*
X3063Y6835D01*
X3057Y6826D01*
X3053Y6816D01*
X3051Y6805D01*
X3053Y6794D01*
X3057Y6784D01*
X3063Y6775D01*
X3072Y6769D01*
X3082Y6765D01*
X3093Y6763D01*
X3104Y6765D01*
X3114Y6769D01*
X3123Y6775D01*
X3129Y6784D01*
X3132Y6790D01*
X3251D01*
X3254Y6784D01*
X3260Y6775D01*
X3269Y6769D01*
X3279Y6765D01*
X3290Y6763D01*
X3301Y6765D01*
X3311Y6769D01*
X3319Y6775D01*
X3326Y6784D01*
X3330Y6794D01*
X3332Y6805D01*
X3330Y6816D01*
X3326Y6826D01*
X3319Y6835D01*
X3311Y6841D01*
X3301Y6845D01*
X3290Y6847D01*
D02*
G37*
G36*
X2428Y6257D02*
X2414Y6255D01*
X2401Y6249D01*
X2389Y6241D01*
X2380Y6229D01*
X2375Y6216D01*
X2373Y6201D01*
X2375Y6187D01*
X2380Y6174D01*
X2389Y6162D01*
X2401Y6153D01*
X2414Y6148D01*
X2428Y6146D01*
X2443Y6148D01*
X2456Y6153D01*
X2468Y6162D01*
X2476Y6174D01*
X2482Y6187D01*
X2484Y6201D01*
X2482Y6216D01*
X2476Y6229D01*
X2468Y6241D01*
X2456Y6249D01*
X2443Y6255D01*
X2428Y6257D01*
D02*
G37*
G36*
X4057Y5457D02*
X4046Y5455D01*
X4036Y5451D01*
X4027Y5445D01*
X4021Y5436D01*
X4018Y5430D01*
X3899D01*
X3896Y5436D01*
X3890Y5445D01*
X3881Y5451D01*
X3871Y5455D01*
X3860Y5457D01*
X3849Y5455D01*
X3839Y5451D01*
X3831Y5445D01*
X3824Y5436D01*
X3820Y5426D01*
X3818Y5415D01*
X3820Y5404D01*
X3824Y5394D01*
X3831Y5385D01*
X3839Y5379D01*
X3849Y5375D01*
X3860Y5373D01*
X3871Y5375D01*
X3881Y5379D01*
X3890Y5385D01*
X3896Y5394D01*
X3899Y5400D01*
X4018D01*
X4021Y5394D01*
X4027Y5385D01*
X4036Y5379D01*
X4046Y5375D01*
X4057Y5373D01*
X4068Y5375D01*
X4078Y5379D01*
X4087Y5385D01*
X4093Y5394D01*
X4097Y5404D01*
X4099Y5415D01*
X4097Y5426D01*
X4093Y5436D01*
X4087Y5445D01*
X4078Y5451D01*
X4068Y5455D01*
X4057Y5457D01*
D02*
G37*
G36*
X3290Y5654D02*
X3279Y5652D01*
X3269Y5648D01*
X3260Y5641D01*
X3254Y5633D01*
X3251Y5627D01*
X3132D01*
X3129Y5633D01*
X3123Y5641D01*
X3114Y5648D01*
X3104Y5652D01*
X3093Y5654D01*
X3082Y5652D01*
X3072Y5648D01*
X3063Y5641D01*
X3057Y5633D01*
X3053Y5623D01*
X3051Y5612D01*
X3053Y5601D01*
X3057Y5591D01*
X3063Y5582D01*
X3072Y5576D01*
X3082Y5571D01*
X3093Y5570D01*
X3104Y5571D01*
X3114Y5576D01*
X3123Y5582D01*
X3129Y5591D01*
X3132Y5597D01*
X3251D01*
X3254Y5591D01*
X3260Y5582D01*
X3269Y5576D01*
X3279Y5571D01*
X3290Y5570D01*
X3301Y5571D01*
X3311Y5576D01*
X3319Y5582D01*
X3326Y5591D01*
X3330Y5601D01*
X3332Y5612D01*
X3330Y5623D01*
X3326Y5633D01*
X3319Y5641D01*
X3311Y5648D01*
X3301Y5652D01*
X3290Y5654D01*
D02*
G37*
G36*
X4505Y5059D02*
X4494Y5057D01*
X4484Y5053D01*
X4475Y5046D01*
X4469Y5038D01*
X4466Y5032D01*
X4347D01*
X4344Y5038D01*
X4338Y5046D01*
X4329Y5053D01*
X4319Y5057D01*
X4308Y5059D01*
X4297Y5057D01*
X4287Y5053D01*
X4278Y5046D01*
X4272Y5038D01*
X4268Y5028D01*
X4266Y5017D01*
X4268Y5006D01*
X4272Y4996D01*
X4278Y4987D01*
X4287Y4981D01*
X4297Y4976D01*
X4308Y4975D01*
X4319Y4976D01*
X4329Y4981D01*
X4338Y4987D01*
X4344Y4996D01*
X4347Y5002D01*
X4466D01*
X4469Y4996D01*
X4475Y4987D01*
X4484Y4981D01*
X4494Y4976D01*
X4505Y4975D01*
X4516Y4976D01*
X4526Y4981D01*
X4534Y4987D01*
X4541Y4996D01*
X4545Y5006D01*
X4547Y5017D01*
X4545Y5028D01*
X4541Y5038D01*
X4534Y5046D01*
X4526Y5053D01*
X4516Y5057D01*
X4505Y5059D01*
D02*
G37*
G36*
X2842Y5457D02*
X2831Y5455D01*
X2821Y5451D01*
X2812Y5445D01*
X2806Y5436D01*
X2803Y5430D01*
X2684D01*
X2681Y5436D01*
X2675Y5445D01*
X2666Y5451D01*
X2656Y5455D01*
X2645Y5457D01*
X2634Y5455D01*
X2624Y5451D01*
X2616Y5445D01*
X2609Y5436D01*
X2605Y5426D01*
X2603Y5415D01*
X2605Y5404D01*
X2609Y5394D01*
X2616Y5385D01*
X2624Y5379D01*
X2634Y5375D01*
X2645Y5373D01*
X2656Y5375D01*
X2666Y5379D01*
X2675Y5385D01*
X2681Y5394D01*
X2684Y5400D01*
X2803D01*
X2806Y5394D01*
X2812Y5385D01*
X2821Y5379D01*
X2831Y5375D01*
X2842Y5373D01*
X2853Y5375D01*
X2863Y5379D01*
X2872Y5385D01*
X2878Y5394D01*
X2882Y5404D01*
X2884Y5415D01*
X2882Y5426D01*
X2878Y5436D01*
X2872Y5445D01*
X2863Y5451D01*
X2853Y5455D01*
X2842Y5457D01*
D02*
G37*
G36*
Y6052D02*
X2831Y6050D01*
X2821Y6046D01*
X2812Y6040D01*
X2806Y6031D01*
X2803Y6025D01*
X2684D01*
X2681Y6031D01*
X2675Y6040D01*
X2666Y6046D01*
X2656Y6050D01*
X2645Y6052D01*
X2634Y6050D01*
X2624Y6046D01*
X2616Y6040D01*
X2609Y6031D01*
X2605Y6021D01*
X2603Y6010D01*
X2605Y5999D01*
X2609Y5989D01*
X2616Y5980D01*
X2624Y5974D01*
X2634Y5970D01*
X2645Y5968D01*
X2656Y5970D01*
X2666Y5974D01*
X2675Y5980D01*
X2681Y5989D01*
X2684Y5995D01*
X2803D01*
X2806Y5989D01*
X2812Y5980D01*
X2821Y5974D01*
X2831Y5970D01*
X2842Y5968D01*
X2853Y5970D01*
X2863Y5974D01*
X2872Y5980D01*
X2878Y5989D01*
X2882Y5999D01*
X2884Y6010D01*
X2882Y6021D01*
X2878Y6031D01*
X2872Y6040D01*
X2863Y6046D01*
X2853Y6050D01*
X2842Y6052D01*
D02*
G37*
G36*
X4057D02*
X4046Y6050D01*
X4036Y6046D01*
X4027Y6040D01*
X4021Y6031D01*
X4018Y6025D01*
X3899D01*
X3896Y6031D01*
X3890Y6040D01*
X3881Y6046D01*
X3871Y6050D01*
X3860Y6052D01*
X3849Y6050D01*
X3839Y6046D01*
X3830Y6040D01*
X3824Y6031D01*
X3820Y6021D01*
X3818Y6010D01*
X3820Y5999D01*
X3824Y5989D01*
X3830Y5980D01*
X3839Y5974D01*
X3849Y5970D01*
X3860Y5968D01*
X3871Y5970D01*
X3881Y5974D01*
X3890Y5980D01*
X3896Y5989D01*
X3899Y5995D01*
X4018D01*
X4021Y5989D01*
X4027Y5980D01*
X4036Y5974D01*
X4046Y5970D01*
X4057Y5968D01*
X4068Y5970D01*
X4078Y5974D01*
X4086Y5980D01*
X4093Y5989D01*
X4097Y5999D01*
X4099Y6010D01*
X4097Y6021D01*
X4093Y6031D01*
X4086Y6040D01*
X4078Y6046D01*
X4068Y6050D01*
X4057Y6052D01*
D02*
G37*
G36*
X4505Y5654D02*
X4494Y5652D01*
X4484Y5648D01*
X4475Y5641D01*
X4469Y5633D01*
X4466Y5627D01*
X4347D01*
X4344Y5633D01*
X4338Y5641D01*
X4329Y5648D01*
X4319Y5652D01*
X4308Y5654D01*
X4297Y5652D01*
X4287Y5648D01*
X4278Y5641D01*
X4272Y5633D01*
X4268Y5623D01*
X4266Y5612D01*
X4268Y5601D01*
X4272Y5591D01*
X4278Y5582D01*
X4287Y5576D01*
X4297Y5571D01*
X4308Y5570D01*
X4319Y5571D01*
X4329Y5576D01*
X4338Y5582D01*
X4344Y5591D01*
X4347Y5597D01*
X4466D01*
X4469Y5591D01*
X4475Y5582D01*
X4484Y5576D01*
X4494Y5571D01*
X4505Y5570D01*
X4516Y5571D01*
X4526Y5576D01*
X4534Y5582D01*
X4541Y5591D01*
X4545Y5601D01*
X4547Y5612D01*
X4545Y5623D01*
X4541Y5633D01*
X4534Y5641D01*
X4526Y5648D01*
X4516Y5652D01*
X4505Y5654D01*
D02*
G37*
G36*
X2842D02*
X2831Y5652D01*
X2821Y5648D01*
X2812Y5641D01*
X2806Y5633D01*
X2804Y5630D01*
X2683D01*
X2681Y5633D01*
X2675Y5641D01*
X2666Y5648D01*
X2656Y5652D01*
X2645Y5654D01*
X2634Y5652D01*
X2624Y5648D01*
X2616Y5641D01*
X2609Y5633D01*
X2605Y5623D01*
X2603Y5612D01*
X2605Y5601D01*
X2609Y5591D01*
X2616Y5582D01*
X2624Y5576D01*
X2634Y5571D01*
X2645Y5570D01*
X2656Y5571D01*
X2666Y5576D01*
X2675Y5582D01*
X2681Y5591D01*
X2683Y5594D01*
X2804D01*
X2806Y5591D01*
X2812Y5582D01*
X2821Y5576D01*
X2831Y5571D01*
X2842Y5570D01*
X2853Y5571D01*
X2863Y5576D01*
X2872Y5582D01*
X2878Y5591D01*
X2879Y5594D01*
X2889D01*
X3054Y5429D01*
X3053Y5426D01*
X3051Y5415D01*
X3053Y5404D01*
X3057Y5394D01*
X3063Y5385D01*
X3072Y5379D01*
X3075Y5377D01*
Y5275D01*
X2856Y5056D01*
X2853Y5057D01*
X2842Y5059D01*
X2831Y5057D01*
X2821Y5053D01*
X2812Y5046D01*
X2806Y5038D01*
X2804Y5035D01*
X2683D01*
X2681Y5038D01*
X2675Y5046D01*
X2666Y5053D01*
X2656Y5057D01*
X2645Y5059D01*
X2634Y5057D01*
X2624Y5053D01*
X2616Y5046D01*
X2609Y5038D01*
X2605Y5028D01*
X2603Y5017D01*
X2605Y5006D01*
X2609Y4996D01*
X2616Y4987D01*
X2624Y4981D01*
X2634Y4976D01*
X2645Y4975D01*
X2656Y4976D01*
X2666Y4981D01*
X2675Y4987D01*
X2681Y4996D01*
X2683Y4999D01*
X2804D01*
X2806Y4996D01*
X2812Y4987D01*
X2821Y4981D01*
X2831Y4976D01*
X2842Y4975D01*
X2853Y4976D01*
X2863Y4981D01*
X2872Y4987D01*
X2878Y4996D01*
X2879Y4999D01*
X2889D01*
X3054Y4834D01*
X3053Y4831D01*
X3051Y4820D01*
X3053Y4809D01*
X3057Y4799D01*
X3063Y4790D01*
X3072Y4784D01*
X3082Y4780D01*
X3093Y4778D01*
X3104Y4780D01*
X3114Y4784D01*
X3123Y4790D01*
X3129Y4799D01*
X3131Y4802D01*
X3252D01*
X3254Y4799D01*
X3260Y4790D01*
X3269Y4784D01*
X3279Y4780D01*
X3290Y4778D01*
X3301Y4780D01*
X3311Y4784D01*
X3319Y4790D01*
X3326Y4799D01*
X3330Y4809D01*
X3332Y4820D01*
X3330Y4831D01*
X3326Y4841D01*
X3319Y4850D01*
X3311Y4856D01*
X3301Y4860D01*
X3290Y4862D01*
X3279Y4860D01*
X3269Y4856D01*
X3260Y4850D01*
X3254Y4841D01*
X3252Y4838D01*
X3131D01*
X3129Y4841D01*
X3123Y4850D01*
X3114Y4856D01*
X3104Y4860D01*
X3093Y4862D01*
X3082Y4860D01*
X3079Y4859D01*
X2909Y5029D01*
X2903Y5033D01*
X2896Y5035D01*
X2892D01*
X2890Y5039D01*
X3106Y5255D01*
X3110Y5261D01*
X3111Y5268D01*
Y5377D01*
X3114Y5379D01*
X3123Y5385D01*
X3129Y5394D01*
X3131Y5397D01*
X3252D01*
X3254Y5394D01*
X3260Y5385D01*
X3269Y5379D01*
X3279Y5375D01*
X3290Y5373D01*
X3301Y5375D01*
X3311Y5379D01*
X3319Y5385D01*
X3326Y5394D01*
X3330Y5404D01*
X3332Y5415D01*
X3330Y5426D01*
X3326Y5436D01*
X3319Y5445D01*
X3311Y5451D01*
X3301Y5455D01*
X3290Y5457D01*
X3279Y5455D01*
X3269Y5451D01*
X3260Y5445D01*
X3254Y5436D01*
X3252Y5433D01*
X3131D01*
X3129Y5436D01*
X3123Y5445D01*
X3114Y5451D01*
X3104Y5455D01*
X3093Y5457D01*
X3082Y5455D01*
X3079Y5454D01*
X2909Y5624D01*
X2903Y5628D01*
X2896Y5630D01*
X2879D01*
X2878Y5633D01*
X2872Y5641D01*
X2863Y5648D01*
X2853Y5652D01*
X2842Y5654D01*
D02*
G37*
%LPD*%
D12*
X4039Y3765D02*
Y4065D01*
X4139Y4165D01*
X4209Y4235D02*
X4539Y4565D01*
X4009Y4235D02*
X4209D01*
X4139Y4065D02*
X4239Y4165D01*
X4139Y3765D02*
Y4065D01*
X2685Y4570D02*
X2735Y4520D01*
Y4069D02*
Y4520D01*
Y4069D02*
X3039Y3765D01*
X2785Y4570D02*
X2860Y4495D01*
Y4044D02*
Y4495D01*
Y4044D02*
X3139Y3765D01*
X3880Y4290D02*
X4170D01*
X3755Y4165D02*
X3880Y4290D01*
X3739Y4165D02*
X3755D01*
X4239Y4359D02*
Y4565D01*
X4170Y4290D02*
X4239Y4359D01*
X3939Y4165D02*
X4009Y4235D01*
X3639Y4065D02*
X3739Y4165D01*
X3339Y4065D02*
X3639D01*
X3239Y4165D02*
X3339Y4065D01*
X3039Y4365D02*
X3239Y4165D01*
X3939Y4065D02*
X4039Y4165D01*
X3939Y3765D02*
Y4065D01*
X3860Y6608D02*
X4057D01*
X4308Y6805D02*
X4505D01*
X4308Y6207D02*
X4505D01*
X3860Y6010D02*
X4057D01*
X4308Y5612D02*
X4505D01*
X3860Y5415D02*
X4057D01*
X3860Y4820D02*
X4057D01*
X3093Y5017D02*
X3290D01*
X2645Y4820D02*
X2842D01*
X3093Y5612D02*
X3290D01*
X2645Y5415D02*
X2842D01*
X2645Y6010D02*
X2842D01*
X2645Y6608D02*
X2842D01*
X3093Y6207D02*
X3290D01*
X3093Y6805D02*
X3290D01*
X3239Y4365D02*
Y4565D01*
X4308Y5017D02*
X4505D01*
X3439Y4165D02*
Y4565D01*
X3139Y4365D02*
Y4565D01*
X3339Y4165D02*
Y4565D01*
D13*
X3689Y6036D02*
X3860Y6207D01*
X3689Y4515D02*
Y6036D01*
Y4515D02*
X3839Y4365D01*
X4439Y4519D02*
Y4565D01*
X4185Y4265D02*
X4439Y4519D01*
X3939Y4265D02*
X4185D01*
X2327Y4313D02*
X2742Y3898D01*
X2815D01*
X3794Y4310D02*
X3860D01*
X3739Y4365D02*
X3794Y4310D01*
X3860D02*
X3890Y4340D01*
Y4585D01*
X3965Y4660D02*
X4148D01*
X3890Y4585D02*
X3965Y4660D01*
X3839Y4165D02*
X3939Y4265D01*
X3839Y4545D02*
Y4565D01*
X3093Y4820D02*
X3290D01*
X3839Y3765D02*
Y3965D01*
X3739Y3765D02*
Y3965D01*
X3639Y3765D02*
Y3965D01*
X3539Y3765D02*
Y3965D01*
X3439Y3765D02*
Y3965D01*
X3339Y3765D02*
Y3965D01*
X3239Y3765D02*
Y3965D01*
X4057Y5164D02*
X4308Y5415D01*
X4057Y5017D02*
Y5164D01*
X2842Y5017D02*
X3093Y5268D01*
Y5415D01*
X4057Y6805D02*
X4254Y6608D01*
X4308D01*
X4505D01*
X3860Y6805D02*
X4057D01*
X4111Y6207D02*
X4308Y6010D01*
X4057Y6207D02*
X4111D01*
X4308Y6010D02*
X4505D01*
X3860Y6207D02*
X4057D01*
X4111Y5612D02*
X4308Y5415D01*
X4057Y5612D02*
X4111D01*
X4308Y5415D02*
X4505D01*
X3860Y5612D02*
X4057D01*
Y5017D02*
X4254Y4820D01*
X3860Y5017D02*
X4057D01*
X2896Y5612D02*
X3093Y5415D01*
X2842Y5612D02*
X2896D01*
Y5017D02*
X3093Y4820D01*
X2842Y5017D02*
X2896D01*
X2645D02*
X2842D01*
X3093Y5415D02*
X3290D01*
X2645Y5612D02*
X2842D01*
Y6207D02*
X3039Y6010D01*
X2645Y6207D02*
X2842D01*
X2842Y6805D02*
X3039Y6608D01*
X2645Y6805D02*
X2842D01*
X4057Y6207D02*
X4308Y6458D01*
Y6608D01*
X3093Y6010D02*
X3290D01*
X3039D02*
X3093D01*
X2842Y6207D02*
X3093Y6458D01*
Y6608D02*
X3290D01*
X3093Y6458D02*
Y6608D01*
X3039D02*
X3093D01*
X2190Y6372D02*
X2218Y6400D01*
X3290Y6010D02*
X3590Y5710D01*
X4308Y4820D02*
X4505D01*
X4254D02*
X4308D01*
X4148Y4660D02*
X4308Y4820D01*
X3590Y4305D02*
Y5710D01*
Y4305D02*
X3635Y4260D01*
X2327Y4313D02*
Y4656D01*
D14*
X4139Y3765D02*
D03*
X4039D02*
D03*
X3939D02*
D03*
X3839D02*
D03*
X3739D02*
D03*
X3639D02*
D03*
X3539D02*
D03*
X3439D02*
D03*
X3339D02*
D03*
X3239D02*
D03*
X3139D02*
D03*
X3039D02*
D03*
Y4565D02*
D03*
X3139D02*
D03*
X3239D02*
D03*
X3339D02*
D03*
X3439D02*
D03*
X3539D02*
D03*
X3639D02*
D03*
X3739D02*
D03*
X3839D02*
D03*
X3939D02*
D03*
X4039D02*
D03*
X4139D02*
D03*
X4239D02*
D03*
X4339D02*
D03*
X4439D02*
D03*
X4539D02*
D03*
D15*
X4689Y3815D02*
D03*
Y4515D02*
D03*
D16*
X2785Y4570D02*
D03*
X2685D02*
D03*
X3239Y4365D02*
D03*
X3139D02*
D03*
X3539D02*
D03*
X3739D02*
D03*
X3839D02*
D03*
X4139D02*
D03*
X4039D02*
D03*
X3639D02*
D03*
X3939D02*
D03*
X3239Y3965D02*
D03*
X3439D02*
D03*
X3539D02*
D03*
X3839D02*
D03*
X3739D02*
D03*
X3339D02*
D03*
X3639D02*
D03*
X3339Y4165D02*
D03*
X3439D02*
D03*
X3539D02*
D03*
X3839D02*
D03*
X3939D02*
D03*
X4239D02*
D03*
X4139D02*
D03*
X3739D02*
D03*
X4039D02*
D03*
D17*
X2585Y4570D02*
D03*
X3039Y4365D02*
D03*
X3239Y4165D02*
D03*
D18*
X4308Y5017D02*
D03*
X4505D02*
D03*
Y4820D02*
D03*
X4308D02*
D03*
X4057Y5017D02*
D03*
X3860D02*
D03*
Y4820D02*
D03*
X4057D02*
D03*
X4308Y5612D02*
D03*
X4505D02*
D03*
Y5415D02*
D03*
X4308D02*
D03*
X4057Y5612D02*
D03*
X3860D02*
D03*
Y5415D02*
D03*
X4057D02*
D03*
X4308Y6207D02*
D03*
X4505D02*
D03*
Y6010D02*
D03*
X4308D02*
D03*
X4057Y6207D02*
D03*
X3860D02*
D03*
Y6010D02*
D03*
X4057D02*
D03*
X4308Y6805D02*
D03*
X4505D02*
D03*
Y6608D02*
D03*
X4308D02*
D03*
X4057Y6805D02*
D03*
X3860D02*
D03*
Y6608D02*
D03*
X4057D02*
D03*
X3093Y5017D02*
D03*
X3290D02*
D03*
Y4820D02*
D03*
X3093D02*
D03*
X2842Y5017D02*
D03*
X2645D02*
D03*
Y4820D02*
D03*
X2842D02*
D03*
X3093Y5612D02*
D03*
X3290D02*
D03*
Y5415D02*
D03*
X3093D02*
D03*
X2842Y5612D02*
D03*
X2645D02*
D03*
Y5415D02*
D03*
X2842D02*
D03*
X3093Y6207D02*
D03*
X3290D02*
D03*
Y6010D02*
D03*
X3093D02*
D03*
X2842Y6207D02*
D03*
X2645D02*
D03*
Y6010D02*
D03*
X2842D02*
D03*
X3093Y6805D02*
D03*
X3290D02*
D03*
Y6608D02*
D03*
X3093D02*
D03*
X2842Y6805D02*
D03*
X2645D02*
D03*
Y6608D02*
D03*
X2842D02*
D03*
D19*
X2130Y3815D02*
D03*
X4689Y6875D02*
D03*
X2130D02*
D03*
D20*
X2098Y4866D02*
D03*
Y6156D02*
D03*
X2428Y4821D02*
D03*
X2428Y6201D02*
D03*
D21*
X2331Y4656D02*
D03*
X2194D02*
D03*
D22*
Y6367D02*
D03*
D23*
X2815Y3898D02*
D03*
X3600Y6800D02*
D03*
X4495Y4095D02*
D03*
X2550Y5200D02*
D03*
X3300D02*
D03*
X4500D02*
D03*
X4700Y5750D02*
D03*
Y6400D02*
D03*
X4150D02*
D03*
X2550Y5750D02*
D03*
X4700Y5200D02*
D03*
X4150Y5750D02*
D03*
X2550Y6400D02*
D03*
X3635Y4260D02*
D03*
M02*
