G04 Layer_Physical_Order=1*
G04 Layer_Color=255*
%FSLAX23Y23*%
%MOIN*%
G70*
G01*
G75*
%ADD10R,0.106X0.079*%
%ADD11R,0.058X0.014*%
%ADD12R,0.056X0.022*%
%ADD13C,0.010*%
%ADD14C,0.012*%
%ADD15C,0.030*%
%ADD16C,0.098*%
%ADD17R,0.059X0.059*%
%ADD18C,0.059*%
%ADD19C,0.209*%
%ADD20C,0.050*%
G36*
X5416Y4312D02*
X1891D01*
Y6312D01*
X2398D01*
X2398Y6307D01*
X2391Y6306D01*
X2383Y6300D01*
X2315Y6232D01*
X2248D01*
X2244Y6231D01*
X2241Y6229D01*
X2238Y6226D01*
X2238Y6222D01*
Y6143D01*
X2238Y6139D01*
X2241Y6136D01*
X2244Y6133D01*
X2248Y6133D01*
X2354D01*
X2358Y6133D01*
X2361Y6136D01*
X2364Y6139D01*
X2364Y6143D01*
Y6210D01*
X2411Y6257D01*
X2968D01*
X2970Y6252D01*
X2954Y6236D01*
X2951Y6237D01*
X2941Y6236D01*
X2931Y6232D01*
X2923Y6225D01*
X2916Y6217D01*
X2912Y6207D01*
X2911Y6197D01*
X2912Y6187D01*
X2916Y6177D01*
X2923Y6169D01*
X2931Y6162D01*
X2941Y6158D01*
X2951Y6157D01*
X2961Y6158D01*
X2971Y6162D01*
X2979Y6169D01*
X2986Y6177D01*
X2990Y6187D01*
X2991Y6197D01*
X2990Y6200D01*
X3047Y6257D01*
X3823D01*
X3825Y6252D01*
X3810Y6237D01*
X3801Y6236D01*
X3791Y6232D01*
X3783Y6225D01*
X3776Y6217D01*
X3772Y6207D01*
X3771Y6197D01*
X3772Y6187D01*
X3776Y6177D01*
X3783Y6169D01*
X3791Y6162D01*
X3801Y6158D01*
X3811Y6157D01*
X3821Y6158D01*
X3831Y6162D01*
X3839Y6169D01*
X3846Y6177D01*
X3850Y6187D01*
X3851Y6197D01*
X3850Y6205D01*
X3902Y6257D01*
X4673D01*
X4675Y6252D01*
X4659Y6236D01*
X4656Y6237D01*
X4646Y6236D01*
X4636Y6232D01*
X4628Y6225D01*
X4621Y6217D01*
X4617Y6207D01*
X4616Y6197D01*
X4617Y6187D01*
X4621Y6177D01*
X4628Y6169D01*
X4636Y6162D01*
X4646Y6158D01*
X4656Y6157D01*
X4666Y6158D01*
X4676Y6162D01*
X4684Y6169D01*
X4691Y6177D01*
X4695Y6187D01*
X4696Y6197D01*
X4695Y6200D01*
X4752Y6257D01*
X5018D01*
X5020Y6252D01*
X5005Y6237D01*
X4943D01*
X4939Y6236D01*
X4936Y6234D01*
X4933Y6230D01*
X4933Y6226D01*
Y6148D01*
X4933Y6144D01*
X4936Y6141D01*
X4939Y6138D01*
X4943Y6138D01*
X5049D01*
X5053Y6138D01*
X5056Y6141D01*
X5059Y6144D01*
X5059Y6148D01*
Y6219D01*
X5097Y6257D01*
X5255D01*
X5331Y6181D01*
Y5298D01*
X5251Y5218D01*
X5243Y5220D01*
X5231Y5221D01*
X5219Y5220D01*
X5208Y5217D01*
X5198Y5211D01*
X5189Y5204D01*
X5182Y5195D01*
X5176Y5185D01*
X5173Y5174D01*
X5172Y5162D01*
X5173Y5150D01*
X5176Y5139D01*
X5182Y5129D01*
X5189Y5120D01*
X5198Y5113D01*
X5208Y5107D01*
X5219Y5104D01*
X5231Y5103D01*
X5243Y5104D01*
X5251Y5106D01*
X5331Y5026D01*
Y4393D01*
X5310Y4372D01*
X5077D01*
X5062Y4387D01*
X5064Y4389D01*
X5064Y4393D01*
Y4471D01*
X5064Y4475D01*
X5061Y4478D01*
X5058Y4481D01*
X5054Y4481D01*
X4948D01*
X4944Y4481D01*
X4941Y4478D01*
X4938Y4475D01*
X4938Y4471D01*
Y4393D01*
X4938Y4389D01*
X4941Y4385D01*
X4944Y4383D01*
X4948Y4382D01*
X4995D01*
X5000Y4377D01*
X4998Y4372D01*
X4747D01*
X4690Y4429D01*
X4691Y4432D01*
X4690Y4442D01*
X4686Y4452D01*
X4679Y4460D01*
X4671Y4467D01*
X4661Y4471D01*
X4651Y4472D01*
X4641Y4471D01*
X4631Y4467D01*
X4623Y4460D01*
X4616Y4452D01*
X4612Y4442D01*
X4611Y4432D01*
X4612Y4422D01*
X4616Y4412D01*
X4623Y4404D01*
X4631Y4397D01*
X4641Y4393D01*
X4651Y4392D01*
X4654Y4393D01*
X4670Y4377D01*
X4668Y4372D01*
X3902D01*
X3845Y4429D01*
X3846Y4432D01*
X3845Y4442D01*
X3841Y4452D01*
X3834Y4460D01*
X3826Y4467D01*
X3816Y4471D01*
X3806Y4472D01*
X3796Y4471D01*
X3786Y4467D01*
X3778Y4460D01*
X3771Y4452D01*
X3767Y4442D01*
X3766Y4432D01*
X3767Y4422D01*
X3771Y4412D01*
X3778Y4404D01*
X3786Y4397D01*
X3796Y4393D01*
X3806Y4392D01*
X3809Y4393D01*
X3825Y4377D01*
X3823Y4372D01*
X3052D01*
X2995Y4429D01*
X2996Y4432D01*
X2995Y4442D01*
X2991Y4452D01*
X2984Y4460D01*
X2976Y4467D01*
X2966Y4471D01*
X2956Y4472D01*
X2946Y4471D01*
X2936Y4467D01*
X2928Y4460D01*
X2921Y4452D01*
X2917Y4442D01*
X2916Y4432D01*
X2917Y4422D01*
X2921Y4412D01*
X2928Y4404D01*
X2936Y4397D01*
X2946Y4393D01*
X2956Y4392D01*
X2959Y4393D01*
X2975Y4377D01*
X2973Y4372D01*
X2411D01*
X2369Y4415D01*
Y4481D01*
X2369Y4485D01*
X2366Y4488D01*
X2363Y4491D01*
X2359Y4491D01*
X2253D01*
X2249Y4491D01*
X2246Y4488D01*
X2243Y4485D01*
X2243Y4481D01*
Y4403D01*
X2243Y4399D01*
X2246Y4395D01*
X2249Y4393D01*
X2253Y4392D01*
X2320D01*
X2383Y4329D01*
X2391Y4323D01*
X2401Y4322D01*
X5321D01*
X5331Y4323D01*
X5339Y4329D01*
X5374Y4364D01*
X5380Y4372D01*
X5381Y4382D01*
Y5037D01*
X5380Y5047D01*
X5374Y5055D01*
X5287Y5142D01*
X5289Y5150D01*
X5290Y5162D01*
X5289Y5174D01*
X5287Y5182D01*
X5374Y5269D01*
X5380Y5277D01*
X5381Y5287D01*
Y6192D01*
X5380Y6202D01*
X5374Y6210D01*
X5284Y6300D01*
X5276Y6306D01*
X5268Y6307D01*
X5269Y6312D01*
X5416D01*
Y4312D01*
D02*
G37*
%LPC*%
G36*
X5231Y4941D02*
X5219Y4940D01*
X5208Y4937D01*
X5198Y4931D01*
X5189Y4924D01*
X5182Y4915D01*
X5176Y4905D01*
X5173Y4894D01*
X5172Y4882D01*
X5173Y4870D01*
X5176Y4859D01*
X5182Y4849D01*
X5189Y4840D01*
X5198Y4833D01*
X5208Y4827D01*
X5219Y4824D01*
X5231Y4823D01*
X5243Y4824D01*
X5254Y4827D01*
X5264Y4833D01*
X5273Y4840D01*
X5280Y4849D01*
X5286Y4859D01*
X5289Y4870D01*
X5290Y4882D01*
X5289Y4894D01*
X5286Y4905D01*
X5280Y4915D01*
X5273Y4924D01*
X5264Y4931D01*
X5254Y4937D01*
X5243Y4940D01*
X5231Y4941D01*
D02*
G37*
G36*
X2766Y5117D02*
X2736D01*
X2737Y5113D01*
X2740Y5104D01*
X2746Y5097D01*
X2753Y5091D01*
X2762Y5088D01*
X2766Y5087D01*
Y5117D01*
D02*
G37*
G36*
X4881Y5137D02*
X4851D01*
X4852Y5133D01*
X4855Y5124D01*
X4861Y5117D01*
X4868Y5111D01*
X4877Y5108D01*
X4881Y5107D01*
Y5137D01*
D02*
G37*
G36*
X2806Y5117D02*
X2776D01*
Y5087D01*
X2780Y5088D01*
X2789Y5091D01*
X2796Y5097D01*
X2802Y5104D01*
X2805Y5113D01*
X2806Y5117D01*
D02*
G37*
G36*
X3431Y5007D02*
X3422Y5006D01*
X3413Y5003D01*
X3406Y4997D01*
X3400Y4990D01*
X3397Y4981D01*
X3396Y4972D01*
X3397Y4963D01*
X3400Y4954D01*
X3406Y4947D01*
X3413Y4941D01*
X3415Y4941D01*
Y4842D01*
X3378D01*
X3374Y4841D01*
X3371Y4839D01*
X3368Y4835D01*
X3368Y4831D01*
Y4753D01*
X3368Y4749D01*
X3371Y4746D01*
X3374Y4743D01*
X3378Y4743D01*
X3484D01*
X3488Y4743D01*
X3491Y4746D01*
X3494Y4749D01*
X3494Y4753D01*
Y4831D01*
X3494Y4835D01*
X3491Y4839D01*
X3488Y4841D01*
X3484Y4842D01*
X3447D01*
Y4941D01*
X3449Y4941D01*
X3456Y4947D01*
X3462Y4954D01*
X3465Y4963D01*
X3466Y4972D01*
X3465Y4981D01*
X3462Y4990D01*
X3456Y4997D01*
X3449Y5003D01*
X3440Y5006D01*
X3431Y5007D01*
D02*
G37*
G36*
X4551Y4927D02*
X4542Y4926D01*
X4533Y4923D01*
X4526Y4917D01*
X4520Y4910D01*
X4517Y4901D01*
X4516Y4892D01*
X4517Y4883D01*
X4520Y4874D01*
X4526Y4867D01*
X4533Y4861D01*
X4535Y4861D01*
Y4848D01*
X4507Y4821D01*
X4481D01*
X4477Y4820D01*
X4474Y4818D01*
X4472Y4814D01*
X4471Y4811D01*
Y4788D01*
X4472Y4785D01*
X4474Y4781D01*
X4477Y4779D01*
X4481Y4778D01*
X4537D01*
X4541Y4779D01*
X4544Y4781D01*
X4545Y4783D01*
X4618D01*
Y4748D01*
X4618Y4744D01*
X4621Y4741D01*
X4624Y4738D01*
X4628Y4738D01*
X4734D01*
X4738Y4738D01*
X4741Y4741D01*
X4744Y4744D01*
X4744Y4748D01*
Y4826D01*
X4744Y4830D01*
X4741Y4834D01*
X4738Y4836D01*
X4734Y4837D01*
X4628D01*
X4624Y4836D01*
X4621Y4834D01*
X4618Y4830D01*
X4618Y4826D01*
Y4816D01*
X4555D01*
X4553Y4820D01*
X4563Y4830D01*
X4566Y4835D01*
X4567Y4841D01*
Y4861D01*
X4569Y4861D01*
X4576Y4867D01*
X4582Y4874D01*
X4585Y4883D01*
X4586Y4892D01*
X4585Y4901D01*
X4582Y4910D01*
X4576Y4917D01*
X4569Y4923D01*
X4560Y4926D01*
X4551Y4927D01*
D02*
G37*
G36*
X2771Y5052D02*
X2762Y5051D01*
X2753Y5048D01*
X2746Y5042D01*
X2740Y5035D01*
X2737Y5026D01*
X2736Y5017D01*
X2737Y5008D01*
X2740Y5001D01*
Y4857D01*
X2703D01*
X2699Y4856D01*
X2696Y4854D01*
X2693Y4850D01*
X2693Y4846D01*
Y4768D01*
X2693Y4764D01*
X2696Y4761D01*
X2699Y4758D01*
X2703Y4758D01*
X2809D01*
X2813Y4758D01*
X2816Y4761D01*
X2819Y4764D01*
X2819Y4768D01*
Y4846D01*
X2819Y4850D01*
X2816Y4854D01*
X2813Y4856D01*
X2809Y4857D01*
X2772D01*
Y4982D01*
X2780Y4983D01*
X2789Y4986D01*
X2796Y4992D01*
X2802Y4999D01*
X2805Y5008D01*
X2806Y5017D01*
X2805Y5026D01*
X2802Y5035D01*
X2796Y5042D01*
X2789Y5048D01*
X2780Y5051D01*
X2771Y5052D01*
D02*
G37*
G36*
X3006Y5207D02*
X2997Y5206D01*
X2988Y5203D01*
X2981Y5197D01*
X2975Y5190D01*
X2972Y5181D01*
X2971Y5172D01*
X2972Y5163D01*
X2975Y5154D01*
X2981Y5147D01*
X2988Y5141D01*
X2990Y5141D01*
Y4980D01*
X2986Y4977D01*
X2980Y4970D01*
X2977Y4961D01*
X2976Y4952D01*
X2977Y4943D01*
X2980Y4934D01*
X2986Y4927D01*
X2993Y4921D01*
X3002Y4918D01*
X3011Y4917D01*
X3020Y4918D01*
X3021Y4918D01*
X3089Y4851D01*
X3087Y4847D01*
X3078D01*
X3074Y4846D01*
X3071Y4844D01*
X3068Y4840D01*
X3068Y4836D01*
Y4813D01*
X2992D01*
X2985Y4812D01*
X2980Y4809D01*
X2972Y4801D01*
X2946D01*
X2942Y4800D01*
X2939Y4798D01*
X2937Y4794D01*
X2936Y4791D01*
Y4768D01*
X2937Y4765D01*
X2939Y4761D01*
X2942Y4759D01*
X2946Y4758D01*
X3002D01*
X3006Y4759D01*
X3009Y4761D01*
X3011Y4765D01*
X3012Y4768D01*
Y4781D01*
X3068D01*
Y4758D01*
X3068Y4754D01*
X3071Y4751D01*
X3074Y4748D01*
X3078Y4748D01*
X3184D01*
X3188Y4748D01*
X3191Y4751D01*
X3194Y4754D01*
X3194Y4758D01*
Y4836D01*
X3194Y4840D01*
X3191Y4844D01*
X3188Y4846D01*
X3184Y4847D01*
X3139D01*
X3045Y4942D01*
X3045Y4943D01*
X3046Y4952D01*
X3045Y4961D01*
X3042Y4970D01*
X3036Y4977D01*
X3029Y4983D01*
X3022Y4985D01*
Y5141D01*
X3024Y5141D01*
X3031Y5147D01*
X3037Y5154D01*
X3040Y5163D01*
X3041Y5172D01*
X3040Y5181D01*
X3037Y5190D01*
X3031Y5197D01*
X3024Y5203D01*
X3015Y5206D01*
X3006Y5207D01*
D02*
G37*
G36*
X4171Y5397D02*
X4141D01*
Y5367D01*
X4145Y5368D01*
X4154Y5371D01*
X4161Y5377D01*
X4167Y5384D01*
X4170Y5393D01*
X4171Y5397D01*
D02*
G37*
G36*
X4891Y5177D02*
Y5147D01*
X4921D01*
X4920Y5151D01*
X4917Y5160D01*
X4911Y5167D01*
X4904Y5173D01*
X4895Y5176D01*
X4891Y5177D01*
D02*
G37*
G36*
X5231Y5501D02*
X5219Y5500D01*
X5208Y5497D01*
X5198Y5491D01*
X5189Y5484D01*
X5182Y5475D01*
X5176Y5465D01*
X5173Y5454D01*
X5172Y5442D01*
X5173Y5430D01*
X5176Y5419D01*
X5182Y5409D01*
X5189Y5400D01*
X5198Y5393D01*
X5208Y5387D01*
X5219Y5384D01*
X5231Y5383D01*
X5243Y5384D01*
X5254Y5387D01*
X5264Y5393D01*
X5273Y5400D01*
X5280Y5409D01*
X5286Y5419D01*
X5289Y5430D01*
X5290Y5442D01*
X5289Y5454D01*
X5286Y5465D01*
X5280Y5475D01*
X5273Y5484D01*
X5264Y5491D01*
X5254Y5497D01*
X5243Y5500D01*
X5231Y5501D01*
D02*
G37*
G36*
X4131Y5397D02*
X4101D01*
X4102Y5393D01*
X4105Y5384D01*
X4107Y5383D01*
X4103Y5379D01*
X4099Y5383D01*
X4090Y5386D01*
X4081Y5387D01*
X4072Y5386D01*
X4063Y5383D01*
X4056Y5377D01*
X4050Y5370D01*
X4050Y5368D01*
X4013D01*
X4007Y5367D01*
X4001Y5364D01*
X3975Y5337D01*
X3870D01*
X3870Y5337D01*
X3866Y5338D01*
X3808D01*
X3804Y5337D01*
X3801Y5335D01*
X3799Y5331D01*
X3798Y5327D01*
Y5313D01*
X3799Y5309D01*
X3800Y5308D01*
X3799Y5306D01*
X3798Y5302D01*
Y5288D01*
X3799Y5284D01*
X3800Y5282D01*
X3799Y5280D01*
X3798Y5276D01*
Y5262D01*
X3799Y5258D01*
X3800Y5256D01*
X3799Y5255D01*
X3798Y5251D01*
Y5237D01*
X3799Y5233D01*
X3801Y5229D01*
X3804Y5227D01*
X3808Y5226D01*
X3866D01*
X3870Y5227D01*
X3870Y5227D01*
X3943D01*
X3985Y5184D01*
X3991Y5181D01*
X3991Y5181D01*
X3991Y5178D01*
X3991Y5176D01*
X3983Y5173D01*
X3976Y5167D01*
X3970Y5160D01*
X3970Y5159D01*
X3965Y5160D01*
X3966Y5167D01*
X3965Y5176D01*
X3961Y5184D01*
X3956Y5192D01*
X3948Y5197D01*
X3940Y5201D01*
X3931Y5202D01*
X3922Y5201D01*
X3913Y5197D01*
X3906Y5192D01*
X3900Y5184D01*
X3900Y5183D01*
X3878D01*
X3876Y5185D01*
Y5199D01*
X3875Y5203D01*
X3873Y5207D01*
X3870Y5209D01*
X3866Y5210D01*
X3808D01*
X3804Y5209D01*
X3801Y5207D01*
X3799Y5203D01*
X3798Y5199D01*
Y5185D01*
X3799Y5182D01*
X3800Y5180D01*
X3799Y5178D01*
X3798Y5174D01*
Y5160D01*
X3799Y5156D01*
X3800Y5154D01*
X3799Y5152D01*
X3798Y5148D01*
Y5134D01*
X3799Y5130D01*
X3801Y5127D01*
X3804Y5125D01*
X3808Y5124D01*
X3831D01*
X3845Y5110D01*
X3850Y5107D01*
X3856Y5106D01*
X3966D01*
X3972Y5107D01*
X3978Y5110D01*
X3981Y5114D01*
X3983Y5111D01*
X3992Y5108D01*
X4001Y5107D01*
X4010Y5108D01*
X4019Y5111D01*
X4026Y5117D01*
X4032Y5124D01*
X4035Y5133D01*
X4036Y5142D01*
X4035Y5151D01*
X4032Y5160D01*
X4026Y5167D01*
X4019Y5173D01*
X4014Y5175D01*
X4015Y5180D01*
X4275D01*
X4281Y5181D01*
X4287Y5184D01*
X4361Y5258D01*
X4362Y5258D01*
X4371Y5257D01*
X4380Y5258D01*
X4389Y5261D01*
X4396Y5267D01*
X4402Y5274D01*
X4405Y5283D01*
X4406Y5292D01*
X4405Y5301D01*
X4402Y5310D01*
X4396Y5317D01*
X4389Y5323D01*
X4380Y5326D01*
X4371Y5327D01*
X4362Y5326D01*
X4353Y5323D01*
X4346Y5317D01*
X4340Y5310D01*
X4337Y5301D01*
X4336Y5292D01*
X4337Y5283D01*
X4337Y5282D01*
X4268Y5212D01*
X4091D01*
X4091Y5217D01*
X4095Y5218D01*
X4104Y5221D01*
X4111Y5227D01*
X4117Y5234D01*
X4120Y5243D01*
X4121Y5252D01*
X4120Y5261D01*
X4117Y5270D01*
X4111Y5277D01*
X4104Y5283D01*
X4095Y5286D01*
X4086Y5287D01*
X4077Y5286D01*
X4068Y5283D01*
X4061Y5277D01*
X4061Y5276D01*
X4057Y5279D01*
X4060Y5288D01*
X4061Y5297D01*
X4060Y5306D01*
X4057Y5315D01*
X4051Y5322D01*
X4044Y5328D01*
X4036Y5331D01*
X4037Y5336D01*
X4050D01*
X4050Y5334D01*
X4056Y5327D01*
X4063Y5321D01*
X4072Y5318D01*
X4081Y5317D01*
X4090Y5318D01*
X4099Y5321D01*
X4106Y5327D01*
X4112Y5334D01*
X4115Y5343D01*
X4116Y5352D01*
X4115Y5361D01*
X4112Y5370D01*
X4110Y5371D01*
X4114Y5375D01*
X4118Y5371D01*
X4127Y5368D01*
X4131Y5367D01*
Y5397D01*
D02*
G37*
G36*
X2766Y5157D02*
X2762Y5156D01*
X2753Y5153D01*
X2746Y5147D01*
X2740Y5140D01*
X2737Y5131D01*
X2736Y5127D01*
X2766D01*
Y5157D01*
D02*
G37*
G36*
X4921Y5137D02*
X4891D01*
Y5107D01*
X4895Y5108D01*
X4904Y5111D01*
X4911Y5117D01*
X4917Y5124D01*
X4920Y5133D01*
X4921Y5137D01*
D02*
G37*
G36*
X4881Y5177D02*
X4877Y5176D01*
X4868Y5173D01*
X4861Y5167D01*
X4855Y5160D01*
X4852Y5151D01*
X4851Y5147D01*
X4881D01*
Y5177D01*
D02*
G37*
G36*
X2776Y5157D02*
Y5127D01*
X2806D01*
X2805Y5131D01*
X2802Y5140D01*
X2796Y5147D01*
X2789Y5153D01*
X2780Y5156D01*
X2776Y5157D01*
D02*
G37*
G36*
X2891Y5157D02*
X2882Y5156D01*
X2873Y5153D01*
X2866Y5147D01*
X2860Y5140D01*
X2857Y5131D01*
X2856Y5122D01*
X2857Y5113D01*
X2860Y5104D01*
X2866Y5097D01*
X2873Y5091D01*
X2880Y5089D01*
Y4988D01*
X2878Y4988D01*
X2871Y4982D01*
X2865Y4975D01*
X2862Y4966D01*
X2861Y4957D01*
X2862Y4948D01*
X2865Y4939D01*
X2871Y4932D01*
X2878Y4926D01*
X2880Y4926D01*
Y4763D01*
X2870D01*
X2866Y4762D01*
X2863Y4760D01*
X2861Y4757D01*
X2860Y4753D01*
Y4731D01*
X2861Y4727D01*
X2863Y4724D01*
X2866Y4722D01*
X2870Y4721D01*
X2926D01*
X2930Y4722D01*
X2933Y4724D01*
X2935Y4727D01*
X2936Y4731D01*
Y4753D01*
X2935Y4757D01*
X2933Y4760D01*
X2930Y4762D01*
X2926Y4763D01*
X2912D01*
Y4926D01*
X2914Y4926D01*
X2921Y4932D01*
X2927Y4939D01*
X2930Y4948D01*
X2931Y4957D01*
X2930Y4966D01*
X2927Y4975D01*
X2921Y4982D01*
X2914Y4988D01*
X2912Y4988D01*
Y5094D01*
X2916Y5097D01*
X2922Y5104D01*
X2925Y5113D01*
X2926Y5122D01*
X2925Y5131D01*
X2922Y5140D01*
X2916Y5147D01*
X2909Y5153D01*
X2900Y5156D01*
X2891Y5157D01*
D02*
G37*
G36*
X3606Y4472D02*
X3596Y4471D01*
X3586Y4467D01*
X3578Y4460D01*
X3571Y4452D01*
X3567Y4442D01*
X3566Y4432D01*
X3567Y4422D01*
X3571Y4412D01*
X3578Y4404D01*
X3586Y4397D01*
X3596Y4393D01*
X3606Y4392D01*
X3616Y4393D01*
X3626Y4397D01*
X3634Y4404D01*
X3641Y4412D01*
X3645Y4422D01*
X3646Y4432D01*
X3645Y4442D01*
X3641Y4452D01*
X3634Y4460D01*
X3626Y4467D01*
X3616Y4471D01*
X3606Y4472D01*
D02*
G37*
G36*
X3306D02*
X3296Y4471D01*
X3286Y4467D01*
X3278Y4460D01*
X3271Y4452D01*
X3267Y4442D01*
X3266Y4432D01*
X3267Y4422D01*
X3271Y4412D01*
X3278Y4404D01*
X3286Y4397D01*
X3296Y4393D01*
X3306Y4392D01*
X3316Y4393D01*
X3326Y4397D01*
X3334Y4404D01*
X3341Y4412D01*
X3345Y4422D01*
X3346Y4432D01*
X3345Y4442D01*
X3341Y4452D01*
X3334Y4460D01*
X3326Y4467D01*
X3316Y4471D01*
X3306Y4472D01*
D02*
G37*
G36*
X3906D02*
X3896Y4471D01*
X3886Y4467D01*
X3878Y4460D01*
X3871Y4452D01*
X3867Y4442D01*
X3866Y4432D01*
X3867Y4422D01*
X3871Y4412D01*
X3878Y4404D01*
X3886Y4397D01*
X3896Y4393D01*
X3906Y4392D01*
X3916Y4393D01*
X3926Y4397D01*
X3934Y4404D01*
X3941Y4412D01*
X3945Y4422D01*
X3946Y4432D01*
X3945Y4442D01*
X3941Y4452D01*
X3934Y4460D01*
X3926Y4467D01*
X3916Y4471D01*
X3906Y4472D01*
D02*
G37*
G36*
X3706D02*
X3696Y4471D01*
X3686Y4467D01*
X3678Y4460D01*
X3671Y4452D01*
X3667Y4442D01*
X3666Y4432D01*
X3667Y4422D01*
X3671Y4412D01*
X3678Y4404D01*
X3686Y4397D01*
X3696Y4393D01*
X3706Y4392D01*
X3716Y4393D01*
X3726Y4397D01*
X3734Y4404D01*
X3741Y4412D01*
X3745Y4422D01*
X3746Y4432D01*
X3745Y4442D01*
X3741Y4452D01*
X3734Y4460D01*
X3726Y4467D01*
X3716Y4471D01*
X3706Y4472D01*
D02*
G37*
G36*
X2756D02*
X2746Y4471D01*
X2736Y4467D01*
X2728Y4460D01*
X2721Y4452D01*
X2717Y4442D01*
X2716Y4432D01*
X2717Y4422D01*
X2721Y4412D01*
X2728Y4404D01*
X2736Y4397D01*
X2746Y4393D01*
X2756Y4392D01*
X2766Y4393D01*
X2776Y4397D01*
X2784Y4404D01*
X2791Y4412D01*
X2795Y4422D01*
X2796Y4432D01*
X2795Y4442D01*
X2791Y4452D01*
X2784Y4460D01*
X2776Y4467D01*
X2766Y4471D01*
X2756Y4472D01*
D02*
G37*
G36*
X2456D02*
X2446Y4471D01*
X2436Y4467D01*
X2428Y4460D01*
X2421Y4452D01*
X2417Y4442D01*
X2416Y4432D01*
X2417Y4422D01*
X2421Y4412D01*
X2428Y4404D01*
X2436Y4397D01*
X2446Y4393D01*
X2456Y4392D01*
X2466Y4393D01*
X2476Y4397D01*
X2484Y4404D01*
X2491Y4412D01*
X2495Y4422D01*
X2496Y4432D01*
X2495Y4442D01*
X2491Y4452D01*
X2484Y4460D01*
X2476Y4467D01*
X2466Y4471D01*
X2456Y4472D01*
D02*
G37*
G36*
X3056D02*
X3046Y4471D01*
X3036Y4467D01*
X3028Y4460D01*
X3021Y4452D01*
X3017Y4442D01*
X3016Y4432D01*
X3017Y4422D01*
X3021Y4412D01*
X3028Y4404D01*
X3036Y4397D01*
X3046Y4393D01*
X3056Y4392D01*
X3066Y4393D01*
X3076Y4397D01*
X3084Y4404D01*
X3091Y4412D01*
X3095Y4422D01*
X3096Y4432D01*
X3095Y4442D01*
X3091Y4452D01*
X3084Y4460D01*
X3076Y4467D01*
X3066Y4471D01*
X3056Y4472D01*
D02*
G37*
G36*
X2856D02*
X2846Y4471D01*
X2836Y4467D01*
X2828Y4460D01*
X2821Y4452D01*
X2817Y4442D01*
X2816Y4432D01*
X2817Y4422D01*
X2821Y4412D01*
X2828Y4404D01*
X2836Y4397D01*
X2846Y4393D01*
X2856Y4392D01*
X2866Y4393D01*
X2876Y4397D01*
X2884Y4404D01*
X2891Y4412D01*
X2895Y4422D01*
X2896Y4432D01*
X2895Y4442D01*
X2891Y4452D01*
X2884Y4460D01*
X2876Y4467D01*
X2866Y4471D01*
X2856Y4472D01*
D02*
G37*
G36*
X4151D02*
X4141Y4471D01*
X4131Y4467D01*
X4123Y4460D01*
X4116Y4452D01*
X4112Y4442D01*
X4111Y4432D01*
X4112Y4422D01*
X4116Y4412D01*
X4123Y4404D01*
X4131Y4397D01*
X4141Y4393D01*
X4151Y4392D01*
X4161Y4393D01*
X4171Y4397D01*
X4179Y4404D01*
X4186Y4412D01*
X4190Y4422D01*
X4191Y4432D01*
X4190Y4442D01*
X4186Y4452D01*
X4179Y4460D01*
X4171Y4467D01*
X4161Y4471D01*
X4151Y4472D01*
D02*
G37*
G36*
X2809Y4746D02*
X2703D01*
X2699Y4746D01*
X2696Y4743D01*
X2693Y4740D01*
X2693Y4736D01*
Y4658D01*
X2693Y4654D01*
X2696Y4650D01*
X2699Y4648D01*
X2703Y4647D01*
X2809D01*
X2813Y4648D01*
X2816Y4650D01*
X2819Y4654D01*
X2819Y4658D01*
Y4681D01*
X2966D01*
X2973Y4682D01*
X2975Y4683D01*
X3002D01*
X3006Y4684D01*
X3009Y4686D01*
X3010Y4688D01*
X3068D01*
Y4648D01*
X3068Y4644D01*
X3071Y4640D01*
X3074Y4638D01*
X3078Y4637D01*
X3184D01*
X3188Y4638D01*
X3191Y4640D01*
X3194Y4644D01*
X3194Y4648D01*
Y4726D01*
X3194Y4730D01*
X3191Y4733D01*
X3188Y4736D01*
X3184Y4736D01*
X3078D01*
X3074Y4736D01*
X3071Y4733D01*
X3068Y4730D01*
X3068Y4726D01*
Y4721D01*
X3010D01*
X3009Y4723D01*
X3006Y4725D01*
X3002Y4726D01*
X2946D01*
X2942Y4725D01*
X2939Y4723D01*
X2937Y4719D01*
X2936Y4715D01*
Y4713D01*
X2819D01*
Y4736D01*
X2819Y4740D01*
X2816Y4743D01*
X2813Y4746D01*
X2809Y4746D01*
D02*
G37*
G36*
X5231Y4661D02*
X5219Y4660D01*
X5208Y4657D01*
X5198Y4651D01*
X5189Y4644D01*
X5182Y4635D01*
X5176Y4625D01*
X5173Y4614D01*
X5172Y4602D01*
X5173Y4590D01*
X5176Y4579D01*
X5182Y4569D01*
X5189Y4560D01*
X5198Y4553D01*
X5208Y4547D01*
X5219Y4544D01*
X5231Y4543D01*
X5243Y4544D01*
X5254Y4547D01*
X5264Y4553D01*
X5273Y4560D01*
X5280Y4569D01*
X5286Y4579D01*
X5289Y4590D01*
X5290Y4602D01*
X5289Y4614D01*
X5286Y4625D01*
X5280Y4635D01*
X5273Y4644D01*
X5264Y4651D01*
X5254Y4657D01*
X5243Y4660D01*
X5231Y4661D01*
D02*
G37*
G36*
X4371Y4937D02*
X4362Y4936D01*
X4353Y4933D01*
X4346Y4927D01*
X4340Y4920D01*
X4337Y4911D01*
X4336Y4902D01*
X4337Y4893D01*
X4340Y4884D01*
X4346Y4877D01*
X4353Y4871D01*
X4355Y4871D01*
Y4824D01*
X4356Y4818D01*
X4359Y4812D01*
X4395Y4776D01*
X4395Y4773D01*
Y4751D01*
X4396Y4747D01*
X4398Y4744D01*
X4401Y4742D01*
X4405Y4741D01*
X4460D01*
X4461Y4738D01*
X4462Y4737D01*
X4462Y4736D01*
X4429Y4703D01*
X4344D01*
Y4731D01*
X4344Y4735D01*
X4341Y4738D01*
X4338Y4741D01*
X4334Y4741D01*
X4228D01*
X4224Y4741D01*
X4221Y4738D01*
X4218Y4735D01*
X4218Y4731D01*
Y4653D01*
X4218Y4649D01*
X4221Y4645D01*
X4224Y4643D01*
X4228Y4642D01*
X4299D01*
X4300Y4642D01*
X4306Y4641D01*
X4312Y4642D01*
X4313Y4642D01*
X4334D01*
X4338Y4643D01*
X4341Y4645D01*
X4344Y4649D01*
X4344Y4653D01*
Y4671D01*
X4436D01*
X4442Y4672D01*
X4448Y4675D01*
X4477Y4704D01*
X4477Y4704D01*
X4481Y4703D01*
X4527D01*
X4559Y4670D01*
X4565Y4667D01*
X4571Y4666D01*
X4618D01*
Y4638D01*
X4618Y4634D01*
X4621Y4630D01*
X4624Y4628D01*
X4628Y4627D01*
X4734D01*
X4738Y4628D01*
X4741Y4630D01*
X4744Y4634D01*
X4744Y4638D01*
Y4716D01*
X4744Y4720D01*
X4741Y4723D01*
X4738Y4726D01*
X4734Y4726D01*
X4628D01*
X4624Y4726D01*
X4621Y4723D01*
X4618Y4720D01*
X4618Y4716D01*
Y4698D01*
X4578D01*
X4547Y4729D01*
Y4735D01*
X4546Y4739D01*
X4544Y4743D01*
X4541Y4745D01*
X4537Y4746D01*
X4481D01*
X4477Y4745D01*
X4475Y4744D01*
X4474Y4744D01*
X4474Y4745D01*
X4471Y4749D01*
X4471Y4751D01*
Y4773D01*
X4470Y4777D01*
X4468Y4780D01*
X4465Y4782D01*
X4461Y4783D01*
X4435D01*
X4387Y4831D01*
Y4871D01*
X4389Y4871D01*
X4396Y4877D01*
X4402Y4884D01*
X4405Y4893D01*
X4406Y4902D01*
X4405Y4911D01*
X4402Y4920D01*
X4396Y4927D01*
X4389Y4933D01*
X4380Y4936D01*
X4371Y4937D01*
D02*
G37*
G36*
X5231Y4801D02*
X5219Y4800D01*
X5208Y4797D01*
X5198Y4791D01*
X5189Y4784D01*
X5182Y4775D01*
X5176Y4765D01*
X5173Y4754D01*
X5172Y4742D01*
X5173Y4730D01*
X5176Y4719D01*
X5182Y4709D01*
X5189Y4700D01*
X5198Y4693D01*
X5208Y4687D01*
X5219Y4684D01*
X5231Y4683D01*
X5243Y4684D01*
X5254Y4687D01*
X5264Y4693D01*
X5273Y4700D01*
X5280Y4709D01*
X5286Y4719D01*
X5289Y4730D01*
X5290Y4742D01*
X5289Y4754D01*
X5286Y4765D01*
X5280Y4775D01*
X5273Y4784D01*
X5264Y4791D01*
X5254Y4797D01*
X5243Y4800D01*
X5231Y4801D01*
D02*
G37*
G36*
X4551Y4472D02*
X4541Y4471D01*
X4531Y4467D01*
X4523Y4460D01*
X4516Y4452D01*
X4512Y4442D01*
X4511Y4432D01*
X4512Y4422D01*
X4516Y4412D01*
X4523Y4404D01*
X4531Y4397D01*
X4541Y4393D01*
X4551Y4392D01*
X4561Y4393D01*
X4571Y4397D01*
X4579Y4404D01*
X4586Y4412D01*
X4590Y4422D01*
X4591Y4432D01*
X4590Y4442D01*
X4586Y4452D01*
X4579Y4460D01*
X4571Y4467D01*
X4561Y4471D01*
X4551Y4472D01*
D02*
G37*
G36*
X4451D02*
X4441Y4471D01*
X4431Y4467D01*
X4423Y4460D01*
X4416Y4452D01*
X4412Y4442D01*
X4411Y4432D01*
X4412Y4422D01*
X4416Y4412D01*
X4423Y4404D01*
X4431Y4397D01*
X4441Y4393D01*
X4451Y4392D01*
X4461Y4393D01*
X4471Y4397D01*
X4479Y4404D01*
X4486Y4412D01*
X4490Y4422D01*
X4491Y4432D01*
X4490Y4442D01*
X4486Y4452D01*
X4479Y4460D01*
X4471Y4467D01*
X4461Y4471D01*
X4451Y4472D01*
D02*
G37*
G36*
X5231Y4521D02*
X5219Y4520D01*
X5208Y4517D01*
X5198Y4511D01*
X5189Y4504D01*
X5182Y4495D01*
X5176Y4485D01*
X5173Y4474D01*
X5172Y4462D01*
X5173Y4450D01*
X5176Y4439D01*
X5182Y4429D01*
X5189Y4420D01*
X5198Y4413D01*
X5208Y4407D01*
X5219Y4404D01*
X5231Y4403D01*
X5243Y4404D01*
X5254Y4407D01*
X5264Y4413D01*
X5273Y4420D01*
X5280Y4429D01*
X5286Y4439D01*
X5289Y4450D01*
X5290Y4462D01*
X5289Y4474D01*
X5286Y4485D01*
X5280Y4495D01*
X5273Y4504D01*
X5264Y4511D01*
X5254Y4517D01*
X5243Y4520D01*
X5231Y4521D01*
D02*
G37*
G36*
X4751Y4472D02*
X4741Y4471D01*
X4731Y4467D01*
X4723Y4460D01*
X4716Y4452D01*
X4712Y4442D01*
X4711Y4432D01*
X4712Y4422D01*
X4716Y4412D01*
X4723Y4404D01*
X4731Y4397D01*
X4741Y4393D01*
X4751Y4392D01*
X4761Y4393D01*
X4771Y4397D01*
X4779Y4404D01*
X4786Y4412D01*
X4790Y4422D01*
X4791Y4432D01*
X4790Y4442D01*
X4786Y4452D01*
X4779Y4460D01*
X4771Y4467D01*
X4761Y4471D01*
X4751Y4472D01*
D02*
G37*
G36*
X4131Y5437D02*
X4127Y5436D01*
X4118Y5433D01*
X4111Y5427D01*
X4105Y5420D01*
X4102Y5411D01*
X4101Y5407D01*
X4131D01*
Y5437D01*
D02*
G37*
G36*
X2751Y6237D02*
X2741Y6236D01*
X2731Y6232D01*
X2723Y6225D01*
X2716Y6217D01*
X2712Y6207D01*
X2711Y6197D01*
X2712Y6187D01*
X2716Y6177D01*
X2723Y6169D01*
X2731Y6162D01*
X2741Y6158D01*
X2751Y6157D01*
X2761Y6158D01*
X2771Y6162D01*
X2779Y6169D01*
X2786Y6177D01*
X2790Y6187D01*
X2791Y6197D01*
X2790Y6207D01*
X2786Y6217D01*
X2779Y6225D01*
X2771Y6232D01*
X2761Y6236D01*
X2751Y6237D01*
D02*
G37*
G36*
X2451D02*
X2441Y6236D01*
X2431Y6232D01*
X2423Y6225D01*
X2416Y6217D01*
X2412Y6207D01*
X2411Y6197D01*
X2412Y6187D01*
X2416Y6177D01*
X2423Y6169D01*
X2431Y6162D01*
X2441Y6158D01*
X2451Y6157D01*
X2461Y6158D01*
X2471Y6162D01*
X2479Y6169D01*
X2486Y6177D01*
X2490Y6187D01*
X2491Y6197D01*
X2490Y6207D01*
X2486Y6217D01*
X2479Y6225D01*
X2471Y6232D01*
X2461Y6236D01*
X2451Y6237D01*
D02*
G37*
G36*
X3051D02*
X3041Y6236D01*
X3031Y6232D01*
X3023Y6225D01*
X3016Y6217D01*
X3012Y6207D01*
X3011Y6197D01*
X3012Y6187D01*
X3016Y6177D01*
X3023Y6169D01*
X3031Y6162D01*
X3041Y6158D01*
X3051Y6157D01*
X3061Y6158D01*
X3071Y6162D01*
X3079Y6169D01*
X3086Y6177D01*
X3090Y6187D01*
X3091Y6197D01*
X3090Y6207D01*
X3086Y6217D01*
X3079Y6225D01*
X3071Y6232D01*
X3061Y6236D01*
X3051Y6237D01*
D02*
G37*
G36*
X2851D02*
X2841Y6236D01*
X2831Y6232D01*
X2823Y6225D01*
X2816Y6217D01*
X2812Y6207D01*
X2811Y6197D01*
X2812Y6187D01*
X2816Y6177D01*
X2823Y6169D01*
X2831Y6162D01*
X2841Y6158D01*
X2851Y6157D01*
X2861Y6158D01*
X2871Y6162D01*
X2879Y6169D01*
X2886Y6177D01*
X2890Y6187D01*
X2891Y6197D01*
X2890Y6207D01*
X2886Y6217D01*
X2879Y6225D01*
X2871Y6232D01*
X2861Y6236D01*
X2851Y6237D01*
D02*
G37*
G36*
X5231Y6201D02*
X5219Y6200D01*
X5208Y6197D01*
X5198Y6191D01*
X5189Y6184D01*
X5182Y6175D01*
X5176Y6165D01*
X5173Y6154D01*
X5172Y6142D01*
X5172Y6136D01*
X5084Y6049D01*
X5081Y6043D01*
X5080Y6037D01*
Y5829D01*
X4264Y5013D01*
X4162D01*
X4162Y5015D01*
X4156Y5022D01*
X4149Y5028D01*
X4140Y5031D01*
X4131Y5032D01*
X4122Y5031D01*
X4113Y5028D01*
X4106Y5022D01*
X4100Y5015D01*
X4097Y5006D01*
X4096Y4997D01*
X4097Y4988D01*
X4100Y4979D01*
X4106Y4972D01*
X4113Y4966D01*
X4122Y4963D01*
X4131Y4962D01*
X4140Y4963D01*
X4149Y4966D01*
X4156Y4972D01*
X4162Y4979D01*
X4162Y4981D01*
X4271D01*
X4275Y4982D01*
X4278Y4977D01*
X4234Y4933D01*
X4182D01*
X4182Y4935D01*
X4176Y4942D01*
X4169Y4948D01*
X4160Y4951D01*
X4151Y4952D01*
X4142Y4951D01*
X4133Y4948D01*
X4126Y4942D01*
X4120Y4935D01*
X4117Y4926D01*
X4116Y4917D01*
X4117Y4908D01*
X4120Y4899D01*
X4126Y4892D01*
X4133Y4886D01*
X4142Y4883D01*
X4151Y4882D01*
X4160Y4883D01*
X4169Y4886D01*
X4176Y4892D01*
X4182Y4899D01*
X4182Y4901D01*
X4241D01*
X4247Y4902D01*
X4253Y4905D01*
X4280Y4933D01*
X4284Y4930D01*
X4284Y4926D01*
Y4852D01*
X4228D01*
X4224Y4851D01*
X4221Y4849D01*
X4218Y4845D01*
X4218Y4841D01*
Y4763D01*
X4218Y4759D01*
X4221Y4756D01*
X4224Y4753D01*
X4228Y4753D01*
X4334D01*
X4338Y4753D01*
X4341Y4756D01*
X4344Y4759D01*
X4344Y4763D01*
Y4841D01*
X4344Y4845D01*
X4341Y4849D01*
X4338Y4851D01*
X4334Y4852D01*
X4316D01*
Y4919D01*
X5206Y5808D01*
X5208Y5807D01*
X5219Y5804D01*
X5231Y5803D01*
X5243Y5804D01*
X5254Y5807D01*
X5264Y5813D01*
X5273Y5820D01*
X5280Y5829D01*
X5286Y5839D01*
X5289Y5850D01*
X5290Y5862D01*
X5289Y5874D01*
X5286Y5885D01*
X5280Y5895D01*
X5273Y5904D01*
X5264Y5911D01*
X5254Y5917D01*
X5243Y5920D01*
X5231Y5921D01*
X5219Y5920D01*
X5208Y5917D01*
X5198Y5911D01*
X5189Y5904D01*
X5182Y5895D01*
X5176Y5885D01*
X5173Y5874D01*
X5172Y5862D01*
X5173Y5850D01*
X5176Y5839D01*
X5181Y5830D01*
X5166Y5815D01*
X5161Y5818D01*
X5162Y5822D01*
Y5887D01*
X5219Y5944D01*
X5219Y5944D01*
X5231Y5943D01*
X5243Y5944D01*
X5254Y5947D01*
X5264Y5953D01*
X5273Y5960D01*
X5280Y5969D01*
X5286Y5979D01*
X5289Y5990D01*
X5290Y6002D01*
X5289Y6014D01*
X5286Y6025D01*
X5280Y6035D01*
X5273Y6044D01*
X5264Y6051D01*
X5254Y6057D01*
X5243Y6060D01*
X5231Y6061D01*
X5219Y6060D01*
X5208Y6057D01*
X5198Y6051D01*
X5189Y6044D01*
X5182Y6035D01*
X5176Y6025D01*
X5173Y6014D01*
X5172Y6002D01*
X5173Y5990D01*
X5176Y5979D01*
X5182Y5969D01*
X5189Y5960D01*
X5189Y5960D01*
X5134Y5905D01*
X5131Y5900D01*
X5130Y5894D01*
Y5829D01*
X5116Y5815D01*
X5111Y5818D01*
X5112Y5822D01*
Y6030D01*
X5183Y6101D01*
X5188Y6101D01*
X5189Y6100D01*
X5198Y6093D01*
X5208Y6087D01*
X5219Y6084D01*
X5231Y6083D01*
X5243Y6084D01*
X5254Y6087D01*
X5264Y6093D01*
X5273Y6100D01*
X5280Y6109D01*
X5286Y6119D01*
X5289Y6130D01*
X5290Y6142D01*
X5289Y6154D01*
X5286Y6165D01*
X5280Y6175D01*
X5273Y6184D01*
X5264Y6191D01*
X5254Y6197D01*
X5243Y6200D01*
X5231Y6201D01*
D02*
G37*
G36*
X3891Y6087D02*
X3861D01*
Y6057D01*
X3865Y6058D01*
X3874Y6061D01*
X3881Y6067D01*
X3887Y6074D01*
X3890Y6083D01*
X3891Y6087D01*
D02*
G37*
G36*
X3861Y6127D02*
Y6097D01*
X3891D01*
X3890Y6101D01*
X3887Y6110D01*
X3881Y6117D01*
X3874Y6123D01*
X3865Y6126D01*
X3861Y6127D01*
D02*
G37*
G36*
X3851D02*
X3847Y6126D01*
X3838Y6123D01*
X3831Y6117D01*
X3825Y6110D01*
X3822Y6101D01*
X3821Y6097D01*
X3851D01*
Y6127D01*
D02*
G37*
G36*
X3311Y6237D02*
X3301Y6236D01*
X3291Y6232D01*
X3283Y6225D01*
X3276Y6217D01*
X3272Y6207D01*
X3271Y6197D01*
X3272Y6187D01*
X3276Y6177D01*
X3283Y6169D01*
X3291Y6162D01*
X3301Y6158D01*
X3311Y6157D01*
X3321Y6158D01*
X3331Y6162D01*
X3339Y6169D01*
X3346Y6177D01*
X3350Y6187D01*
X3351Y6197D01*
X3350Y6207D01*
X3346Y6217D01*
X3339Y6225D01*
X3331Y6232D01*
X3321Y6236D01*
X3311Y6237D01*
D02*
G37*
G36*
X4456D02*
X4446Y6236D01*
X4436Y6232D01*
X4428Y6225D01*
X4421Y6217D01*
X4417Y6207D01*
X4416Y6197D01*
X4417Y6187D01*
X4421Y6177D01*
X4428Y6169D01*
X4436Y6162D01*
X4446Y6158D01*
X4456Y6157D01*
X4466Y6158D01*
X4476Y6162D01*
X4484Y6169D01*
X4491Y6177D01*
X4495Y6187D01*
X4496Y6197D01*
X4495Y6207D01*
X4491Y6217D01*
X4484Y6225D01*
X4476Y6232D01*
X4466Y6236D01*
X4456Y6237D01*
D02*
G37*
G36*
X4356D02*
X4346Y6236D01*
X4336Y6232D01*
X4328Y6225D01*
X4321Y6217D01*
X4317Y6207D01*
X4316Y6197D01*
X4317Y6187D01*
X4319Y6182D01*
X4149Y6011D01*
X4100D01*
X4098Y6016D01*
X4242Y6160D01*
X4246Y6158D01*
X4256Y6157D01*
X4266Y6158D01*
X4276Y6162D01*
X4284Y6169D01*
X4291Y6177D01*
X4295Y6187D01*
X4296Y6197D01*
X4295Y6207D01*
X4291Y6217D01*
X4284Y6225D01*
X4276Y6232D01*
X4266Y6236D01*
X4256Y6237D01*
X4246Y6236D01*
X4236Y6232D01*
X4228Y6225D01*
X4221Y6217D01*
X4217Y6207D01*
X4216Y6197D01*
X4217Y6187D01*
X4219Y6183D01*
X4073Y6037D01*
X3369D01*
X3368Y6042D01*
X3489Y6164D01*
X3491Y6162D01*
X3501Y6158D01*
X3511Y6157D01*
X3521Y6158D01*
X3531Y6162D01*
X3539Y6169D01*
X3546Y6177D01*
X3550Y6187D01*
X3551Y6197D01*
X3550Y6207D01*
X3546Y6217D01*
X3539Y6225D01*
X3531Y6232D01*
X3521Y6236D01*
X3511Y6237D01*
X3501Y6236D01*
X3491Y6232D01*
X3483Y6225D01*
X3476Y6217D01*
X3472Y6207D01*
X3471Y6197D01*
X3472Y6190D01*
X3345Y6062D01*
X3336D01*
X3334Y6067D01*
X3412Y6145D01*
X3415Y6150D01*
X3416Y6156D01*
Y6158D01*
X3421Y6158D01*
X3431Y6162D01*
X3439Y6169D01*
X3446Y6177D01*
X3450Y6187D01*
X3451Y6197D01*
X3450Y6207D01*
X3446Y6217D01*
X3439Y6225D01*
X3431Y6232D01*
X3421Y6236D01*
X3411Y6237D01*
X3401Y6236D01*
X3391Y6232D01*
X3383Y6225D01*
X3376Y6217D01*
X3372Y6207D01*
X3371Y6197D01*
X3372Y6187D01*
X3376Y6177D01*
X3383Y6169D01*
X3385Y6167D01*
X3385Y6162D01*
X3311Y6087D01*
X2590D01*
X2584Y6086D01*
X2578Y6083D01*
X2576Y6078D01*
X2526Y6029D01*
X2521Y6030D01*
Y6046D01*
X2636Y6160D01*
X2641Y6158D01*
X2651Y6157D01*
X2661Y6158D01*
X2671Y6162D01*
X2679Y6169D01*
X2686Y6177D01*
X2690Y6187D01*
X2691Y6197D01*
X2690Y6207D01*
X2686Y6217D01*
X2679Y6225D01*
X2671Y6232D01*
X2661Y6236D01*
X2651Y6237D01*
X2641Y6236D01*
X2631Y6232D01*
X2623Y6225D01*
X2616Y6217D01*
X2612Y6207D01*
X2611Y6197D01*
X2612Y6187D01*
X2614Y6182D01*
X2571Y6139D01*
X2566Y6140D01*
Y6161D01*
X2571Y6162D01*
X2579Y6169D01*
X2586Y6177D01*
X2590Y6187D01*
X2591Y6197D01*
X2590Y6207D01*
X2586Y6217D01*
X2579Y6225D01*
X2571Y6232D01*
X2561Y6236D01*
X2551Y6237D01*
X2541Y6236D01*
X2531Y6232D01*
X2523Y6225D01*
X2516Y6217D01*
X2512Y6207D01*
X2511Y6197D01*
X2512Y6187D01*
X2516Y6177D01*
X2523Y6169D01*
X2531Y6162D01*
X2536Y6161D01*
Y6132D01*
X2475Y6071D01*
X2472Y6066D01*
X2471Y6060D01*
Y5840D01*
X2404Y5773D01*
X2318D01*
X2257Y5834D01*
Y5866D01*
X2256Y5872D01*
X2252Y5877D01*
X2230Y5899D01*
X2228Y5904D01*
X2123Y6008D01*
X2126Y6014D01*
X2129Y6025D01*
X2130Y6037D01*
X2129Y6049D01*
X2126Y6060D01*
X2120Y6070D01*
X2113Y6079D01*
X2104Y6086D01*
X2094Y6092D01*
X2083Y6095D01*
X2071Y6096D01*
X2059Y6095D01*
X2048Y6092D01*
X2038Y6086D01*
X2029Y6079D01*
X2022Y6070D01*
X2016Y6060D01*
X2013Y6049D01*
X2012Y6037D01*
X2013Y6025D01*
X2016Y6014D01*
X2022Y6004D01*
X2029Y5995D01*
X2038Y5988D01*
X2048Y5982D01*
X2059Y5979D01*
X2071Y5978D01*
X2083Y5979D01*
X2094Y5982D01*
X2100Y5985D01*
X2204Y5880D01*
X2209Y5878D01*
X2226Y5860D01*
Y5845D01*
X2222Y5843D01*
X2157Y5908D01*
X2152Y5911D01*
X2146Y5912D01*
X2128D01*
X2126Y5920D01*
X2120Y5930D01*
X2113Y5939D01*
X2104Y5946D01*
X2094Y5952D01*
X2083Y5955D01*
X2071Y5956D01*
X2059Y5955D01*
X2048Y5952D01*
X2038Y5946D01*
X2029Y5939D01*
X2022Y5930D01*
X2016Y5920D01*
X2013Y5909D01*
X2012Y5897D01*
X2013Y5885D01*
X2016Y5874D01*
X2022Y5864D01*
X2029Y5855D01*
X2038Y5848D01*
X2048Y5842D01*
X2059Y5839D01*
X2071Y5838D01*
X2083Y5839D01*
X2094Y5842D01*
X2104Y5848D01*
X2113Y5855D01*
X2120Y5864D01*
X2126Y5874D01*
X2128Y5882D01*
X2140D01*
X2207Y5814D01*
X2208Y5813D01*
X2211Y5808D01*
X2292Y5727D01*
X2297Y5724D01*
X2303Y5722D01*
X2398D01*
X2400Y5717D01*
X2400Y5717D01*
X2144D01*
X2126Y5735D01*
X2129Y5745D01*
X2130Y5757D01*
X2129Y5769D01*
X2126Y5780D01*
X2120Y5790D01*
X2113Y5799D01*
X2104Y5806D01*
X2094Y5812D01*
X2083Y5815D01*
X2071Y5816D01*
X2059Y5815D01*
X2048Y5812D01*
X2038Y5806D01*
X2029Y5799D01*
X2022Y5790D01*
X2016Y5780D01*
X2013Y5769D01*
X2012Y5757D01*
X2013Y5745D01*
X2016Y5734D01*
X2022Y5724D01*
X2029Y5715D01*
X2038Y5708D01*
X2048Y5702D01*
X2059Y5699D01*
X2071Y5698D01*
X2083Y5699D01*
X2094Y5702D01*
X2104Y5708D01*
X2106Y5709D01*
X2124Y5690D01*
X2130Y5687D01*
X2136Y5686D01*
X2141Y5687D01*
X2243D01*
X2245Y5682D01*
X2195Y5632D01*
X2128D01*
X2126Y5640D01*
X2120Y5650D01*
X2113Y5659D01*
X2104Y5666D01*
X2094Y5672D01*
X2083Y5675D01*
X2071Y5676D01*
X2059Y5675D01*
X2048Y5672D01*
X2038Y5666D01*
X2029Y5659D01*
X2022Y5650D01*
X2016Y5640D01*
X2013Y5629D01*
X2012Y5617D01*
X2013Y5605D01*
X2016Y5594D01*
X2022Y5584D01*
X2029Y5575D01*
X2038Y5568D01*
X2048Y5562D01*
X2059Y5559D01*
X2071Y5558D01*
X2083Y5559D01*
X2094Y5562D01*
X2104Y5568D01*
X2113Y5575D01*
X2120Y5584D01*
X2126Y5594D01*
X2128Y5602D01*
X2186D01*
X2188Y5597D01*
X2111Y5520D01*
X2104Y5526D01*
X2094Y5532D01*
X2083Y5535D01*
X2071Y5536D01*
X2059Y5535D01*
X2048Y5532D01*
X2038Y5526D01*
X2029Y5519D01*
X2022Y5510D01*
X2016Y5500D01*
X2013Y5489D01*
X2012Y5477D01*
X2013Y5465D01*
X2016Y5454D01*
X2022Y5444D01*
X2029Y5435D01*
X2038Y5428D01*
X2048Y5422D01*
X2059Y5419D01*
X2071Y5418D01*
X2083Y5419D01*
X2094Y5422D01*
X2104Y5428D01*
X2113Y5435D01*
X2120Y5444D01*
X2126Y5454D01*
X2129Y5465D01*
X2130Y5477D01*
X2129Y5489D01*
X2128Y5491D01*
X2243Y5606D01*
X2401D01*
X2407Y5607D01*
X2413Y5610D01*
X2583Y5780D01*
X2586Y5786D01*
X2587Y5792D01*
Y5930D01*
X2662Y6005D01*
X2681D01*
X2682Y6000D01*
X2615Y5933D01*
X2612Y5928D01*
X2611Y5922D01*
Y5738D01*
X2225Y5352D01*
X2128D01*
X2126Y5360D01*
X2120Y5370D01*
X2113Y5379D01*
X2104Y5386D01*
X2094Y5392D01*
X2083Y5395D01*
X2071Y5396D01*
X2059Y5395D01*
X2048Y5392D01*
X2038Y5386D01*
X2029Y5379D01*
X2022Y5370D01*
X2016Y5360D01*
X2013Y5349D01*
X2012Y5337D01*
X2013Y5325D01*
X2016Y5314D01*
X2022Y5304D01*
X2029Y5295D01*
X2037Y5288D01*
X2036Y5283D01*
X2026D01*
X2020Y5282D01*
X2014Y5279D01*
X1969Y5234D01*
X1966Y5228D01*
X1965Y5222D01*
Y5147D01*
X1966Y5141D01*
X1969Y5135D01*
X2019Y5086D01*
X2016Y5080D01*
X2013Y5069D01*
X2012Y5057D01*
X2013Y5045D01*
X2016Y5034D01*
X2022Y5024D01*
X2029Y5015D01*
X2037Y5008D01*
X2037Y5006D01*
X2036Y5003D01*
X2033Y5002D01*
X2028Y4999D01*
X1969Y4940D01*
X1966Y4935D01*
X1965Y4929D01*
Y4867D01*
X1966Y4861D01*
X1969Y4855D01*
X2019Y4806D01*
X2016Y4800D01*
X2013Y4789D01*
X2012Y4777D01*
X2013Y4765D01*
X2016Y4754D01*
X2022Y4744D01*
X2029Y4735D01*
X2037Y4728D01*
X2036Y4723D01*
X2021D01*
X2015Y4722D01*
X2009Y4719D01*
X1969Y4679D01*
X1966Y4673D01*
X1965Y4667D01*
Y4587D01*
X1966Y4581D01*
X1969Y4575D01*
X2019Y4526D01*
X2016Y4520D01*
X2013Y4509D01*
X2012Y4497D01*
X2013Y4485D01*
X2016Y4474D01*
X2022Y4464D01*
X2029Y4455D01*
X2038Y4448D01*
X2048Y4442D01*
X2059Y4439D01*
X2071Y4438D01*
X2083Y4439D01*
X2094Y4442D01*
X2104Y4448D01*
X2113Y4455D01*
X2120Y4464D01*
X2126Y4474D01*
X2129Y4485D01*
X2130Y4497D01*
X2129Y4509D01*
X2126Y4520D01*
X2120Y4530D01*
X2113Y4539D01*
X2104Y4546D01*
X2094Y4552D01*
X2083Y4555D01*
X2071Y4556D01*
X2059Y4555D01*
X2048Y4552D01*
X2042Y4549D01*
X1997Y4594D01*
Y4660D01*
X2028Y4691D01*
X2036D01*
X2037Y4686D01*
X2029Y4679D01*
X2022Y4670D01*
X2016Y4660D01*
X2013Y4649D01*
X2012Y4637D01*
X2013Y4625D01*
X2016Y4614D01*
X2022Y4604D01*
X2029Y4595D01*
X2038Y4588D01*
X2048Y4582D01*
X2059Y4579D01*
X2071Y4578D01*
X2083Y4579D01*
X2094Y4582D01*
X2104Y4588D01*
X2113Y4595D01*
X2120Y4604D01*
X2126Y4614D01*
X2129Y4625D01*
X2130Y4637D01*
X2129Y4649D01*
X2126Y4660D01*
X2120Y4670D01*
X2119Y4672D01*
X2308Y4861D01*
X2439D01*
X2490Y4810D01*
Y4597D01*
X2491Y4591D01*
X2494Y4585D01*
X2540Y4540D01*
Y4468D01*
X2536Y4467D01*
X2528Y4460D01*
X2521Y4452D01*
X2517Y4442D01*
X2516Y4432D01*
X2517Y4422D01*
X2521Y4412D01*
X2528Y4404D01*
X2536Y4397D01*
X2546Y4393D01*
X2556Y4392D01*
X2566Y4393D01*
X2576Y4397D01*
X2584Y4404D01*
X2591Y4412D01*
X2595Y4422D01*
X2596Y4432D01*
X2595Y4442D01*
X2591Y4452D01*
X2584Y4460D01*
X2576Y4467D01*
X2572Y4468D01*
Y4540D01*
X2577Y4542D01*
X2625Y4493D01*
X2629Y4491D01*
X2640Y4480D01*
Y4468D01*
X2636Y4467D01*
X2628Y4460D01*
X2621Y4452D01*
X2617Y4442D01*
X2616Y4432D01*
X2617Y4422D01*
X2621Y4412D01*
X2628Y4404D01*
X2636Y4397D01*
X2646Y4393D01*
X2656Y4392D01*
X2666Y4393D01*
X2676Y4397D01*
X2684Y4404D01*
X2691Y4412D01*
X2695Y4422D01*
X2696Y4432D01*
X2695Y4442D01*
X2691Y4452D01*
X2684Y4460D01*
X2676Y4467D01*
X2672Y4468D01*
Y4487D01*
X2671Y4493D01*
X2668Y4499D01*
X2660Y4506D01*
X2662Y4511D01*
X3304D01*
X3369Y4446D01*
X3367Y4442D01*
X3366Y4432D01*
X3367Y4422D01*
X3371Y4412D01*
X3378Y4404D01*
X3386Y4397D01*
X3396Y4393D01*
X3406Y4392D01*
X3416Y4393D01*
X3426Y4397D01*
X3434Y4404D01*
X3441Y4412D01*
X3445Y4422D01*
X3446Y4432D01*
X3445Y4442D01*
X3441Y4452D01*
X3434Y4460D01*
X3426Y4467D01*
X3416Y4471D01*
X3406Y4472D01*
X3396Y4471D01*
X3392Y4469D01*
X3330Y4531D01*
X3332Y4536D01*
X3379D01*
X3469Y4446D01*
X3467Y4442D01*
X3466Y4432D01*
X3467Y4422D01*
X3471Y4412D01*
X3478Y4404D01*
X3486Y4397D01*
X3496Y4393D01*
X3506Y4392D01*
X3516Y4393D01*
X3526Y4397D01*
X3534Y4404D01*
X3541Y4412D01*
X3545Y4422D01*
X3546Y4432D01*
X3545Y4442D01*
X3541Y4452D01*
X3534Y4460D01*
X3526Y4467D01*
X3516Y4471D01*
X3506Y4472D01*
X3496Y4471D01*
X3492Y4469D01*
X3405Y4556D01*
X3407Y4561D01*
X4099D01*
X4214Y4446D01*
X4212Y4442D01*
X4211Y4432D01*
X4212Y4422D01*
X4216Y4412D01*
X4223Y4404D01*
X4231Y4397D01*
X4241Y4393D01*
X4251Y4392D01*
X4261Y4393D01*
X4271Y4397D01*
X4279Y4404D01*
X4286Y4412D01*
X4290Y4422D01*
X4291Y4432D01*
X4290Y4442D01*
X4286Y4452D01*
X4279Y4460D01*
X4271Y4467D01*
X4261Y4471D01*
X4251Y4472D01*
X4241Y4471D01*
X4237Y4469D01*
X4120Y4586D01*
X4122Y4591D01*
X4209D01*
X4329Y4471D01*
X4328Y4464D01*
X4323Y4460D01*
X4316Y4452D01*
X4312Y4442D01*
X4311Y4432D01*
X4312Y4422D01*
X4316Y4412D01*
X4323Y4404D01*
X4331Y4397D01*
X4341Y4393D01*
X4351Y4392D01*
X4361Y4393D01*
X4371Y4397D01*
X4379Y4404D01*
X4386Y4412D01*
X4390Y4422D01*
X4391Y4432D01*
X4390Y4442D01*
X4386Y4452D01*
X4379Y4460D01*
X4371Y4467D01*
X4367Y4468D01*
Y4472D01*
X4366Y4478D01*
X4363Y4484D01*
X4228Y4619D01*
X4222Y4622D01*
X4216Y4623D01*
X2688D01*
X2647Y4664D01*
Y4867D01*
X2646Y4873D01*
X2643Y4879D01*
X2478Y5044D01*
X2472Y5047D01*
X2466Y5048D01*
X2283D01*
X2160Y5171D01*
Y5217D01*
X2159Y5223D01*
X2155Y5228D01*
X2105Y5279D01*
X2102Y5281D01*
X2102Y5286D01*
X2104Y5288D01*
X2113Y5295D01*
X2120Y5304D01*
X2126Y5314D01*
X2128Y5322D01*
X2231D01*
X2237Y5323D01*
X2242Y5326D01*
X2637Y5721D01*
X2640Y5726D01*
X2641Y5732D01*
Y5916D01*
X2706Y5981D01*
X2716D01*
X2719Y5976D01*
X2719Y5976D01*
X2716Y5974D01*
X2713Y5970D01*
X2713Y5966D01*
Y5888D01*
X2713Y5884D01*
X2716Y5881D01*
X2719Y5878D01*
X2723Y5878D01*
X2829D01*
X2833Y5878D01*
X2836Y5881D01*
X2839Y5884D01*
X2839Y5888D01*
Y5893D01*
X2882D01*
X2883Y5891D01*
X2886Y5889D01*
X2890Y5888D01*
X2946D01*
X2950Y5889D01*
X2951Y5890D01*
X2952Y5890D01*
X2953Y5889D01*
X2956Y5884D01*
X2956Y5883D01*
Y5861D01*
X2957Y5857D01*
X2959Y5854D01*
X2962Y5852D01*
X2966Y5851D01*
X2979D01*
Y5709D01*
X2975Y5705D01*
X2972Y5696D01*
X2971Y5687D01*
X2972Y5678D01*
X2975Y5669D01*
X2981Y5662D01*
X2988Y5656D01*
X2991Y5655D01*
Y5642D01*
X2992Y5636D01*
X2995Y5631D01*
X3044Y5582D01*
X3047Y5578D01*
X3244Y5380D01*
X3250Y5377D01*
X3256Y5376D01*
X3265D01*
X3265Y5374D01*
X3271Y5367D01*
X3271Y5366D01*
X3269Y5362D01*
X3244D01*
X2952Y5654D01*
Y5711D01*
X2954Y5711D01*
X2961Y5717D01*
X2967Y5724D01*
X2970Y5733D01*
X2971Y5742D01*
X2970Y5751D01*
X2967Y5760D01*
X2961Y5767D01*
X2954Y5773D01*
X2945Y5776D01*
X2936Y5777D01*
X2927Y5776D01*
X2918Y5773D01*
X2911Y5767D01*
X2905Y5760D01*
X2905Y5758D01*
X2848D01*
X2836Y5770D01*
X2836Y5770D01*
X2839Y5774D01*
X2839Y5778D01*
Y5818D01*
X2882D01*
X2883Y5816D01*
X2886Y5814D01*
X2890Y5813D01*
X2946D01*
X2950Y5814D01*
X2953Y5816D01*
X2955Y5820D01*
X2956Y5824D01*
Y5845D01*
X2955Y5849D01*
X2953Y5853D01*
X2950Y5855D01*
X2946Y5856D01*
X2890D01*
X2886Y5855D01*
X2883Y5853D01*
X2882Y5851D01*
X2839D01*
Y5856D01*
X2839Y5860D01*
X2836Y5863D01*
X2833Y5866D01*
X2829Y5866D01*
X2723D01*
X2719Y5866D01*
X2716Y5863D01*
X2713Y5860D01*
X2713Y5856D01*
Y5778D01*
X2713Y5774D01*
X2716Y5770D01*
X2719Y5768D01*
X2723Y5767D01*
X2793D01*
X2829Y5730D01*
X2835Y5727D01*
X2841Y5726D01*
X2905D01*
X2905Y5724D01*
X2911Y5717D01*
X2918Y5711D01*
X2920Y5711D01*
Y5647D01*
X2921Y5641D01*
X2924Y5635D01*
X3225Y5334D01*
X3231Y5331D01*
X3237Y5330D01*
X3278D01*
X3280Y5325D01*
X3276Y5322D01*
X3270Y5315D01*
X3267Y5306D01*
X3266Y5297D01*
X3267Y5288D01*
X3270Y5279D01*
X3276Y5272D01*
X3283Y5266D01*
X3292Y5263D01*
X3301Y5262D01*
X3310Y5263D01*
X3319Y5266D01*
X3326Y5272D01*
X3332Y5279D01*
X3333Y5282D01*
X3415D01*
X3417Y5277D01*
X3415Y5275D01*
X3412Y5266D01*
X3411Y5257D01*
X3412Y5248D01*
X3415Y5239D01*
X3417Y5237D01*
X3415Y5232D01*
X3395D01*
X3391Y5237D01*
X3384Y5243D01*
X3375Y5246D01*
X3366Y5247D01*
X3357Y5246D01*
X3348Y5243D01*
X3341Y5237D01*
X3335Y5230D01*
X3332Y5221D01*
X3331Y5212D01*
X3332Y5203D01*
X3335Y5194D01*
X3341Y5187D01*
X3348Y5181D01*
X3357Y5178D01*
X3366Y5177D01*
X3375Y5178D01*
X3384Y5181D01*
X3391Y5187D01*
X3397Y5194D01*
X3399Y5200D01*
X3524D01*
X3526Y5195D01*
X3445Y5114D01*
X3440Y5116D01*
X3431Y5117D01*
X3422Y5116D01*
X3413Y5113D01*
X3406Y5107D01*
X3400Y5100D01*
X3397Y5091D01*
X3396Y5082D01*
X3397Y5073D01*
X3400Y5064D01*
X3406Y5057D01*
X3413Y5051D01*
X3422Y5048D01*
X3431Y5047D01*
X3440Y5048D01*
X3449Y5051D01*
X3456Y5057D01*
X3462Y5064D01*
X3465Y5073D01*
X3466Y5082D01*
X3465Y5088D01*
X3553Y5176D01*
X3574D01*
X3576Y5174D01*
Y5160D01*
X3574Y5158D01*
X3565D01*
X3559Y5156D01*
X3554Y5153D01*
X3518Y5117D01*
X3512Y5116D01*
X3503Y5113D01*
X3496Y5107D01*
X3490Y5100D01*
X3487Y5091D01*
X3486Y5082D01*
X3487Y5073D01*
X3490Y5064D01*
X3496Y5057D01*
X3503Y5051D01*
X3512Y5048D01*
X3521Y5047D01*
X3530Y5048D01*
X3539Y5051D01*
X3546Y5057D01*
X3552Y5064D01*
X3555Y5073D01*
X3556Y5082D01*
X3555Y5091D01*
X3552Y5100D01*
X3549Y5102D01*
X3572Y5125D01*
X3582D01*
X3582Y5125D01*
X3586Y5124D01*
X3644D01*
X3645Y5124D01*
X3650Y5120D01*
Y5004D01*
X3586Y4941D01*
X3585Y4941D01*
X3576Y4942D01*
X3567Y4941D01*
X3558Y4938D01*
X3551Y4932D01*
X3545Y4925D01*
X3542Y4916D01*
X3541Y4907D01*
X3542Y4898D01*
X3545Y4889D01*
X3551Y4882D01*
X3558Y4876D01*
X3560Y4876D01*
Y4734D01*
X3561Y4728D01*
X3561Y4728D01*
X3561Y4727D01*
X3560Y4723D01*
Y4701D01*
X3561Y4697D01*
X3563Y4694D01*
X3564Y4693D01*
X3562Y4688D01*
X3494D01*
Y4721D01*
X3494Y4725D01*
X3491Y4728D01*
X3488Y4731D01*
X3484Y4731D01*
X3378D01*
X3374Y4731D01*
X3371Y4728D01*
X3368Y4725D01*
X3368Y4721D01*
Y4643D01*
X3368Y4639D01*
X3371Y4635D01*
X3374Y4633D01*
X3378Y4632D01*
X3484D01*
X3488Y4633D01*
X3491Y4635D01*
X3494Y4639D01*
X3494Y4643D01*
Y4656D01*
X3640D01*
X3642Y4654D01*
X3646Y4653D01*
X3702D01*
X3706Y4654D01*
X3709Y4656D01*
X3710Y4658D01*
X3793D01*
Y4648D01*
X3793Y4644D01*
X3796Y4640D01*
X3799Y4638D01*
X3803Y4637D01*
X3909D01*
X3913Y4638D01*
X3916Y4640D01*
X3919Y4644D01*
X3919Y4648D01*
Y4726D01*
X3919Y4730D01*
X3916Y4733D01*
X3913Y4736D01*
X3909Y4736D01*
X3825D01*
X3823Y4741D01*
X3830Y4748D01*
X3909D01*
X3913Y4748D01*
X3916Y4751D01*
X3919Y4754D01*
X3919Y4758D01*
Y4836D01*
X3919Y4840D01*
X3916Y4844D01*
X3913Y4846D01*
X3909Y4847D01*
X3803D01*
X3799Y4846D01*
X3796Y4844D01*
X3793Y4840D01*
X3793Y4836D01*
Y4766D01*
X3720D01*
X3718Y4770D01*
X3738Y4790D01*
X3741Y4795D01*
X3741Y4795D01*
X3744Y4796D01*
X3751Y4802D01*
X3757Y4809D01*
X3760Y4818D01*
X3761Y4827D01*
X3760Y4836D01*
X3757Y4845D01*
X3751Y4852D01*
X3744Y4858D01*
X3742Y4858D01*
Y5310D01*
X3793Y5361D01*
X3795Y5361D01*
X3799Y5360D01*
X3801Y5357D01*
X3804Y5355D01*
X3808Y5354D01*
X3866D01*
X3870Y5355D01*
X3873Y5357D01*
X3875Y5361D01*
X3876Y5365D01*
Y5379D01*
X3875Y5382D01*
X3874Y5384D01*
X3875Y5386D01*
X3876Y5390D01*
Y5404D01*
X3875Y5408D01*
X3874Y5410D01*
X3875Y5412D01*
X3876Y5416D01*
Y5430D01*
X3875Y5434D01*
X3873Y5437D01*
X3870Y5439D01*
X3866Y5440D01*
X3808D01*
X3804Y5439D01*
X3801Y5437D01*
X3800Y5436D01*
X3799D01*
X3792Y5435D01*
X3787Y5432D01*
X3660Y5305D01*
X3655Y5306D01*
X3653Y5309D01*
X3654Y5313D01*
Y5327D01*
X3653Y5331D01*
X3652Y5333D01*
X3653Y5335D01*
X3654Y5339D01*
Y5353D01*
X3656Y5355D01*
X3681D01*
X3687Y5356D01*
X3692Y5360D01*
X4028Y5695D01*
X4030Y5700D01*
X4037Y5707D01*
X4334D01*
X4335Y5704D01*
X4341Y5697D01*
X4348Y5691D01*
X4357Y5688D01*
X4366Y5687D01*
X4375Y5688D01*
X4384Y5691D01*
X4391Y5697D01*
X4397Y5704D01*
X4398Y5707D01*
X4501D01*
X4507Y5708D01*
X4512Y5711D01*
X4552Y5751D01*
X4555Y5756D01*
X4556Y5762D01*
Y5872D01*
X4559Y5874D01*
X4561Y5877D01*
X4562Y5881D01*
Y5903D01*
X4561Y5907D01*
X4559Y5910D01*
X4556Y5912D01*
X4552Y5913D01*
X4496D01*
X4492Y5912D01*
X4489Y5910D01*
X4487Y5907D01*
X4486Y5903D01*
Y5881D01*
X4487Y5877D01*
X4489Y5874D01*
X4492Y5872D01*
X4496Y5871D01*
X4524D01*
X4526Y5869D01*
Y5802D01*
X4521Y5801D01*
X4516Y5807D01*
X4509Y5813D01*
X4500Y5816D01*
X4491Y5817D01*
X4482Y5816D01*
X4480Y5815D01*
X4466Y5828D01*
X4468Y5833D01*
X4476D01*
X4480Y5834D01*
X4483Y5836D01*
X4485Y5840D01*
X4486Y5844D01*
Y5865D01*
X4485Y5869D01*
X4483Y5873D01*
X4480Y5875D01*
X4476Y5876D01*
X4420D01*
X4416Y5875D01*
X4413Y5873D01*
X4411Y5869D01*
X4410Y5865D01*
Y5853D01*
X4359D01*
Y5876D01*
X4359Y5880D01*
X4356Y5883D01*
X4353Y5886D01*
X4349Y5886D01*
X4243D01*
X4239Y5886D01*
X4236Y5883D01*
X4233Y5880D01*
X4233Y5876D01*
Y5853D01*
X4061D01*
X4055Y5852D01*
X4049Y5848D01*
X3641Y5440D01*
X3586D01*
X3582Y5439D01*
X3579Y5437D01*
X3577Y5434D01*
X3576Y5430D01*
Y5416D01*
X3577Y5412D01*
X3578Y5410D01*
X3577Y5408D01*
X3576Y5404D01*
Y5390D01*
X3577Y5386D01*
X3578Y5384D01*
X3577Y5382D01*
X3576Y5379D01*
Y5365D01*
X3574Y5362D01*
X3371D01*
X3370Y5367D01*
X3375Y5368D01*
X3384Y5371D01*
X3391Y5377D01*
X3397Y5384D01*
X3400Y5393D01*
X3401Y5402D01*
X3400Y5411D01*
X3397Y5420D01*
X3391Y5427D01*
X3384Y5433D01*
X3382Y5433D01*
Y5710D01*
X3445Y5772D01*
X3454D01*
X3458Y5773D01*
X3461Y5775D01*
X3464Y5779D01*
X3464Y5783D01*
Y5828D01*
X3527D01*
X3528Y5826D01*
X3531Y5824D01*
X3535Y5823D01*
X3550D01*
Y5808D01*
X3548Y5808D01*
X3541Y5802D01*
X3535Y5795D01*
X3532Y5786D01*
X3531Y5777D01*
X3532Y5768D01*
X3535Y5759D01*
X3541Y5752D01*
X3548Y5746D01*
X3557Y5743D01*
X3566Y5742D01*
X3575Y5743D01*
X3581Y5745D01*
X3582Y5745D01*
X3588Y5746D01*
X3593Y5750D01*
X3597Y5755D01*
X3598Y5761D01*
X3598Y5762D01*
X3600Y5768D01*
X3601Y5777D01*
X3600Y5786D01*
X3597Y5795D01*
X3591Y5802D01*
X3584Y5808D01*
X3582Y5808D01*
Y5823D01*
X3591D01*
X3595Y5824D01*
X3598Y5826D01*
X3600Y5830D01*
X3601Y5833D01*
Y5856D01*
X3600Y5859D01*
X3598Y5863D01*
X3595Y5865D01*
X3591Y5866D01*
X3535D01*
X3531Y5865D01*
X3528Y5863D01*
X3527Y5861D01*
X3464D01*
Y5861D01*
X3464Y5865D01*
X3461Y5868D01*
X3458Y5871D01*
X3454Y5871D01*
X3348D01*
X3344Y5871D01*
X3341Y5868D01*
X3338Y5865D01*
X3338Y5861D01*
Y5783D01*
X3338Y5779D01*
X3341Y5775D01*
X3344Y5773D01*
X3348Y5772D01*
X3392D01*
X3394Y5768D01*
X3354Y5728D01*
X3351Y5723D01*
X3350Y5717D01*
Y5433D01*
X3348Y5433D01*
X3341Y5427D01*
X3335Y5420D01*
X3332Y5411D01*
X3332Y5410D01*
X3327Y5409D01*
X3327Y5410D01*
X3321Y5417D01*
X3314Y5423D01*
X3305Y5426D01*
X3296Y5427D01*
X3287Y5426D01*
X3278Y5423D01*
X3271Y5417D01*
X3267Y5411D01*
X3262Y5410D01*
X3260Y5411D01*
X3070Y5601D01*
X3066Y5604D01*
X3021Y5648D01*
Y5655D01*
X3024Y5656D01*
X3031Y5662D01*
X3037Y5669D01*
X3040Y5678D01*
X3041Y5687D01*
X3040Y5696D01*
X3037Y5705D01*
X3031Y5712D01*
X3024Y5718D01*
X3015Y5721D01*
X3009Y5722D01*
Y5851D01*
X3022D01*
X3026Y5852D01*
X3029Y5854D01*
X3031Y5857D01*
X3032Y5861D01*
Y5883D01*
X3031Y5887D01*
X3031Y5888D01*
X3033Y5893D01*
X3063D01*
Y5888D01*
X3063Y5884D01*
X3066Y5881D01*
X3069Y5878D01*
X3073Y5878D01*
X3179D01*
X3183Y5878D01*
X3186Y5881D01*
X3189Y5884D01*
X3189Y5888D01*
Y5967D01*
X3189Y5971D01*
X3186Y5974D01*
X3186Y5980D01*
X3187Y5981D01*
X3336D01*
X3339Y5976D01*
X3338Y5975D01*
X3338Y5971D01*
Y5893D01*
X3338Y5889D01*
X3341Y5886D01*
X3344Y5883D01*
X3348Y5883D01*
X3454D01*
X3458Y5883D01*
X3461Y5886D01*
X3464Y5889D01*
X3464Y5893D01*
Y5916D01*
X3525D01*
Y5909D01*
X3526Y5905D01*
X3528Y5901D01*
X3531Y5899D01*
X3535Y5898D01*
X3591D01*
X3595Y5899D01*
X3596Y5900D01*
X3597Y5900D01*
X3598Y5899D01*
X3601Y5894D01*
X3601Y5893D01*
Y5871D01*
X3602Y5867D01*
X3604Y5864D01*
X3607Y5862D01*
X3611Y5861D01*
X3630D01*
Y5788D01*
X3631Y5783D01*
Y5762D01*
X3625Y5755D01*
X3622Y5746D01*
X3621Y5737D01*
X3622Y5728D01*
X3625Y5719D01*
X3631Y5712D01*
X3638Y5706D01*
X3647Y5703D01*
X3651Y5702D01*
Y5590D01*
X3494Y5433D01*
X3489Y5438D01*
X3480Y5441D01*
X3471Y5442D01*
X3462Y5441D01*
X3453Y5438D01*
X3446Y5432D01*
X3440Y5425D01*
X3437Y5416D01*
X3436Y5407D01*
X3437Y5398D01*
X3440Y5389D01*
X3446Y5382D01*
X3453Y5376D01*
X3462Y5373D01*
X3471Y5372D01*
X3480Y5373D01*
X3489Y5376D01*
X3496Y5382D01*
X3502Y5389D01*
X3505Y5398D01*
X3505Y5398D01*
X3678Y5570D01*
X3681Y5576D01*
X3682Y5582D01*
X3681Y5587D01*
Y5712D01*
X3687Y5719D01*
X3690Y5728D01*
X3691Y5737D01*
X3690Y5746D01*
X3687Y5755D01*
X3681Y5762D01*
X3674Y5768D01*
X3665Y5771D01*
X3661Y5772D01*
Y5783D01*
X3662Y5788D01*
Y5861D01*
X3667D01*
X3671Y5862D01*
X3674Y5864D01*
X3676Y5867D01*
X3677Y5871D01*
Y5893D01*
X3676Y5897D01*
X3676Y5898D01*
X3678Y5903D01*
X3738D01*
Y5883D01*
X3738Y5879D01*
X3741Y5876D01*
X3744Y5873D01*
X3748Y5873D01*
X3854D01*
X3858Y5873D01*
X3861Y5876D01*
X3864Y5879D01*
X3864Y5883D01*
Y5961D01*
X3864Y5965D01*
X3861Y5969D01*
X3858Y5971D01*
X3854Y5972D01*
X3748D01*
X3744Y5971D01*
X3741Y5969D01*
X3738Y5965D01*
X3738Y5961D01*
Y5936D01*
X3599D01*
X3598Y5938D01*
X3595Y5940D01*
X3591Y5941D01*
X3565D01*
X3562Y5944D01*
X3557Y5947D01*
X3550Y5948D01*
X3464D01*
Y5971D01*
X3464Y5975D01*
X3463Y5976D01*
X3466Y5981D01*
X4098D01*
X4100Y5976D01*
X4095Y5970D01*
X4092Y5961D01*
X4091Y5957D01*
X4161D01*
X4160Y5961D01*
X4157Y5970D01*
X4152Y5976D01*
X4154Y5981D01*
X4155D01*
X4161Y5982D01*
X4166Y5985D01*
X4341Y6160D01*
X4346Y6158D01*
X4356Y6157D01*
X4366Y6158D01*
X4376Y6162D01*
X4384Y6169D01*
X4391Y6177D01*
X4395Y6187D01*
X4396Y6197D01*
X4395Y6207D01*
X4391Y6217D01*
X4384Y6225D01*
X4376Y6232D01*
X4366Y6236D01*
X4356Y6237D01*
D02*
G37*
G36*
X4756D02*
X4746Y6236D01*
X4736Y6232D01*
X4728Y6225D01*
X4721Y6217D01*
X4717Y6207D01*
X4716Y6197D01*
X4717Y6187D01*
X4721Y6177D01*
X4728Y6169D01*
X4736Y6162D01*
X4746Y6158D01*
X4756Y6157D01*
X4766Y6158D01*
X4776Y6162D01*
X4784Y6169D01*
X4791Y6177D01*
X4795Y6187D01*
X4796Y6197D01*
X4795Y6207D01*
X4791Y6217D01*
X4784Y6225D01*
X4776Y6232D01*
X4766Y6236D01*
X4756Y6237D01*
D02*
G37*
G36*
X4556D02*
X4546Y6236D01*
X4536Y6232D01*
X4528Y6225D01*
X4521Y6217D01*
X4517Y6207D01*
X4516Y6197D01*
X4517Y6187D01*
X4521Y6177D01*
X4528Y6169D01*
X4536Y6162D01*
X4546Y6158D01*
X4556Y6157D01*
X4566Y6158D01*
X4576Y6162D01*
X4584Y6169D01*
X4591Y6177D01*
X4595Y6187D01*
X4596Y6197D01*
X4595Y6207D01*
X4591Y6217D01*
X4584Y6225D01*
X4576Y6232D01*
X4566Y6236D01*
X4556Y6237D01*
D02*
G37*
G36*
X3711D02*
X3701Y6236D01*
X3691Y6232D01*
X3683Y6225D01*
X3676Y6217D01*
X3672Y6207D01*
X3671Y6197D01*
X3672Y6187D01*
X3676Y6177D01*
X3683Y6169D01*
X3691Y6162D01*
X3701Y6158D01*
X3711Y6157D01*
X3721Y6158D01*
X3731Y6162D01*
X3739Y6169D01*
X3746Y6177D01*
X3750Y6187D01*
X3751Y6197D01*
X3750Y6207D01*
X3746Y6217D01*
X3739Y6225D01*
X3731Y6232D01*
X3721Y6236D01*
X3711Y6237D01*
D02*
G37*
G36*
X3611D02*
X3601Y6236D01*
X3591Y6232D01*
X3583Y6225D01*
X3576Y6217D01*
X3572Y6207D01*
X3571Y6197D01*
X3572Y6187D01*
X3576Y6177D01*
X3583Y6169D01*
X3591Y6162D01*
X3601Y6158D01*
X3611Y6157D01*
X3621Y6158D01*
X3631Y6162D01*
X3639Y6169D01*
X3646Y6177D01*
X3650Y6187D01*
X3651Y6197D01*
X3650Y6207D01*
X3646Y6217D01*
X3639Y6225D01*
X3631Y6232D01*
X3621Y6236D01*
X3611Y6237D01*
D02*
G37*
G36*
X4156D02*
X4146Y6236D01*
X4136Y6232D01*
X4128Y6225D01*
X4121Y6217D01*
X4117Y6207D01*
X4116Y6197D01*
X4117Y6187D01*
X4121Y6177D01*
X4128Y6169D01*
X4136Y6162D01*
X4146Y6158D01*
X4156Y6157D01*
X4166Y6158D01*
X4176Y6162D01*
X4184Y6169D01*
X4191Y6177D01*
X4195Y6187D01*
X4196Y6197D01*
X4195Y6207D01*
X4191Y6217D01*
X4184Y6225D01*
X4176Y6232D01*
X4166Y6236D01*
X4156Y6237D01*
D02*
G37*
G36*
X3911D02*
X3901Y6236D01*
X3891Y6232D01*
X3883Y6225D01*
X3876Y6217D01*
X3872Y6207D01*
X3871Y6197D01*
X3872Y6187D01*
X3876Y6177D01*
X3883Y6169D01*
X3891Y6162D01*
X3901Y6158D01*
X3911Y6157D01*
X3921Y6158D01*
X3931Y6162D01*
X3939Y6169D01*
X3946Y6177D01*
X3950Y6187D01*
X3951Y6197D01*
X3950Y6207D01*
X3946Y6217D01*
X3939Y6225D01*
X3931Y6232D01*
X3921Y6236D01*
X3911Y6237D01*
D02*
G37*
G36*
X3851Y6087D02*
X3821D01*
X3822Y6083D01*
X3825Y6074D01*
X3831Y6067D01*
X3838Y6061D01*
X3847Y6058D01*
X3851Y6057D01*
Y6087D01*
D02*
G37*
G36*
X3311Y5557D02*
Y5527D01*
X3341D01*
X3340Y5531D01*
X3337Y5540D01*
X3331Y5547D01*
X3324Y5553D01*
X3315Y5556D01*
X3311Y5557D01*
D02*
G37*
G36*
X3301D02*
X3297Y5556D01*
X3288Y5553D01*
X3281Y5547D01*
X3275Y5540D01*
X3272Y5531D01*
X3271Y5527D01*
X3301D01*
Y5557D01*
D02*
G37*
G36*
X3854Y5861D02*
X3748D01*
X3744Y5861D01*
X3741Y5858D01*
X3738Y5855D01*
X3738Y5851D01*
Y5773D01*
X3738Y5769D01*
X3741Y5765D01*
X3744Y5763D01*
X3748Y5762D01*
X3785D01*
Y5713D01*
X3783Y5713D01*
X3776Y5707D01*
X3770Y5700D01*
X3767Y5691D01*
X3766Y5682D01*
X3767Y5673D01*
X3770Y5664D01*
X3776Y5657D01*
X3783Y5651D01*
X3792Y5648D01*
X3801Y5647D01*
X3810Y5648D01*
X3819Y5651D01*
X3826Y5657D01*
X3832Y5664D01*
X3835Y5673D01*
X3836Y5682D01*
X3835Y5691D01*
X3832Y5700D01*
X3826Y5707D01*
X3819Y5713D01*
X3817Y5713D01*
Y5762D01*
X3854D01*
X3858Y5763D01*
X3861Y5765D01*
X3864Y5769D01*
X3864Y5773D01*
Y5851D01*
X3864Y5855D01*
X3861Y5858D01*
X3858Y5861D01*
X3854Y5861D01*
D02*
G37*
G36*
X3179Y5867D02*
X3073D01*
X3069Y5866D01*
X3066Y5864D01*
X3063Y5860D01*
X3063Y5856D01*
Y5778D01*
X3063Y5774D01*
X3066Y5770D01*
X3069Y5768D01*
X3073Y5767D01*
X3120D01*
Y5658D01*
X3118Y5658D01*
X3111Y5652D01*
X3105Y5645D01*
X3102Y5636D01*
X3101Y5627D01*
X3102Y5618D01*
X3105Y5609D01*
X3111Y5602D01*
X3118Y5596D01*
X3127Y5593D01*
X3136Y5592D01*
X3145Y5593D01*
X3154Y5596D01*
X3161Y5602D01*
X3167Y5609D01*
X3170Y5618D01*
X3171Y5627D01*
X3170Y5636D01*
X3167Y5645D01*
X3161Y5652D01*
X3154Y5658D01*
X3152Y5658D01*
Y5767D01*
X3179D01*
X3183Y5768D01*
X3186Y5770D01*
X3189Y5774D01*
X3189Y5778D01*
Y5856D01*
X3189Y5860D01*
X3186Y5864D01*
X3183Y5866D01*
X3179Y5867D01*
D02*
G37*
G36*
X3301Y5517D02*
X3271D01*
X3272Y5513D01*
X3275Y5504D01*
X3281Y5497D01*
X3288Y5491D01*
X3297Y5488D01*
X3301Y5487D01*
Y5517D01*
D02*
G37*
G36*
X4141Y5437D02*
Y5407D01*
X4171D01*
X4170Y5411D01*
X4167Y5420D01*
X4161Y5427D01*
X4154Y5433D01*
X4145Y5436D01*
X4141Y5437D01*
D02*
G37*
G36*
X5231Y5641D02*
X5219Y5640D01*
X5208Y5637D01*
X5198Y5631D01*
X5189Y5624D01*
X5182Y5615D01*
X5176Y5605D01*
X5173Y5594D01*
X5172Y5582D01*
X5173Y5570D01*
X5176Y5559D01*
X5182Y5549D01*
X5189Y5540D01*
X5198Y5533D01*
X5208Y5527D01*
X5219Y5524D01*
X5231Y5523D01*
X5243Y5524D01*
X5254Y5527D01*
X5264Y5533D01*
X5273Y5540D01*
X5280Y5549D01*
X5286Y5559D01*
X5289Y5570D01*
X5290Y5582D01*
X5289Y5594D01*
X5286Y5605D01*
X5280Y5615D01*
X5273Y5624D01*
X5264Y5631D01*
X5254Y5637D01*
X5243Y5640D01*
X5231Y5641D01*
D02*
G37*
G36*
X3341Y5517D02*
X3311D01*
Y5487D01*
X3315Y5488D01*
X3324Y5491D01*
X3331Y5497D01*
X3337Y5504D01*
X3340Y5513D01*
X3341Y5517D01*
D02*
G37*
G36*
X2766Y5677D02*
X2736D01*
X2737Y5673D01*
X2740Y5664D01*
X2746Y5657D01*
X2753Y5651D01*
X2762Y5648D01*
X2766Y5647D01*
Y5677D01*
D02*
G37*
G36*
X4121Y5947D02*
X4091D01*
X4092Y5943D01*
X4095Y5934D01*
X4101Y5927D01*
X4108Y5921D01*
X4117Y5918D01*
X4121Y5917D01*
Y5947D01*
D02*
G37*
G36*
X4724Y5886D02*
X4618D01*
X4614Y5886D01*
X4611Y5883D01*
X4608Y5880D01*
X4608Y5876D01*
Y5798D01*
X4608Y5794D01*
X4611Y5790D01*
X4614Y5788D01*
X4618Y5787D01*
X4655D01*
Y5768D01*
X4653Y5768D01*
X4646Y5762D01*
X4640Y5755D01*
X4637Y5746D01*
X4636Y5737D01*
X4637Y5728D01*
X4640Y5719D01*
X4646Y5712D01*
X4653Y5706D01*
X4662Y5703D01*
X4671Y5702D01*
X4680Y5703D01*
X4689Y5706D01*
X4696Y5712D01*
X4702Y5719D01*
X4705Y5728D01*
X4706Y5737D01*
X4705Y5746D01*
X4702Y5755D01*
X4696Y5762D01*
X4689Y5768D01*
X4687Y5768D01*
Y5787D01*
X4724D01*
X4728Y5788D01*
X4731Y5790D01*
X4734Y5794D01*
X4734Y5798D01*
Y5876D01*
X4734Y5880D01*
X4731Y5883D01*
X4728Y5886D01*
X4724Y5886D01*
D02*
G37*
G36*
Y5997D02*
X4618D01*
X4614Y5996D01*
X4611Y5994D01*
X4608Y5990D01*
X4608Y5986D01*
Y5963D01*
X4466D01*
X4459Y5962D01*
X4454Y5959D01*
X4448Y5953D01*
X4442Y5959D01*
X4437Y5962D01*
X4430Y5963D01*
X4359D01*
Y5986D01*
X4359Y5990D01*
X4356Y5994D01*
X4353Y5996D01*
X4349Y5997D01*
X4243D01*
X4239Y5996D01*
X4236Y5994D01*
X4233Y5990D01*
X4233Y5986D01*
Y5908D01*
X4233Y5904D01*
X4236Y5901D01*
X4239Y5898D01*
X4243Y5898D01*
X4349D01*
X4353Y5898D01*
X4356Y5901D01*
X4359Y5904D01*
X4359Y5908D01*
Y5931D01*
X4410D01*
Y5918D01*
X4411Y5915D01*
X4413Y5911D01*
X4416Y5909D01*
X4420Y5908D01*
X4476D01*
X4480Y5909D01*
X4483Y5911D01*
X4485Y5915D01*
X4486Y5918D01*
Y5931D01*
X4608D01*
Y5908D01*
X4608Y5904D01*
X4611Y5901D01*
X4614Y5898D01*
X4618Y5898D01*
X4724D01*
X4728Y5898D01*
X4731Y5901D01*
X4734Y5904D01*
X4734Y5908D01*
Y5986D01*
X4734Y5990D01*
X4731Y5994D01*
X4728Y5996D01*
X4724Y5997D01*
D02*
G37*
G36*
X4161Y5947D02*
X4131D01*
Y5917D01*
X4135Y5918D01*
X4144Y5921D01*
X4151Y5927D01*
X4157Y5934D01*
X4160Y5943D01*
X4161Y5947D01*
D02*
G37*
G36*
X5231Y5781D02*
X5219Y5780D01*
X5208Y5777D01*
X5198Y5771D01*
X5189Y5764D01*
X5182Y5755D01*
X5176Y5745D01*
X5173Y5734D01*
X5172Y5722D01*
X5173Y5710D01*
X5176Y5699D01*
X5182Y5689D01*
X5189Y5680D01*
X5198Y5673D01*
X5208Y5667D01*
X5219Y5664D01*
X5231Y5663D01*
X5243Y5664D01*
X5254Y5667D01*
X5264Y5673D01*
X5273Y5680D01*
X5280Y5689D01*
X5286Y5699D01*
X5289Y5710D01*
X5290Y5722D01*
X5289Y5734D01*
X5286Y5745D01*
X5280Y5755D01*
X5273Y5764D01*
X5264Y5771D01*
X5254Y5777D01*
X5243Y5780D01*
X5231Y5781D01*
D02*
G37*
G36*
X2806Y5677D02*
X2776D01*
Y5647D01*
X2780Y5648D01*
X2789Y5651D01*
X2796Y5657D01*
X2802Y5664D01*
X2805Y5673D01*
X2806Y5677D01*
D02*
G37*
G36*
X2776Y5717D02*
Y5687D01*
X2806D01*
X2805Y5691D01*
X2802Y5700D01*
X2796Y5707D01*
X2789Y5713D01*
X2780Y5716D01*
X2776Y5717D01*
D02*
G37*
G36*
X2766D02*
X2762Y5716D01*
X2753Y5713D01*
X2746Y5707D01*
X2740Y5700D01*
X2737Y5691D01*
X2736Y5687D01*
X2766D01*
Y5717D01*
D02*
G37*
%LPD*%
D10*
X2776Y5927D02*
D03*
Y5817D02*
D03*
X3126Y5817D02*
D03*
Y5927D02*
D03*
X3401Y5932D02*
D03*
Y5822D02*
D03*
X3801Y5812D02*
D03*
Y5922D02*
D03*
X4296Y5947D02*
D03*
Y5837D02*
D03*
X4671D02*
D03*
Y5947D02*
D03*
X4681Y4677D02*
D03*
Y4787D02*
D03*
X4281Y4802D02*
D03*
Y4692D02*
D03*
X3856Y4687D02*
D03*
Y4797D02*
D03*
X3431Y4792D02*
D03*
Y4682D02*
D03*
X3131Y4687D02*
D03*
Y4797D02*
D03*
X2756Y4807D02*
D03*
Y4697D02*
D03*
X5001Y4432D02*
D03*
Y4542D02*
D03*
X4996Y6187D02*
D03*
Y6077D02*
D03*
X2301Y6182D02*
D03*
Y6072D02*
D03*
X2306Y4442D02*
D03*
Y4552D02*
D03*
D11*
X3615Y5141D02*
D03*
Y5167D02*
D03*
Y5192D02*
D03*
Y5218D02*
D03*
Y5244D02*
D03*
Y5269D02*
D03*
Y5295D02*
D03*
Y5320D02*
D03*
Y5346D02*
D03*
Y5372D02*
D03*
Y5397D02*
D03*
Y5423D02*
D03*
X3837D02*
D03*
Y5397D02*
D03*
Y5372D02*
D03*
Y5346D02*
D03*
Y5320D02*
D03*
Y5295D02*
D03*
Y5269D02*
D03*
Y5244D02*
D03*
Y5218D02*
D03*
Y5192D02*
D03*
Y5167D02*
D03*
Y5141D02*
D03*
D12*
X2898Y4742D02*
D03*
X2974Y4780D02*
D03*
Y4705D02*
D03*
X3674Y4674D02*
D03*
Y4749D02*
D03*
X3598Y4712D02*
D03*
X4433Y4762D02*
D03*
X4509Y4799D02*
D03*
Y4725D02*
D03*
X4448Y5930D02*
D03*
Y5854D02*
D03*
X4524Y5892D02*
D03*
X3639Y5882D02*
D03*
X3563Y5845D02*
D03*
Y5919D02*
D03*
X2918Y5910D02*
D03*
Y5834D02*
D03*
X2994Y5872D02*
D03*
D13*
X1891Y4312D02*
Y6312D01*
Y4312D02*
X5416D01*
Y6312D01*
X1891D02*
X5416D01*
X3401Y6156D02*
Y6197D01*
X3006Y5642D02*
Y5687D01*
Y5642D02*
X3059Y5589D01*
X2994Y5699D02*
X3006Y5687D01*
X2994Y5699D02*
Y5872D01*
X3656Y5737D02*
X3666Y5727D01*
Y5582D02*
Y5727D01*
X4366Y5722D02*
X4501D01*
X4016Y5707D02*
X4031Y5722D01*
X4366D01*
X4448Y5825D02*
X4491Y5782D01*
X4448Y5825D02*
Y5854D01*
X3646Y5747D02*
X3656Y5737D01*
X3646Y5747D02*
Y5788D01*
X3639Y5882D02*
X3646Y5875D01*
X2594Y6047D02*
X3351D01*
X3316Y6071D02*
X3401Y6156D01*
X2071Y5897D02*
X2146D01*
X2222Y5822D01*
X2216Y5892D02*
X2242Y5866D01*
Y5828D02*
Y5866D01*
Y5828D02*
X2312Y5758D01*
X2410D01*
X2551Y6125D02*
Y6197D01*
X2626Y5922D02*
X2700Y5996D01*
X2231Y5337D02*
X2626Y5732D01*
X2071Y5337D02*
X2231D01*
X2626Y5732D02*
Y5922D01*
X2410Y5758D02*
X2486Y5833D01*
Y6060D01*
X2551Y6125D01*
X2506Y6052D02*
X2651Y6197D01*
X2506Y5825D02*
Y6052D01*
X2419Y5738D02*
X2506Y5825D01*
X2303Y5738D02*
X2419D01*
X2222Y5819D02*
X2303Y5738D01*
X2222Y5819D02*
Y5822D01*
X2136Y5702D02*
X2411D01*
X2526Y5817D01*
Y6007D01*
X2590Y6071D01*
X2071Y5617D02*
X2201D01*
X2266Y5682D02*
X2420D01*
X2546Y5808D01*
Y5999D01*
X2201Y5617D02*
X2266Y5682D01*
X2546Y5999D02*
X2594Y6047D01*
X2700Y5996D02*
X4155D01*
X4356Y6197D01*
X4501Y5722D02*
X4541Y5762D01*
Y5875D01*
X4524Y5892D02*
X4541Y5875D01*
X3351Y6047D02*
X3501Y6197D01*
D14*
X3366Y5717D02*
X3436Y5787D01*
X3566Y5777D02*
Y5845D01*
X4671Y5737D02*
X4671Y5737D01*
X5096Y6037D02*
X5231Y6172D01*
X4306Y4657D02*
X4336Y4687D01*
X4656Y4682D02*
X4681Y4657D01*
X3431Y4672D02*
X3671D01*
X3828Y4674D02*
X3846Y4657D01*
X4300Y4821D02*
Y4926D01*
X3446Y5257D02*
X3491D01*
X3479Y5297D02*
X3613D01*
X3478Y5298D02*
X3479Y5297D01*
X3302Y5298D02*
X3478D01*
X3981Y5320D02*
X4013Y5352D01*
X3837Y5320D02*
X3981D01*
X3969Y5269D02*
X3986Y5252D01*
X3837Y5269D02*
X3969D01*
X3059Y5589D02*
X3256Y5392D01*
X2655Y6021D02*
X4080D01*
X3681Y5372D02*
X4016Y5707D01*
X4080Y6021D02*
X4256Y6197D01*
X4061Y5837D02*
X4296D01*
X3563Y5845D02*
X3566D01*
X3424D02*
X3563D01*
X3566Y5777D02*
X3582Y5761D01*
X3646Y5788D02*
Y5875D01*
X2091Y5477D02*
X2236Y5622D01*
X2071Y5477D02*
X2091D01*
X2081Y5757D02*
X2136Y5702D01*
X2551Y6197D02*
X2564Y6210D01*
X2841Y5742D02*
X2936D01*
X2776Y5807D02*
X2841Y5742D01*
X2936Y5647D02*
Y5742D01*
Y5647D02*
X3237Y5346D01*
X3801Y5682D02*
Y5812D01*
X5146Y5894D02*
X5231Y5979D01*
X5146Y5822D02*
Y5894D01*
X4241Y4917D02*
X5146Y5822D01*
X5096D02*
Y6037D01*
X4271Y4997D02*
X5096Y5822D01*
X4131Y4997D02*
X4271D01*
X4300Y4926D02*
X5231Y5857D01*
X4151Y4917D02*
X4241D01*
X2556Y4432D02*
Y4547D01*
X2506Y4597D02*
X2556Y4547D01*
X2506Y4597D02*
Y4817D01*
X2446Y4877D02*
X2506Y4817D01*
X2301Y4877D02*
X2446D01*
X2093Y5267D02*
X2144Y5217D01*
X2026Y5267D02*
X2093D01*
X1981Y5222D02*
X2026Y5267D01*
X2144Y5165D02*
Y5217D01*
X2276Y5032D02*
X2466D01*
X2144Y5165D02*
X2276Y5032D01*
X1981Y5147D02*
Y5222D01*
X2466Y5032D02*
X2631Y4867D01*
X2455Y5009D02*
X2606Y4858D01*
X2259Y5009D02*
X2455D01*
X2446Y4987D02*
X2581Y4852D01*
X2039Y4987D02*
X2446D01*
X2631Y4657D02*
Y4867D01*
Y4657D02*
X2681Y4607D01*
X2531Y4611D02*
X2637Y4505D01*
X2531Y4611D02*
Y4832D01*
X2656Y4432D02*
Y4487D01*
X2638Y4505D02*
X2656Y4487D01*
X2637Y4505D02*
X2638D01*
X2451Y4912D02*
X2531Y4832D01*
X2298Y4912D02*
X2451D01*
X2556Y4617D02*
Y4842D01*
X2461Y4937D02*
X2556Y4842D01*
X2091Y4937D02*
X2461D01*
X2581Y4632D02*
Y4852D01*
X2606Y4647D02*
Y4858D01*
Y4647D02*
X2676Y4577D01*
X2071Y5197D02*
X2259Y5009D01*
X1981Y4929D02*
X2039Y4987D01*
X2071Y4917D02*
X2091Y4937D01*
X2093Y4707D02*
X2298Y4912D01*
X2021Y4707D02*
X2093D01*
X1981Y4667D02*
X2021Y4707D01*
X2071Y4637D02*
Y4647D01*
X2301Y4877D01*
X2676Y4577D02*
X4106D01*
X4251Y4432D01*
X4216Y4607D02*
X4351Y4472D01*
X2681Y4607D02*
X4216D01*
X1981Y4867D02*
Y4929D01*
X3997Y5196D02*
X4275D01*
X3949Y5244D02*
X3997Y5196D01*
X3837Y5244D02*
X3949D01*
X3837Y5295D02*
X4024D01*
X4026Y5297D01*
X4275Y5196D02*
X4371Y5292D01*
X3799Y5420D02*
X3834D01*
X3666Y5288D02*
X3799Y5420D01*
X3666Y4997D02*
Y5288D01*
X3834Y5420D02*
X3837Y5423D01*
X3807Y5397D02*
X3837D01*
X3726Y5317D02*
X3807Y5397D01*
X3726Y4827D02*
Y5317D01*
X3006Y4957D02*
Y5172D01*
Y4957D02*
X3011Y4952D01*
X2071Y5757D02*
X2081D01*
X3576Y4907D02*
X3666Y4997D01*
X3431Y4792D02*
Y4972D01*
X3521Y5097D02*
X3565Y5141D01*
X3615D01*
Y5167D01*
X3436Y5082D02*
X3546Y5192D01*
X3615D01*
X3837Y5372D02*
Y5397D01*
X3986Y5142D02*
X4001D01*
X3966Y5122D02*
X3986Y5142D01*
X3856Y5122D02*
X3966D01*
X3837Y5141D02*
X3856Y5122D01*
X3837Y5167D02*
X3931D01*
X3837D02*
Y5192D01*
X3674Y4749D02*
X3726Y4801D01*
Y4827D01*
X3576Y4734D02*
X3598Y4712D01*
X3576Y4734D02*
Y4907D01*
X4509Y4799D02*
X4551Y4841D01*
Y4892D01*
X4371Y4824D02*
X4433Y4762D01*
X4371Y4824D02*
Y4902D01*
X4669Y4799D02*
X4681Y4787D01*
X4509Y4799D02*
X4669D01*
X3808Y4749D02*
X3856Y4797D01*
X3674Y4749D02*
X3808D01*
X1981Y4587D02*
X2071Y4497D01*
X1981Y4587D02*
Y4667D01*
Y4867D02*
X2071Y4777D01*
X4571Y4682D02*
X4656D01*
X4529Y4725D02*
X4571Y4682D01*
X4436Y4687D02*
X4473Y4725D01*
X4336Y4687D02*
X4436D01*
X4351Y4432D02*
Y4472D01*
X1981Y5147D02*
X2071Y5057D01*
X4473Y4725D02*
X4509D01*
X4529D01*
X3647Y5423D02*
X4061Y5837D01*
X3615Y5423D02*
X3647D01*
X3491Y5407D02*
X3666Y5582D01*
X3471Y5407D02*
X3491D01*
X3366Y5402D02*
Y5717D01*
X3503Y5269D02*
X3615D01*
X3491Y5257D02*
X3503Y5269D01*
X3613Y5297D02*
X3615Y5295D01*
X3401Y5822D02*
X3436Y5787D01*
X3256Y5392D02*
X3296D01*
X3615Y5218D02*
Y5244D01*
Y5320D02*
Y5346D01*
Y5397D02*
Y5423D01*
X4448Y5930D02*
X4466Y5947D01*
X4671D01*
X4430D02*
X4448Y5930D01*
X4296Y5947D02*
X4430D01*
Y5837D02*
X4448Y5854D01*
X4296Y5837D02*
X4430D01*
X3401Y5822D02*
X3424Y5845D01*
X3798Y5919D02*
X3801Y5922D01*
X3563Y5919D02*
X3798D01*
X3550Y5932D02*
X3563Y5919D01*
X3401Y5932D02*
X3550D01*
X3674Y4674D02*
X3828D01*
X3671Y4672D02*
X3674Y4674D01*
X3615Y5372D02*
X3681D01*
X4671Y5737D02*
X4671D01*
X4671Y5737D02*
Y5837D01*
X3011Y4952D02*
X3131Y4832D01*
Y4797D02*
Y4832D01*
X2974Y4780D02*
X2992Y4797D01*
X3131D01*
X2974Y4705D02*
X3113D01*
X3131Y4687D01*
X2896Y4957D02*
Y5117D01*
X2891Y5122D02*
X2896Y5117D01*
Y4744D02*
Y4957D01*
Y4744D02*
X2898Y4742D01*
X2756Y4697D02*
X2966D01*
X2974Y4705D01*
X2756Y4807D02*
Y5002D01*
X2771Y5017D01*
X3136Y5627D02*
Y5817D01*
X3237Y5346D02*
X3615D01*
X2794Y5834D02*
X2918D01*
X2776Y5817D02*
X2794Y5834D01*
Y5910D02*
X2918D01*
X2776Y5927D02*
X2794Y5910D01*
X2776Y5807D02*
Y5817D01*
X2918Y5910D02*
X3108D01*
X3126Y5927D01*
X4281Y4802D02*
X4300Y4821D01*
X5001Y4542D02*
Y4687D01*
X4946Y4742D02*
X5001Y4687D01*
X2306Y4552D02*
Y4712D01*
X2346Y4752D01*
X2301Y5937D02*
Y6072D01*
Y5937D02*
X2361Y5877D01*
X4996Y5937D02*
Y6077D01*
X4936Y5877D02*
X4996Y5937D01*
X5231Y5979D02*
Y6002D01*
Y6032D01*
Y5857D02*
Y5862D01*
Y5892D01*
X2556Y4617D02*
X2646Y4527D01*
X3311D01*
X3406Y4432D01*
X2581Y4632D02*
X2661Y4552D01*
X3386D01*
X3506Y4432D01*
X3301Y5297D02*
X3302Y5298D01*
X3613Y5216D02*
X3615Y5218D01*
X3366Y5212D02*
X3370Y5216D01*
X3613D01*
X3521Y5082D02*
Y5097D01*
X3431Y5082D02*
X3436D01*
X4013Y5352D02*
X4081D01*
X3986Y5252D02*
X4086D01*
X2071Y6037D02*
X2216Y5892D01*
X2590Y6071D02*
X3316D01*
X2236Y5622D02*
X2401D01*
X2571Y5792D01*
Y5937D01*
X2655Y6021D01*
D15*
X3806Y6197D02*
X3891Y6282D01*
X4741D02*
X5086D01*
X3891D02*
X4741D01*
X4656Y6197D02*
X4741Y6282D01*
X2401D02*
X3036D01*
X2301Y6182D02*
X2401Y6282D01*
X5231Y5162D02*
X5356Y5037D01*
Y4382D02*
Y5037D01*
X5321Y4347D02*
X5356Y4382D01*
X4651Y4432D02*
X4736Y4347D01*
X3891D02*
X4736D01*
X3806Y4432D02*
X3891Y4347D01*
X3041D02*
X3891D01*
X2956Y4432D02*
X3041Y4347D01*
X5231Y5162D02*
X5356Y5287D01*
Y6192D01*
X5266Y6282D02*
X5356Y6192D01*
X5001Y4412D02*
Y4432D01*
Y4412D02*
X5066Y4347D01*
X4736D02*
X5066D01*
X5321D01*
X2401D02*
X3041D01*
X2306Y4442D02*
X2401Y4347D01*
X4996Y6187D02*
Y6192D01*
X5086Y6282D01*
X5266D01*
X2951Y6197D02*
X3036Y6282D01*
X3891D01*
X3801Y6197D02*
X3806D01*
D16*
X5231Y4462D02*
D03*
Y4602D02*
D03*
Y4742D02*
D03*
Y4882D02*
D03*
Y5022D02*
D03*
Y5162D02*
D03*
X2071Y5197D02*
D03*
Y5057D02*
D03*
Y4917D02*
D03*
Y4777D02*
D03*
Y4637D02*
D03*
Y4497D02*
D03*
Y5337D02*
D03*
Y5477D02*
D03*
Y5617D02*
D03*
Y5757D02*
D03*
Y5897D02*
D03*
Y6037D02*
D03*
X5231Y5442D02*
D03*
Y5582D02*
D03*
Y5722D02*
D03*
Y5862D02*
D03*
Y6002D02*
D03*
Y6142D02*
D03*
D17*
X3156Y4432D02*
D03*
X4006D02*
D03*
X4851D02*
D03*
X4856Y6197D02*
D03*
X4011D02*
D03*
X3151D02*
D03*
D18*
X3056Y4432D02*
D03*
X2956D02*
D03*
X2856D02*
D03*
X2756D02*
D03*
X2656D02*
D03*
X2556D02*
D03*
X2456D02*
D03*
X3906D02*
D03*
X3806D02*
D03*
X3706D02*
D03*
X3606D02*
D03*
X3506D02*
D03*
X3406D02*
D03*
X3306D02*
D03*
X4751D02*
D03*
X4651D02*
D03*
X4551D02*
D03*
X4451D02*
D03*
X4351D02*
D03*
X4251D02*
D03*
X4151D02*
D03*
X4756Y6197D02*
D03*
X4656D02*
D03*
X4556D02*
D03*
X4456D02*
D03*
X4356D02*
D03*
X4256D02*
D03*
X4156D02*
D03*
X3911D02*
D03*
X3811D02*
D03*
X3711D02*
D03*
X3611D02*
D03*
X3511D02*
D03*
X3411D02*
D03*
X3311D02*
D03*
X3051D02*
D03*
X2951D02*
D03*
X2851D02*
D03*
X2751D02*
D03*
X2651D02*
D03*
X2551D02*
D03*
X2451D02*
D03*
D19*
X2361Y5877D02*
D03*
X2346Y4752D02*
D03*
X4946Y4742D02*
D03*
X4936Y5877D02*
D03*
D20*
X3446Y5257D02*
D03*
X3856Y6092D02*
D03*
X4491Y5782D02*
D03*
X4366Y5722D02*
D03*
X3656Y5737D02*
D03*
X3566Y5777D02*
D03*
X3006Y5687D02*
D03*
X2936Y5742D02*
D03*
X3801Y5682D02*
D03*
X4026Y5297D02*
D03*
X3431Y5082D02*
D03*
X3006Y5172D02*
D03*
X4136Y5402D02*
D03*
X3306Y5522D02*
D03*
X2771Y5682D02*
D03*
Y5122D02*
D03*
X4371Y5292D02*
D03*
X4151Y4917D02*
D03*
X3431Y4972D02*
D03*
X4131Y4997D02*
D03*
X3521Y5082D02*
D03*
X4001Y5142D02*
D03*
X3931Y5167D02*
D03*
X3726Y4827D02*
D03*
X3576Y4907D02*
D03*
X4551Y4892D02*
D03*
X4371Y4902D02*
D03*
X3471Y5407D02*
D03*
X3366Y5402D02*
D03*
X3301Y5297D02*
D03*
X3296Y5392D02*
D03*
X4886Y5142D02*
D03*
X4671Y5737D02*
D03*
X3011Y4952D02*
D03*
X2891Y5122D02*
D03*
X2896Y4957D02*
D03*
X2771Y5017D02*
D03*
X3136Y5627D02*
D03*
X3366Y5212D02*
D03*
X4081Y5352D02*
D03*
X4086Y5252D02*
D03*
X4126Y5952D02*
D03*
M02*
