M48
;Layer_Color=9474304
;FILE_FORMAT=2:3
INCH,LZ
;TYPE=PLATED
T1F00S00C0.028
T2F00S00C0.035
T3F00S00C0.055
T4F00S00C0.060
T5F00S00C0.152
%
T01
X04886Y05142
X04551Y04892
X04371Y04902
X04151Y04917
X04131Y04997
X04001Y05142
X03931Y05167
X04026Y05297
X04086Y05252
X04081Y05352
X04136Y05402
X04371Y05292
X04366Y05722
X04491Y05782
X04671Y05737
X04126Y05952
X03856Y06092
X03801Y05682
X03656Y05737
X03566Y05777
X03471Y05407
X03366Y05402
X03296Y05392
X03301Y05297
X03366Y05212
X03446Y05257
X03431Y05082
X03521
X03431Y04972
X03576Y04907
X03726Y04827
X03306Y05522
X03136Y05627
X03006Y05687
X02936Y05742
X02771Y05682
Y05122
Y05017
X02896Y04957
X03011Y04952
X03006Y05172
X02891Y05122
T02
X02456Y04432
X02556
X02656
X02756
X02856
X02956
X03056
X03156
X03306
X03406
X03506
X03606
X03706
X03806
X03906
X04006
X04151
X04251
X04351
X04451
X04551
X04651
X04751
X04851
X04856Y06197
X04756
X04656
X04556
X04456
X04356
X04256
X04156
X04011
X03911
X03811
X03711
X03611
X03511
X03411
X03311
X03151
X03051
X02951
X02851
X02751
X02651
X02551
X02451
T03
X05231Y04462
Y04602
Y04742
Y04882
Y05022
Y05162
T04
X02071Y04497
Y04637
X05231Y05442
Y05582
Y05722
Y05862
Y06002
Y06142
X02071Y06037
Y05897
Y05757
Y05617
Y05477
Y05337
Y05197
Y05057
Y04917
Y04777
T05
X04946Y04742
X04936Y05877
X02361
X02346Y04752
M30
