G04 Layer_Color=16711935*
%FSLAX23Y23*%
%MOIN*%
G70*
G01*
G75*
%ADD29C,0.106*%
%ADD30R,0.067X0.067*%
%ADD31C,0.067*%
%ADD32C,0.217*%
%ADD33C,0.058*%
D29*
X5231Y4462D02*
D03*
Y4602D02*
D03*
Y4742D02*
D03*
Y4882D02*
D03*
Y5022D02*
D03*
Y5162D02*
D03*
X2071Y5197D02*
D03*
Y5057D02*
D03*
Y4917D02*
D03*
Y4777D02*
D03*
Y4637D02*
D03*
Y4497D02*
D03*
Y5337D02*
D03*
Y5477D02*
D03*
Y5617D02*
D03*
Y5757D02*
D03*
Y5897D02*
D03*
Y6037D02*
D03*
X5231Y5442D02*
D03*
Y5582D02*
D03*
Y5722D02*
D03*
Y5862D02*
D03*
Y6002D02*
D03*
Y6142D02*
D03*
D30*
X3156Y4432D02*
D03*
X4006D02*
D03*
X4851D02*
D03*
X4856Y6197D02*
D03*
X4011D02*
D03*
X3151D02*
D03*
D31*
X3056Y4432D02*
D03*
X2956D02*
D03*
X2856D02*
D03*
X2756D02*
D03*
X2656D02*
D03*
X2556D02*
D03*
X2456D02*
D03*
X3906D02*
D03*
X3806D02*
D03*
X3706D02*
D03*
X3606D02*
D03*
X3506D02*
D03*
X3406D02*
D03*
X3306D02*
D03*
X4751D02*
D03*
X4651D02*
D03*
X4551D02*
D03*
X4451D02*
D03*
X4351D02*
D03*
X4251D02*
D03*
X4151D02*
D03*
X4756Y6197D02*
D03*
X4656D02*
D03*
X4556D02*
D03*
X4456D02*
D03*
X4356D02*
D03*
X4256D02*
D03*
X4156D02*
D03*
X3911D02*
D03*
X3811D02*
D03*
X3711D02*
D03*
X3611D02*
D03*
X3511D02*
D03*
X3411D02*
D03*
X3311D02*
D03*
X3051D02*
D03*
X2951D02*
D03*
X2851D02*
D03*
X2751D02*
D03*
X2651D02*
D03*
X2551D02*
D03*
X2451D02*
D03*
D32*
X2361Y5877D02*
D03*
X2346Y4752D02*
D03*
X4946Y4742D02*
D03*
X4936Y5877D02*
D03*
D33*
X3446Y5257D02*
D03*
X3856Y6092D02*
D03*
X4491Y5782D02*
D03*
X4366Y5722D02*
D03*
X3656Y5737D02*
D03*
X3566Y5777D02*
D03*
X3006Y5687D02*
D03*
X2936Y5742D02*
D03*
X3801Y5682D02*
D03*
X4026Y5297D02*
D03*
X3431Y5082D02*
D03*
X3006Y5172D02*
D03*
X4136Y5402D02*
D03*
X3306Y5522D02*
D03*
X2771Y5682D02*
D03*
Y5122D02*
D03*
X4371Y5292D02*
D03*
X4151Y4917D02*
D03*
X3431Y4972D02*
D03*
X4131Y4997D02*
D03*
X3521Y5082D02*
D03*
X4001Y5142D02*
D03*
X3931Y5167D02*
D03*
X3726Y4827D02*
D03*
X3576Y4907D02*
D03*
X4551Y4892D02*
D03*
X4371Y4902D02*
D03*
X3471Y5407D02*
D03*
X3366Y5402D02*
D03*
X3301Y5297D02*
D03*
X3296Y5392D02*
D03*
X4886Y5142D02*
D03*
X4671Y5737D02*
D03*
X3011Y4952D02*
D03*
X2891Y5122D02*
D03*
X2896Y4957D02*
D03*
X2771Y5017D02*
D03*
X3136Y5627D02*
D03*
X3366Y5212D02*
D03*
X4081Y5352D02*
D03*
X4086Y5252D02*
D03*
X4126Y5952D02*
D03*
M02*
