G04 Layer_Color=8421504*
%FSLAX23Y23*%
%MOIN*%
G70*
G01*
G75*
%ADD10R,0.106X0.079*%
%ADD11R,0.058X0.014*%
%ADD12R,0.056X0.022*%
D10*
X2776Y5927D02*
D03*
Y5817D02*
D03*
X3126Y5817D02*
D03*
Y5927D02*
D03*
X3401Y5932D02*
D03*
Y5822D02*
D03*
X3801Y5812D02*
D03*
Y5922D02*
D03*
X4296Y5947D02*
D03*
Y5837D02*
D03*
X4671D02*
D03*
Y5947D02*
D03*
X4681Y4677D02*
D03*
Y4787D02*
D03*
X4281Y4802D02*
D03*
Y4692D02*
D03*
X3856Y4687D02*
D03*
Y4797D02*
D03*
X3431Y4792D02*
D03*
Y4682D02*
D03*
X3131Y4687D02*
D03*
Y4797D02*
D03*
X2756Y4807D02*
D03*
Y4697D02*
D03*
X5001Y4432D02*
D03*
Y4542D02*
D03*
X4996Y6187D02*
D03*
Y6077D02*
D03*
X2301Y6182D02*
D03*
Y6072D02*
D03*
X2306Y4442D02*
D03*
Y4552D02*
D03*
D11*
X3615Y5141D02*
D03*
Y5167D02*
D03*
Y5192D02*
D03*
Y5218D02*
D03*
Y5244D02*
D03*
Y5269D02*
D03*
Y5295D02*
D03*
Y5320D02*
D03*
Y5346D02*
D03*
Y5372D02*
D03*
Y5397D02*
D03*
Y5423D02*
D03*
X3837D02*
D03*
Y5397D02*
D03*
Y5372D02*
D03*
Y5346D02*
D03*
Y5320D02*
D03*
Y5295D02*
D03*
Y5269D02*
D03*
Y5244D02*
D03*
Y5218D02*
D03*
Y5192D02*
D03*
Y5167D02*
D03*
Y5141D02*
D03*
D12*
X2898Y4742D02*
D03*
X2974Y4780D02*
D03*
Y4705D02*
D03*
X3674Y4674D02*
D03*
Y4749D02*
D03*
X3598Y4712D02*
D03*
X4433Y4762D02*
D03*
X4509Y4799D02*
D03*
Y4725D02*
D03*
X4448Y5930D02*
D03*
Y5854D02*
D03*
X4524Y5892D02*
D03*
X3639Y5882D02*
D03*
X3563Y5845D02*
D03*
Y5919D02*
D03*
X2918Y5910D02*
D03*
Y5834D02*
D03*
X2994Y5872D02*
D03*
M02*
