G04*
G04 #@! TF.GenerationSoftware,Altium Limited,Altium Designer,19.1.8 (144)*
G04*
G04 Layer_Physical_Order=1*
G04 Layer_Color=255*
%FSLAX25Y25*%
%MOIN*%
G70*
G01*
G75*
%ADD10C,0.01000*%
G04:AMPARAMS|DCode=11|XSize=55mil|YSize=43mil|CornerRadius=7.96mil|HoleSize=0mil|Usage=FLASHONLY|Rotation=180.000|XOffset=0mil|YOffset=0mil|HoleType=Round|Shape=RoundedRectangle|*
%AMROUNDEDRECTD11*
21,1,0.05500,0.02709,0,0,180.0*
21,1,0.03909,0.04300,0,0,180.0*
1,1,0.01591,-0.01955,0.01355*
1,1,0.01591,0.01955,0.01355*
1,1,0.01591,0.01955,-0.01355*
1,1,0.01591,-0.01955,-0.01355*
%
%ADD11ROUNDEDRECTD11*%
%ADD17C,0.08000*%
%ADD18R,0.04795X0.04795*%
%ADD19C,0.04795*%
%ADD20C,0.07000*%
G36*
X234252Y100787D02*
X225074D01*
X225041Y101287D01*
X226108Y101428D01*
X227325Y101932D01*
X228369Y102733D01*
X229171Y103778D01*
X229675Y104994D01*
X229846Y106299D01*
X229675Y107605D01*
X229171Y108821D01*
X228369Y109865D01*
X227325Y110667D01*
X226108Y111170D01*
X224803Y111342D01*
X223498Y111170D01*
X222282Y110667D01*
X221237Y109865D01*
X220436Y108821D01*
X220023Y107826D01*
X219524Y107925D01*
Y117323D01*
X219446Y117713D01*
X219225Y118044D01*
X218894Y118265D01*
X218504Y118342D01*
X191367D01*
X138516Y171193D01*
X138186Y171414D01*
X137795Y171492D01*
X130695D01*
X130535Y171966D01*
X130769Y172145D01*
X131490Y173085D01*
X131943Y174180D01*
X132098Y175354D01*
X131943Y176529D01*
X131490Y177624D01*
X130769Y178564D01*
X129829Y179285D01*
X128734Y179738D01*
X127559Y179893D01*
X126384Y179738D01*
X125290Y179285D01*
X124350Y178564D01*
X123628Y177624D01*
X123175Y176529D01*
X123020Y175354D01*
X123175Y174180D01*
X123628Y173085D01*
X124350Y172145D01*
X124583Y171966D01*
X124423Y171492D01*
X99606D01*
Y348031D01*
X234252D01*
Y100787D01*
D02*
G37*
G36*
X190945Y117323D02*
X218504D01*
Y100787D01*
X212827D01*
X212455Y101096D01*
X212443Y101287D01*
X212454Y101289D01*
X213510Y101428D01*
X214726Y101932D01*
X215771Y102733D01*
X216572Y103778D01*
X217076Y104994D01*
X217182Y105799D01*
X212205D01*
X207227D01*
X207333Y104994D01*
X207837Y103778D01*
X208639Y102733D01*
X209683Y101932D01*
X210899Y101428D01*
X211955Y101289D01*
X211967Y101287D01*
X211954Y101096D01*
X211582Y100787D01*
X99606D01*
Y170472D01*
X137795D01*
X190945Y117323D01*
D02*
G37*
%LPC*%
G36*
X174909Y335251D02*
Y332390D01*
X177771D01*
X177720Y332777D01*
X177377Y333603D01*
X176833Y334313D01*
X176123Y334858D01*
X175296Y335200D01*
X174909Y335251D01*
D02*
G37*
G36*
X173909D02*
X173522Y335200D01*
X172696Y334858D01*
X171986Y334313D01*
X171442Y333603D01*
X171099Y332777D01*
X171048Y332390D01*
X173909D01*
Y335251D01*
D02*
G37*
G36*
Y331390D02*
X171048D01*
X171099Y331003D01*
X171442Y330176D01*
X171986Y329467D01*
X172696Y328922D01*
X173522Y328580D01*
X173909Y328529D01*
Y331390D01*
D02*
G37*
G36*
X163634Y321114D02*
X156839D01*
Y318058D01*
X125404D01*
X125299Y318584D01*
X124902Y319178D01*
X124309Y319575D01*
X123608Y319714D01*
X119699D01*
X118999Y319575D01*
X118404Y319178D01*
X118008Y318584D01*
X117868Y317883D01*
Y315174D01*
X118008Y314474D01*
X118404Y313880D01*
X118999Y313483D01*
X119699Y313344D01*
X123608D01*
X124309Y313483D01*
X124902Y313880D01*
X125299Y314474D01*
X125404Y314999D01*
X156839D01*
Y314319D01*
X163634D01*
Y321114D01*
D02*
G37*
G36*
X123608Y326814D02*
X119699D01*
X118999Y326675D01*
X118404Y326278D01*
X118008Y325684D01*
X117868Y324983D01*
Y322274D01*
X118008Y321574D01*
X118404Y320980D01*
X118999Y320583D01*
X119699Y320444D01*
X123608D01*
X124309Y320583D01*
X124902Y320980D01*
X125299Y321574D01*
X125404Y322099D01*
X167864D01*
X171176Y318788D01*
X171099Y318603D01*
X170983Y317717D01*
X171099Y316830D01*
X171442Y316003D01*
X171986Y315293D01*
X172696Y314749D01*
X173522Y314406D01*
X174409Y314290D01*
X175296Y314406D01*
X176123Y314749D01*
X176833Y315293D01*
X177377Y316003D01*
X177720Y316830D01*
X177836Y317717D01*
X177720Y318603D01*
X177377Y319430D01*
X176833Y320140D01*
X176123Y320684D01*
X175296Y321027D01*
X174409Y321144D01*
X173522Y321027D01*
X173338Y320951D01*
X169579Y324710D01*
X169082Y325042D01*
X168497Y325158D01*
X125404D01*
X125299Y325684D01*
X124902Y326278D01*
X124309Y326675D01*
X123608Y326814D01*
D02*
G37*
G36*
X207559Y279992D02*
X206384Y279837D01*
X205290Y279383D01*
X204350Y278662D01*
X203628Y277722D01*
X203175Y276627D01*
X203020Y275453D01*
X203175Y274278D01*
X203628Y273183D01*
X204350Y272243D01*
X205290Y271522D01*
X206384Y271069D01*
X207559Y270914D01*
X208734Y271069D01*
X209828Y271522D01*
X210769Y272243D01*
X211490Y273183D01*
X211943Y274278D01*
X212098Y275453D01*
X211943Y276627D01*
X211490Y277722D01*
X210769Y278662D01*
X209828Y279383D01*
X208734Y279837D01*
X207559Y279992D01*
D02*
G37*
G36*
X127559Y279893D02*
X126384Y279738D01*
X125290Y279285D01*
X124350Y278564D01*
X123628Y277624D01*
X123175Y276529D01*
X123020Y275354D01*
X123175Y274180D01*
X123628Y273085D01*
X124350Y272145D01*
X125290Y271424D01*
X126384Y270970D01*
X127559Y270815D01*
X128734Y270970D01*
X129829Y271424D01*
X130769Y272145D01*
X131490Y273085D01*
X131943Y274180D01*
X132098Y275354D01*
X131943Y276529D01*
X131490Y277624D01*
X130769Y278564D01*
X129829Y279285D01*
X128734Y279738D01*
X127559Y279893D01*
D02*
G37*
G36*
X207559Y269893D02*
X206384Y269739D01*
X205290Y269285D01*
X204350Y268564D01*
X203628Y267624D01*
X203175Y266529D01*
X203020Y265354D01*
X203175Y264180D01*
X203628Y263085D01*
X204350Y262145D01*
X205290Y261424D01*
X206384Y260970D01*
X207559Y260816D01*
X208734Y260970D01*
X209828Y261424D01*
X210769Y262145D01*
X211490Y263085D01*
X211943Y264180D01*
X212098Y265354D01*
X211943Y266529D01*
X211490Y267624D01*
X210769Y268564D01*
X209828Y269285D01*
X208734Y269739D01*
X207559Y269893D01*
D02*
G37*
G36*
X127559D02*
X126384Y269739D01*
X125290Y269285D01*
X124350Y268564D01*
X123628Y267624D01*
X123175Y266529D01*
X123020Y265354D01*
X123175Y264180D01*
X123628Y263085D01*
X124350Y262145D01*
X125290Y261424D01*
X126384Y260970D01*
X127559Y260816D01*
X128734Y260970D01*
X129829Y261424D01*
X130769Y262145D01*
X131490Y263085D01*
X131943Y264180D01*
X132098Y265354D01*
X131943Y266529D01*
X131490Y267624D01*
X130769Y268564D01*
X129829Y269285D01*
X128734Y269739D01*
X127559Y269893D01*
D02*
G37*
G36*
X207559Y259893D02*
X206384Y259738D01*
X205290Y259285D01*
X204350Y258564D01*
X203628Y257624D01*
X203175Y256529D01*
X203020Y255354D01*
X203175Y254180D01*
X203628Y253085D01*
X204350Y252145D01*
X205290Y251424D01*
X206384Y250970D01*
X207559Y250816D01*
X208734Y250970D01*
X209828Y251424D01*
X210769Y252145D01*
X211490Y253085D01*
X211943Y254180D01*
X212098Y255354D01*
X211943Y256529D01*
X211490Y257624D01*
X210769Y258564D01*
X209828Y259285D01*
X208734Y259738D01*
X207559Y259893D01*
D02*
G37*
G36*
X127559D02*
X126384Y259738D01*
X125290Y259285D01*
X124350Y258564D01*
X123628Y257624D01*
X123175Y256529D01*
X123020Y255354D01*
X123175Y254180D01*
X123628Y253085D01*
X124350Y252145D01*
X125290Y251424D01*
X126384Y250970D01*
X127559Y250816D01*
X128734Y250970D01*
X129829Y251424D01*
X130769Y252145D01*
X131490Y253085D01*
X131943Y254180D01*
X132098Y255354D01*
X131943Y256529D01*
X131490Y257624D01*
X130769Y258564D01*
X129829Y259285D01*
X128734Y259738D01*
X127559Y259893D01*
D02*
G37*
G36*
X207559Y249893D02*
X206384Y249739D01*
X205290Y249285D01*
X204350Y248564D01*
X203628Y247624D01*
X203175Y246529D01*
X203020Y245354D01*
X203175Y244180D01*
X203628Y243085D01*
X204350Y242145D01*
X205290Y241424D01*
X206384Y240970D01*
X207559Y240815D01*
X208734Y240970D01*
X209828Y241424D01*
X210769Y242145D01*
X211490Y243085D01*
X211943Y244180D01*
X212098Y245354D01*
X211943Y246529D01*
X211490Y247624D01*
X210769Y248564D01*
X209828Y249285D01*
X208734Y249739D01*
X207559Y249893D01*
D02*
G37*
G36*
X127559D02*
X126384Y249739D01*
X125290Y249285D01*
X124350Y248564D01*
X123628Y247624D01*
X123175Y246529D01*
X123020Y245354D01*
X123175Y244180D01*
X123628Y243085D01*
X124350Y242145D01*
X125290Y241424D01*
X126384Y240970D01*
X127559Y240815D01*
X128734Y240970D01*
X129829Y241424D01*
X130769Y242145D01*
X131490Y243085D01*
X131943Y244180D01*
X132098Y245354D01*
X131943Y246529D01*
X131490Y247624D01*
X130769Y248564D01*
X129829Y249285D01*
X128734Y249739D01*
X127559Y249893D01*
D02*
G37*
G36*
X207559Y239893D02*
X206384Y239738D01*
X205290Y239285D01*
X204350Y238564D01*
X203628Y237624D01*
X203175Y236529D01*
X203020Y235354D01*
X203175Y234180D01*
X203628Y233085D01*
X204350Y232145D01*
X205290Y231424D01*
X206384Y230970D01*
X207559Y230816D01*
X208734Y230970D01*
X209828Y231424D01*
X210769Y232145D01*
X211490Y233085D01*
X211943Y234180D01*
X212098Y235354D01*
X211943Y236529D01*
X211490Y237624D01*
X210769Y238564D01*
X209828Y239285D01*
X208734Y239738D01*
X207559Y239893D01*
D02*
G37*
G36*
X127559D02*
X126384Y239738D01*
X125290Y239285D01*
X124350Y238564D01*
X123628Y237624D01*
X123175Y236529D01*
X123020Y235354D01*
X123175Y234180D01*
X123628Y233085D01*
X124350Y232145D01*
X125290Y231424D01*
X126384Y230970D01*
X127559Y230816D01*
X128734Y230970D01*
X129829Y231424D01*
X130769Y232145D01*
X131490Y233085D01*
X131943Y234180D01*
X132098Y235354D01*
X131943Y236529D01*
X131490Y237624D01*
X130769Y238564D01*
X129829Y239285D01*
X128734Y239738D01*
X127559Y239893D01*
D02*
G37*
G36*
X207559Y229893D02*
X206384Y229738D01*
X205290Y229285D01*
X204350Y228564D01*
X203628Y227624D01*
X203175Y226529D01*
X203020Y225354D01*
X203175Y224180D01*
X203628Y223085D01*
X204350Y222145D01*
X205290Y221424D01*
X206384Y220970D01*
X207559Y220815D01*
X208734Y220970D01*
X209828Y221424D01*
X210769Y222145D01*
X211490Y223085D01*
X211943Y224180D01*
X212098Y225354D01*
X211943Y226529D01*
X211490Y227624D01*
X210769Y228564D01*
X209828Y229285D01*
X208734Y229738D01*
X207559Y229893D01*
D02*
G37*
G36*
X127559D02*
X126384Y229738D01*
X125290Y229285D01*
X124350Y228564D01*
X123628Y227624D01*
X123175Y226529D01*
X123020Y225354D01*
X123175Y224180D01*
X123628Y223085D01*
X124350Y222145D01*
X125290Y221424D01*
X126384Y220970D01*
X127559Y220815D01*
X128734Y220970D01*
X129829Y221424D01*
X130769Y222145D01*
X131490Y223085D01*
X131943Y224180D01*
X132098Y225354D01*
X131943Y226529D01*
X131490Y227624D01*
X130769Y228564D01*
X129829Y229285D01*
X128734Y229738D01*
X127559Y229893D01*
D02*
G37*
G36*
X207559Y219893D02*
X206384Y219739D01*
X205290Y219285D01*
X204350Y218564D01*
X203628Y217624D01*
X203175Y216529D01*
X203020Y215354D01*
X203175Y214180D01*
X203628Y213085D01*
X204350Y212145D01*
X205290Y211424D01*
X206384Y210970D01*
X207559Y210816D01*
X208734Y210970D01*
X209828Y211424D01*
X210769Y212145D01*
X211490Y213085D01*
X211943Y214180D01*
X212098Y215354D01*
X211943Y216529D01*
X211490Y217624D01*
X210769Y218564D01*
X209828Y219285D01*
X208734Y219739D01*
X207559Y219893D01*
D02*
G37*
G36*
X127559D02*
X126384Y219739D01*
X125290Y219285D01*
X124350Y218564D01*
X123628Y217624D01*
X123175Y216529D01*
X123020Y215354D01*
X123175Y214180D01*
X123628Y213085D01*
X124350Y212145D01*
X125290Y211424D01*
X126384Y210970D01*
X127559Y210816D01*
X128734Y210970D01*
X129829Y211424D01*
X130769Y212145D01*
X131490Y213085D01*
X131943Y214180D01*
X132098Y215354D01*
X131943Y216529D01*
X131490Y217624D01*
X130769Y218564D01*
X129829Y219285D01*
X128734Y219739D01*
X127559Y219893D01*
D02*
G37*
G36*
X207559Y209893D02*
X206384Y209738D01*
X205290Y209285D01*
X204350Y208564D01*
X203628Y207624D01*
X203175Y206529D01*
X203020Y205354D01*
X203175Y204180D01*
X203628Y203085D01*
X204350Y202145D01*
X205290Y201424D01*
X206384Y200970D01*
X207559Y200816D01*
X208734Y200970D01*
X209828Y201424D01*
X210769Y202145D01*
X211490Y203085D01*
X211943Y204180D01*
X212098Y205354D01*
X211943Y206529D01*
X211490Y207624D01*
X210769Y208564D01*
X209828Y209285D01*
X208734Y209738D01*
X207559Y209893D01*
D02*
G37*
G36*
X127559D02*
X126384Y209738D01*
X125290Y209285D01*
X124350Y208564D01*
X123628Y207624D01*
X123175Y206529D01*
X123020Y205354D01*
X123175Y204180D01*
X123628Y203085D01*
X124350Y202145D01*
X125290Y201424D01*
X126384Y200970D01*
X127559Y200816D01*
X128734Y200970D01*
X129829Y201424D01*
X130769Y202145D01*
X131490Y203085D01*
X131943Y204180D01*
X132098Y205354D01*
X131943Y206529D01*
X131490Y207624D01*
X130769Y208564D01*
X129829Y209285D01*
X128734Y209738D01*
X127559Y209893D01*
D02*
G37*
G36*
X207559Y199893D02*
X206384Y199739D01*
X205290Y199285D01*
X204350Y198564D01*
X203628Y197624D01*
X203175Y196529D01*
X203020Y195354D01*
X203175Y194180D01*
X203628Y193085D01*
X204350Y192145D01*
X205290Y191424D01*
X206384Y190970D01*
X207559Y190815D01*
X208734Y190970D01*
X209828Y191424D01*
X210769Y192145D01*
X211490Y193085D01*
X211943Y194180D01*
X212098Y195354D01*
X211943Y196529D01*
X211490Y197624D01*
X210769Y198564D01*
X209828Y199285D01*
X208734Y199739D01*
X207559Y199893D01*
D02*
G37*
G36*
X127559D02*
X126384Y199739D01*
X125290Y199285D01*
X124350Y198564D01*
X123628Y197624D01*
X123175Y196529D01*
X123020Y195354D01*
X123175Y194180D01*
X123628Y193085D01*
X124350Y192145D01*
X125290Y191424D01*
X126384Y190970D01*
X127559Y190815D01*
X128734Y190970D01*
X129829Y191424D01*
X130769Y192145D01*
X131490Y193085D01*
X131943Y194180D01*
X132098Y195354D01*
X131943Y196529D01*
X131490Y197624D01*
X130769Y198564D01*
X129829Y199285D01*
X128734Y199739D01*
X127559Y199893D01*
D02*
G37*
G36*
X207559Y189893D02*
X206384Y189739D01*
X205290Y189285D01*
X204350Y188564D01*
X203628Y187624D01*
X203175Y186529D01*
X203020Y185354D01*
X203175Y184180D01*
X203628Y183085D01*
X204350Y182145D01*
X205290Y181424D01*
X206384Y180970D01*
X207559Y180815D01*
X208734Y180970D01*
X209828Y181424D01*
X210769Y182145D01*
X211490Y183085D01*
X211943Y184180D01*
X212098Y185354D01*
X211943Y186529D01*
X211490Y187624D01*
X210769Y188564D01*
X209828Y189285D01*
X208734Y189739D01*
X207559Y189893D01*
D02*
G37*
G36*
X127559D02*
X126384Y189739D01*
X125290Y189285D01*
X124350Y188564D01*
X123628Y187624D01*
X123175Y186529D01*
X123020Y185354D01*
X123175Y184180D01*
X123628Y183085D01*
X124350Y182145D01*
X125290Y181424D01*
X126384Y180970D01*
X127559Y180815D01*
X128734Y180970D01*
X129829Y181424D01*
X130769Y182145D01*
X131490Y183085D01*
X131943Y184180D01*
X132098Y185354D01*
X131943Y186529D01*
X131490Y187624D01*
X130769Y188564D01*
X129829Y189285D01*
X128734Y189739D01*
X127559Y189893D01*
D02*
G37*
G36*
X207559Y179893D02*
X206384Y179738D01*
X205290Y179285D01*
X204350Y178564D01*
X203628Y177624D01*
X203175Y176529D01*
X203020Y175354D01*
X203175Y174180D01*
X203628Y173085D01*
X204350Y172145D01*
X205290Y171424D01*
X206384Y170970D01*
X207559Y170816D01*
X208734Y170970D01*
X209828Y171424D01*
X210769Y172145D01*
X211490Y173085D01*
X211943Y174180D01*
X212098Y175354D01*
X211943Y176529D01*
X211490Y177624D01*
X210769Y178564D01*
X209828Y179285D01*
X208734Y179738D01*
X207559Y179893D01*
D02*
G37*
G36*
Y169893D02*
X206384Y169738D01*
X205290Y169285D01*
X204350Y168564D01*
X203628Y167624D01*
X203175Y166529D01*
X203020Y165354D01*
X203175Y164180D01*
X203628Y163085D01*
X204350Y162145D01*
X205290Y161424D01*
X206384Y160970D01*
X207559Y160816D01*
X208734Y160970D01*
X209828Y161424D01*
X210769Y162145D01*
X211490Y163085D01*
X211943Y164180D01*
X212098Y165354D01*
X211943Y166529D01*
X211490Y167624D01*
X210769Y168564D01*
X209828Y169285D01*
X208734Y169738D01*
X207559Y169893D01*
D02*
G37*
G36*
Y159893D02*
X206384Y159739D01*
X205290Y159285D01*
X204350Y158564D01*
X203628Y157624D01*
X203175Y156529D01*
X203020Y155354D01*
X203175Y154180D01*
X203628Y153085D01*
X204350Y152145D01*
X205290Y151424D01*
X206384Y150970D01*
X207559Y150815D01*
X208734Y150970D01*
X209828Y151424D01*
X210769Y152145D01*
X211490Y153085D01*
X211943Y154180D01*
X212098Y155354D01*
X211943Y156529D01*
X211490Y157624D01*
X210769Y158564D01*
X209828Y159285D01*
X208734Y159739D01*
X207559Y159893D01*
D02*
G37*
G36*
Y149893D02*
X206384Y149739D01*
X205290Y149285D01*
X204350Y148564D01*
X203628Y147624D01*
X203175Y146529D01*
X203020Y145354D01*
X203175Y144180D01*
X203628Y143085D01*
X204350Y142145D01*
X205290Y141424D01*
X206384Y140970D01*
X207559Y140815D01*
X208734Y140970D01*
X209828Y141424D01*
X210769Y142145D01*
X211490Y143085D01*
X211943Y144180D01*
X212098Y145354D01*
X211943Y146529D01*
X211490Y147624D01*
X210769Y148564D01*
X209828Y149285D01*
X208734Y149739D01*
X207559Y149893D01*
D02*
G37*
G36*
X177771Y331390D02*
X174909D01*
Y328529D01*
X175296Y328580D01*
X175480Y328656D01*
X219337Y284800D01*
Y142366D01*
X213855Y136884D01*
X211796D01*
X211490Y137624D01*
X210769Y138564D01*
X209828Y139285D01*
X208734Y139739D01*
X208059Y139827D01*
Y135354D01*
Y130881D01*
X208734Y130970D01*
X209828Y131424D01*
X210769Y132145D01*
X211490Y133085D01*
X211796Y133825D01*
X214488D01*
X215073Y133941D01*
X215570Y134273D01*
X221948Y140651D01*
X222279Y141147D01*
X222395Y141732D01*
Y285433D01*
X222279Y286018D01*
X221948Y286514D01*
X177643Y330819D01*
X177720Y331003D01*
X177771Y331390D01*
D02*
G37*
G36*
X207059Y139827D02*
X206384Y139739D01*
X205290Y139285D01*
X204350Y138564D01*
X203628Y137624D01*
X203175Y136529D01*
X203086Y135854D01*
X207059D01*
Y139827D01*
D02*
G37*
G36*
Y134854D02*
X203086D01*
X203175Y134180D01*
X203628Y133085D01*
X204350Y132145D01*
X205290Y131424D01*
X206384Y130970D01*
X207059Y130881D01*
Y134854D01*
D02*
G37*
G36*
X207559Y129893D02*
X206384Y129738D01*
X205290Y129285D01*
X204350Y128564D01*
X203628Y127624D01*
X203175Y126529D01*
X203020Y125354D01*
X203175Y124180D01*
X203628Y123085D01*
X204350Y122145D01*
X205290Y121424D01*
X206384Y120970D01*
X207559Y120816D01*
X208734Y120970D01*
X209828Y121424D01*
X210769Y122145D01*
X211490Y123085D01*
X211943Y124180D01*
X212098Y125354D01*
X211943Y126529D01*
X211490Y127624D01*
X210769Y128564D01*
X209828Y129285D01*
X208734Y129738D01*
X207559Y129893D01*
D02*
G37*
G36*
X128059Y169827D02*
Y165854D01*
X132032D01*
X131943Y166529D01*
X131490Y167624D01*
X130769Y168564D01*
X129829Y169285D01*
X128734Y169738D01*
X128059Y169827D01*
D02*
G37*
G36*
X127059D02*
X126384Y169738D01*
X125290Y169285D01*
X124350Y168564D01*
X123628Y167624D01*
X123175Y166529D01*
X123086Y165854D01*
X127059D01*
Y169827D01*
D02*
G37*
G36*
X132032Y164854D02*
X128059D01*
Y160881D01*
X128734Y160970D01*
X129829Y161424D01*
X130769Y162145D01*
X131490Y163085D01*
X131943Y164180D01*
X132032Y164854D01*
D02*
G37*
G36*
X127059D02*
X123086D01*
X123175Y164180D01*
X123628Y163085D01*
X124350Y162145D01*
X125290Y161424D01*
X126384Y160970D01*
X127059Y160881D01*
Y164854D01*
D02*
G37*
G36*
X212705Y111276D02*
Y106799D01*
X217182D01*
X217076Y107605D01*
X216572Y108821D01*
X215771Y109865D01*
X214726Y110667D01*
X213510Y111170D01*
X212705Y111276D01*
D02*
G37*
G36*
X211705D02*
X210899Y111170D01*
X209683Y110667D01*
X208639Y109865D01*
X207837Y108821D01*
X207333Y107605D01*
X207227Y106799D01*
X211705D01*
Y111276D01*
D02*
G37*
%LPD*%
D10*
X207559Y135354D02*
X214488D01*
X220866Y141732D01*
Y285433D01*
X174409Y331890D02*
X220866Y285433D01*
X121653Y316529D02*
X159048D01*
X160236Y317717D01*
X168497Y323629D02*
X174409Y317717D01*
X121653Y323629D02*
X168497D01*
D11*
X121653Y316529D02*
D03*
Y323629D02*
D03*
D17*
X212205Y106299D02*
D03*
X224803D02*
D03*
D18*
X160236Y317717D02*
D03*
D19*
X174409D02*
D03*
Y331890D02*
D03*
D20*
X127559Y275354D02*
D03*
Y265354D02*
D03*
Y255354D02*
D03*
Y245354D02*
D03*
Y235354D02*
D03*
Y225354D02*
D03*
Y215354D02*
D03*
Y205354D02*
D03*
Y195354D02*
D03*
Y185354D02*
D03*
Y175354D02*
D03*
Y165354D02*
D03*
X207559Y125354D02*
D03*
Y135354D02*
D03*
Y145354D02*
D03*
Y155354D02*
D03*
Y165354D02*
D03*
Y175354D02*
D03*
Y185354D02*
D03*
Y195354D02*
D03*
Y205354D02*
D03*
Y215354D02*
D03*
Y225354D02*
D03*
Y235354D02*
D03*
Y245354D02*
D03*
Y255354D02*
D03*
Y265354D02*
D03*
Y275453D02*
D03*
M02*
