M48
;Layer_Color=9474304
;FILE_FORMAT=2:5
INCH,LZ
;TYPE=PLATED
T1F00S00C0.02795
T2F00S00C0.04000
%
T01
X0160236Y0317717
X0174409
Y033189
T02
X0212205Y0106299
X0224803
X0207559Y0125354
Y0135354
Y0145354
Y0155354
Y0165354
Y0175354
Y0185354
Y0195354
Y0205354
Y0215354
Y0225354
Y0235354
Y0245354
Y0255354
Y0265354
Y0275453
X0127559Y0275354
Y0265354
Y0255354
Y0245354
Y0235354
Y0225354
Y0215354
Y0205354
Y0195354
Y0185354
Y0175354
Y0165354
M30
