G04*
G04 #@! TF.GenerationSoftware,Altium Limited,Altium Designer,19.1.8 (144)*
G04*
G04 Layer_Color=8388736*
%FSLAX25Y25*%
%MOIN*%
G70*
G01*
G75*
G04:AMPARAMS|DCode=12|XSize=63mil|YSize=51mil|CornerRadius=11.96mil|HoleSize=0mil|Usage=FLASHONLY|Rotation=180.000|XOffset=0mil|YOffset=0mil|HoleType=Round|Shape=RoundedRectangle|*
%AMROUNDEDRECTD12*
21,1,0.06300,0.02709,0,0,180.0*
21,1,0.03909,0.05100,0,0,180.0*
1,1,0.02391,-0.01955,0.01355*
1,1,0.02391,0.01955,0.01355*
1,1,0.02391,0.01955,-0.01355*
1,1,0.02391,-0.01955,-0.01355*
%
%ADD12ROUNDEDRECTD12*%
%ADD13C,0.08800*%
%ADD14R,0.05595X0.05595*%
%ADD15C,0.05595*%
%ADD16C,0.07800*%
D12*
X121653Y316529D02*
D03*
Y323629D02*
D03*
D13*
X212205Y106299D02*
D03*
X224803D02*
D03*
D14*
X160236Y317717D02*
D03*
D15*
X174409D02*
D03*
Y331890D02*
D03*
D16*
X127559Y275354D02*
D03*
Y265354D02*
D03*
Y255354D02*
D03*
Y245354D02*
D03*
Y235354D02*
D03*
Y225354D02*
D03*
Y215354D02*
D03*
Y205354D02*
D03*
Y195354D02*
D03*
Y185354D02*
D03*
Y175354D02*
D03*
Y165354D02*
D03*
X207559Y125354D02*
D03*
Y135354D02*
D03*
Y145354D02*
D03*
Y155354D02*
D03*
Y165354D02*
D03*
Y175354D02*
D03*
Y185354D02*
D03*
Y195354D02*
D03*
Y205354D02*
D03*
Y215354D02*
D03*
Y225354D02*
D03*
Y235354D02*
D03*
Y245354D02*
D03*
Y255354D02*
D03*
Y265354D02*
D03*
Y275453D02*
D03*
M02*
