G04*
G04 #@! TF.GenerationSoftware,Altium Limited,Altium Designer,19.1.8 (144)*
G04*
G04 Layer_Physical_Order=2*
G04 Layer_Color=16711680*
%FSLAX25Y25*%
%MOIN*%
G70*
G01*
G75*
%ADD10C,0.01000*%
%ADD17C,0.08000*%
%ADD18R,0.04795X0.04795*%
%ADD19C,0.04795*%
%ADD20C,0.07000*%
G36*
X233858Y100394D02*
X100000D01*
Y348031D01*
X233858D01*
Y100394D01*
D02*
G37*
%LPC*%
G36*
X174409Y335317D02*
X173522Y335200D01*
X172696Y334858D01*
X171986Y334313D01*
X171442Y333603D01*
X171099Y332777D01*
X170983Y331890D01*
X171099Y331003D01*
X171442Y330176D01*
X171986Y329467D01*
X172696Y328922D01*
X173522Y328580D01*
X174409Y328463D01*
X175296Y328580D01*
X176123Y328922D01*
X176833Y329467D01*
X177377Y330176D01*
X177720Y331003D01*
X177836Y331890D01*
X177720Y332777D01*
X177377Y333603D01*
X176833Y334313D01*
X176123Y334858D01*
X175296Y335200D01*
X174409Y335317D01*
D02*
G37*
G36*
X163634Y321114D02*
X160736D01*
Y318216D01*
X163634D01*
Y321114D01*
D02*
G37*
G36*
X159736D02*
X156839D01*
Y318216D01*
X159736D01*
Y321114D01*
D02*
G37*
G36*
X163634Y317216D02*
X160736D01*
Y314319D01*
X163634D01*
Y317216D01*
D02*
G37*
G36*
X159736D02*
X156839D01*
Y314319D01*
X159736D01*
Y317216D01*
D02*
G37*
G36*
X207559Y279992D02*
X206384Y279837D01*
X205290Y279383D01*
X204350Y278662D01*
X203628Y277722D01*
X203175Y276627D01*
X203020Y275453D01*
X203175Y274278D01*
X203628Y273183D01*
X204350Y272243D01*
X205290Y271522D01*
X206384Y271069D01*
X207559Y270914D01*
X208734Y271069D01*
X209828Y271522D01*
X210769Y272243D01*
X211490Y273183D01*
X211943Y274278D01*
X212098Y275453D01*
X211943Y276627D01*
X211490Y277722D01*
X210769Y278662D01*
X209828Y279383D01*
X208734Y279837D01*
X207559Y279992D01*
D02*
G37*
G36*
X127559Y279893D02*
X126384Y279738D01*
X125290Y279285D01*
X124350Y278564D01*
X123628Y277624D01*
X123175Y276529D01*
X123020Y275354D01*
X123175Y274180D01*
X123628Y273085D01*
X124350Y272145D01*
X125290Y271424D01*
X126384Y270970D01*
X127559Y270815D01*
X128734Y270970D01*
X129829Y271424D01*
X130769Y272145D01*
X131490Y273085D01*
X131943Y274180D01*
X132098Y275354D01*
X131943Y276529D01*
X131490Y277624D01*
X130769Y278564D01*
X129829Y279285D01*
X128734Y279738D01*
X127559Y279893D01*
D02*
G37*
G36*
X207559Y269893D02*
X206384Y269739D01*
X205290Y269285D01*
X204350Y268564D01*
X203628Y267624D01*
X203175Y266529D01*
X203020Y265354D01*
X203175Y264180D01*
X203628Y263085D01*
X204350Y262145D01*
X205290Y261424D01*
X206384Y260970D01*
X207559Y260816D01*
X208734Y260970D01*
X209828Y261424D01*
X210769Y262145D01*
X211490Y263085D01*
X211943Y264180D01*
X212098Y265354D01*
X211943Y266529D01*
X211490Y267624D01*
X210769Y268564D01*
X209828Y269285D01*
X208734Y269739D01*
X207559Y269893D01*
D02*
G37*
G36*
X127559D02*
X126384Y269739D01*
X125290Y269285D01*
X124350Y268564D01*
X123628Y267624D01*
X123175Y266529D01*
X123020Y265354D01*
X123175Y264180D01*
X123628Y263085D01*
X124350Y262145D01*
X125290Y261424D01*
X126384Y260970D01*
X127559Y260816D01*
X128734Y260970D01*
X129829Y261424D01*
X130769Y262145D01*
X131490Y263085D01*
X131943Y264180D01*
X132098Y265354D01*
X131943Y266529D01*
X131490Y267624D01*
X130769Y268564D01*
X129829Y269285D01*
X128734Y269739D01*
X127559Y269893D01*
D02*
G37*
G36*
X207559Y259893D02*
X206384Y259738D01*
X205290Y259285D01*
X204350Y258564D01*
X203628Y257624D01*
X203175Y256529D01*
X203020Y255354D01*
X203175Y254180D01*
X203628Y253085D01*
X204350Y252145D01*
X205290Y251424D01*
X206384Y250970D01*
X207559Y250816D01*
X208734Y250970D01*
X209828Y251424D01*
X210769Y252145D01*
X211490Y253085D01*
X211943Y254180D01*
X212098Y255354D01*
X211943Y256529D01*
X211490Y257624D01*
X210769Y258564D01*
X209828Y259285D01*
X208734Y259738D01*
X207559Y259893D01*
D02*
G37*
G36*
X127559D02*
X126384Y259738D01*
X125290Y259285D01*
X124350Y258564D01*
X123628Y257624D01*
X123175Y256529D01*
X123020Y255354D01*
X123175Y254180D01*
X123628Y253085D01*
X124350Y252145D01*
X125290Y251424D01*
X126384Y250970D01*
X127559Y250816D01*
X128734Y250970D01*
X129829Y251424D01*
X130769Y252145D01*
X131490Y253085D01*
X131943Y254180D01*
X132098Y255354D01*
X131943Y256529D01*
X131490Y257624D01*
X130769Y258564D01*
X129829Y259285D01*
X128734Y259738D01*
X127559Y259893D01*
D02*
G37*
G36*
X207559Y249893D02*
X206384Y249739D01*
X205290Y249285D01*
X204350Y248564D01*
X203628Y247624D01*
X203175Y246529D01*
X203020Y245354D01*
X203175Y244180D01*
X203628Y243085D01*
X204350Y242145D01*
X205290Y241424D01*
X206384Y240970D01*
X207559Y240815D01*
X208734Y240970D01*
X209828Y241424D01*
X210769Y242145D01*
X211490Y243085D01*
X211943Y244180D01*
X212098Y245354D01*
X211943Y246529D01*
X211490Y247624D01*
X210769Y248564D01*
X209828Y249285D01*
X208734Y249739D01*
X207559Y249893D01*
D02*
G37*
G36*
X127559D02*
X126384Y249739D01*
X125290Y249285D01*
X124350Y248564D01*
X123628Y247624D01*
X123175Y246529D01*
X123020Y245354D01*
X123175Y244180D01*
X123628Y243085D01*
X124350Y242145D01*
X125290Y241424D01*
X126384Y240970D01*
X127559Y240815D01*
X128734Y240970D01*
X129829Y241424D01*
X130769Y242145D01*
X131490Y243085D01*
X131943Y244180D01*
X132098Y245354D01*
X131943Y246529D01*
X131490Y247624D01*
X130769Y248564D01*
X129829Y249285D01*
X128734Y249739D01*
X127559Y249893D01*
D02*
G37*
G36*
X207559Y239893D02*
X206384Y239738D01*
X205290Y239285D01*
X204350Y238564D01*
X203628Y237624D01*
X203175Y236529D01*
X203020Y235354D01*
X203175Y234180D01*
X203628Y233085D01*
X204350Y232145D01*
X205290Y231424D01*
X206384Y230970D01*
X207559Y230816D01*
X208734Y230970D01*
X209828Y231424D01*
X210769Y232145D01*
X211490Y233085D01*
X211943Y234180D01*
X212098Y235354D01*
X211943Y236529D01*
X211490Y237624D01*
X210769Y238564D01*
X209828Y239285D01*
X208734Y239738D01*
X207559Y239893D01*
D02*
G37*
G36*
X127559D02*
X126384Y239738D01*
X125290Y239285D01*
X124350Y238564D01*
X123628Y237624D01*
X123175Y236529D01*
X123020Y235354D01*
X123175Y234180D01*
X123628Y233085D01*
X124350Y232145D01*
X125290Y231424D01*
X126384Y230970D01*
X127559Y230816D01*
X128734Y230970D01*
X129829Y231424D01*
X130769Y232145D01*
X131490Y233085D01*
X131943Y234180D01*
X132098Y235354D01*
X131943Y236529D01*
X131490Y237624D01*
X130769Y238564D01*
X129829Y239285D01*
X128734Y239738D01*
X127559Y239893D01*
D02*
G37*
G36*
X207559Y229893D02*
X206384Y229738D01*
X205290Y229285D01*
X204350Y228564D01*
X203628Y227624D01*
X203175Y226529D01*
X203020Y225354D01*
X203175Y224180D01*
X203628Y223085D01*
X204350Y222145D01*
X205290Y221424D01*
X206384Y220970D01*
X207559Y220815D01*
X208734Y220970D01*
X209828Y221424D01*
X210769Y222145D01*
X211490Y223085D01*
X211943Y224180D01*
X212098Y225354D01*
X211943Y226529D01*
X211490Y227624D01*
X210769Y228564D01*
X209828Y229285D01*
X208734Y229738D01*
X207559Y229893D01*
D02*
G37*
G36*
X127559D02*
X126384Y229738D01*
X125290Y229285D01*
X124350Y228564D01*
X123628Y227624D01*
X123175Y226529D01*
X123020Y225354D01*
X123175Y224180D01*
X123628Y223085D01*
X124350Y222145D01*
X125290Y221424D01*
X126384Y220970D01*
X127559Y220815D01*
X128734Y220970D01*
X129829Y221424D01*
X130769Y222145D01*
X131490Y223085D01*
X131943Y224180D01*
X132098Y225354D01*
X131943Y226529D01*
X131490Y227624D01*
X130769Y228564D01*
X129829Y229285D01*
X128734Y229738D01*
X127559Y229893D01*
D02*
G37*
G36*
X207559Y219893D02*
X206384Y219739D01*
X205290Y219285D01*
X204350Y218564D01*
X203628Y217624D01*
X203175Y216529D01*
X203020Y215354D01*
X203175Y214180D01*
X203628Y213085D01*
X204350Y212145D01*
X205290Y211424D01*
X206384Y210970D01*
X207559Y210816D01*
X208734Y210970D01*
X209828Y211424D01*
X210769Y212145D01*
X211490Y213085D01*
X211943Y214180D01*
X212098Y215354D01*
X211943Y216529D01*
X211490Y217624D01*
X210769Y218564D01*
X209828Y219285D01*
X208734Y219739D01*
X207559Y219893D01*
D02*
G37*
G36*
X127559D02*
X126384Y219739D01*
X125290Y219285D01*
X124350Y218564D01*
X123628Y217624D01*
X123175Y216529D01*
X123020Y215354D01*
X123175Y214180D01*
X123628Y213085D01*
X124350Y212145D01*
X125290Y211424D01*
X126384Y210970D01*
X127559Y210816D01*
X128734Y210970D01*
X129829Y211424D01*
X130769Y212145D01*
X131490Y213085D01*
X131943Y214180D01*
X132098Y215354D01*
X131943Y216529D01*
X131490Y217624D01*
X130769Y218564D01*
X129829Y219285D01*
X128734Y219739D01*
X127559Y219893D01*
D02*
G37*
G36*
X207559Y209893D02*
X206384Y209738D01*
X205290Y209285D01*
X204350Y208564D01*
X203628Y207624D01*
X203175Y206529D01*
X203020Y205354D01*
X203175Y204180D01*
X203628Y203085D01*
X204350Y202145D01*
X205290Y201424D01*
X206384Y200970D01*
X207559Y200816D01*
X208734Y200970D01*
X209828Y201424D01*
X210769Y202145D01*
X211490Y203085D01*
X211943Y204180D01*
X212098Y205354D01*
X211943Y206529D01*
X211490Y207624D01*
X210769Y208564D01*
X209828Y209285D01*
X208734Y209738D01*
X207559Y209893D01*
D02*
G37*
G36*
X127559D02*
X126384Y209738D01*
X125290Y209285D01*
X124350Y208564D01*
X123628Y207624D01*
X123175Y206529D01*
X123020Y205354D01*
X123175Y204180D01*
X123628Y203085D01*
X124350Y202145D01*
X125290Y201424D01*
X126384Y200970D01*
X127559Y200816D01*
X128734Y200970D01*
X129829Y201424D01*
X130769Y202145D01*
X131490Y203085D01*
X131943Y204180D01*
X132098Y205354D01*
X131943Y206529D01*
X131490Y207624D01*
X130769Y208564D01*
X129829Y209285D01*
X128734Y209738D01*
X127559Y209893D01*
D02*
G37*
G36*
X207559Y199893D02*
X206384Y199739D01*
X205290Y199285D01*
X204350Y198564D01*
X203628Y197624D01*
X203175Y196529D01*
X203020Y195354D01*
X203175Y194180D01*
X203628Y193085D01*
X204350Y192145D01*
X205290Y191424D01*
X206384Y190970D01*
X207559Y190815D01*
X208734Y190970D01*
X209828Y191424D01*
X210769Y192145D01*
X211490Y193085D01*
X211943Y194180D01*
X212098Y195354D01*
X211943Y196529D01*
X211490Y197624D01*
X210769Y198564D01*
X209828Y199285D01*
X208734Y199739D01*
X207559Y199893D01*
D02*
G37*
G36*
X127559D02*
X126384Y199739D01*
X125290Y199285D01*
X124350Y198564D01*
X123628Y197624D01*
X123175Y196529D01*
X123020Y195354D01*
X123175Y194180D01*
X123628Y193085D01*
X124350Y192145D01*
X125290Y191424D01*
X126384Y190970D01*
X127559Y190815D01*
X128734Y190970D01*
X129829Y191424D01*
X130769Y192145D01*
X131490Y193085D01*
X131943Y194180D01*
X132098Y195354D01*
X131943Y196529D01*
X131490Y197624D01*
X130769Y198564D01*
X129829Y199285D01*
X128734Y199739D01*
X127559Y199893D01*
D02*
G37*
G36*
X174409Y321144D02*
X173522Y321027D01*
X172696Y320684D01*
X171986Y320140D01*
X171442Y319430D01*
X171099Y318603D01*
X170983Y317717D01*
X171099Y316830D01*
X171442Y316003D01*
X171986Y315293D01*
X172696Y314749D01*
X172880Y314672D01*
Y218504D01*
X172996Y217919D01*
X173328Y217423D01*
X203481Y187269D01*
X203175Y186529D01*
X203020Y185354D01*
X203175Y184180D01*
X203628Y183085D01*
X204350Y182145D01*
X205290Y181424D01*
X206384Y180970D01*
X207559Y180815D01*
X208734Y180970D01*
X209828Y181424D01*
X210769Y182145D01*
X211490Y183085D01*
X211943Y184180D01*
X212098Y185354D01*
X211943Y186529D01*
X211490Y187624D01*
X210769Y188564D01*
X209828Y189285D01*
X208734Y189739D01*
X207559Y189893D01*
X206384Y189739D01*
X205644Y189432D01*
X175939Y219137D01*
Y314672D01*
X176123Y314749D01*
X176833Y315293D01*
X177377Y316003D01*
X177720Y316830D01*
X177836Y317717D01*
X177720Y318603D01*
X177377Y319430D01*
X176833Y320140D01*
X176123Y320684D01*
X175296Y321027D01*
X174409Y321144D01*
D02*
G37*
G36*
X127559Y189893D02*
X126384Y189739D01*
X125290Y189285D01*
X124350Y188564D01*
X123628Y187624D01*
X123175Y186529D01*
X123020Y185354D01*
X123175Y184180D01*
X123628Y183085D01*
X124350Y182145D01*
X125290Y181424D01*
X126384Y180970D01*
X127559Y180815D01*
X128734Y180970D01*
X129829Y181424D01*
X130769Y182145D01*
X131490Y183085D01*
X131943Y184180D01*
X132098Y185354D01*
X131943Y186529D01*
X131490Y187624D01*
X130769Y188564D01*
X129829Y189285D01*
X128734Y189739D01*
X127559Y189893D01*
D02*
G37*
G36*
X207559Y179893D02*
X206384Y179738D01*
X205290Y179285D01*
X204350Y178564D01*
X203628Y177624D01*
X203175Y176529D01*
X203020Y175354D01*
X203175Y174180D01*
X203628Y173085D01*
X204350Y172145D01*
X205290Y171424D01*
X206384Y170970D01*
X207559Y170816D01*
X208734Y170970D01*
X209828Y171424D01*
X210769Y172145D01*
X211490Y173085D01*
X211943Y174180D01*
X212098Y175354D01*
X211943Y176529D01*
X211490Y177624D01*
X210769Y178564D01*
X209828Y179285D01*
X208734Y179738D01*
X207559Y179893D01*
D02*
G37*
G36*
X127559D02*
X126384Y179738D01*
X125290Y179285D01*
X124350Y178564D01*
X123628Y177624D01*
X123175Y176529D01*
X123020Y175354D01*
X123175Y174180D01*
X123628Y173085D01*
X124350Y172145D01*
X125290Y171424D01*
X126384Y170970D01*
X127559Y170816D01*
X128734Y170970D01*
X129829Y171424D01*
X130769Y172145D01*
X131490Y173085D01*
X131943Y174180D01*
X132098Y175354D01*
X131943Y176529D01*
X131490Y177624D01*
X130769Y178564D01*
X129829Y179285D01*
X128734Y179738D01*
X127559Y179893D01*
D02*
G37*
G36*
X207559Y169893D02*
X206384Y169738D01*
X205290Y169285D01*
X204350Y168564D01*
X203628Y167624D01*
X203175Y166529D01*
X203020Y165354D01*
X203175Y164180D01*
X203628Y163085D01*
X204350Y162145D01*
X205290Y161424D01*
X206384Y160970D01*
X207559Y160816D01*
X208734Y160970D01*
X209828Y161424D01*
X210769Y162145D01*
X211490Y163085D01*
X211943Y164180D01*
X212098Y165354D01*
X211943Y166529D01*
X211490Y167624D01*
X210769Y168564D01*
X209828Y169285D01*
X208734Y169738D01*
X207559Y169893D01*
D02*
G37*
G36*
X127559D02*
X126384Y169738D01*
X125290Y169285D01*
X124350Y168564D01*
X123628Y167624D01*
X123175Y166529D01*
X123020Y165354D01*
X123175Y164180D01*
X123628Y163085D01*
X124350Y162145D01*
X125290Y161424D01*
X126384Y160970D01*
X127559Y160816D01*
X128734Y160970D01*
X129829Y161424D01*
X130769Y162145D01*
X131490Y163085D01*
X131943Y164180D01*
X132098Y165354D01*
X131943Y166529D01*
X131490Y167624D01*
X130769Y168564D01*
X129829Y169285D01*
X128734Y169738D01*
X127559Y169893D01*
D02*
G37*
G36*
X208059Y159827D02*
Y155854D01*
X212032D01*
X211943Y156529D01*
X211490Y157624D01*
X210769Y158564D01*
X209828Y159285D01*
X208734Y159739D01*
X208059Y159827D01*
D02*
G37*
G36*
X207059D02*
X206384Y159739D01*
X205290Y159285D01*
X204350Y158564D01*
X203628Y157624D01*
X203175Y156529D01*
X203086Y155854D01*
X207059D01*
Y159827D01*
D02*
G37*
G36*
X212032Y154854D02*
X208059D01*
Y150881D01*
X208734Y150970D01*
X209828Y151424D01*
X210769Y152145D01*
X211490Y153085D01*
X211943Y154180D01*
X212032Y154854D01*
D02*
G37*
G36*
X207059D02*
X203086D01*
X203175Y154180D01*
X203628Y153085D01*
X204350Y152145D01*
X205290Y151424D01*
X206384Y150970D01*
X207059Y150881D01*
Y154854D01*
D02*
G37*
G36*
X207559Y149893D02*
X206384Y149739D01*
X205290Y149285D01*
X204350Y148564D01*
X203628Y147624D01*
X203175Y146529D01*
X203020Y145354D01*
X203175Y144180D01*
X203628Y143085D01*
X204350Y142145D01*
X205290Y141424D01*
X206384Y140970D01*
X207559Y140815D01*
X208734Y140970D01*
X209828Y141424D01*
X210769Y142145D01*
X211490Y143085D01*
X211943Y144180D01*
X212098Y145354D01*
X211943Y146529D01*
X211490Y147624D01*
X210769Y148564D01*
X209828Y149285D01*
X208734Y149739D01*
X207559Y149893D01*
D02*
G37*
G36*
Y139893D02*
X206384Y139739D01*
X205290Y139285D01*
X204350Y138564D01*
X203628Y137624D01*
X203175Y136529D01*
X203020Y135354D01*
X203175Y134180D01*
X203628Y133085D01*
X204350Y132145D01*
X205290Y131424D01*
X206384Y130970D01*
X207559Y130815D01*
X208734Y130970D01*
X209828Y131424D01*
X210769Y132145D01*
X211490Y133085D01*
X211943Y134180D01*
X212098Y135354D01*
X211943Y136529D01*
X211490Y137624D01*
X210769Y138564D01*
X209828Y139285D01*
X208734Y139739D01*
X207559Y139893D01*
D02*
G37*
G36*
Y129893D02*
X206384Y129738D01*
X205290Y129285D01*
X204350Y128564D01*
X203628Y127624D01*
X203175Y126529D01*
X203020Y125354D01*
X203175Y124180D01*
X203628Y123085D01*
X204350Y122145D01*
X205290Y121424D01*
X206384Y120970D01*
X207559Y120816D01*
X208734Y120970D01*
X209828Y121424D01*
X210769Y122145D01*
X211490Y123085D01*
X211943Y124180D01*
X212098Y125354D01*
X211943Y126529D01*
X211490Y127624D01*
X210769Y128564D01*
X209828Y129285D01*
X208734Y129738D01*
X207559Y129893D01*
D02*
G37*
G36*
X225303Y111276D02*
Y106799D01*
X229781D01*
X229675Y107605D01*
X229171Y108821D01*
X228369Y109865D01*
X227325Y110667D01*
X226108Y111170D01*
X225303Y111276D01*
D02*
G37*
G36*
X224303D02*
X223498Y111170D01*
X222282Y110667D01*
X221237Y109865D01*
X220436Y108821D01*
X219932Y107605D01*
X219826Y106799D01*
X224303D01*
Y111276D01*
D02*
G37*
G36*
X229781Y105799D02*
X225303D01*
Y101322D01*
X226108Y101428D01*
X227325Y101932D01*
X228369Y102733D01*
X229171Y103778D01*
X229675Y104994D01*
X229781Y105799D01*
D02*
G37*
G36*
X224303D02*
X219826D01*
X219932Y104994D01*
X220436Y103778D01*
X221237Y102733D01*
X222282Y101932D01*
X223498Y101428D01*
X224303Y101322D01*
Y105799D01*
D02*
G37*
G36*
X212205Y111342D02*
X210899Y111170D01*
X209683Y110667D01*
X208639Y109865D01*
X207837Y108821D01*
X207333Y107605D01*
X207162Y106299D01*
X207333Y104994D01*
X207837Y103778D01*
X208639Y102733D01*
X209683Y101932D01*
X210899Y101428D01*
X212205Y101256D01*
X213510Y101428D01*
X214726Y101932D01*
X215771Y102733D01*
X216572Y103778D01*
X217076Y104994D01*
X217248Y106299D01*
X217076Y107605D01*
X216572Y108821D01*
X215771Y109865D01*
X214726Y110667D01*
X213510Y111170D01*
X212205Y111342D01*
D02*
G37*
%LPD*%
D10*
X174409Y218504D02*
Y317717D01*
Y218504D02*
X207559Y185354D01*
D17*
X212205Y106299D02*
D03*
X224803D02*
D03*
D18*
X160236Y317717D02*
D03*
D19*
X174409D02*
D03*
Y331890D02*
D03*
D20*
X127559Y275354D02*
D03*
Y265354D02*
D03*
Y255354D02*
D03*
Y245354D02*
D03*
Y235354D02*
D03*
Y225354D02*
D03*
Y215354D02*
D03*
Y205354D02*
D03*
Y195354D02*
D03*
Y185354D02*
D03*
Y175354D02*
D03*
Y165354D02*
D03*
X207559Y125354D02*
D03*
Y135354D02*
D03*
Y145354D02*
D03*
Y155354D02*
D03*
Y165354D02*
D03*
Y175354D02*
D03*
Y185354D02*
D03*
Y195354D02*
D03*
Y205354D02*
D03*
Y215354D02*
D03*
Y225354D02*
D03*
Y235354D02*
D03*
Y245354D02*
D03*
Y255354D02*
D03*
Y265354D02*
D03*
Y275453D02*
D03*
M02*
